/* XPM */
static char *magick[] = {
/* columns rows colors chars-per-pixel */
"35 35 256 2",
"   c black",
".  c #000410",
"X  c #101010",
"o  c #000820",
"O  c #000031",
"+  c #181820",
"@  c #182835",
"#  c #291810",
"$  c #310000",
"%  c #313000",
"&  c #202429",
"*  c #232423",
"=  c #392420",
"-  c #313131",
";  c #393a39",
":  c #252939",
">  c #000c41",
",  c #001052",
"<  c #000062",
"1  c #001062",
"2  c #00186a",
"3  c #00204a",
"4  c #00245a",
"5  c #182e4a",
"6  c #003062",
"7  c #003873",
"8  c #393c41",
"9  c #393c4a",
"0  c #23334a",
"q  c #313062",
"w  c #293a62",
"e  c #31405a",
"r  c #394656",
"t  c #20405a",
"y  c #314a75",
"u  c #34537a",
"i  c #29466d",
"p  c #413420",
"a  c #412c39",
"s  c #524000",
"d  c #524031",
"f  c #735008",
"g  c #6a4431",
"h  c #626131",
"j  c #7b6d31",
"k  c #737d39",
"l  c #70742e",
"z  c #526129",
"x  c #4a4c4a",
"c  c #414341",
"v  c #415d4a",
"b  c #4a504a",
"n  c #4a5552",
"m  c #525152",
"M  c #5a5b5a",
"N  c #555466",
"B  c #495872",
"V  c #52694a",
"C  c #56677b",
"Z  c #675b57",
"A  c #734852",
"S  c #735541",
"D  c #627141",
"F  c #626462",
"G  c #6a6c6a",
"H  c #6a716a",
"J  c #7b6162",
"K  c #737173",
"L  c #7b7b7b",
"P  c #73757b",
"I  c #00039c",
"U  c #001883",
"Y  c #00188b",
"T  c #001c94",
"R  c #0004a4",
"E  c #0000b4",
"W  c #18348b",
"Q  c #0020a4",
"!  c #0020b4",
"~  c #0028bd",
"^  c #183cb4",
"/  c mediumblue",
"(  c #0000e6",
")  c #000cff",
"_  c #0028cd",
"`  c #002be6",
"'  c #394894",
"]  c #355a8a",
"[  c #365b94",
"{  c #25528b",
"}  c #3955bd",
"|  c #316194",
" . c #39639c",
".. c #376296",
"X. c #396289",
"o. c #3965a4",
"O. c #1844d5",
"+. c #0059ff",
"@. c #1848ee",
"#. c #006de6",
"$. c #415d9c",
"%. c #4159ac",
"&. c #436799",
"*. c #526a8b",
"=. c #416ba4",
"-. c #4a6cac",
";. c #4a71ac",
":. c #4871a4",
">. c #5376a8",
",. c #5275b4",
"<. c #5a7bbd",
"1. c #527cb9",
"2. c #4a75b4",
"3. c #626d9b",
"4. c #6e7b8d",
"5. c #6579a9",
"6. c #4161d5",
"7. c #5269c5",
"8. c #4165ee",
"9. c #5271ee",
"0. c #6265cd",
"q. c #7b8541",
"w. c #0099ff",
"e. c #00b2ff",
"r. c #00beff",
"t. c #00ceff",
"y. c #20caff",
"u. c #5983ba",
"i. c #5284af",
"p. c #708394",
"a. c #6483b9",
"s. c #7a89a4",
"d. c #738cb5",
"f. c #5987c6",
"g. c #6281c5",
"h. c #688bca",
"j. c #7385c5",
"k. c #7796c9",
"l. c #6e94d2",
"z. c #6281ee",
"x. c #738dee",
"c. c #52daff",
"v. c #830000",
"b. c #9c0062",
"n. c #836108",
"m. c #946d00",
"M. c #837935",
"N. c #9c5962",
"B. c #946d4a",
"V. c #94715a",
"C. c #8b616a",
"Z. c #837d7b",
"A. c #ac596a",
"S. c #ac7d5a",
"D. c #945052",
"F. c red",
"G. c #b46d83",
"H. c #838100",
"J. c #948d29",
"K. c #a48100",
"L. c #bd9108",
"P. c #ac9920",
"I. c #bda118",
"U. c #9c9d62",
"Y. c #ac856a",
"T. c #e6ba08",
"R. c #c59162",
"E. c #cd9d62",
"W. c #c59573",
"Q. c #deae7b",
"!. c #cdd42d",
"~. c #ffce00",
"^. c #f5db11",
"/. c #f6d923",
"(. c #ffe231",
"). c #838483",
"_. c #8b8c8b",
"`. c #83898b",
"'. c #949194",
"]. c #9c9d9c",
"[. c #9c949c",
"{. c #908e8d",
"}. c #8897ac",
"|. c #9ca59c",
" X c #94a4b3",
".X c #ac9183",
"XX c #bd8d9c",
"oX c #a49da4",
"OX c #a4a2a4",
"+X c #aca5ac",
"@X c #acadac",
"#X c #acaaa4",
"$X c #a9abba",
"%X c #b4b4b4",
"&X c gray74",
"*X c #bbb8bb",
"=X c #aeb0b4",
"-X c #849acc",
";X c #9c99ff",
":X c #8ba8db",
">X c #96a8c9",
",X c #94acd5",
"<X c #96acdc",
"1X c #91a8cd",
"2X c #94a1ee",
"3X c #98b2e6",
"4X c #a7b7d9",
"5X c #a8b2cc",
"6X c #acb6ee",
"7X c #acbee6",
"8X c #bdc2bd",
"9X c #83f2ff",
"0X c #b9cad9",
"qX c #bdc6f6",
"wX c #b4c6eb",
"eX c #acfaff",
"rX c #c5998b",
"tX c #cd9d9c",
"yX c #d5a59c",
"uX c #deb28b",
"iX c #c5babd",
"pX c #e6ba8b",
"aX c #eeba8b",
"sX c #e6be94",
"dX c #e6beac",
"fX c #c5bec9",
"gX c #cdce9c",
"hX c #c5c2bd",
"jX c #eec694",
"kX c #eec69c",
"lX c #ffce9c",
"zX c #c5c2c5 s background",
"xX c #c5cac5",
"cX c #cdcbcd",
"vX c #c8caca",
"bX c #d5d2d5",
"nX c #dedbde",
"mX c #d8d9dc",
"MX c #d0cfd4",
"NX c #cdd6ee",
"BX c #cdd6e6",
"VX c #d5d6e6",
"CX c #dee2de",
"ZX c #dee2ee",
"AX c #ffcecd",
"SX c #e6dee6",
"DX c #ffffcd",
"FX c #e6e2de",
"GX c #e6e4e6",
"HX c #e6eae6",
"JX c #eeeaee",
"KX c #e6eaee",
"LX c #f6eef6",
"PX c #f6f6ee",
"IX c #f6f5f6",
"UX c #fffeff",
/* pixels */
"zXzXzXzXzXzXzXzXzXzXzXzXzXzXzXzXzXzXzXzXzXzXzXzXzXzXzXzXzXzXzXzXzXzXzX",
"zXzXzXzXzXzXzXzXzXzXzXzXzXzXzXzXzXzXzXzXzXzXzXzXzXzXzXzXzXzXzXzXzXzXzX",
"zXzXzXzXzXzXzXzXzXzXzXzXzXzXzXzXzXzXzXzXzXzXzXzXzXzXzXzXzXzXzXzXzXzXzX",
"zXzXzXzXzXzXzXzXzXzXzXzXzXzXzXzXzXzXzXzXzXzXzXzXzXzXzXzXzXzXzXzXzXzXzX",
"zXzXzXzXzXzXzXzXzXzXzXzXzXzXzXzXzX      zXzXzXzXzXzXzXzXzXzXzXzXzXzXzX",
"zXzXzXzXzXzXzXzXzXzXzXzXzXzXzXzX          zXzXzXzXzXzXzXzXzXzXzXzXzXzX",
"zXzXzXzXzXzXzXzXzXzXzXzXzXzX              zXzXzXzXzXzXzXzXzXzXzXzXzXzX",
"zXzXzXzXzXzXzXzXzXzXzXzXzX                  zXzXzXzXzXzXzXzXzXzXzXzXzX",
"zXzXzXzXzXzXzXzXzXzXzXzX    AX          ].    zXzXzXzXzXzXzXzXzXzXzXzX",
"zXzXzXzXzXzXzXzXzXzXzXzX  AX].                  zXzXzXzXzXzXzXzXzXzXzX",
"zXzXzXzXzXzXzXzXzXzXzX    ].                      zXzXzXzXzXzXzXzXzXzX",
"zXzXzXzXzXzXzXzXzXzXzX                            zXzXzXzXzXzXzXzXzXzX",
"zXzXzXzXzXzXzXzXzXzXzX                            zXzXzXzXzXzXzXzXzXzX",
"zXzXzXzXzXzXzXzXzXzXzXzX                        zXzXzXzXzXzXzXzXzXzXzX",
"zXzXzXzXzXzXzXzXzXzXzXzX                        zXzXzXzXzXzXzXzXzXzXzX",
"zXzXzXzXzXzXzXzXzXzXzXzXzX                    zXzXzXzXzXzXzXzXzXzXzXzX",
"zXzXzXzXzXzXzXzXzXzXzX    AXAXAX].                zXzXzXzXzXzXzXzXzXzX",
"zXzXzXzXzXzXzXzXzXzX                                zXzXzXzXzXzXzXzXzX",
"zXzXzXzXzXzXzXzXzXzXzXzXzX                    zXzXzXzXzXzXzXzXzXzXzXzX",
"zXzXzXzXzXzXzXzXzXzXzXzXzX  ].                zXzXzXzXzXzXzXzXzXzXzXzX",
"zXzXzXzXzXzXzXzXzXzXzXzXzX  AX                zXzXzXzXzXzXzXzXzXzXzXzX",
"zXzXzXzXzXzXzXzXzXzXzXzX    AX].                zXzXzXzXzXzXzXzXzXzXzX",
"zXzXzXzXzXzXzXzXzXzXzXzX    AX].                zXzXzXzXzXzXzXzXzXzXzX",
"zXzXzXzXzXzXzXzXzXzXzXzX    AX                  zXzXzXzXzXzXzXzXzXzXzX",
"zXzXzXzXzXzXzXzXzXzXzX      AX                    zXzXzXzXzXzXzXzXzXzX",
"zXzXzXzXzXzXzXzXzXzX      AX].                      zXzXzXzXzXzXzXzXzX",
"zXzXzXzXzXzXzXzXzX  AXAXAX].                          zXzXzXzXzXzXzXzX",
"zXzXzXzXzXzXzXzX                                        zXzXzXzXzXzXzX",
"zXzXzXzXzXzX    AXAXAXAX                                    zXzXzXzXzX",
"zXzXzXzXzX                                                    zXzXzXzX",
"zXzXzXzXzX  AXAXAXAX].                                        zXzXzXzX",
"zXzXzXzXzX                                                    zXzXzXzX",
"zXzXzXzXzX                                                    zXzXzXzX",
"zXzXzXzXzXzXzXzXzXzXzXzXzXzXzXzXzXzXzXzXzXzXzXzXzXzXzXzXzXzXzXzXzXzXzX",
"zXzXzXzXzXzXzXzXzXzXzXzXzXzXzXzXzXzXzXzXzXzXzXzXzXzXzXzXzXzXzXzXzXzXzX",
};
