/* XPM */
static char *magick[] = {
/* columns rows colors chars-per-pixel */
"35 35 128 2",
"   c black",
".  c #070808",
"X  c gray4",
"o  c #0b1010",
"O  c gray7",
"+  c #161919",
"@  c #1b1c1c",
"#  c #261d1e",
"$  c #211e20",
"%  c #232323",
"&  c #272b2a",
"*  c #282222",
"=  c #2c2d2d",
"-  c #362223",
";  c #302e2e",
":  c #323232",
">  c #373a3a",
",  c #393333",
"<  c #383738",
"1  c #3c3a3a",
"2  c #433a3a",
"3  c #493d3d",
"4  c #464041",
"5  c #414f48",
"6  c #4c4342",
"7  c #484748",
"8  c gray30",
"9  c #555455",
"0  c #5f5353",
"q  c #624849",
"w  c #635151",
"e  c #6e5657",
"r  c #6d5859",
"t  c #735b5c",
"y  c #795b5c",
"u  c #785f60",
"i  c #6b6b6d",
"p  c #7c6162",
"a  c #7c6769",
"s  c #7d6d6e",
"d  c #747274",
"f  c #7c7272",
"g  c #797779",
"h  c #7f7d7f",
"j  c #816465",
"k  c #836768",
"l  c #85696a",
"z  c #8e6b6c",
"x  c #837070",
"c  c #817c7c",
"v  c #8a7173",
"b  c #937171",
"n  c #9f7e7e",
"m  c #a07e7f",
"M  c #817e80",
"N  c #838484",
"B  c #868688",
"V  c #848888",
"C  c #898282",
"Z  c #8e8b8d",
"A  c #8f9194",
"S  c #918e91",
"D  c #949194",
"F  c #989598",
"G  c #9d9d9e",
"H  c #a58485",
"J  c #a39193",
"K  c #a49899",
"L  c #b79393",
"P  c #a6a5a5",
"I  c #aca5a7",
"U  c #b4adac",
"Y  c #b9b0af",
"T  c #b6b3b6",
"R  c #bcb4b3",
"E  c #bdb7ba",
"W  c #bbb9bc",
"Q  c #bdc2bd",
"!  c #ce9c9d",
"~  c #c7b7b6",
"^  c #cfbbb9",
"/  c #d5a8a8",
"(  c #d5bebd",
")  c #e7bab9",
"_  c #eebebe",
"`  c #c5c2c5",
"'  c #c5c9c5",
"]  c #cbc7ca",
"[  c #cecbce",
"{  c #d0cdd0",
"zX c #d4d1d4 s background",
"|  c #d7d4d8",
" . c #d8d5d8",
".. c #dddadd",
"X. c #dfdee1",
"o. c #edc7c6",
"O. c #f2c3c2",
"+. c #f8c8c7",
"@. c #fdcdcc",
"#. c #ffd0cf",
"$. c #f4dfd9",
"%. c #ffd3d2",
"&. c #ffd8d7",
"*. c #ffdcda",
"=. c #e1dee1",
"-. c #e6e3e6",
";. c #e9e6e9",
":. c #ede9ed",
">. c black",
",. c black",
"<. c black",
"1. c black",
"2. c black",
"3. c black",
"4. c black",
"5. c black",
"6. c black",
"7. c black",
"8. c black",
"9. c black",
"0. c black",
"q. c black",
"w. c black",
"e. c black",
"r. c black",
"t. c black",
"y. c black",
"u. c black",
/* pixels */
"zXzXzXzXzXzXzXzXzXzXzXzXzXzXzXzXzXzXzXzXzXzXzXzXzXzXzXzXzXzXzXzXzXzXzX",
"zXzXzXzXzXzXzXzXzXzXzXzXzXzXzXzXzXzXzXzXzXzXzXzXzXzXzXzXzXzXzXzXzXzXzX",
"zXzXzXzXzXzXzXzXzXzXzXzXzXzXzXs ! $.5 $ zXzXzXzXzXzXzXzXzXzXzXzXzXzXzX",
"zXzXzXzXzXzXzXzXzXzXzXzXzXp _ %.@.^ C t %   ` zXzXzXzXzXzXzXzXzXzXzXzX",
"zXzXzXzXzXzXzXzXzXzXzXzX` : V o.*.L t w     ` zXzXzXzXzXzXzXzXzXzXzXzX",
"zXzXzXzXzXzXzXzXzXzXzXzXzXzXzXv C K - % zXzXzXzXzXzXzXzXzXzXzXzXzXzXzX",
"zXzXzXzXzXzXzXzXzXzXzXzXzXzXzXv C K - % zXzXzXzXzXzXzXzXzXzXzXzXzXzXzX",
"zXzXzXzXzXzXzXzXzXzXzXE p @.%.U f p w & : ; & T zXzXzXzXzXzXzXzXzXzXzX",
"zXzXzXzXzXzXzXzXJ q H &.@.@.P l 3 = : ; : : : ; < @ d zXzXzXzXzXzXzXzX",
"zXzXzXE = t O.%.@.( B y p p p u p p p p u p p 1 & : ; : , &   T zXzXzX",
"zXzXzXzXzX.                                               X zXzXzXzXzX",
"zXzXzXzXzXzX7 % < ; ; : : ; <   % @                     @ zXzXzXzXzXzX",
"zXzXzXzXzXzXzXzXi 2 t & : : ; < O               .   9 zXzXzXzXzXzXzXzX",
"zXzXzXzXzXzXzXzXzXN , p & : : = < +           .   d zXzXzXzXzXzXzXzXzX",
"zXzXzXzXzXzXzXzXzXZ + 3 y : ; > X O 1 %       .   d zXzXzXzXzXzXzXzXzX",
"zXzXzXzXzXzXzXzXzXzXG ; p : = : < O O &         D zXzXzXzXzXzXzXzXzXzX",
"zXzXzXzXzXzXzXzXzXzXG & k p < = , ; < %     .   D zXzXzXzXzXzXzXzXzXzX",
"zXzXzXzXzXzXzXzXzXN > R @.@.%.m 1 & : : : :   =   i zXzXzXzXzXzXzXzXzX",
"zXzXzXzXzXzXzX<     # l u p k 1 : + O &   : .   & #   < zXzXzXzXzXzXzX",
"zXzXzXzXzXzXzXzXzXzXK & k p , : X + %           D zXzXzXzXzXzXzXzXzXzX",
"zXzXzXzXzXzXzXzXzXzXA 6 %.p < .             .   D zXzXzXzXzXzXzXzXzXzX",
"zXzXzXzXzXzXzXzXzXzXA 6 %.p : : O               S zXzXzXzXzXzXzXzXzXzX",
"zXzXzXzXzXzXzXzXzXzXP z %.G < ; O               S zXzXzXzXzXzXzXzXzXzX",
"zXzXzXzXzXzXzXzXzXZ o 0 &.G 1 .                 o S zXzXzXzXzXzXzXzXzX",
"zXzXzXzXzXzXzXzXzXB * H @.p , = < +           .   d zXzXzXzXzXzXzXzXzX",
"zXzXzXzXzXzXzXzXd + 2 m +.p < .                 .   9 zXzXzXzXzXzXzXzX",
"zXzXzXzXzXzXzXzXJ q H *.+.p < & : < @           .   9 zXzXzXzXzXzXzXzX",
"zXzXzXzXzX .a / &.+.%.) r p p 2 & , : : &   ; X   % %   8 zXzXzXzXzXzX",
"zXzXzXzXzX< & , : : : : : :   & +                         . zXzXzXzXzX",
"zXzXP * k +.%.@.~ c y p u : = : : = < %   = .           . : <   F zXzX",
"zXh   .     = O                                               :   g zX",
"zXK b &.@.@.@.Y f y k r = = : : : = < %   :   * O             .   c zX",
"zXD @ < : : : : : = : : : : : < X + % X =   : . % +               h zX",
"zXg   :   = : : : : = : =     % 1 O X =                       .   h zX",
"zXzXzXzXzXzXzXzXzXzXzXzXzXzXzXzXzXzXzXzXzXzXzXzXzXzXzXzXzXzXzXzXzXzXzX",
};
