/* XPM */
/* This file was automatically generated from the file ../BU_SL32.V56
using the program ``zic2xpm''.

    NOTICE: The piece images distributed with ZIICS are
        copyrighted works of their original creators.  Images
        converted with zic2xpm may not be redistributed without
        the permission of the copyright holders.  Do not contact
        the authors of zic2xpm or of ZIICS itself to request
        permission. */
static char * image_name[] = {
"56 56 4 1",
"X	c white s light_piece",
" 	c black s dark_piece",
"*	c gray s light_square",
".	c green s dark_square",
".**...**...**...**...**...**...**...**...**...**...**...",
"**...**...**...**...**...**...**...**...**...**...**...*",
"*...**...**...**...**...**...**...**...**...**...**...**",
"...**...**...**...**...**...**...**...**...**...**...**.",
"..**...**...**...**...**...**...**...**...**...**...**..",
".**...**...**...**...**...**...**...**...**...**...**...",
"**...**...**...**...**...**...**...**...**...**...**...*",
"*...**...**...**...**...**...**...**...**...**...**...**",
"...**...**...**...**...           *...**...**...**...**.",
"..**...**...**...**...*           ...**...**...**...**..",
".**...**...**...**...**    XXX    ..**...**...**...**...",
"**...**...**...**...**.    XXX    .**...**...**...**...*",
"*...**...**...**...**..    XXX    **...**...**...**...**",
"...**...**..       *... XXXXXXXXX *...       ...**...**.",
"..**...**.              XXXXXXXXX              **...**..",
".**...**      XX           XXX           XX     ...**...",
"**...**.    XXXXXX         XXX         XXXXXX    .**...*",
"*...**.   XXXX  XXXXX      XXX       XXXX  XXX    *...**",
"...**.   XXX       XXX              XX      XXX   ...**.",
"..**..   XX         XX             XX        XXX   .**..",
".**...  XXX          XX           XXX         XXX  **...",
"**...  XXX            XX         XX            XX   ...*",
"*...*  XXX             X         XX            XXX  ..**",
"...**  XX              X         X              XX  .**.",
"..**.  XX              XX       XX              XX  **..",
".**..  XX               XX     XX               XX  *...",
"**...  XX               XX     XX               XX  ...*",
"*...*  XXX              XX     XX              XX   ..**",
"...**  XXX               XX   XX              XXX   .**.",
"..**.   XXX               X   X               XX   .**..",
".**...   XXXX             X   X              XXX   **...",
"**...*    XXXX            X   X            XXXX   **...*",
"*...**.     XXXX          X   X           XXX     *...**",
"...**...      XXX        XX   XX        XXXX     *...**.",
"..**...**      XXXX    XXXXXXXXXXX    XXXXX    **...**..",
".**...**...*    XXXXXXXX         XXXXXXXX    .**...**...",
"**...**...**.   XXX                   XXX   .**...**...*",
"*...**...**..   XXX                   XXX   **...**...**",
"...**...**...              XXX              *...**...**.",
"..**...**...*              XXX              ...**...**..",
".**...**...**    X         XXX         X    ..**...**...",
"**...**...**.   XX                     XX   .**...**...*",
"*...**...**..    X                     X    **...**...**",
"...**...**...       XXXXXXXXXXXXXXXXX       *...**...**.",
"..**...**...*       XXXXXXXXXXXXXXXXX       ...**...**..",
".**...**...**   XXXXXX              XXXXX   ..**...**...",
"**...**...**..                             ..**...**...*",
"*...**...**...*                           ..**...**...**",
"...**...**...**.                         ..**...**...**.",
"..**...**...**...**                   *...**...**...**..",
".**...**...**...**...*             .**...**...**...**...",
"**...**...**...**...**.           .**...**...**...**...*",
"*...**...**...**...**...**...**...**...**...**...**...**",
"...**...**...**...**...**...**...**...**...**...**...**.",
"..**...**...**...**...**...**...**...**...**...**...**..",
".**...**...**...**...**...**...**...**...**...**...**...",
};
