/* XPM */
/* This file was automatically generated from the file ../BU_SL32.V56
using the program ``zic2xpm''.

    NOTICE: The piece images distributed with ZIICS are
        copyrighted works of their original creators.  Images
        converted with zic2xpm may not be redistributed without
        the permission of the copyright holders.  Do not contact
        the authors of zic2xpm or of ZIICS itself to request
        permission. */
static char * image_name[] = {
"56 56 4 1",
"X	c white s light_piece",
" 	c black s dark_piece",
"*	c gray s light_square",
".	c green s dark_square",
"********************************************************",
"********************************************************",
"********************************************************",
"********************************************************",
"********************************************************",
"********************************************************",
"********************************************************",
"********************************************************",
"***********************           **********************",
"***********************           **********************",
"***********************           **********************",
"***********************   XX XX   **********************",
"*************    ******   XX XX   ******    ************",
"************       ****           *****      ***********",
"**********            *   XX XX   **           *********",
"*********    XXXX         XX XX         XXXX     *******",
"********   XXXXXXXX                   XXXXXXXX    ******",
"********  XXXXXXXXXX                 XXXXXXXXXX   ******",
"*******   XXXXXXXXXXXX              XXXXXXXXXXXX   *****",
"******   XXXXXXXXXXXXXX   XXXXX   XXXXXXXXXXXXXX   *****",
"******  XXXXXXXXXXXXXXX   XXXXX   XXXXXXXXXXXXXXX  *****",
"*****   XXXXXXXXXXXXXXX   XXXXX   XXXXXXXXXXXXXXX   ****",
"*****  XXXXXXXXXXXXXXXXX   XXX   XXXXXXXXXXXXXXXXX  ****",
"*****  XXXXXXXXXXXXXXXXX   XXX   XXXXXXXXXXXXXXXXX  ****",
"*****  XXXXXXXXXXXXXXXXXX   X   XXXXXXXXXXXXXXXXXX  ****",
"*****  XXXXXXXXXXXXXXXXXX       XXXXXXXXXXXXXXXXXX  ****",
"*****  XXXXXXXXXXXXXXXXXXX     XXXXXXXXXXXXXXXXXXX  ****",
"*****   XXXXXXXXXXXXXXXXXX     XXXXXXXXXXXXXXXXXXX  ****",
"*****   XXXXXXXXXXXXXXXXXXX   XXXXXXXXXXXXXXXXXXX   ****",
"******   XXXXXXXXXXXXXXXXXX   XXXXXXXXXXXXXXXXXX   *****",
"******   XXXXXXXXXXXXXXXXXX   XXXXXXXXXXXXXXXXXX   *****",
"*******   XXXXXXXXXXXXXXXXX   XXXXXXXXXXXXXXXXX   ******",
"********    XXXXXXXXXXX           XXXXXXXXXXXX   *******",
"*********     XXXXXXX                XXXXXXX    ********",
"**********     XXX                      XXX    *********",
"************            XXXXXXXXX            ***********",
"*************      XXXXXXXXXXXXXXXXXXX      ************",
"*************   XXXXXXXXXXX   XXXXXXXXXXX   ************",
"*************   XXXXXXXXXXX   XXXXXXXXXXX   ************",
"*************  XX XXXXXXXXX   XXXXXXXXX XX  ************",
"*************  XX XXXXXXXXXXXXXXXXXXXXX XX  ************",
"*************  XX XXXXXXXXXXXXXXXXXXXXX XX  ************",
"*************  XXXXXXXX           XXXXXXXX  ************",
"*************   XXX                   XXX   ************",
"*************           XXXXXXXXX           ************",
"**************        XXXXXXXXXXXXX        *************",
"***************     XXXXXXXXXXXXXXXXX     **************",
"****************      XXXXXXXXXXXXX      ***************",
"*****************       XXXXXXXXX       ****************",
"*******************                   ******************",
"***********************           **********************",
"********************************************************",
"********************************************************",
"********************************************************",
"********************************************************",
"********************************************************",
};
