/* XPM */
/* This file was automatically generated from the file ../SLASH.V50
using the program ``zic2xpm''.

    NOTICE: The piece images distributed with ZIICS are
        copyrighted works of their original creators.  Images
        converted with zic2xpm may not be redistributed without
        the permission of the copyright holders.  Do not contact
        the authors of zic2xpm or of ZIICS itself to request
        permission. */
static char * image_name[] = {
"50 50 4 1",
"X	c white s light_piece",
" 	c black s dark_piece",
"*	c gray s light_square",
".	c green s dark_square",
"**************************************************",
"***************************XX***XXX***************",
"***************************XX***XXX***************",
"***************************XX***XXX***************",
"****************************X**XXXX***************",
"*************************XXXX**X XX***************",
"************************XXXXXXXX XXX**************",
"************************XXXXXXXX XXX**************",
"************************XXXXXXXX   X**************",
"***********************XXXXXXXXXX   X*************",
"*********************XXXXXX  XXXX   X*************",
"*********************XXXXXX  XXXX   X*************",
"*********************XXXXXX  XXXXXX X*************",
"********************XXXX        XXX  XX***********",
"********************XXXX        XXXX XX***********",
"********************XXXX        XXXX XX***********",
"********************XXXXXXX  XXXXXXX XX***********",
"*******************XXXXXXXX  XXXXXXXXXX***********",
"*******************XXXXXXXX  XXXXXXXX*************",
"*******************XXXXXXXX  XXXXXXXX*************",
"*******************XXXXXXXXXXXXXXXXXX*************",
"*******************XXXXXXXXXXXXXXXXXX*************",
"*******************XXXXXXXXXXXXXXXXXX*************",
"*******************XXXXXXXXXXXXXXXXXX*************",
"*******************XXXXXXXXXXXXXXXXX**************",
"*******************XXXXXXXXXXXXXXXXX**************",
"********************XXXXXXXXXXXXXXXX**************",
"********************XXXXXXXXXXXXXXXX**************",
"********************XXXXXXXXXXXXXXX***************",
"*********************XXXXXXXXXXXXXX***************",
"*********************XX          XX***************",
"*********************XX          XX***************",
"*********************XX          XX***************",
"***********************XXXXXXXXXX*****************",
"************************X    XX*******************",
"************************X    XX*******************",
"*********************XXXXXXXXXXXXXX***************",
"*********************XXX        XXX***************",
"*********************XXX        XXX***************",
"*********************XXX        XXX***************",
"*********************XXXXXXXXXXXXXX***************",
"***************************XX*********************",
"*************************XXXXXX*******************",
"*************************XXXXXX*******************",
"************************XXXXXXXX******************",
"************XXXXXXXX***XXXX*XXXXX***XXXXXXXX******",
"*********XXXXXXXXXXXXXXXXXX**XXXXXXXXXXXXXXXXXX***",
"*********XXXXXXXXXXXXXXXXXX**XXXXXXXXXXXXXXXXXX***",
"*********XXXX******XXXXX*******XXXXXX******XXXX***",
"*********XX**********************************XX***",
};
