/* XPM */
/* This file was automatically generated from the file ../SLASH.V40
using the program ``zic2xpm''.

    NOTICE: The piece images distributed with ZIICS are
        copyrighted works of their original creators.  Images
        converted with zic2xpm may not be redistributed without
        the permission of the copyright holders.  Do not contact
        the authors of zic2xpm or of ZIICS itself to request
        permission. */
static char * image_name[] = {
"40 40 4 1",
"X	c white s light_piece",
" 	c black s dark_piece",
"*	c gray s light_square",
".	c green s dark_square",
"****************************************",
"******************** *******************",
"*******************   ******************",
"******************** *******************",
"******************     *****************",
"****************** XXX *****************",
"*****       ****** X X *****        ****",
"***          ***** X X ***           ***",
"***    XXXX    *** X X **     XXXX   ***",
"**    X    X    ** XXX **   XX    X   **",
"**   X      X    *    **   X       X  **",
"**  X        X   **   *   X        X  **",
"*   X         X           X    XX  X   *",
"*   X  XX     X     X    X  X  XX  X   *",
"*   X  XX  X   X   XX   X    X XX  X   *",
"*   X    X X   X        X    XX    X   *",
"*   X    X X    X      X     XXXX  X   *",
"**  X  XXXXX    X      X     XX    X  **",
"**  X    XXX    X  XX  X     XX    X  **",
"**  X      X     X  X  X    XX    X   **",
"**   X     X     X    X     X     X   **",
"***  X      X    X    X     X     X  ***",
"***   X     X     X   X    X      X  ***",
"***   X     X     X X X    X     X   ***",
"****   X     X    X X X   X      X  ****",
"*****  X     X    X   X         X  *****",
"*****   X         X   X        X   *****",
"******   XXXXXXXXXX   XXXXXXXXX   ******",
"*******                          *******",
"********                        ********",
"*********  XXXXXXXXXXXXXXXXXX  *********",
"********* X                  X *********",
"********* X       XXXXX      X *********",
"********* X                  X *********",
"********* XXXXXXXXXXXXXXXXXXXX *********",
"*********                      *********",
"****************************************",
"****************************************",
"****************************************",
"****************************************",
};
