/* XPM */
/* This file was automatically generated from the file ../SLASH.V56
using the program ``zic2xpm''.

    NOTICE: The piece images distributed with ZIICS are
        copyrighted works of their original creators.  Images
        converted with zic2xpm may not be redistributed without
        the permission of the copyright holders.  Do not contact
        the authors of zic2xpm or of ZIICS itself to request
        permission. */
static char * image_name[] = {
"56 56 4 1",
"X	c white s light_piece",
" 	c black s dark_piece",
"*	c gray s light_square",
".	c green s dark_square",
"********************************************************",
"**************************XXXXXX************************",
"*************************XXXXXXXX***********************",
"*************************XXXXXXXX***********************",
"*************************XXXXXXXX***********************",
"*************************XXXXXXXX***********************",
"*************************XXXXXXXX***********************",
"*************************XXXXXXXX***********************",
"*************************XXXXXXXX***********************",
"**************************XXXXXX************************",
"**************************XXXXXX************************",
"***********************XXXXXXXXXXXX*********************",
"*********************XXXXXXXXXXXXXXXX*******************",
"*********************XXXXXXXXXXXXXXXX*******************",
"***********************XXXXXXXXXXXX*********************",
"*************************XXXXXXXX***********************",
"*************************XXXXXXXX***********************",
"*************************XXXXXXXX***********************",
"***********************XXXXXXXXXXXX*********************",
"***********************XXXXXXXXXXXX*********************",
"***********************XXXXXXXXXXXX*********************",
"***********************XXXXXXXXXXXX*********************",
"**********************XXXXXXXXXXXXXX********************",
"*********************XXXXXXXXXXXXXXXX*******************",
"*********************XXXXXXXXXXXXXXXX*******************",
"*********************XXXXXXXXXXXXXXXX*******************",
"*******************XXXXXXXXXXXXXXXXXXXX*****************",
"*******************XXXXXXXXXXXXXXXXXXXX*****************",
"*******************XXXXXXXXXXXXXXXXXXXX*****************",
"*******************XXXXXXXXXXXXXXXXXXXX*****************",
"*******************XXXXXXXXXXXXXXXXXXXX*****************",
"*******************XXXXXXXXXXXXXXXXXXXX*****************",
"*******************XXXXXXXXXXXXXXXXXXXX*****************",
"*******************XXXXXXXXXXXXXXXXXXXX*****************",
"*******************XXXXXXXXXXXXXXXXXXXX*****************",
"*******************XXXXXXXXXXXXXXXXXXXX*****************",
"*********************XXXXXXXXXXXXXXXX*******************",
"*********************XXXXXXXXXXXXXXXX*******************",
"*********************XXXXXXXXXXXXXXXX*******************",
"*********************XXXXXXXXXXXXXXXX*******************",
"**********************XXXXXXXXXXXXXX********************",
"**********************XXXXXXXXXXXXXX********************",
"***********************XXXXXXXXXXXX*********************",
"***********************XXXXXXXXXXXX*********************",
"*******************XXXXXXXXXXXXXXXXXXXX*****************",
"*******************XXXXXXXXXXXXXXXXXXXX*****************",
"***************XXXXXXXXXXXXXXXXXXXXXXXXXXXX*************",
"**************XXXXXXXXXXXXXXXXXXXXXXXXXXXXXX************",
"**************XXXXXXXXXXXXXXXXXXXXXXXXXXXXXX************",
"************XXXXXXXXXXXXXXXXXXXXXXXXXXXXXXXXXX**********",
"***********XXXXXXXXXXXXXXXXXXXXXXXXXXXXXXXXXXXX*********",
"***********XXXXXXXXXXXXXXXXXXXXXXXXXXXXXXXXXXXX*********",
"***********XXXXXXXXXXXXXXXXXXXXXXXXXXXXXXXXXXXX*********",
"***********XXXXXXXXXXXXXXXXXXXXXXXXXXXXXXXXXXXX*********",
"********************************************************",
"********************************************************",
};
