/* XPM */
/* This file was automatically generated from the file ../SLASH.V40
using the program ``zic2xpm''.

    NOTICE: The piece images distributed with ZIICS are
        copyrighted works of their original creators.  Images
        converted with zic2xpm may not be redistributed without
        the permission of the copyright holders.  Do not contact
        the authors of zic2xpm or of ZIICS itself to request
        permission. */
static char * image_name[] = {
"40 40 4 1",
"X	c white s light_piece",
" 	c black s dark_piece",
"*	c gray s light_square",
".	c green s dark_square",
"*....*....*....*....*....*....*....*....",
"....*....*....*....*....*....*....*....*",
"...*....*....*....*XX..*....*....*....*.",
"..*....*....*....*.XX.*....*....*....*..",
".*....*....*....*...X*....*....*....*...",
"*....*....XX...*...X*....*..XX*....*....",
"....*....*XX..*....XX...*...XX....*....*",
"...*....*..X.*....*XX..*....X....*....*.",
"..*....*...X*....*.XX.*....*X...*....*..",
".*....*....X....*..XX*....*.X..*....*...",
"*....*....*XX..*...XX....*.XX.*....*....",
".XX.*....*.XX.*....XX...*..XX*....*....*",
".XX*....*..XX*....*XX..*...XX....*..XX*.",
"..X....*...XXX...*.XX.*...XXX...*...XX..",
".*.X..*....XXX..*.XXXX....XXX..*....X...",
"*..X.*....*XXX.*..XXXX...*XXX.*....X....",
"...XX....*.XXX*...XXXX..*.XXX*....*X...*",
"...XXX..*..XXXX...XXXX.*.XXXX....*XX..*.",
"..*.XX.*...XXXX..*XXXX*..XXXX...*XXX.*..",
".*..XXX....XXXX.*.XXXX...XXXX..*.XXX*...",
"*...XXXX..*XXXXX..XXXX..XXXXX.*.XXXX....",
"....XXXX.*.XXXXX..XXXX..XXXXX*..XXXX...*",
"...*XXXXX..XXXXX..XXXX.*XXXXX..XXXXX..*.",
"..*.XXXXXX.XXXXXXXXXXXXXXXXXX.XXXXX..*..",
".*...XXXXX.XXXXXXXXXXXXXXXXXX.XXXXX.*...",
"*....XXXXXXXXXXXXXXXXXXXXXXXXXXXXXX*....",
"....*XXXXXXXXXXXXXXXXXXXXXXXXXXXXXX....*",
"...*.XXXXXXXXXXXXXXXXXXXXXXXXXXXXXX...*.",
"..*..XXXXXXXXXXXX      XXXXXXXXXXXX..*..",
".*....XXX        XXXXXX        XXX..*...",
"*....*XX XXXXXXXXX    XXXXXXXXX XX.*....",
"....*..X    XXXXXXX  XXXXXXX    X.*....*",
"...*...XX  XXXXXX      XXXXXX  XX*....*.",
"..*....*X        XXXXXX        X*....*..",
".*....*.XXXXXXXXXXXXXXXXXXXXXXXX....*...",
"*....*.XXXXXXXXXXXXXXXXXXXXXXXXXX..*....",
"....*..XXXXXXXXXXXXXXXXXXXXXXXXXX.*....*",
"...*....*....*....*....*....*....*....*.",
"..*....*....*....*....*....*....*....*..",
".*....*....*....*....*....*....*....*...",
};
