/* XPM */
/* This file was automatically generated from the file ../SLASH.V50
using the program ``zic2xpm''.

    NOTICE: The piece images distributed with ZIICS are
        copyrighted works of their original creators.  Images
        converted with zic2xpm may not be redistributed without
        the permission of the copyright holders.  Do not contact
        the authors of zic2xpm or of ZIICS itself to request
        permission. */
static char * image_name[] = {
"50 50 4 1",
"X	c white s light_piece",
" 	c black s dark_piece",
"*	c gray s light_square",
".	c green s dark_square",
"**************************************************",
"************************XXXXXXXX******************",
"*********XXXXXXX********XXXXXXXX*******XXXXXX*****",
"*********XXXXXXX********XXXXXXXX*******XXXXXX*****",
"*********XXXXXXX********XXXXXXXX*******XXXXXX*****",
"*********XXXXXXX********XXXXXXXX*******XXXXXX*****",
"*********XXXXXXXXXXXXXXXXXXXXXXXXXXXXXXXXXXXX*****",
"*********XXXXXXXXXXXXXXXXXXXXXXXXXXXXXXXXXXXX*****",
"*********XX                                 X*****",
"*********XXXXXXXXXXXX  XXXXXXXXX XXXXXXXXXXXX*****",
"***************XXXXXX  XXXXXXXXX XXXXXXXX*********",
"***************XXXXXX  XXXXXXXXX XXXXXXXX*********",
"***************XXXXXX  XXXXXXXXX XXXXXXXX*********",
"***************XXXXXX  XXXXXXXXX XXXXXXXX*********",
"***************XXXXXX  XXXXXXXXX XXXXXXXX*********",
"***************XXXXXX  XXXXXXXXX XXXXXXXX*********",
"***************XXXXXX  XXXXXXXXX XXXXXXXX*********",
"***************X                        X*********",
"***************XXXXXXXXXXXX XXXXXXXXXXXXX*********",
"***************XXXXXXXXXXXX XXXXXXXXXXXXX*********",
"***************XXXXXXXXXXXX XXXXXXXXXXXXX*********",
"***************XXXXXXXXXXXX XXXXXXXXXXXXX*********",
"***************XXXXXXXXXXXX XXXXXXXXXXXXX*********",
"***************XXXXXXXXXXXX XXXXXXXXXXXXX*********",
"***************XXXXXXXXXXXX XXXXXXXXXXXXX*********",
"***************X                        X*********",
"***************XXXXXX  XXXXXXXXX XXXXXXXX*********",
"***************XXXXXX  XXXXXXXXX XXXXXXXX*********",
"***************XXXXXX  XXXXXXXXX XXXXXXXX*********",
"***************XXXXXX  XXXXXXXXX XXXXXXXX*********",
"***************XXXXXX  XXXXXXXXX XXXXXXXX*********",
"***************XXXXXX  XXXXXXXXX XXXXXXXX*********",
"***************XXXXXX  XXXXXXXXX XXXXXXXX*********",
"***************X                        X*********",
"***************XXXXXXXXXXXX XXXXXXXXXXXXX*********",
"***************XXXXXXXXXXXX XXXXXXXXXXXXX*********",
"***************XXXXXXXXXXXX XXXXXXXXXXXXX*********",
"***************XXXXXXXXXXXX XXXXXXXXXXXXX*********",
"***************XXXXXXXXXXXX XXXXXXXXXXXXX*********",
"***************XXXXXXXXXXXX XXXXXXXXXXXXX*********",
"***************XXXXXXXXXXXX XXXXXXXXXXXXX*********",
"***************XXXXXXXXXXXX XXXXXXXXXXXXX*********",
"***************X                        X*********",
"***************X                        X*********",
"************XXX                          XXX******",
"************X                              X******",
"***********XXXXXXXXXXXXXXXXXXXXXXXXXXXXXXXXXX*****",
"***********XXXXXXXXXXXXXXXXXXXXXXXXXXXXXXXXXX*****",
"*********XX**********************************XX***",
"*********XX**********************************XX***",
};
