/* XPM */
/* This file was automatically generated from the file ../CHASST2.V56
using the program ``zic2xpm''.

    NOTICE: The piece images distributed with ZIICS are
        copyrighted works of their original creators.  Images
        converted with zic2xpm may not be redistributed without
        the permission of the copyright holders.  Do not contact
        the authors of zic2xpm or of ZIICS itself to request
        permission. */
static char * image_name[] = {
"56 56 4 1",
"X	c white s light_piece",
" 	c black s dark_piece",
"*	c gray s light_square",
".	c green s dark_square",
"........................................................",
"........................................................",
"........................................................",
"........................................................",
"........................................................",
"........................................................",
".........................   ............................",
"........................ XXX ...........................",
"....................... XXXXX ..........................",
"...................... XXXXXXX .........................",
"...................... XXXXXXX .........................",
"....................... XXXXX ..........................",
"........................ XXX ...........................",
"........................     ...........................",
"......................  XXXXX  .........................",
"..................... XXXXXXXXX ........................",
"...................  XXXXXXXXXXX  ......................",
".................. XXXXXXXXXXXXXXX .....................",
"................. XXXXXXXX XXXXXXXX ....................",
"................ XXXXXXXXX XXXXXXXXX ...................",
"............... XXXXXXXXXX XXXXXXXXXX ..................",
"............... XXXXXXXXXX XXXXXXXXXX ..................",
".............. XXXXXXX         XXXXXXX .................",
".............. XXXXXXXXXXX XXXXXXXXXXX .................",
".............. XXXXXXXXXXX XXXXXXXXXXX .................",
".............. XXXXXXXXXXX XXXXXXXXXXX .................",
".............. XXXXXXXXXXX XXXXXXXXXXX .................",
".............. XXXXXXXXXXXXXXXXXXXXXXX .................",
"............... XXXXXXXXXXXXXXXXXXXXX ..................",
"............... XXXXXXXX     XXXXXXXX ..................",
"................ XXXXX  XXXXX  XXXXX ...................",
"................. XX  XXXXXXXXX  XX ....................",
"..................  XXXXXXXXXXXXX  .....................",
".................. XXXXXXXXXXXXXXX .....................",
"................... XXXXXXXXXXXXX ......................",
"................... XXXXXXXXXXXXX ......................",
"................... XXXXXXXXXXXXX ......................",
"..................                 .....................",
"................. XXXXXXXXXXXXXXXXX ....................",
"................ XXXXXXXXXXXXXXXXXXX ...................",
"............... XXXXXXXXXXXXXXXXXXXXX ..................",
"..............                         .................",
"..................... XXXX XXXX ........................",
"...................  XXXXX XXXXX  ......................",
"...........        XXXXXXX XXXXXXX        ..............",
"........   XXXXXXXXXXXXXXX XXXXXXXXXXXXXXX   ...........",
"....... XXXXXXXXXXXXXXXXX . XXXXXXXXXXXXXXXXX ..........",
"...... XXXXXXXXXXXXXXXXX ... XXXXXXXXXXXXXXXXX .........",
"...... XXXXXXXXXXXXXXX  .....  XXXXXXXXXXXXXXX .........",
"....... XXXXX         .........         XXXXX ..........",
"........     ...........................     ...........",
"........................................................",
"........................................................",
"........................................................",
"........................................................",
"........................................................",
};
