/* XPM */
/* This file was automatically generated from the file ../CHASST2.V48
using the program ``zic2xpm''.

    NOTICE: The piece images distributed with ZIICS are
        copyrighted works of their original creators.  Images
        converted with zic2xpm may not be redistributed without
        the permission of the copyright holders.  Do not contact
        the authors of zic2xpm or of ZIICS itself to request
        permission. */
static char * image_name[] = {
"48 48 4 1",
"X	c white s light_piece",
" 	c black s dark_piece",
"*	c gray s light_square",
".	c green s dark_square",
"************************************************",
"************************************************",
"************************************************",
"************************************************",
"************************************************",
"**********************   ***********************",
"********************* XXX **********************",
"******************** XXXXX *********************",
"******************** XXXXX *********************",
"******************** XXXXX *********************",
"********************* XXX **********************",
"**********************   ***********************",
"*******************   XXX   ********************",
"****************** XXXXXXXXX *******************",
"***************** XXXXXXXXXXX ******************",
"**************** XXXXXX XXXXXX *****************",
"*************** XXXXXXX XXXXXXX ****************",
"************** XXXXXXXX XXXXXXXX ***************",
"************* XXXXXXXXX XXXXXXXXX **************",
"************* XXXXX         XXXXX **************",
"************ XXXXXXXXXX XXXXXXXXXX *************",
"************ XXXXXXXXXX XXXXXXXXXX *************",
"************ XXXXXXXXXX XXXXXXXXXX *************",
"************ XXXXXXXXXX XXXXXXXXXX *************",
"************* XXXXXXXXXXXXXXXXXXX **************",
"************* XXXXXXX     XXXXXXX **************",
"************** XXXX  XXXXX  XXXX ***************",
"*************** X  XXXXXXXXX  X ****************",
"**************** XXXXXXXXXXXXX *****************",
"***************** XXXXXXXXXXX ******************",
"***************** XXXXXXXXXXX ******************",
"****************               *****************",
"**************** XXXXXXXXXXXXX *****************",
"*************** XXXXXXXXXXXXXXX ****************",
"************** XXXXXXXXXXXXXXXXX ***************",
"*************                     **************",
"****************** XXXX XXXX *******************",
"**********        XXXXX XXXXX        ***********",
"********  XXXXXXXXXXXXX XXXXXXXXXXXXX  *********",
"******  XXXXXXXXXXXXXXX XXXXXXXXXXXXXXX  *******",
"***** XXXXXXXXXXXXXXXX * XXXXXXXXXXXXXXXX ******",
"***** XXXXXXXXXXXXXX  *** XXXXXXXXXXXXXXX ******",
"***** XXXXX         ******          XXXXX ******",
"******     *************************     *******",
"************************************************",
"************************************************",
"************************************************",
"************************************************",
};
