/* XPM */
/* This file was automatically generated from the file ../CHASST2.V50
using the program ``zic2xpm''.

    NOTICE: The piece images distributed with ZIICS are
        copyrighted works of their original creators.  Images
        converted with zic2xpm may not be redistributed without
        the permission of the copyright holders.  Do not contact
        the authors of zic2xpm or of ZIICS itself to request
        permission. */
static char * image_name[] = {
"50 50 4 1",
"X	c white s light_piece",
" 	c black s dark_piece",
"*	c gray s light_square",
".	c green s dark_square",
"..................................................",
"..................................................",
"..................................................",
"..................................................",
".......................   ........................",
"....................... X ........................",
"....................... X ........................",
"....................    X    .....................",
".................... XXXXXXX .....................",
"....................    X    .....................",
"....................... X ........................",
"....................... X ........................",
".......................   ........................",
"......................  X  .......................",
".....................  XXX  ......................",
".........      .....  XXXXX  .....      ..........",
".......  XXXXXX   .. XXXXXXX ..   XXXXXX  ........",
"...... XXXXXXXXXXX . XXXXXXX . XXXXXXXXXXX .......",
"..... XXXXXXXXXXXXX  XXXXXXX  XXXXXXXXXXXXX ......",
"..... XXXXXXXXXXXXXX XXXXXXX XXXXXXXXXXXXXX ......",
".... XXXXXXXXXXXXXXXX XXXXX XXXXXXXXXXXXXXXX .....",
".... XXXXXXXXXXXXXXXX XXXXX XXXXXXXXXXXXXXXX .....",
".... XXXXXXXXXXXXXXXXX XXX XXXXXXXXXXXXXXXXX .....",
".... XXXXXXXXXXXXXXXXX XXX XXXXXXXXXXXXXXXXX .....",
".... XXXXXXXXXXXXXXXXXX X XXXXXXXXXXXXXXXXXX .....",
".... XXXXXXXXXXXXXXXXXX X XXXXXXXXXXXXXXXXXX .....",
"..... XXXXXXXXXXXXXXXXX   XXXXXXXXXXXXXXXXX ......",
"...... XXXXXXXXXXXXXXXX   XXXXXXXXXXXXXXXX .......",
"....... XXXXXXXXXXXXXXX   XXXXXXXXXXXXXXX ........",
"........ XXXXXXXXXXXXXX   XXXXXXXXXXXXXX .........",
"......... XXXXXXXXXXXXXX XXXXXXXXXXXXXX ..........",
"......... XXXXXXXXXXXXXX XXXXXXXXXXXXXX ..........",
".......... XXXXXXXXXXXXX XXXXXXXXXXXXX ...........",
".......... XXXXXXXXXXXXX XXXXXXXXXXXXX ...........",
".......... XXXX                   XXXX ...........",
"..........     XXXXXXXXXXXXXXXXXXX     ...........",
".......... XXXXXXXXXXXXXXXXXXXXXXXXXXX ...........",
".......... XXXXXXXXXXXXXXXXXXXXXXXXXXX ...........",
".......... XXXXXXX             XXXXXXX ...........",
"..........        XXXXXXXXXXXXX        ...........",
".......... XXXXXXXXXXXXXXXXXXXXXXXXXXX ...........",
".......... XXXXXXXXXXXXXXXXXXXXXXXXXXX ...........",
"...........   XXXXXXXXXXXXXXXXXXXXX   ............",
"..............   XXXXXXXXXXXXXXX   ...............",
".................               ..................",
"..................................................",
"..................................................",
"..................................................",
"..................................................",
"..................................................",
};
