/* XPM */
/* This file was automatically generated from the file ../CHASST2.V40
using the program ``zic2xpm''.

    NOTICE: The piece images distributed with ZIICS are
        copyrighted works of their original creators.  Images
        converted with zic2xpm may not be redistributed without
        the permission of the copyright holders.  Do not contact
        the authors of zic2xpm or of ZIICS itself to request
        permission. */
static char * image_name[] = {
"40 40 4 1",
"X	c white s light_piece",
" 	c black s dark_piece",
"*	c gray s light_square",
".	c green s dark_square",
"****************************************",
"****************************************",
"****************************************",
"******************   *******************",
"****************** X *******************",
"****************   X   *****************",
"**************** XXXXX *****************",
"****************   X   *****************",
"****************** X *******************",
"******************   *******************",
"*****************  X  ******************",
"****************  XXX  *****************",
"*******     **** XXXXX ****     ********",
"*****  XXXXX  ** XXXXX **  XXXXX  ******",
"**** XXXXXXXXX * XXXXX * XXXXXXXXX *****",
"**** XXXXXXXXXX  XXXXX  XXXXXXXXXX *****",
"*** XXXXXXXXXXXX XXXXX XXXXXXXXXXXX ****",
"*** XXXXXXXXXXXXX XXX XXXXXXXXXXXXX ****",
"*** XXXXXXXXXXXXX XXX XXXXXXXXXXXXX ****",
"*** XXXXXXXXXXXXXX X XXXXXXXXXXXXXX ****",
"*** XXXXXXXXXXXXXX X XXXXXXXXXXXXXX ****",
"**** XXXXXXXXXXXXX   XXXXXXXXXXXXX *****",
"***** XXXXXXXXXXXX   XXXXXXXXXXXX ******",
"****** XXXXXXXXXXX   XXXXXXXXXXX *******",
"******* XXXXXXXXXXX XXXXXXXXXXX ********",
"******* XXXXXXXXXXX XXXXXXXXXXX ********",
"******** XXXXXXXXXX XXXXXXXXXX *********",
"******** XXX               XXX *********",
"********    XXXXXXXXXXXXXXX    *********",
"******** XXXXXXXXXXXXXXXXXXXXX *********",
"******** XXXXX           XXXXX *********",
"********      XXXXXXXXXXX      *********",
"******** XXXXXXXXXXXXXXXXXXXXX *********",
"******** XXXXXXXXXXXXXXXXXXXXX *********",
"*********   XXXXXXXXXXXXXXX   **********",
"************               *************",
"****************************************",
"****************************************",
"****************************************",
"****************************************",
};
