/* XPM */
/* This file was automatically generated from the file ../CHASST2.V48
using the program ``zic2xpm''.

    NOTICE: The piece images distributed with ZIICS are
        copyrighted works of their original creators.  Images
        converted with zic2xpm may not be redistributed without
        the permission of the copyright holders.  Do not contact
        the authors of zic2xpm or of ZIICS itself to request
        permission. */
static char * image_name[] = {
"48 48 4 1",
"X	c white s light_piece",
" 	c black s dark_piece",
"*	c gray s light_square",
".	c green s dark_square",
"************************************************",
"************************************************",
"************************************************",
"************************************************",
"************************************************",
"*********** ********* **************************",
"***********   ******   *************************",
"***********     ***  X *************************",
"************ XX  ** XX  ************************",
"************ XXX    XXX ************************",
"************ X     XXXX       ******************",
"************  XXXX  XXX XXXXXX  ****************",
"************ XXXXXX XXX XXXXXXXX  **************",
"***********  XXXXXXXXXX XXXXXXXXXX *************",
"*********** XXXXXXXXXXXXXXXXXXXXXXX ************",
"********** XXXXXXXXXXXXXXXXXXXXXXXX ************",
"********** XX  XXXXXXXXXXXXXXXXXXXXX ***********",
"********* XX   XXXXXXXXXXXXXXXXXXXXXX **********",
"********* XX XXXXXXXXXXXX XXXXXXXXXXX **********",
"******** XXXXXXXXXXXXXXXX XXXXXXXXXXXX *********",
"******* XXXXXXXXXXXXXXXXX XXXXXXXXXXXX *********",
"******* XXXXXXXXXXXXXXXXX XXXXXXXXXXXXX ********",
"****** XXXXXXXXXXXXXXXXX XXXXXXXXXXXXXX ********",
"****** XXXXXXXXXXXXXXXX XXXXXXXXXXXXXXXX *******",
"***** XXXXXXXXXXXXXXXX  XXXXXXXXXXXXXXXX *******",
"***** XXXXXXXXXXXXXX  * XXXXXXXXXXXXXXXX *******",
"***** XX  XXXXXXXX  *** XXXXXXXXXXXXXXXX *******",
"***** XX  XXXXXXX ***** XXXXXXXXXXXXXXXX *******",
"**** XX XXXXXXXX ****** XXXXXXXXXXXXXXXXX ******",
"**** XX XXXXXXXX ****** XXXXXXXXXXXXXXXXX ******",
"**** XXXXXX XXX ******* XXXXXXXXXXXXXXXXX ******",
"***** XXXX XXX ******* XXXXXXXXXXXXXXXXXX ******",
"******     XX ******** XXXXXXXXXXXXXXXXXX ******",
"********** XX ******* XXXXXXXXXXXXXXXXXXX ******",
"********** X ******* XXXXXXXXXXXXXXXXXXXX  *****",
"*********** ******* XXXXXXXXXXXXXXXXXXXXXX *****",
"****************** XXXXXXXXXXXXXXXXXXXXXXX *****",
"***************** XXXXXXXXXXXXXXXXXXXXXXXX *****",
"**************** XXXXXXXXXXXXXXXXXXXXXXXXX *****",
"*************** XXXXXXXXXXXXXXXXXXXXXXXXXX *****",
"*************** XXXXXXXXXXXXXXXXXXXXXXXXXX *****",
"************** XXXXXXXXXXXXXXXXXXXXXXXXXXX *****",
"************** XXXXXXXXXXXXXXXXXXXXXXXXXXX *****",
"**************                             *****",
"************************************************",
"************************************************",
"************************************************",
"************************************************",
};
