/* XPM */
/* This file was automatically generated from the file ../CHASST2.V56
using the program ``zic2xpm''.

    NOTICE: The piece images distributed with ZIICS are
        copyrighted works of their original creators.  Images
        converted with zic2xpm may not be redistributed without
        the permission of the copyright holders.  Do not contact
        the authors of zic2xpm or of ZIICS itself to request
        permission. */
static char * image_name[] = {
"56 56 4 1",
"X	c white s light_piece",
" 	c black s dark_piece",
"*	c gray s light_square",
".	c green s dark_square",
"********************************************************",
"********************************************************",
"********************************************************",
"********************************************************",
"********************************************************",
"********************************************************",
"************* ********** *******************************",
"*************  ********   ******************************",
"*************    *****  X  *****************************",
"************** X   **  XXX *****************************",
"************** XXX *  XXXX  ****************************",
"************** XX    XXXXXX     ************************",
"************** X  XX  XXXXX XXXX   *********************",
"**************   XXXX  XXXX XXXXXXX  *******************",
"************** XXXXXXX XXXX XXXXXXXXX  *****************",
"*************  XXXXXXXXXXXX XXXXXXXXXXX ****************",
"************* XXXXXXXXXXXXX XXXXXXXXXXXX ***************",
"************  XXXXXXXXXXXXXXXXXXXXXXXXXXX **************",
"***********  XX   XXXXXXXXXXXXXXXXXXXXXXXX *************",
"*********** XXX   XXXXXXXXXXXXXXXXXXXXXXXXX ************",
"********** XXX    XXXXXXXXXXXXXXXXXXXXXXXXXX ***********",
"********** XXX XXXXXXXXXXXXXXX XXXXXXXXXXXXX ***********",
"********* XXXXXXXXXXXXXXXXXXXX XXXXXXXXXXXXXX **********",
"********* XXXXXXXXXXXXXXXXXXX XXXXXXXXXXXXXXX **********",
"******** XXXXXXXXXXXXXXXXXXXX XXXXXXXXXXXXXXX **********",
"******* XXXXXXXXXXXXXXXXXXXX XXXXXXXXXXXXXXXXX *********",
"******* XXXXXXXXXXXXXXXXXXXX XXXXXXXXXXXXXXXXX *********",
"******* XXXXXXXXXXXXXXXXXXX XXXXXXXXXXXXXXXXXX *********",
"****** XXXXXXXXXXXXXXXXXX   XXXXXXXXXXXXXXXXXX *********",
"****** XXXXXXXXXXXXXXXXX ** XXXXXXXXXXXXXXXXXXX ********",
"****** XXXXXXXXXXXXXXX  *** XXXXXXXXXXXXXXXXXXX ********",
"****** XXX XXXXXXXXXX ***** XXXXXXXXXXXXXXXXXXX ********",
"***** XXX XXXXXXXXXX ****** XXXXXXXXXXXXXXXXXXX ********",
"***** XX  XXXXXXXXX ******* XXXXXXXXXXXXXXXXXXX ********",
"***** XX XXXXXXXXX ******** XXXXXXXXXXXXXXXXXXXX *******",
"***** XXXXXXX XXXX ******** XXXXXXXXXXXXXXXXXXXX *******",
"****** XXXXX XXXX ******** XXXXXXXXXXXXXXXXXXXXX *******",
"****** XXXX XXXX ******** XXXXXXXXXXXXXXXXXXXXXX *******",
"*******     XXX ********* XXXXXXXXXXXXXXXXXXXXXX *******",
"*********** XX ********* XXXXXXXXXXXXXXXXXXXXXXX *******",
"************  ********* XXXXXXXXXXXXXXXXXXXXXXXX  ******",
"********************** XXXXXXXXXXXXXXXXXXXXXXXXXX ******",
"********************* XXXXXXXXXXXXXXXXXXXXXXXXXXX ******",
"******************** XXXXXXXXXXXXXXXXXXXXXXXXXXXX ******",
"******************** XXXXXXXXXXXXXXXXXXXXXXXXXXXX ******",
"******************* XXXXXXXXXXXXXXXXXXXXXXXXXXXXX ******",
"******************* XXXXXXXXXXXXXXXXXXXXXXXXXXXXX ******",
"****************** XXXXXXXXXXXXXXXXXXXXXXXXXXXXXX ******",
"***************** XXXXXXXXXXXXXXXXXXXXXXXXXXXXXXX ******",
"***************** XXXXXXXXXXXXXXXXXXXXXXXXXXXXXXX ******",
"*****************                                 ******",
"********************************************************",
"********************************************************",
"********************************************************",
"********************************************************",
"********************************************************",
};
