/* XPM */
/* This file was automatically generated from the file ../CHASST2.V50
using the program ``zic2xpm''.

    NOTICE: The piece images distributed with ZIICS are
        copyrighted works of their original creators.  Images
        converted with zic2xpm may not be redistributed without
        the permission of the copyright holders.  Do not contact
        the authors of zic2xpm or of ZIICS itself to request
        permission. */
static char * image_name[] = {
"50 50 4 1",
"X	c white s light_piece",
" 	c black s dark_piece",
"*	c gray s light_square",
".	c green s dark_square",
"**************************************************",
"**************************************************",
"**************************************************",
"**************************************************",
"**************************************************",
"************ ******** ****************************",
"************   *****   ***************************",
"************     *** X  **************************",
"************  X   ** XX **************************",
"************* XX     XX  *************************",
"************* X     XXXX       *******************",
"*************  XXXX  XXX XXXXXX  *****************",
"************* XXXXXX XXX XXXXXXXX ****************",
"************* XXXXXX XXX XXXXXXXXX ***************",
"************ XXXXXXXXXXX XXXXXXXXXX **************",
"*********** XXXXXXXXXXXXXXXXXXXXXXXX *************",
"********** XXX  XXXXXXXXXXXXXXXXXXXXX ************",
"********** XX   XXXXXXXXXXXXXXXXXXXXXX ***********",
"********* XXX   XXXXXXXXXXXXXXXXXXXXXXX **********",
"********* XXX XXXXXXXXXXXX XXXXXXXXXXXX **********",
"******** XXXXXXXXXXXXXXXXX *XXXXXXXXXXXX *********",
"******** XXXXXXXXXXXXXXXXX *XXXXXXXXXXXX *********",
"******* XXXXXXXXXXXXXXXXX XXXXXXXXXXXXXX *********",
"******* XXXXXXXXXXXXXXXXX XXXXXXXXXXXXXX *********",
"****** XXXXXXXXXXXXXXXXX XXXXXXXXXXXXXXXX ********",
"****** XXXXXXXXXXXXXXXX  XXXXXXXXXXXXXXXX ********",
"***** XXXXXXXXXXXXXXX  * XXXXXXXXXXXXXXXXX *******",
"***** XXX XXXXXXXXX  *** XXXXXXXXXXXXXXXXX *******",
"***** XXX XXXXXXXX ***** XXXXXXXXXXXXXXXXX *******",
"**** XXX XXXXXXXX ****** XXXXXXXXXXXXXXXXXX ******",
"**** XXX XX XXXX ******* XXXXXXXXXXXXXXXXXX ******",
"**** XXXXXX XXX ******** XXXXXXXXXXXXXXXXXX ******",
"***** XXXX XXXX ******* XXXXXXXXXXXXXXXXXXX ******",
"****** XXX XXX ******** XXXXXXXXXXXXXXXXXXX ******",
"*******    XX ******** XXXXXXXXXXXXXXXXXXXX ******",
"**********   ********* XXXXXXXXXXXXXXXXXXXX  *****",
"********************* XXXXXXXXXXXXXXXXXXXXXX *****",
"******************** XXXXXXXXXXXXXXXXXXXXXXX *****",
"******************* XXXXXXXXXXXXXXXXXXXXXXXX *****",
"****************** XXXXXXXXXXXXXXXXXXXXXXXXX *****",
"***************** XXXXXXXXXXXXXXXXXXXXXXXXXX *****",
"**************** XXXXXXXXXXXXXXXXXXXXXXXXXXX *****",
"*************** XXXXXXXXXXXXXXXXXXXXXXXXXXXX *****",
"*************** XXXXXXXXXXXXXXXXXXXXXXXXXXXX *****",
"*************** XXXXXXXXXXXXXXXXXXXXXXXXXXXX *****",
"***************                              *****",
"**************************************************",
"**************************************************",
"**************************************************",
"**************************************************",
};
