/* XPM */
/* This file was automatically generated from the file ../CHASST2.V40
using the program ``zic2xpm''.

    NOTICE: The piece images distributed with ZIICS are
        copyrighted works of their original creators.  Images
        converted with zic2xpm may not be redistributed without
        the permission of the copyright holders.  Do not contact
        the authors of zic2xpm or of ZIICS itself to request
        permission. */
static char * image_name[] = {
"40 40 4 1",
"X	c white s light_piece",
" 	c black s dark_piece",
"*	c gray s light_square",
".	c green s dark_square",
"........................................",
"........................................",
"........................................",
"........................................",
"........................................",
"...................   ..................",
".................. XXX .................",
"................. XXXXX ................",
"................ XXXXXXX ...............",
"................ XXXXXXX ...............",
"................ XXXXXXX ...............",
"................. XXXXX ................",
".................  XXX  ................",
"................ XXXXXXX ...............",
"............... XXXXXXXXX ..............",
"............... XXXXXXXXX ..............",
".............. XXXXXXXXXXX .............",
".............. XXXXXXXXXXX .............",
".............. XXXXXXXXXXX .............",
".............. XXXXXXXXXXX .............",
"............... XXXXXXXXX ..............",
"............... XXXXXXXXX ..............",
"................ XXXXXXX ...............",
"............... XXXXXXXXX ..............",
".............. XXXXXXXXXXX .............",
"............. XXXXXXXXXXXXX ............",
"............ XXXXXXXXXXXXXXX ...........",
"............ XXXXXXXXXXXXXXX ...........",
"........... XXXXXXXXXXXXXXXXX ..........",
"........... XXXXXXXXXXXXXXXXX ..........",
"........... XXXXXXXXXXXXXXXXX ..........",
".......... XXXXXXXXXXXXXXXXXXX .........",
".......... XXXXXXXXXXXXXXXXXXX .........",
".......... XXXXXXXXXXXXXXXXXXX .........",
".......... XXXXXXXXXXXXXXXXXXX .........",
"..........                     .........",
"........................................",
"........................................",
"........................................",
"........................................",
};
