/* XPM */
/* This file was automatically generated from the file ../CHASST2.V56
using the program ``zic2xpm''.

    NOTICE: The piece images distributed with ZIICS are
        copyrighted works of their original creators.  Images
        converted with zic2xpm may not be redistributed without
        the permission of the copyright holders.  Do not contact
        the authors of zic2xpm or of ZIICS itself to request
        permission. */
static char * image_name[] = {
"56 56 4 1",
"X	c white s light_piece",
" 	c black s dark_piece",
"*	c gray s light_square",
".	c green s dark_square",
"........................................................",
"........................................................",
"........................................................",
"........................................................",
"........................................................",
"........................................................",
"........................................................",
"...........................    .........................",
".......................... XXXX ........................",
"......................... XXXXXX .......................",
"........................ XXXXXXXX ......................",
"....................... XXXXXXXXXX .....................",
"....................... XXXXXXXXXX .....................",
"....................... XXXXXXXXXX .....................",
"....................... XXXXXXXXXX .....................",
"........................ XXXXXXXX ......................",
"......................... XXXXXX .......................",
"........................   XXXX   ......................",
"......................  XXXXXXXXXX .....................",
"...................... XXXXXXXXXXXX ....................",
"..................... XXXXXXXXXXXXXX ...................",
"..................... XXXXXXXXXXXXXX ...................",
".................... XXXXXXXXXXXXXXXX ..................",
".................... XXXXXXXXXXXXXXXX ..................",
".................... XXXXXXXXXXXXXXXX ..................",
".................... XXXXXXXXXXXXXXXX ..................",
".................... XXXXXXXXXXXXXXXX ..................",
".................... XXXXXXXXXXXXXXXX ..................",
"..................... XXXXXXXXXXXXXX ...................",
"..................... XXXXXXXXXXXXXX ...................",
"..................... XXXXXXXXXXXXXX ...................",
"...................... XXXXXXXXXXXX ....................",
"..................... XXXXXXXXXXXXXX ...................",
"..................... XXXXXXXXXXXXXX ...................",
".................... XXXXXXXXXXXXXXXX ..................",
"................... XXXXXXXXXXXXXXXXXX .................",
".................. XXXXXXXXXXXXXXXXXXXX ................",
"................. XXXXXXXXXXXXXXXXXXXXXX ...............",
"................. XXXXXXXXXXXXXXXXXXXXXX ...............",
"................ XXXXXXXXXXXXXXXXXXXXXXXX ..............",
"................ XXXXXXXXXXXXXXXXXXXXXXXX ..............",
"............... XXXXXXXXXXXXXXXXXXXXXXXXXX .............",
"............... XXXXXXXXXXXXXXXXXXXXXXXXXX .............",
".............. XXXXXXXXXXXXXXXXXXXXXXXXXXXX ............",
".............. XXXXXXXXXXXXXXXXXXXXXXXXXXXX ............",
".............. XXXXXXXXXXXXXXXXXXXXXXXXXXXX ............",
".............. XXXXXXXXXXXXXXXXXXXXXXXXXXXX ............",
".............. XXXXXXXXXXXXXXXXXXXXXXXXXXXX ............",
".............. XXXXXXXXXXXXXXXXXXXXXXXXXXXX ............",
"..............                              ............",
"........................................................",
"........................................................",
"........................................................",
"........................................................",
"........................................................",
"........................................................",
};
