/* XPM */
/* This file was automatically generated from the file ../CHASST2.V50
using the program ``zic2xpm''.

    NOTICE: The piece images distributed with ZIICS are
        copyrighted works of their original creators.  Images
        converted with zic2xpm may not be redistributed without
        the permission of the copyright holders.  Do not contact
        the authors of zic2xpm or of ZIICS itself to request
        permission. */
static char * image_name[] = {
"50 50 4 1",
"X	c white s light_piece",
" 	c black s dark_piece",
"*	c gray s light_square",
".	c green s dark_square",
"..................................................",
"..................................................",
"..................................................",
"..................................................",
"..................................................",
"..................................................",
"..................................................",
"........................    ......................",
"....................... XXXX .....................",
"...................... XXXXXX ....................",
"..................... XXXXXXXX ...................",
"..................... XXXXXXXX ...................",
"..................... XXXXXXXX ...................",
"..................... XXXXXXXX ...................",
"...................... XXXXXX ....................",
"......................  XXXX  ....................",
"..................... XXXXXXXX ...................",
".................... XXXXXXXXXX ..................",
"................... XXXXXXXXXXXX .................",
"................... XXXXXXXXXXXX .................",
".................. XXXXXXXXXXXXXX ................",
".................. XXXXXXXXXXXXXX ................",
".................. XXXXXXXXXXXXXX ................",
".................. XXXXXXXXXXXXXX ................",
".................. XXXXXXXXXXXXXX ................",
"................... XXXXXXXXXXXX .................",
"................... XXXXXXXXXXXX .................",
".................... XXXXXXXXXX ..................",
".................... XXXXXXXXXX ..................",
"................... XXXXXXXXXXXX .................",
".................. XXXXXXXXXXXXXX ................",
"................. XXXXXXXXXXXXXXXX ...............",
"................ XXXXXXXXXXXXXXXXXX ..............",
"................ XXXXXXXXXXXXXXXXXX ..............",
"............... XXXXXXXXXXXXXXXXXXXX .............",
"............... XXXXXXXXXXXXXXXXXXXX .............",
".............. XXXXXXXXXXXXXXXXXXXXXX ............",
".............. XXXXXXXXXXXXXXXXXXXXXX ............",
".............. XXXXXXXXXXXXXXXXXXXXXX ............",
"............. XXXXXXXXXXXXXXXXXXXXXXXX ...........",
"............. XXXXXXXXXXXXXXXXXXXXXXXX ...........",
"............. XXXXXXXXXXXXXXXXXXXXXXXX ...........",
"............. XXXXXXXXXXXXXXXXXXXXXXXX ...........",
"............. XXXXXXXXXXXXXXXXXXXXXXXX ...........",
".............                          ...........",
"..................................................",
"..................................................",
"..................................................",
"..................................................",
"..................................................",
};
