/* XPM */
/* This file was automatically generated from the file ../CHASST2.V48
using the program ``zic2xpm''.

    NOTICE: The piece images distributed with ZIICS are
        copyrighted works of their original creators.  Images
        converted with zic2xpm may not be redistributed without
        the permission of the copyright holders.  Do not contact
        the authors of zic2xpm or of ZIICS itself to request
        permission. */
static char * image_name[] = {
"48 48 4 1",
"X	c white s light_piece",
" 	c black s dark_piece",
"*	c gray s light_square",
".	c green s dark_square",
"................................................",
"................................................",
"................................................",
"................................................",
"................................................",
"......................   .......................",
"...........   .......  X  .......   ............",
"..........  X  ...... XXX ......  X  ...........",
".......... XXX ......  X  ...... XXX ...........",
"....   ...  X  .......   .......  X  ...   .....",
"...  X  ...   ......... .........   ...  X  ....",
"... XXX ....  ........   ........  .... XXX ....",
"...  X  ....   ....... X .......   ....  X  ....",
"....   ..... X ....... X ....... X .....   .....",
".....   .... X ....... X ....... X ....   ......",
"..... X .... XX ...... X ...... XX .... X ......",
"..... XX ... XX ..... XXX ..... XX ... XX ......",
"..... XX ... XXX .... XXX .... XXX ... XX ......",
"..... XXX .. XXX ... XXXXX ... XXX .. XXX ......",
"..... XXX .. XXXX .. XXXXX .. XXXX .. XXX ......",
"...... XXX . XXXX . XXXXXXX . XXXX . XXX .......",
"...... XXX . XXXX . XXXXXXX . XXXX . XXX .......",
"...... XXXX  XXXXX XXXXXXXXX XXXXX  XXXX .......",
"...... XXXXX XXXXX XXXXXXXXX XXXXX XXXXX .......",
"...... XXXXX XXXXX XXXXXXXXX XXXXX XXXXX .......",
"....... XXXX XXXX             XXXX XXXX ........",
"....... XXXX X   XXXXXXXXXXXXX   X XXXX ........",
"....... XXXX  XXXXXXXXXXXXXXXXXXX  XXXX ........",
"....... XX  XXXXXXXXXXXXXXXXXXXXXXX  XX ........",
".......   XXXXXXXXXXXXXXXXXXXXXXXXXXX   ........",
"........ XXXXXXXXXXXXX   XXXXXXXXXXXXX .........",
"........  XXXXXXX     XXX     XXXXXXX  .........",
"......... XX     XXXXXXXXXXXXX    XXX ..........",
".........   XXXXXXXXXXXXXXXXXXXXXX    ..........",
".......... XXXXXXXXXXXXXXXXXXXXXXXXX ...........",
".......... XXXXXXXXXXX   XXXXXXXXXXX ...........",
".......... XXXXXXX    XXX    XXXXXXX ...........",
"...........       XXXXXXXXXXX       ............",
"........... XXXXXXXXXXXXXXXXXXXXXXX ............",
"........... XXXXXXXXXXXXXXXXXXXXXXX ............",
"............ XXXXXXXXXXXXXXXXXXXXX .............",
"............ XXXXXXXXXXXXXXXXXXXXX .............",
".............                     ..............",
"................................................",
"................................................",
"................................................",
"................................................",
"................................................",
};
