/* XPM */
/* This file was automatically generated from the file ../CHASST2.V56
using the program ``zic2xpm''.

    NOTICE: The piece images distributed with ZIICS are
        copyrighted works of their original creators.  Images
        converted with zic2xpm may not be redistributed without
        the permission of the copyright holders.  Do not contact
        the authors of zic2xpm or of ZIICS itself to request
        permission. */
static char * image_name[] = {
"56 56 4 1",
"X	c white s light_piece",
" 	c black s dark_piece",
"*	c gray s light_square",
".	c green s dark_square",
"........................................................",
"........................................................",
"........................................................",
"........................................................",
"........................................................",
"..........................   ...........................",
"..............   ........  X  .......   ................",
".............  X  ......  XXX  .....  X  ...............",
"............  XXX  ..... XXXXX ....  XXX  ..............",
"............ XXXXX .....  XXX  .... XXXXX ..............",
".....   ....  XXX  ......  X  .....  XXX  .....   ......",
"....  X  ....  X  ........   .......  X  .....  X  .....",
"...  XXX  ....   .......... .........   .....  XXX  ....",
"... XXXXX ....  ..........   .........  ..... XXXXX ....",
"...  XXX  ....  .......... X .........  .....  XXX  ....",
"....  X  ..... X ......... X ........ X ......  X  .....",
".....   ...... XX ....... XX ....... XX .......   ......",
"......   ..... XX ....... XXX ...... XX ......   .......",
"...... X ..... XXX ..... XXXX ..... XXX ...... X .......",
"...... X ..... XXX ..... XXXX ..... XXX ...... X .......",
"...... XX .... XXX .... XXXXXX .... XXX ..... XX .......",
"...... XXX ... XXXX ... XXXXXX ... XXXX .... XXX .......",
"...... XXX ... XXXX ... XXXXXX ... XXXX .... XXX .......",
"...... XXXX .. XXXXX . XXXXXXXX . XXXXX ... XXXX .......",
"...... XXXX .. XXXXX . XXXXXXXX . XXXXX .. XXXX ........",
"....... XXXX . XXXXXX XXXXXXXXXX XXXXXX . XXXXX ........",
"....... XXXXX  XXXXXX XXXXXXXXXX XXXXXX  XXXXXX ........",
"........ XXXXX XXXXXX XXXXXXXXXX XXXXXX XXXXXX .........",
"........ XXXXX XXXXXX XXXXXXXXXX XXXXXX XXXXXX .........",
"........ XXXXX XXXXX               XXXX XXXXXX .........",
"......... XXXX XXX  XXXXXXXXXXXXXXX  XX XXXXX ..........",
"......... XXXX    XXXXXXXXXXXXXXXXXXX   XXXXX ..........",
"......... XXX XXXXXXXXXXXXXXXXXXXXXXXXXX  XXX ..........",
"......... X  XXXXXXXXXXXXXXXXXXXXXXXXXXXXX XX ..........",
".........  XXXXXXXXXXXXXXXXXXXXXXXXXXXXXXXX   ..........",
"......... XXXXXXXXXXXXXXX    XXXXXXXXXXXXXXXX ..........",
"......... XXXXXXXXXX     XXXX      XXXXXXXXX ...........",
".......... XXXXXX   XXXXXXXXXXXXXXX   XXXXX ............",
"...........      XXXXXXXXXXXXXXXXXXXXX     .............",
"............ XXXXXXXXXXXXXXXXXXXXXXXXXXXXX .............",
"............ XXXXXXXXXXXXXXXXXXXXXXXXXXXXX .............",
"............  XXXXXXXXXXXXXXXXXXXXXXXXXXX  .............",
"............. XXXXXXX             XXXXXXX ..............",
"............. XXXX   XXXXXXXXXXXXX   XXXX ..............",
".............     XXXXXXXXXXXXXXXXXXX     ..............",
"............. XXXXXXXXXXXXXXXXXXXXXXXXXXX ..............",
".............  XXXXXXXXXXXXXXXXXXXXXXXXX  ..............",
"...............   XXXXXXXXXXXXXXXXXXX   ................",
"..................   XXXXXXXXXXXXX   ...................",
".....................             ......................",
"........................................................",
"........................................................",
"........................................................",
"........................................................",
"........................................................",
"........................................................",
};
