/* XPM */
/* This file was automatically generated from the file ../CHASST2.V32
using the program ``zic2xpm''.

    NOTICE: The piece images distributed with ZIICS are
        copyrighted works of their original creators.  Images
        converted with zic2xpm may not be redistributed without
        the permission of the copyright holders.  Do not contact
        the authors of zic2xpm or of ZIICS itself to request
        permission. */
static char * image_name[] = {
"32 32 4 1",
"X	c white s light_piece",
" 	c black s dark_piece",
"*	c gray s light_square",
".	c green s dark_square",
"********************************",
"********************************",
"**************  ****************",
"*******  ****  X ****   ********",
"****** XX ***  X *** XXX********",
"**  **    ****  ****  X **  ****",
"*  X **  ****** *****   *  X ***",
"* XX *** *****  *****  ** XX ***",
"**  ****X **** X**** X ***  ****",
"***  ***X **** X**** X **   ****",
"***  ***XX ** XX ***XX ** X ****",
"*** X **XX ** XX ***XX * XX ****",
"*** XX *XXX  XXXX * XX *XXX ****",
"****XX *XXX  XXXX * XX *XX *****",
"****XXX XXXXXXXXXX XXX  XX *****",
"****XXXXXXXXXXXXXX XXX XXX *****",
"**** XXXXX          XX XX ******",
"**** XXX  XXXXXXXXXX    X ******",
"**** X  XXXXXXXXXXXXXXX X ******",
"****  XXXXXXXXXXXXXXXXXX  ******",
"**** XXXXXX   XX    XXXX  ******",
"*****      XXXXXXXXX     *******",
"****** XXXXXXXXXXXXXXXXX********",
"******  XXXXXXXXXXXXXXX ********",
"*******     XXXXXXX     ********",
"******* XXXXXXXXXXXXXXX ********",
"******* XXXXXXXXXXXXXXX ********",
"******* XXXXXXXXXXXXXX  ********",
"********************************",
"********************************",
"********************************",
"********************************",
};
