/* XPM */
/* This file was automatically generated from the file ../BOX40.V48
using the program ``zic2xpm''.

    NOTICE: The piece images distributed with ZIICS are
        copyrighted works of their original creators.  Images
        converted with zic2xpm may not be redistributed without
        the permission of the copyright holders.  Do not contact
        the authors of zic2xpm or of ZIICS itself to request
        permission. */
static char * image_name[] = {
"48 48 4 1",
"X	c white s light_piece",
" 	c black s dark_piece",
"*	c gray s light_square",
".	c green s dark_square",
"............................................... ",
"............................................... ",
"............................................... ",
"............................................... ",
".......................X....................... ",
"......................XXX...................... ",
".......................X....................... ",
".....................XXXXX..................... ",
".....................X...X..................... ",
"........XXXXXXX......X.X.X.....XXXXXXXX........ ",
"......XXXXXXXXXX.....X.X.X...XXXXXXXXXXX....... ",
"......XXXX....XXXX...X.X.X..XXXXX....XXX....... ",
".....XXXX.XXXX.XXXX..X...X..XXX..XXXX.XXX...... ",
".....XXX.XXXXXX.XXXX.XXXX..XXX.XXXXXXX.XX...... ",
".....XX.XXXXXXXX.XXX..XXX.XXX.XXXXXXXX.XX...... ",
"....XXX.XXXXXXXXX.XXXXXXXXXXX.XXXX..XX.XXX..... ",
"....XXX.XX..XXXXX.XXXXX.XXXX.XX.XX..XX.XXX..... ",
"....XXX.XX..XX.XXX.XXX..XXX.XXXX.X..XX.XXX..... ",
"....XXX.XXXX.X.XXX.XXXXXXXX.XXXX..XXXX.XXX..... ",
"....XXX.XXXX.X.XXXX.XXXXXX.XXXXX....XX.XXX..... ",
".....XX.XX.....XXXX.XXXXXX.XXXXX..XXXX.XX...... ",
".....XX.XXXX...XXXX.XX..XX.XXXXX..XXXX.XX...... ",
".....XX.XXXXXX.XXXXX.XX.XX.XXXX..XXXX.XXX...... ",
".....XXX.XXXXX.XXXXX.XXXX.XXXXX.XXXXX.XXX...... ",
"......XX.XXXXXX.XXXX.XXXX.XXXXX.XXXXX.XX....... ",
"......XXX.XXXXX.XXXXX.XXX.XXXX.XXXXXX.XX....... ",
"......XXX.XXXXX.XXXXX.X.X.XXXX.XXXXX.XXX....... ",
".......XXX.XXXXX.XXXX.X.X.XXX.XXXXXX.XX........ ",
"........XX.XXXXX.XXXX.XXX.XXXXXXXXX.XX......... ",
"........XXX.XXXXXXXXX.XXX.XXXXXXXX.XXX......... ",
".........XXX..........XXX.........XXX.......... ",
"..........XXXXXXXXXXXXXXXXXXXXXXXXXX........... ",
"...........XXXXXXXXXXXXXXXXXXXXXXXX............ ",
"............XX..................XX............. ",
"............X.XXXXXXXXXXXXXXXXXX.X............. ",
"............X.XXXXXXX.....XXXXXX.X............. ",
"............X.XXXXXXXXXXXXXXXXXX.X............. ",
"............X....................X............. ",
"............XXXXXXXXXXXXXXXXXXXXXX............. ",
"............................................... ",
"............................................... ",
"............................................... ",
"............................................... ",
"............................................... ",
"............................................... ",
"............................................... ",
"............................................... ",
"                                                ",
};
