/* XPM */
/* This file was automatically generated from the file ../DDG.V40
using the program ``zic2xpm''.

    NOTICE: The piece images distributed with ZIICS are
        copyrighted works of their original creators.  Images
        converted with zic2xpm may not be redistributed without
        the permission of the copyright holders.  Do not contact
        the authors of zic2xpm or of ZIICS itself to request
        permission. */
static char * image_name[] = {
"40 40 4 1",
"X	c white s light_piece",
" 	c black s dark_piece",
"*	c gray s light_square",
".	c green s dark_square",
"........................................",
"......................X..X..............",
"......................X..X..............",
".....................XX.XX..............",
".....................XX.XX..............",
"....................XXXXX.X.............",
"....................XXXXX.X.............",
"...................XXXXXX.X.............",
"..................XXXXXXX..X............",
".................XXXX..XX..X............",
"................XXXXX..XXX..............",
"...............XXXX......XX.X...........",
"...............XXXX......XX.X...........",
"..............XXXXXXX..XXXXXX...........",
"..............XXXXXXX..XXXXXX...........",
"..............XXXXXXX..XXXXX............",
"..............XXXXXXXXXXXXXX............",
"..............XXXXXXXXXXXXXX............",
"..............XXXXXXXXXXXXXX............",
"..............XXXXXXXXXXXXX.............",
"...............XXXXXXXXXXXX.............",
"...............XXXXXXXXXXX..............",
"...............XXXXXXXXXXX..............",
".................XXXXXXXXX..............",
".................X......................",
".................XXXXXXXXX..............",
"...................X....................",
"...................X....................",
".................XXXXXXXXX..............",
".................X......................",
".................XXXXXXXXX..............",
"....................XXXX................",
"...................XXXXXX...............",
"..................XXXXXXX...............",
"..................XXXXXXX...............",
".................XXXXXXXXXX.............",
".............XXXXXXXXXXXXXXXXX..........",
"............XXXXXXXXXXXXXXXXXXX.........",
"..........XXXXX.............XXXXX.......",
"..........XXXXXXXXXXXXXXXXXXXXXXX.......",
};
