/* XPM */
/* This file was automatically generated from the file ../DDG.V40
using the program ``zic2xpm''.

    NOTICE: The piece images distributed with ZIICS are
        copyrighted works of their original creators.  Images
        converted with zic2xpm may not be redistributed without
        the permission of the copyright holders.  Do not contact
        the authors of zic2xpm or of ZIICS itself to request
        permission. */
static char * image_name[] = {
"40 40 4 1",
"X	c white s light_piece",
" 	c black s dark_piece",
"*	c gray s light_square",
".	c green s dark_square",
"********************X*******************",
"********************X*******************",
"******************XXXXX*****************",
"********************X*******************",
"********************X*******************",
"******************XXXX******************",
"****XXXXXXX*******X**X******XXXXXXXX****",
"****XXXXXXXXX*****X**X******XXXXXXXX****",
"**XXXX****XXXX****X**X***XXXXX*****XXX**",
"**XXX**XX**XXXX***X**X***XXX**XXXXX*XX**",
"*XXX*XXXXXX*XXX***XXXX**XXX*XXXXXXX*XX**",
"*XX*XXXXXXXX*XXX**XXXX*XXX*XXXXXXXX*XX**",
"*XX*XXXXXXXX*XXXX*XXXX*XX*XXXXXXXXX*XX**",
"*XX*XX**XXXXX*XXXXXXXXXXX*XXXX***XX*XXX*",
"*XX*XX**XXXXX*XXXXXXXXXX*XX*XX***XX**XX*",
"*XX*XXXX*X*XXX*XXXXXXXXX*XX***XXXXXX*XX*",
"*XX*XXXX*X*XXX*XXXXXXXXX*XX***XXXXXX*XX*",
"*XX*XXXX*X*XXXX**XXXXXX*XXXXX****XXX*XX*",
"*XX*XX*****XXXX**XXXXXX*XXXXX*XXXXX*XXX*",
"*XX*XXXX***XXXX**XXXXXX*XXXXX*XXXXX*XXX*",
"*XX*XXXXXX*XXXXXX*XXXXX*XXXX**XXXXX*XX**",
"*XXX*XXXXX*XXXXXX*XXXX*XXXXX*XXXXXX*XX**",
"**XX*XXXXXX*XXXXX*XXXX*XXXXX*XXXXX*XXX**",
"**XXX*XXXXX*XXXXXX*XXX*XXXX*XXXXX*XXXX**",
"**XXX*XXXXX*XXXXXX*XXX*XXXX*XXXXX*XXXX**",
"***XXX*XXXXX*XXXXX*XXX*XX**XXXXXX*XX****",
"****XX*XXXXX*XXXXX*XXX*XXXXXXXXX*XX*****",
"****XXX*XXXXXXXXXX*XXX*XXXXXXX**XXX*****",
"*****XXX***********XXX********XXXXX*****",
"******XXXXXXXXXXXXXXXXXXXXXXXXXXX*******",
"*******XXXXXXXXXXXXXXXXXXXXXXXXX********",
"********XX*******************X**********",
"********XX*******************X**********",
"********X*XXXXXXXXXXXXXXXXXXX***********",
"********X*XXXXXXXX*****XXXXXX***********",
"********X*XXXXXXXXXXXXXXXXXXX***********",
"********X*******************************",
"********XXXXXXXXXXXXXXXXXXXXXX**********",
"****************************************",
"****************************************",
};
