/* XPM */
/* This file was automatically generated from the file ../DDG.V40
using the program ``zic2xpm''.

    NOTICE: The piece images distributed with ZIICS are
        copyrighted works of their original creators.  Images
        converted with zic2xpm may not be redistributed without
        the permission of the copyright holders.  Do not contact
        the authors of zic2xpm or of ZIICS itself to request
        permission. */
static char * image_name[] = {
"40 40 4 1",
"X	c white s light_piece",
" 	c black s dark_piece",
"*	c gray s light_square",
".	c green s dark_square",
"........................................",
"........................................",
"........................................",
"...............XXX......................",
"...............XXX......................",
"...............XXXXX....................",
"................XXXXXXX.................",
"................XXXXXXX.................",
"...............XXXX.XXXXX...............",
".............XXXXXXX.XXXXX..............",
"...........XXXX..XXXX...XXXX............",
".........XXXXX..XXXXXXX...XXXX..........",
"........XXXXXXXXXXXXXXXXX.XXXX..........",
"......XXXXXXXXXXXX.XXXXXXXX.XXX.........",
".....XXXXXXXXXXXXXXXXXXXXXXX..XX........",
"....XXXXXXXXXXXX.XXXXXX..XXXXX.XX.......",
"....XXXXXXXXXXXX.XXXXXX..XXXXX.XX.......",
"...XXXXXXXXXXXXXXXXXXXX..XXXXX.XX.......",
"...XXXXXXXXXXXXXX...XXXXX.XXXX..XX......",
"...XXXXXXXXXXXX.....XXXXX.XXXXX.XX......",
"..X..XXXXXXX.......XX...XXXXXXX..XX.....",
".XX.XXXXXXX........XXXXXXX..XXXX.XX.....",
".XXXXX.XXXX........XXXXXX...XXXX.XX.....",
"..XX.XXXX.........XX.....XXXXXXX.XX.....",
".....XXX..........XXXXXXXXXXXXXX.XX.....",
".................XXXXXXXXXXXXXXX.XXX....",
"................XXXXXXXXXXXXXXXX..XX....",
"................XXXXXXXXXXXXXXXX..XX....",
"...............XXXXXXXXXXXXXXXXXX.XXX...",
"..............XXXXXXXXXXXXXXXXXXX.XXX...",
".............XXXXXXXXXXXXXXXXXXXX.XXXX..",
".............XXXXXXXXXXXXXXXXXXXX.XXXX..",
".............XXXXXXXXXXXXXXXXXXXX.XXXX..",
"............XXXXXXXXXXXXXXXXXXXXX.XXXX..",
"............XXXXXXXXXXXXXXXXXXXXX.XXXX..",
"..........XXXXXXXXXXXXXXXXXXXXXXX.XXXX..",
"..........XXXXXXXXXXXXXXXXXXXXXXX.XXXX..",
"..........XXXXXXX............XXXX.XXXX..",
"..........XXXXXXXXXXXXXXXXXXXXXXX.XXXX..",
"..........XXXXXXXXXXXXXXXXXXXXXXXXXXXX..",
};
