/* XPM */
/* This file was automatically generated from the file ../DDG.V56
using the program ``zic2xpm''.

    NOTICE: The piece images distributed with ZIICS are
        copyrighted works of their original creators.  Images
        converted with zic2xpm may not be redistributed without
        the permission of the copyright holders.  Do not contact
        the authors of zic2xpm or of ZIICS itself to request
        permission. */
static char * image_name[] = {
"56 56 4 1",
"X	c white s light_piece",
" 	c black s dark_piece",
"*	c gray s light_square",
".	c green s dark_square",
"********************************************************",
"********************************************************",
"********************************************************",
"********************************************************",
"********************************************************",
"********************************************************",
"********************************************************",
"********************************************************",
"********************************************************",
"********************************************************",
"********************************************************",
"********************************************************",
"********************************************************",
"************************XXXXXXX*************************",
"**********************XXXXXXXXXXX***********************",
"*********************XXXXXXXXXXXXX**********************",
"********************XXXXXXXXXXXXXXX*********************",
"*******************XXXXXXXXX****XXXX********************",
"*******************XXXXXXXXX*****XXX********************",
"******************XXXXXXXXXX*****XXXX*******************",
"******************XXXXXXXXXXX*****XXX*******************",
"******************XXXXXXXXXXXXX***XXX*******************",
"******************XXXXXXXXXXXXX***XXX*******************",
"******************XXXXXXXXXXXXXX**XXX*******************",
"******************XXXXXXXXXXXXXX**XXX*******************",
"******************XXXXXXXXXXXXXXXXXXX*******************",
"*******************XXXXXXXXXXXXXXXXX********************",
"*******************XXXXXXXXXXXXXXXXX********************",
"********************XXXXXXXXXXXXXXX*********************",
"*********************XXXXXXXXXXXXX**********************",
"***********************XXXXXXXXX************************",
"****************XXXXXX*X*X*XX**X*XXXXXX*****************",
"***************XXXXXXXXXXXX*XXXXXXXXXXXX****************",
"***************XXXXXXXXXXXXXXXXXXXXXXXXX****************",
"**********************XXXXXXXXXXX***********************",
"************************XXXXXXX*************************",
"************************XXXXXXX*************************",
"************************XXXXXXX*************************",
"************************XXXXXXX*************************",
"************************XXXXXXX*************************",
"************************XXXXXXX*************************",
"************************XXXXXXX*************************",
"***********************XXXXXXXXX************************",
"***********************XXXXXXXXX************************",
"***********************XXXXXXXXX************************",
"***********************XXXXXXXXX************************",
"**********************XXXXXXXXXXX***********************",
"**********************XXXXXXXXXXX***********************",
"*********************XXXXXXXXXXXXX**********************",
"********************XXXXXXXXXXXXXXX*********************",
"****************XXXXXXXXXXXXXXXXXXXXXXX*****************",
"**************XXXXXXXXXX*******XXXXXXXXXX***************",
"************XXXXXXXX***************XXXXXXXX*************",
"************XXXXXXXXXXXXXXXXXXXXXXXXXXXXXXX*************",
"************XXXXXXXXXXXXXXXXXXXXXXXXXXXXXXX*************",
"************XXXXXXXXXXXXXXXXXXXXXXXXXXXXXXX*************",
};
