/* XPM */
/* This file was automatically generated from the file ../DDG.V40
using the program ``zic2xpm''.

    NOTICE: The piece images distributed with ZIICS are
        copyrighted works of their original creators.  Images
        converted with zic2xpm may not be redistributed without
        the permission of the copyright holders.  Do not contact
        the authors of zic2xpm or of ZIICS itself to request
        permission. */
static char * image_name[] = {
"40 40 4 1",
"X	c white s light_piece",
" 	c black s dark_piece",
"*	c gray s light_square",
".	c green s dark_square",
"........................................",
"........................................",
"........................................",
".......XXXXXX.....XXXXXX......XXXX......",
".......XXXXXX.....XXXXXX......XXXX......",
".......XXXXXXXXXXXXXXXXXXXXXXXXXXX......",
".......XXXXXXXXXXXXXXXXXXXXXXXXXXX......",
".......X.........................X......",
".......XXXXXXXXX.XXXXXXXX.XXXXXXXX......",
"...........XXXXX.XXXXXXXX.XXXXX.........",
"...........XXXXX.XXXXXXXX.XXXXX.........",
"...........XXXXX.XXXXXXXX.XXXXX.........",
"...........XXXXX.XXXXXXXX.XXXXX.........",
"...........XX.................X.........",
"...........XXXXXXXXX.XXXXXXXXXX.........",
"...........XXXXXXXXX.XXXXXXXXXX.........",
"...........XXXXXXXXX.XXXXXXXXXX.........",
"...........XXXXXXXXX.XXXXXXXXXX.........",
"...........XXXXXXXXX.XXXXXXXXXX.........",
"...........XXXXXXXXX.XXXXXXXXXX.........",
"...........XX.................X.........",
"...........XXXXX.XXXXXXXX.XXXXX.........",
"...........XXXXX.XXXXXXXX.XXXXX.........",
"...........XXXXX.XXXXXXXX.XXXXX.........",
"...........XXXXX.XXXXXXXX.XXXXX.........",
"...........XXXXX.XXXXXXXX.XXXXX.........",
"...........XXXXX.XXXXXXXX.XXXXX.........",
"...........XXXXX.XXXXXXXX.XXXXX.........",
"...........XX................XX.........",
"...........XXXXXXXXX.XXXXXXXXXX.........",
"...........XXXXXXXXX.XXXXXXXXXX.........",
"...........XXXXXXXXX.XXXXXXXXXX.........",
"...........XXXXXXXXX.XXXXXXXXXX.........",
".........XXXX.................XXX.......",
".........XXXXXXXXXXXXXXXXXXXXXXXX.......",
"........XXXXXXXXXXXXXXXXXXXXXXXXXX......",
".......XXXX...................XXXXX.....",
".......XXXXXXXXXXXXXXXXXXXXXXXXXXXX.....",
".......XXXXXXXXXXXXXXXXXXXXXXXXXXXX.....",
".......XXXXXXXXXXXXXXXXXXXXXXXXXXXX.....",
};
