/* XPM */
/* This file was automatically generated from the file ../POCO.V50
using the program ``zic2xpm''.

    NOTICE: The piece images distributed with ZIICS are
        copyrighted works of their original creators.  Images
        converted with zic2xpm may not be redistributed without
        the permission of the copyright holders.  Do not contact
        the authors of zic2xpm or of ZIICS itself to request
        permission. */
static char * image_name[] = {
"50 50 4 1",
"X	c white s light_piece",
" 	c black s dark_piece",
"*	c gray s light_square",
".	c green s dark_square",
"..................................................",
"..................................................",
"..................................................",
"..................................................",
"........................   .......................",
"........................ X .......................",
"......................   X   .....................",
"...................... XXXXX .....................",
"......................   X   .....................",
"........................ X .......................",
"........................ X .......................",
"........................ X .......................",
".......................  X  ......................",
"......................  XXX  .....................",
".....................  X   X  ....................",
"..................... XX   XX ....................",
"...........    ...... X     X ......    ..........",
"........    XX     .. X     X ..     XX    .......",
"......   XXXXXXXXX    XX   XX    XXXXXXXXX   .....",
".....  XXX       XXXX  XX XX  XXXX       XXX  ....",
"....  XX            XX  XXX  XX            XX  ...",
".... XX              XX     XX              XX ...",
"...  X                XX   XX                X  ..",
"... XX                 X   X                 XX ..",
"... X                  XX XX                  X ..",
"... X                   X X                   X ..",
"... XX                  X X                  XX ..",
"...  X                  X X                  X  ..",
".... XX                 X X                 XX ...",
"....  XX                X X                XX  ...",
".....  XX               X X               XX  ....",
"......  XXX             X X             XXX  .....",
".......   XXX   XXXXXXXXX XXXXXXXXX   XXX   ......",
".........   XXXXX                 XXXXX   ........",
"...........  X    XXXXXXXXXXXXXXX    X  ..........",
"............   XXXX             XXXX   ...........",
"............ XXX                   XXX ...........",
"............                           ...........",
".............                         ............",
".............    XXXXXXXXXXXXXXXXX    ............",
"............. XXXX               XXXX ............",
"............ X                       X ...........",
"............ X                       X ...........",
"............                           ...........",
".............                         ............",
"..................               .................",
"..................................................",
"..................................................",
"..................................................",
"..................................................",
};
