/* XPM */
/* This file was automatically generated from the file ../POCO.V50
using the program ``zic2xpm''.

    NOTICE: The piece images distributed with ZIICS are
        copyrighted works of their original creators.  Images
        converted with zic2xpm may not be redistributed without
        the permission of the copyright holders.  Do not contact
        the authors of zic2xpm or of ZIICS itself to request
        permission. */
static char * image_name[] = {
"50 50 4 1",
"X	c white s light_piece",
" 	c black s dark_piece",
"*	c gray s light_square",
".	c green s dark_square",
"**************************************************",
"**************************************************",
"**************************************************",
"**************************************************",
"************************   ***********************",
"************************ X ***********************",
"**********************   X   *********************",
"********************** XXXXX *********************",
"**********************   X   *********************",
"************************ X ***********************",
"************************ X ***********************",
"************************ X ***********************",
"***********************  X  **********************",
"**********************  XXX  *********************",
"*********************  XXXXX  ********************",
"********************* XXXXXXX ********************",
"***********    ****** XXXXXXX ******    **********",
"********    XX     ** XXXXXXX **     XX    *******",
"******   XXXXXXXXX    XXXXXXX    XXXXXXXXX   *****",
"*****  XXXXXXXXXXXXXX  XXXXX  XXXXXXXXXXXXXX  ****",
"****  XXXXXXXXXXXXXXXX  XXX  XXXXXXXXXXXXXXXX  ***",
"**** XXXXXXXXXXXXXXXXXX     XXXXXXXXXXXXXXXXXX ***",
"***  XXXXXXXXXXXXXXXXXXX   XXXXXXXXXXXXXXXXXXX  **",
"*** XXXXXXXXXXXXXXXXXXXX   XXXXXXXXXXXXXXXXXXXX **",
"*** XXXXXXXXXXXXXXXXXXXXX XXXXXXXXXXXXXXXXXXXXX **",
"*** XXXXXXXXXXXXXXXXXXXXX XXXXXXXXXXXXXXXXXXXXX **",
"*** XXXXXXXXXXXXXXXXXXXXX XXXXXXXXXXXXXXXXXXXXX **",
"***  XXXXXXXXXXXXXXXXXXXX XXXXXXXXXXXXXXXXXXXX  **",
"**** XXXXXXXXXXXXXXXXXXXX XXXXXXXXXXXXXXXXXXXX ***",
"****  XXXXXXXXXXXXXXXXXXX XXXXXXXXXXXXXXXXXXX  ***",
"*****  XXXXXXXXXXXXXXXXXX XXXXXXXXXXXXXXXXXX  ****",
"******  XXXXXXXXXXXXXXXXX XXXXXXXXXXXXXXXXX  *****",
"*******   XXXXXXXXXXXXXXX XXXXXXXXXXXXXXX   ******",
"*********   XXXXX                 XXXXX   ********",
"***********  X    XXXXXXXXXXXXXXX    X  **********",
"************   XXXXXXXXXXXXXXXXXXXXX   ***********",
"************ XXXXXXXXXXXXXXXXXXXXXXXXX ***********",
"************  XXXX               XXXX  ***********",
"*************                         ************",
"*************                         ************",
"*************     XXXXXXXXXXXXXXX     ************",
"************  XXXXXXXXXXXXXXXXXXXXXXX  ***********",
"************ XXXXXXXXXXXXXXXXXXXXXXXXX ***********",
"************  XXXXXXXXXXXXXXXXXXXXXXX  ***********",
"*************     XXXXXXXXXXXXXXX     ************",
"******************               *****************",
"**************************************************",
"**************************************************",
"**************************************************",
"**************************************************",
};
