/* XPM */
/* This file was automatically generated from the file ../POCO.V50
using the program ``zic2xpm''.

    NOTICE: The piece images distributed with ZIICS are
        copyrighted works of their original creators.  Images
        converted with zic2xpm may not be redistributed without
        the permission of the copyright holders.  Do not contact
        the authors of zic2xpm or of ZIICS itself to request
        permission. */
static char * image_name[] = {
"50 50 4 1",
"X	c white s light_piece",
" 	c black s dark_piece",
"*	c gray s light_square",
".	c green s dark_square",
"..................................................",
"..................................................",
"..................................................",
"........................   .......................",
".......................  X  ......................",
"............   .......  XXX  .......   ...........",
"...........  X  ...... XXXXX ......  X  ..........",
"..........  XXX  .....  XXX  .....  XXX  .........",
".......... XXXXX ......  X  ...... XXXXX .........",
"....   ...  XXX  .......   .......  XXX  ...   ...",
"...  X  ...  X  ........ X ........  X  ...  X  ..",
"..  XXX  ...   ......... X .........   ...  XXX  .",
".. XXXXX ....   .......  X  .......   .... XXXXX .",
"..  XXX  .... X ....... XXX ....... X ....  XXX  .",
"...  X  ..... X  ...... XXX ......  X .....  X  ..",
"....   ...... XX ...... XXX ...... XX ......   ...",
".....  ...... XX  ....  XXX  ....  XX ......  ....",
".....   ..... XXX .... XXXXX .... XXX .....   ....",
"..... X  .... XXX  ... XXXXX ...  XXX ....  X ....",
"..... XX  ... XXXX ... XXXXX ... XXXX ...  XX ....",
"..... XXX ... XXXX  .  XXXXX  .  XXXX ... XXX ....",
"..... XXX  .. XXXXX . XXXXXXX . XXXXX ..  XXX ....",
"..... XXXX  . XXXXX . XXXXXXX . XXXXX .  XXXX ....",
".....  XXXX   XXXXX   XXXXXXX   XXXXX   XXXX  ....",
"...... XXXXX  XXXXXX           XXXXXX  XXXXX .....",
"...... XXXXXX         XXXXXXX         XXXXXX .....",
"......  XX     XXXXXXXXXXXXXXXXXXXXX     XX  .....",
".......    XXXXXXXXXXXXXXXXXXXXXXXXXXXXX    ......",
".......  XXXXXXXXXXXXXXXXXXXXXXXXXXXXXXXXX  ......",
".......  XXXXXXXXXXXXXXXXXXXXXXXXXXXXXXXXX  ......",
"....... XXXXXXXXXXXXXXXXXXXXXXXXXXXXXXXXXXX ......",
"....... XXXXXXXXXXXXXXXXXXXXXXXXXXXXXXXXXXX ......",
".......  XXXXXXXXXXXXXXXXXXXXXXXXXXXXXXXXX  ......",
"........ XXXXXXXX                 XXXXXXXX .......",
"........  XXXX     XXXXXXXXXXXXXX    XXXX  .......",
".........      XXXXXXXXXXXXXXXXXXXXX      ........",
"...........  XXXXXXXXXXXXXXXXXXXXXXXXX  ..........",
"............  XXXX               XXXX  ...........",
".............                         ............",
".............                         ............",
".............     XXXXXXXXXXXXXXX     ............",
"............  XXXXXXXXXXXXXXXXXXXXXXX  ...........",
"............ XXXXXXXXXXXXXXXXXXXXXXXXX ...........",
"............  XXXXXXXXXXXXXXXXXXXXXXX  ...........",
".............     XXXXXXXXXXXXXXX     ............",
"..................               .................",
"..................................................",
"..................................................",
"..................................................",
"..................................................",
};
