/* XPM */
/* This file was automatically generated from the file ../GILCHESS.V56
using the program ``zic2xpm''.

    NOTICE: The piece images distributed with ZIICS are
        copyrighted works of their original creators.  Images
        converted with zic2xpm may not be redistributed without
        the permission of the copyright holders.  Do not contact
        the authors of zic2xpm or of ZIICS itself to request
        permission. */
static char * image_name[] = {
"56 56 4 1",
"X	c white s light_piece",
" 	c black s dark_piece",
"*	c gray s light_square",
".	c green s dark_square",
"********************************************************",
"********************************************************",
"********************************************************",
"********************************************************",
"****************************X***************************",
"***************************XXX**************************",
"***************************XXX**************************",
"***************************XXX**************************",
"***************************XXX**************************",
"**********************XXXXXXXXXXXXX*********************",
"*********************XXXXXXXXXXXXXXX********************",
"**********************XXXXXXXXXXXXX*********************",
"***************************XXX**************************",
"***************************XXX**************************",
"***************************XXX**************************",
"***************************XXX**************************",
"***************************XXX**************************",
"******************XX*******XXX*******XX*****************",
"*******************XX******XXX******XX******************",
"*******************XXXXXXXXXXXXXXXXXXX******************",
"********************XXXXXXXXXXXXXXXXX*******************",
"*********************XXXXXXXXXXXXXXX********************",
"**********************XXXXXXXXXXXXX*********************",
"***********************XXXXXXXXXXX**********************",
"************************XXXXXXXXX***********************",
"************************XXXXXXXXX***********************",
"********************XXXXXXXXXXXXXXXXX*******************",
"*****************XXXXXXXXXXXXXXXXXXXXXXX****************",
"*******************XXXXXXXXXXXXXXXXXXX******************",
"**********************XXXXXXXXXXXXX*********************",
"************************XXXXXXXXX***********************",
"************************XXXXXXXXX***********************",
"************************XXXXXXXXX***********************",
"************************XXXXXXXXX***********************",
"************************XXXXXXXXX***********************",
"************************XXXXXXXXX***********************",
"************************XXXXXXXXX***********************",
"************************XXXXXXXXX***********************",
"************************XXXXXXXXX***********************",
"************************XXXXXXXXX***********************",
"************************XXXXXXXXX***********************",
"***********************XXXXXXXXXXX**********************",
"*********************XXXXXXXXXXXXXXX********************",
"********************XXXXXXXXXXXXXXXXX*******************",
"*******************XXXXXXXXXXXXXXXXXXX******************",
"******************XXXXXXXXXXXXXXXXXXXXX*****************",
"*****************XXXXXXXXXXXXXXXXXXXXXXX****************",
"****************XXXXXXXXXXXXXXXXXXXXXXXXX***************",
"***************XXXXXXXXXXXXXXXXXXXXXXXXXXX**************",
"**************XXXXXXXXXXXXXXXXXXXXXXXXXXXXX*************",
"*************XXXXXXXXXXXXXXXXXXXXXXXXXXXXXXX************",
"************XXXXXXXXXXXXXXXXXXXXXXXXXXXXXXXXX***********",
"********************************************************",
"********************************************************",
"********************************************************",
"********************************************************",
};
