/* XPM */
/* This file was automatically generated from the file ../GILCHESS.V56
using the program ``zic2xpm''.

    NOTICE: The piece images distributed with ZIICS are
        copyrighted works of their original creators.  Images
        converted with zic2xpm may not be redistributed without
        the permission of the copyright holders.  Do not contact
        the authors of zic2xpm or of ZIICS itself to request
        permission. */
static char * image_name[] = {
"56 56 4 1",
"X	c white s light_piece",
" 	c black s dark_piece",
"*	c gray s light_square",
".	c green s dark_square",
"........................................................",
"........................................................",
"........................................................",
"........................................................",
"........................................................",
"........................................................",
"........................................................",
"....................................XX..................",
"...................................XX X.................",
"..................................XX XX ................",
".........................XXXXXX.. X XX XX...............",
".......................XXXXXXXXXXX XX XX ...............",
".....................XXXXXXXXXXXXXX  XX X ..............",
"..............XXXXXXXXXXXXXX  XXXXX XX X X..............",
"..............XXXXXXXXXXXXX X XXXXXX  X X ..............",
"..............XXXXXXXXXXXXXXXXXXXXXX X X X..............",
"................XXXXXXXXXXXXXXXXXXXX  X XX..............",
"...............XXXXXXXXXXXXXXXXXXXXX X XX ..............",
"..............XXXXXXXXXXXXXXXXXXXXXX  XX X..............",
".................XXXXXXXXXXXXXXXXXX  XX X...............",
"......................XXXXXXXXXXXXX XX XX...............",
"........................XXXXXXXXXXXXX XX ...............",
"......................XXXXXXXXXXXXXX XX ................",
".....................XXXXXXXXXXXXXX XX X................",
"....................XXXXXXXXXXXXXX XX XX................",
"...................XXXXXXXXXXXXXXXXX XX.................",
"..................XXXXXXXXXXXXXXXXX XX .................",
".................XXXXXXXXXXXXXXXXX XX X.................",
".................XXXXXXXXXXXXXXXXXXX X..................",
"................XXXXXXXXXXXXXXXXXXX XX..................",
"................XXXXXXXXXXXXXXXXXX XXX..................",
"................XXXXXXXXXXXXXXXXXXXXX X.................",
"................XXXXXXXXXXXXXXXXXXX  XX.................",
"................XXXXXXXXXXXXXXXXXX XXXX.................",
"..................XXXXXXXXXXXXXXXX     X................",
"....................XXXXXXXXXXXXXXX.....................",
"......................XXXXXXXXXXXXX.....................",
".....................XXXXXXXXXXXXXXX....................",
"....................XXXXXXXXXXXXXXXXX...................",
".....................XXXXXXXXXXXXXXX....................",
"......................XXXXXXXXXXXXX.....................",
"......................XXXXXX      X.....................",
".....................XX   XXXXXXXXXX....................",
"....................XXXXXX        X  ...................",
"...................XXXXXXXXXXXXXXXXXXX..................",
"..................                     .................",
".................XXXXXXXXXXXXXXXXXXXXXXX................",
"................                         ...............",
"...............XXXXXXXXXXXXXXXXXXXXXXXXXXX..............",
"..............                             .............",
".............XXXXXXXXXXXXXXXXXXXXXXXXXXXXXXX............",
"............X                               X...........",
"........................................................",
"........................................................",
"........................................................",
"........................................................",
};
