/* XPM */
/* This file was automatically generated from the file ../GILCHESS.V56
using the program ``zic2xpm''.

    NOTICE: The piece images distributed with ZIICS are
        copyrighted works of their original creators.  Images
        converted with zic2xpm may not be redistributed without
        the permission of the copyright holders.  Do not contact
        the authors of zic2xpm or of ZIICS itself to request
        permission. */
static char * image_name[] = {
"56 56 4 1",
"X	c white s light_piece",
" 	c black s dark_piece",
"*	c gray s light_square",
".	c green s dark_square",
"********************************************************",
"********************************************************",
"********************************************************",
"********************************************************",
"********************************************************",
"*****************************XXX************************",
"****************************XXXXX***********************",
"****************************XXXXX***********************",
"****************************XXXXX***********************",
"**********************X***X**XXX**X***X****X************",
"****************XXX***X***X***X***X***X***XXX***********",
"*****************XXX*XXX*XXX*XXX*XXX*XXX*XXX************",
"******************XXXXXXXXXXXXXXXXXXXXXXXXX*************",
"*******************XXXXXXXXXXX XXXXXXXXXXX**************",
"********************XXXXXXXXX   XXXXXXXXX***************",
"*********************XXXXXXXXX XXXXXXXXX****************",
"**********************XXXXXXXXXXXXXXXXX*****************",
"***********************XXXXXXX XXXXXXX******************",
"************************XXXXX   XXXXX*******************",
"*************************XXXXX XXXXX********************",
"**************************XXXXXXXXX*********************",
"**************************XXXXXXXXX*********************",
"**************************XXXXXXXXX*********************",
"**************************XXXXXXXXX*********************",
"**************************XXXXXXXXX*********************",
"********************XXXXXXXXXXXXXXXXXXXXX***************",
"*******************XXXXXXXXXXXXXXXXXXXXXXXX*************",
"*******************XXXXXXXXXXXXXXXXXXXXXXX**************",
"**********************XXXXXXXXXXXXXXXXX*****************",
"**************************XXXXXXXXX*********************",
"**************************XXXXXXXXX*********************",
"**************************XXXXXXXXX*********************",
"**************************XXXXXXXXX*********************",
"**************************XXXX XXXX*********************",
"**************************XXX   XXX*********************",
"**************************XXXX XXXX*********************",
"**************************XXXXXXXXX*********************",
"**************************XXXX XXXX*********************",
"**************************XXX   XXX*********************",
"**************************XXXX XXXX*********************",
"*************************XXXXXXXXXXX********************",
"***********************XXXXXXXXXXXXXXX******************",
"**********************XXXXXXXXXXXXXXXXX*****************",
"*********************XXXXXXXXXXXXXXXXXXX****************",
"********************XXXXXXXXXXXXXXXXXXXXX***************",
"*******************XXXXXXXXXXXXXXXXXXXXXXX**************",
"******************XXXXXXXXXXXXXXXXXXXXXXXXX*************",
"*****************XXXXXXXXXXXXXXXXXXXXXXXXXXX************",
"****************XXXXXXXXXXXXXXXXXXXXXXXXXXXXX***********",
"***************XXXXXXXXXXXXXXXXXXXXXXXXXXXXXXX**********",
"**************XXXXXXXXXXXXXXXXXXXXXXXXXXXXXXXXX*********",
"********************************************************",
"********************************************************",
"********************************************************",
"********************************************************",
"********************************************************",
};
