/* XPM */
/* This file was automatically generated from the file ../GILCHESS.V56
using the program ``zic2xpm''.

    NOTICE: The piece images distributed with ZIICS are
        copyrighted works of their original creators.  Images
        converted with zic2xpm may not be redistributed without
        the permission of the copyright holders.  Do not contact
        the authors of zic2xpm or of ZIICS itself to request
        permission. */
static char * image_name[] = {
"56 56 4 1",
"X	c white s light_piece",
" 	c black s dark_piece",
"*	c gray s light_square",
".	c green s dark_square",
"........................................................",
"........................................................",
"........................................................",
"........................................................",
"........................................................",
"........................................................",
"........................................................",
"........................................................",
"........................................................",
"........................................................",
"........................................................",
"........................................................",
".................XXXX...XXXXXXXXXXX...XXXX..............",
".................XXXX...XXXXXXXXXXX...XXXX..............",
".................XXXX...XX XXXXXXXX...XXXX..............",
".................XXXXXXXXXX XXXXXXX XXXXXX..............",
".................XXXXXXXXXXXXXXXXXX XXXXXX..............",
".................XXXXXXXXXXXX XXXXX XXXXXX..............",
"..................XXXXXXXXXXX XXXX XXXXXX...............",
"...................XXXXXXXXXXXXXX XXXXXX................",
"....................XXXXXXXXXXX  XXXXXX.................",
".....................XXXXXXXXXX XXXXXX..................",
"......................XXXXXXXXX XXXXX...................",
".......................XXXXXXXX XXXX....................",
".......................XXXXXXXX XXXX....................",
".......................XXXXXXXX XXXX....................",
".......................XXXXXXXX XXXX....................",
".......................XXXXXXXX XXXX....................",
".......................XXXXXXXX XXXX....................",
".......................XXXXXXXX XXXX....................",
".......................XXXXXXXX XXXX....................",
".......................XXXXXXXX XXXX....................",
".......................XXXXXXXX XXXX....................",
".......................XXXXXXXX XXXX....................",
".......................XXXXXXXX XXXX....................",
".......................XXXXXXXX XXXX....................",
".......................XXXXXXXX XXXX....................",
".......................XXXXXXXX XXXX....................",
".......................XXXXXXXX XXXX....................",
".......................XXXXXXXX XXXX....................",
".......................XXXXXXXX XXXX....................",
"......................XXXX     XXXXXX...................",
".....................XXXXXXXXXXXXXXXXX..................",
"....................XX        XXXXXX  X.................",
"...................XXXXXXXXXXXXXXXXXXXXX................",
"..................XX       XXXXXXXXX   XX...............",
".................XXXXXXXXXXXXXXXXXXXXXXXXX..............",
"................XXX      XXXXXXXXX      XXX.............",
"...............XXXXXXXXXXXXXXXXXXXXXXXXXXXXX............",
"..............        XXXXXXXXXX          XXX...........",
".............XXXXXXXXXXXXXXXXXXXXXXXXXXXXXXXXX..........",
"..............XXXXXXXXXXXXXXXXXXXXXXXXXXXXXXX...........",
"........................................................",
"........................................................",
"........................................................",
"........................................................",
};
