/* XPM */
/* This file was automatically generated from the file ../REBEL2.V48
using the program ``zic2xpm''.

    NOTICE: The piece images distributed with ZIICS are
        copyrighted works of their original creators.  Images
        converted with zic2xpm may not be redistributed without
        the permission of the copyright holders.  Do not contact
        the authors of zic2xpm or of ZIICS itself to request
        permission. */
static char * image_name[] = {
"48 48 4 1",
"X	c white s light_piece",
" 	c black s dark_piece",
"*	c gray s light_square",
".	c green s dark_square",
"************************************************",
"************************************************",
"************************************************",
"************************************************",
"************************************************",
"************************************************",
"**************   *****  ************************",
"************** X  ***    ***********************",
"************** XX *** XX ***********************",
"************** XX     XX  **********************",
"************** X XXXX XXX **********************",
"************** XXXXXXXXXX **********************",
"*************  XXXXXXXXXX  *********************",
"************  XXXXXXXXXXX     ******************",
"************ XXX   XXXXXXXXXX   ****************",
"***********  XX   XXXXXXXXXXXXX  ***************",
"*********** XXX  XXXXXXXXXXXXXXX  **************",
"*********** XXXXXXXXXXXXXXXXXXXXX  *************",
"**********  XXXXXXXXXXXXXXXXXXXXXX  ************",
"*********  XXXXXXXXXXXXXXXXXXXXXXXX ************",
"********* XXXXXXXXXXXXXXXXXXXXXXXXX  ***********",
"******** XXXXXXXXXXXXXXXXXXXXXXXXXXX ***********",
"******** XXXXXXXXXXXXXXXXX XXXXXXXXX  **********",
"******* XXXXXXXXXXXXXXXXX  XXXXXXXXXX **********",
"******  XXXXXXXXXXXXXXXXX  XXXXXXXXXX **********",
"*****  XXXXXXXXXXXXXXX    XXXXXXXXXXX  *********",
"***** X  XXXXXXXXXXX   *  XXXXXXXXXXXX *********",
"***** X XXXXXXXXX    *** XXXXXXXXXXXXX  ********",
"***** XXXXXXXXXX  *****  XXXXXXXXXXXXXX ********",
"***** XXX   XXX  *****  XXXXXXXXXXXXXXX ********",
"***** XX   XXX  *****  XXXXXXXXXXXXXXXX  *******",
"******    XXX  *****  XXXXXXXXXXXXXXXXX  *******",
"******** XXX  ****   XXXXXXXXXXXXXXXXXXX *******",
"********     ****  XXXXXXXXXXXXXXXXXXXXX *******",
"****************  XXXXXXXXXXXXXXXXXXXXXX *******",
"***************  XXXXXXXXXXXXXXXXXXXXXXX  ******",
"*************** XXXXXXXXXXXXXXXXXXXXXXXXX ******",
"**************  XXXXXXXXXXXXXXXXXXXXXXXXX ******",
"************** XXXXXXXXXXXXXXXXXXXXXXXXXX ******",
"*************  XXXXXXXXXXXXXXXXXXXXXXXXXX ******",
"************* XXXXXXXXXXXXXXXXXXXXXXXXXXX ******",
"************* XXXXXXXXXXXXXXXXXXXXXXXXXXX ******",
"*************                             ******",
"************************************************",
"************************************************",
"************************************************",
"************************************************",
"************************************************",
};
