/* XPM */
/* This file was automatically generated from the file ../RAIN.V50
using the program ``zic2xpm''.

    NOTICE: The piece images distributed with ZIICS are
        copyrighted works of their original creators.  Images
        converted with zic2xpm may not be redistributed without
        the permission of the copyright holders.  Do not contact
        the authors of zic2xpm or of ZIICS itself to request
        permission. */
static char * image_name[] = {
"50 50 4 1",
"X	c white s light_piece",
" 	c black s dark_piece",
"*	c gray s light_square",
".	c green s dark_square",
"**************************************************",
"**************************************************",
"**************************************************",
"**************************************************",
"*******************   ******   *******************",
"******************     ****     ******************",
"******************     ****     ******************",
"*******************   ******   *******************",
"******************  X  ****  X  ******************",
"****************** XXX  **  XXX ******************",
"*****************  XXXX    XXXX  *****************",
"****************  XXXXXX  XXXXXX  ****************",
"***************  XXXXXXXX  XXXXXX  ***************",
"**************  XXXXXXXXXX  XXXXXX  **************",
"************** XXXXXXXXXXXX  XXXXXX **************",
"*************  XXXXXXXXXXXXX  XXXXX  *************",
"************* XXXXXXXXXXXXXXX  XXXXX *************",
"************  XXXXXXXXXXXXXXXX XXXXX  ************",
"************ XXXXXXXXXXXXXXXXX  XXXXX ************",
"************ XXXXXXXXXXXXXXXXXX  XXXX ************",
"***********  XXXXXXXXXXXXXXXXXXX XXXX  ***********",
"*********** XXXXXXXXXXXXXXXXXXXX  XXXX ***********",
"*********** XXXXXXXXXXXXXXXXXXXXX XXXX ***********",
"*********** XXXXXXXXXXXXXXXXXXXXX  XXX ***********",
"*********** XXXXXXXXXXXXXXXXXXXXXX XXX ***********",
"*********** XXXXXXXXXXXXXXXXXXXXXX XXX ***********",
"***********  XXXXXXXXXXXXXXXXXXXXX  X  ***********",
"************ XXXXXXXXXXXXXXXXXXXXXX X ************",
"************  XXXXXXXXXXXXXXXXXXXXX X ************",
"************* XXXXXXXXXXXXXXXXXXXXX   ************",
"*************  XXXXXXXXXXXXXXXXXXXX  *************",
"**************  XX              XX  **************",
"***************    XXXXXXXXXXXX    ***************",
"*************** XXXXXXXXXXXXXXXXXX ***************",
"*************** XXXXXXXXXXXXXXXXXX ***************",
"*************** XXXXXXX    XXXXXXX ***************",
"***************  XXXXXXXXXXXXXXXX  ***************",
"*************** XXXXXXXXXXXXXXXXXX ***************",
"*************** XXXXXXXXXXXXXXXXXX ***************",
"*************** XXXXXXXXXXXXXXXXXX ***************",
"******       ** XX              XX **       ******",
"****   XXXXX       XXXXXXXXXXXX       XXXXX   ****",
"***  XXXXXXXXXXXXX              XXXXXXXXXXXXX  ***",
"**  XXXXXXXXXXXXXXXXXXX    XXXXXXXXXXXXXXXXXXX  **",
"** XXXXXXXXXXXXXXXXXXX  **  XXXXXXXXXXXXXXXXXXX **",
"* XX        XXXXXXX    ****    XXXXXX         XX *",
"*    ******         **********        *******    *",
"**************************************************",
"**************************************************",
"**************************************************",
};
