/* XPM */
/* This file was automatically generated from the file ../RAIN.V50
using the program ``zic2xpm''.

    NOTICE: The piece images distributed with ZIICS are
        copyrighted works of their original creators.  Images
        converted with zic2xpm may not be redistributed without
        the permission of the copyright holders.  Do not contact
        the authors of zic2xpm or of ZIICS itself to request
        permission. */
static char * image_name[] = {
"50 50 4 1",
"X	c white s light_piece",
" 	c black s dark_piece",
"*	c gray s light_square",
".	c green s dark_square",
"**************************************************",
"**************************************************",
"**************************************************",
"**************************************************",
"*****************  *******************************",
"*****************   ******************************",
"*************** * XX *****************************",
"***************   XXX  ***************************",
"***************   XXXX    ************************",
"***************   XXXXXXX      *******************",
"***************   XXXXXXXXXX      ****************",
"***************    XXXXXXXXXXXXXX    *************",
"***************     XXXXXXXXX    XXX  ************",
"****************  X XXXXXXXXXXXXXXXXX  ***********",
"***************  XXX XXXXXXXXXXX        **********",
"*************** XXXXXXXXXXXXXXXXXXXXXXX   ********",
"**************  XXXXXXXXXXXXXXXXXXX       ********",
"************** XXXXXXXXXXXXXXXXXXXXXXXXXX  *******",
"*************  XXX  XXXXXXXXXXXXXXXXX       ******",
"************  XXXX   XXXXXXXXXXXXXXXXXXXXXX ******",
"***********  XXXXX  XXXXXXXXXXXXXXXXXXXX     *****",
"**********  XXXXXXXXXXXXXXXXXXXXXXXXXXXXXXXX *****",
"*********  XXXXXXXXXXXXXXXXXXXXXXXXXXXXXX     ****",
"********  XXXXXXXXXXXXXXXXXXXXXXXXXXXXXXXXXX  ****",
"*******  XXXXXXXXXXXXXXXXXXXXXXXXXXXXXXXXX    ****",
"******  XXXXXXXXXXXXXXXXXXXXXXXXXXXXXXXXXXXXX ****",
"****** XXXXXXXXXXXXXXXXXXXXXXXXXXXXXXXXXXXX   ****",
"*****  XXXXXXXXXXXXXXXXXXXXXXXXXXXXXXXXXXXXXX  ***",
"****  XXXXXXXXXXXXXXXXXXXXXXXX XXXXXXXXXXXXX   ***",
"**** XXXXXXXXXXXX  XXXXXXXX   XXXXXXXXXXXXXXXX ***",
"**** XX  XXXXXXXXX          XXXXXXXXXXXXXXXX   ***",
"**** XXX  XXXXXXXX   ****  XXXXXXXXXXXXXXXXXXX ***",
"**** XXXXXXXXXXXX  ******  XXXXXXXXXXXXXXXXXX  ***",
"****  XXXXXX XXX  ******  XXXXXXXXXXXXXXXXXXXX ***",
"*****   XX  XX   ******  XXXXXXXXXXXXXXXXXXXX  ***",
"*******   *    *******  XXXXXXXXXXXXXXXXXXXXXX ***",
"*********************  XXXXXXXXXXXXXXXXXXXXXXX ***",
"********************  XXXXXXXXXXXXXXXXXXXXXXXX ***",
"*******************  XXXXXXXXXXXXXXXXXXXXXXXXX ***",
"*****************   XXXXXXXXXXXXXXXXXXXXXXXXXX ***",
"****************  XXXXXXXXXXXXXXXXXXXXXXXXXXXX ***",
"***************  XXXXXXXXXXXXXXXXXXXXXXXXXXXXX ***",
"**************  XXXXXXXXXXXXXXXXXXXXXXXXXXXXXX ***",
"************** XXXXXXXXXXXXXXXXXXXXXXXXXXXXXXX ***",
"**************  XXXXXXXXXXXXXXXXXXXXXXXXXXXXX  ***",
"***************                               ****",
"**************************************************",
"**************************************************",
"**************************************************",
"**************************************************",
};
