/* XPM */
/* This file was automatically generated from the file ../RAIN.V50
using the program ``zic2xpm''.

    NOTICE: The piece images distributed with ZIICS are
        copyrighted works of their original creators.  Images
        converted with zic2xpm may not be redistributed without
        the permission of the copyright holders.  Do not contact
        the authors of zic2xpm or of ZIICS itself to request
        permission. */
static char * image_name[] = {
"50 50 4 1",
"X	c white s light_piece",
" 	c black s dark_piece",
"*	c gray s light_square",
".	c green s dark_square",
"..................................................",
"..................................................",
"..................................................",
"..................................................",
"..................................................",
"......................      ......................",
"....................   XXXX   ....................",
".................... XXXXXXXX ....................",
"...................  XXXXXXXX  ...................",
"................... XXXXXXXXXX ...................",
"................... XXXXXXXXXX ...................",
"...................  XXXXXXXX  ...................",
"....................  XXXXXX  ....................",
".................    XXXXXXXX    .................",
"...............   XXXXXXXXXXXXXX   ...............",
".............   XXXXXXXXXXXXXXXXXX   .............",
"............  XXXXXXXXXXXXXXXXXXXXXX  ............",
"............ XXXXXXXXXXXXXXXXXXXXXXXX ............",
"...........  XXXXXXXXXXXXXXXXXXXXXXXX  ...........",
"........... XXXXXXXXXXXXXXXXXXXXXXXXXX ...........",
"...........                            ...........",
"....................  XXXXXX  ....................",
"..................... XXXXXX .....................",
"....................  XXXXXX  ....................",
".................... XXXXXXXX ....................",
"...................  XXXXXXXX  ...................",
"................... XXXXXXXXXX ...................",
"................... XXXXXXXXXX ...................",
"..................  XXXXXXXXXX  ..................",
".................. XXXXXXXXXXXX ..................",
".................. XXXXXXXXXXXX ..................",
".................. XXXXXXXXXXXX ..................",
".................. XXXXXXXXXXXX ..................",
".................. XXXXXXXXXXXX ..................",
"..................  XXXXXXXXXX  ..................",
"................... XXXXXXXXXX ...................",
"...................  XXXXXXXX  ...................",
".................... XXXXXXXX ....................",
"..................   XXXXXXXX   ..................",
"..............     XXXXXXXXXXXX     ..............",
"...........    XXXXXXXXXXXXXXXXXXXX    ...........",
"..........  XXXXXXXXXXXXXXXXXXXXXXXXXX  ..........",
".........  XXXXXXXXXXXXXXXXXXXXXXXXXXXX  .........",
"......... XXXXXXXXXXXXXXXXXXXXXXXXXXXXXX .........",
"......... XXXXXXXXXXXXXXXXXXXXXXXXXXXXXX .........",
".........                                .........",
"..................................................",
"..................................................",
"..................................................",
"..................................................",
};
