/* XPM */
/* This file was automatically generated from the file ../REBEL1.V48
using the program ``zic2xpm''.

    NOTICE: The piece images distributed with ZIICS are
        copyrighted works of their original creators.  Images
        converted with zic2xpm may not be redistributed without
        the permission of the copyright holders.  Do not contact
        the authors of zic2xpm or of ZIICS itself to request
        permission. */
static char * image_name[] = {
"48 48 4 1",
"X	c white s light_piece",
" 	c black s dark_piece",
"*	c gray s light_square",
".	c green s dark_square",
"************************************************",
"************************************************",
"************************************************",
"************************************************",
"************************************************",
"************************************************",
"************************************************",
"************************************************",
"************************************************",
"***********************  ***********************",
"***************  ***** XX *****  ***************",
"************** XX **** XX **** XX **************",
"************** XX *****  ***** XX **************",
"************** XX *****  ***** XX **************",
"***************  ******  ******  ***************",
"*******  *******  *****  *****  *******  *******",
"****** XX ******  **** XX ****  ****** XX ******",
"****** XX ****** X *** XX *** X ****** XX ******",
"*******   ****** X *** XX *** X ******   *******",
"*********  ***** XX ** XX ** XX *****  *********",
"********* X  *** XX ** XX ** XX ***  X *********",
"********** XX *** XX * XX * XX *** XX **********",
"********** XXX ** XX  XXXX  XX ** XXX **********",
"*********** XXX * XXX XXXX XXX * XXX ***********",
"************ XX * XXX XXXX XXX * XX ************",
"************ XXX  XXX XXXX XXX  XXX ************",
"************* XXX XXX XXXX XXX XXX *************",
"************* XXXX XX XXXX XX XXXX *************",
"************** XXX            XXX **************",
"**************     XXXXXXXXXX     **************",
"*************** XXXXXXXXXXXXXXXX ***************",
"*************** XX            XX ***************",
"***************    XXXXXXXXXX    ***************",
"**************** XXXXXXXXXXXXXX ****************",
"**************** XX          XX ****************",
"****************    XXXXXXXX    ****************",
"***************  XXXXXXXXXXXXXX  ***************",
"*************** XX            XX ***************",
"***************    XXXXXXXXXX    ***************",
"***************  XXXXXXXXXXXXXX  ***************",
"***************  XXXXXXXXXXXXXX  ***************",
"****************  XXXXXXXXXXXX  ****************",
"******************            ******************",
"************************************************",
"************************************************",
"************************************************",
"************************************************",
"************************************************",
};
