/* XPM */
/* This file was automatically generated from the file ../KAYHAN.V48
using the program ``zic2xpm''.

    NOTICE: The piece images distributed with ZIICS are
        copyrighted works of their original creators.  Images
        converted with zic2xpm may not be redistributed without
        the permission of the copyright holders.  Do not contact
        the authors of zic2xpm or of ZIICS itself to request
        permission. */
static char * image_name[] = {
"48 48 4 1",
"X	c white s light_piece",
" 	c black s dark_piece",
"*	c gray s light_square",
".	c green s dark_square",
"................................................",
"................................................",
"................................................",
"................................................",
"................................................",
"................................................",
"................................................",
"....................   ..   ....................",
"...................  X    X  ...................",
"................... XXX  XXX ...................",
"...................  X    X  ...................",
"..................... .... .....................",
".................... X  . X  ...................",
"...................  XX  XXX  ..................",
"..................  XXXX XXXX  .................",
".................  XXXXXX XXXX  ................",
"................. XXXXXXXX XXXX ................",
"................  XXXXXXXXX XXX  ...............",
"...............  XXXXXXXXXXX XXX  ..............",
"............... XXXXXXXXXXXXX XXX ..............",
"..............  XXXXXXXXXXXXXX XX  .............",
".............. XXXXXXXXXXXXXXX XXX .............",
".............. XXXXXXXXXXXXXXXX XX .............",
".............. XXXXXXXXXXXXXXXX XX .............",
".............. XXXXXXXXXXXXXXXX XX .............",
".............. XXXXXXXXXXXXXXXXX X .............",
".............. XXXXXXXXXXXXXXXXX X .............",
".............. XXXXXXXXXXXXXXXXX X .............",
"..............  XXXXXXXXXXXXXXXX  ..............",
"............... XXXXXXXXXXXXXXXX  ..............",
"...............  XXXXXXXXXXXXXXX ...............",
"................ XXXX       XXXX ...............",
"................     XXXXXXX     ...............",
"................. XXXXXXXXXXXXX ................",
"................. XXXXXX XXXXXX ................",
"................. XXXXXX XXXXXX ................",
"................. XXXXXXXXXXXXX ................",
"................. XX         XX ................",
"........       ..    XXXXXXX    ..       .......",
".......  XXXXXX   XXXXXXXXXXXXX    XXXXX  ......",
"....... XXXXXXXXXX  XXXXXXXXX  XXXXXXXXXX ......",
"...... XXXXXXXXXXXXX         XXXXXXXXXXXXX .....",
"...... X            .........            X .....",
"......   ...............................   .....",
"................................................",
"................................................",
"................................................",
"................................................",
};
