/* XPM */
/* This file was automatically generated from the file ../KAYHAN.V48
using the program ``zic2xpm''.

    NOTICE: The piece images distributed with ZIICS are
        copyrighted works of their original creators.  Images
        converted with zic2xpm may not be redistributed without
        the permission of the copyright holders.  Do not contact
        the authors of zic2xpm or of ZIICS itself to request
        permission. */
static char * image_name[] = {
"48 48 4 1",
"X	c white s light_piece",
" 	c black s dark_piece",
"*	c gray s light_square",
".	c green s dark_square",
"************************************************",
"************************************************",
"************************************************",
"************************************************",
"************************************************",
"************************************************",
"************************************************",
"************************************************",
"********************        ********************",
"********************  XXXX  ********************",
"******************** X XX X ********************",
"******************** XX  XX ********************",
"*********       **** XX  XX ****       *********",
"*******   XXXXX   ** X XX X **   XXXXX   *******",
"******  XXXXXXXXX  *  XXXX  *  XXXXXXXXX  ******",
"****** XXXXXXXXXXX            XXXXXXXXXXX ******",
"*****  XXXXXXXXXXXX XXXXXXXX XXXXXXXXXXXX  *****",
"***** XXXXXXXXXXXXX  XXXXXX  XXXXXXXXXXXXX *****",
"****  XXXXXXXXXXXXXX XXXXXX XXXXXXXXXXXXXX  ****",
"**** XXXXXXXXXXXXXXX  XXXX  XXXXXXXXXXXXXXX ****",
"**** XXXXXXXXXXXXXXXX XXXX XXXXXXXXXXXXXXXX ****",
"**** XXXXXXXXXXXXXXXX  XX  XXXXXXXXXXXXXXXX ****",
"**** XXXXXXXXXXXXXXXXX XX XXXXXXXXXXXXXXXXX ****",
"****  XXXXXXXXXXXXXXXX XX XXXXXXXXXXXXXXXX  ****",
"***** XXXXXXXXXXXXXXXX    XXXXXXXXXXXXXXXX *****",
"*****  XXXXXXXXXXXXXXXX  XXXXXXXXXXXXXXXX  *****",
"****** XXXXXXXXXXXXXXXX  XXXXXXXXXXXXXXXX  *****",
"******  XXXXXXXXXXXXXXX  XXXXXXXXXXXXXXX  ******",
"*******  XXXXXXXXXX          XXXXXXXXXX  *******",
"********  XXXX      XXXXXXXX      XXXX  ********",
"********* X    XXXXXXXXXXXXXXXXXX    X *********",
"*********  XXXXXXXXXXXX  XXXXXXXXXXXX  *********",
"********** XXXXXXXXXXXX  XXXXXXXXXXXX **********",
"********** XXXXXXXXXXXX  XXXXXXXXXXXX **********",
"**********  XXXXXXXXXXXXXXXXXXXXXXXX  **********",
"*********** XXXXXXXXXXXXXXXXXXXXXXXX ***********",
"*********** XXXXXXX          XXXXXXX ***********",
"*********** XXX     XXXXXXXX     XXX ***********",
"***********     XXXXXXXXXXXXXXXX     ***********",
"*********** XXXXXXXXXXXXXXXXXXXXXXXX ***********",
"***********   XXXXXXXXXXXXXXXXXXXX   ***********",
"*************    XXXXXXXXXXXXXX    *************",
"****************    XXXXXXXX    ****************",
"*******************          *******************",
"************************************************",
"************************************************",
"************************************************",
"************************************************",
};
