/* XPM */
/* This file was automatically generated from the file ../FRITZ2.V40
using the program ``zic2xpm''.

    NOTICE: The piece images distributed with ZIICS are
        copyrighted works of their original creators.  Images
        converted with zic2xpm may not be redistributed without
        the permission of the copyright holders.  Do not contact
        the authors of zic2xpm or of ZIICS itself to request
        permission. */
static char * image_name[] = {
"40 40 4 1",
"X	c white s light_piece",
" 	c black s dark_piece",
"*	c gray s light_square",
".	c green s dark_square",
"****************************************",
"****************************************",
"****************************************",
"*******************  *******************",
"*******************  *******************",
"*****************      *****************",
"*****************      *****************",
"*******************  *******************",
"*******************  *******************",
"*******************  *******************",
"******************    ******************",
"*****************      *****************",
"****************   XX   ****************",
"********      **  XXXX  **      ********",
"******            XXXX            ******",
"*****   XXXXXX    XXXX    XXXXXX   *****",
"*****  XXXXXXXXX  XXXX  XXXXXXXXX  *****",
"****  XXXXXXXXXXX  XX  XXXXXXXXXXX  ****",
"****  XXXXXXXXXXX  XX  XXXXXXXXXXX  ****",
"****  XXXXXXXXXXXX    XXXXXXXXXXXX  ****",
"****  XXXXXXXXXXXX    XXXXXXXXXXXX  ****",
"****   XXXXXXXXXXXX  XXXXXXXXXXXX   ****",
"*****  XXXXXXXXXXXX  XXXXXXXXXXXX  *****",
"*****   XXXXXXXXXXX  XXXXXXXXXXX   *****",
"******   XXXXXXXXXX  XXXXXXXXXX   ******",
"*******   XXX              XXX   *******",
"********                        ********",
"*********     XXXXXXXXXXXX     *********",
"*********  XXXXXXXXXXXXXXXXXX  *********",
"**********  X              X  **********",
"**********    XXXXXXXXXXXX    **********",
"**********  XX            XX  **********",
"*********                      *********",
"********       XXXXXXXXXX       ********",
"*********      XXXXXXXXXX      *********",
"***********                  ***********",
"***************          ***************",
"****************************************",
"****************************************",
"****************************************",
};
