/* XPM */
/* This file was automatically generated from the file ../FRITZ2.V48
using the program ``zic2xpm''.

    NOTICE: The piece images distributed with ZIICS are
        copyrighted works of their original creators.  Images
        converted with zic2xpm may not be redistributed without
        the permission of the copyright holders.  Do not contact
        the authors of zic2xpm or of ZIICS itself to request
        permission. */
static char * image_name[] = {
"48 48 4 1",
"X	c white s light_piece",
" 	c black s dark_piece",
"*	c gray s light_square",
".	c green s dark_square",
"************************************************",
"************************************************",
"************************************************",
"************************************************",
"***********************  ***********************",
"***********************  ***********************",
"*********************      *********************",
"*********************      *********************",
"***********************  ***********************",
"***********************  ***********************",
"***********************  ***********************",
"***********************  ***********************",
"**********************    **********************",
"*********************      *********************",
"********************   XX   ********************",
"*******************    XX    *******************",
"**********       **   XXXX   **       **********",
"*******               XXXX               *******",
"******    XXXXXXX    XXXXXX    XXXXXXX    ******",
"******  XXXXXXXXXXX   XXXX   XXXXXXXXXXX  ******",
"*****  XXXXXXXXXXXXX  XXXX  XXXXXXXXXXXXX  *****",
"*****  XXXXXXXXXXXXX   XX   XXXXXXXXXXXXX  *****",
"*****  XXXXXXXXXXXXXX  XX  XXXXXXXXXXXXXX  *****",
"*****  XXXXXXXXXXXXXXX    XXXXXXXXXXXXXXX  *****",
"*****  XXXXXXXXXXXXXXX    XXXXXXXXXXXXXXX  *****",
"*****   XXXXXXXXXXXXXXX  XXXXXXXXXXXXXXX   *****",
"******  XXXXXXXXXXXXXXX  XXXXXXXXXXXXXXX  ******",
"******   XXXXXXXXXXXXXX  XXXXXXXXXXXXXX   ******",
"*******   XXXXXXXXXXXXX  XXXXXXXXXXXXX   *******",
"********   XXXXXXXXXXXX  XXXXXXXXXXXX   ********",
"*********   XXXX                XXXX   *********",
"**********                            **********",
"***********                          ***********",
"***********       XXXXXXXXXXXX       ***********",
"***********  XXXXXXXXXXXXXXXXXXXXXX  ***********",
"************  XX                XX  ************",
"************     XXXXXXXXXXXXXX     ************",
"************  XXX              XXX  ************",
"***********                          ***********",
"***********                          ***********",
"**********        XXXXXXXXXXXX        **********",
"***********       XXXXXXXXXXXX       ***********",
"*************                      *************",
"******************            ******************",
"************************************************",
"************************************************",
"************************************************",
"************************************************",
};
