/* XPM */
/* This file was automatically generated from the file ../FRITZ2.V48
using the program ``zic2xpm''.

    NOTICE: The piece images distributed with ZIICS are
        copyrighted works of their original creators.  Images
        converted with zic2xpm may not be redistributed without
        the permission of the copyright holders.  Do not contact
        the authors of zic2xpm or of ZIICS itself to request
        permission. */
static char * image_name[] = {
"48 48 4 1",
"X	c white s light_piece",
" 	c black s dark_piece",
"*	c gray s light_square",
".	c green s dark_square",
"................................................",
"................................................",
"................................................",
"................................................",
"................................................",
"............  ........ .........................",
"............    ....    ........................",
".............     ..     .......................",
".............         X  .......................",
".............  .      X  .......................",
".............   ..   XXX      ..................",
".............   .   XXXX        ................",
"............       XXXXXX  XXX    ..............",
"............  XX  XXXXXXXXXXXXXX   .............",
"...........  XXXXXXXXXXXXXXXXXXXX   ............",
"...........  XXXXXXXXXXXXXXXXXXXXX   ...........",
"...........  X    XXXXXXXXXXXXXXXXX   ..........",
"..........  X    XXXXXXXXXXXXXXXXXXX  ..........",
"..........  X   XXXXXXXXXXXXXXXXXXXX   .........",
"..........  X  XXXXXXXXXXXX  XXXXXXXX  .........",
"........   XX XXXXXXXXXXXX   XXXXXXXX   ........",
"........   XXXXXXXXXXXXXXX  XXXXXXXXXX  ........",
"........  XXXXXXXXXXXXXXX   XXXXXXXXXX   .......",
".......   XXXXXXXXXXXXXXX   XXXXXXXXXXX  .......",
".......  XXXXXXXXXXXXXXX    XXXXXXXXXXX   ......",
"......   XXXXXXXXXXXXX     XXXXXXXXXXXXX  ......",
"......  XXXXXXXXXXXX    .  XXXXXXXXXXXXX  ......",
"......  XXXXXXXXXXX    ..  XXXXXXXXXXXXX   .....",
".....  X  XXXXXXX    ...  XXXXXXXXXXXXXXX  .....",
".....  X  XXXXXX   .....  XXXXXXXXXXXXXXX  .....",
".....  XXXXXXX   ......   XXXXXXXXXXXXXXX  .....",
".....   XX  X   .......  XXXXXXXXXXXXXXXX  .....",
"......          ......   XXXXXXXXXXXXXXXXX  ....",
"........       .......  XXXXXXXXXXXXXXXXXX  ....",
"...........  ........   XXXXXXXXXXXXXXXXXX  ....",
"....................   XXXXXXXXXXXXXXXXXXX  ....",
"...................   XXXXXXXXXXXXXXXXXXXX  ....",
"..................   XXXXXXXXXXXXXXXXXXXXX  ....",
".................   XXXXXXXXXXXXXXXXXXXXXX  ....",
".................  XXXXXXXXXXXXXXXXXXXXXXX  ....",
".................  XXXXXXXXXXXXXXXXXXXXXXX  ....",
"................  XXXXXXXXXXXXXXXXXXXXXXXX  ....",
"................                            ....",
"................                            ....",
"................................................",
"................................................",
"................................................",
"................................................",
};
