/* XPM */
/* This file was automatically generated from the file ../SOLID50.V56
using the program ``zic2xpm''.

    NOTICE: The piece images distributed with ZIICS are
        copyrighted works of their original creators.  Images
        converted with zic2xpm may not be redistributed without
        the permission of the copyright holders.  Do not contact
        the authors of zic2xpm or of ZIICS itself to request
        permission. */
static char * image_name[] = {
"56 56 4 1",
"X	c white s light_piece",
" 	c black s dark_piece",
"*	c gray s light_square",
".	c green s dark_square",
"........................................................",
"........................................................",
"........................................................",
"........................................................",
"........................................................",
"........................................................",
"............................XXX..XXX....................",
"............................XXX..XXX....................",
".............................XX.XXXX....................",
".............................XX.XXXX....................",
"...........................XXXX.X XX....................",
"..........................XXXXXXX XXX...................",
"..........................XXXXXXX   X...................",
"........................XXXXXXXXXX   X..................",
"........................XXXXXXXXXX   X..................",
".......................XXXXX   XXX   X..................",
".......................XXXXX   XXXXX X..................",
"......................XXXX       XXX  X.................",
"......................XXXX       XXXX X.................",
"......................XXXX       XXXX X.................",
"......................XXXXXX   XXXXXX X.................",
".....................XXXXXXX   XXXXXXXX.................",
".....................XXXXXXX   XXXXXXX..................",
".....................XXXXXXXXXXXXXXXXX..................",
".....................XXXXXXXXXXXXXXXXX..................",
".....................XXXXXXXXXXXXXXXXX..................",
".....................XXXXXXXXXXXXXXXXX..................",
".....................XXXXXXXXXXXXXXXX...................",
".....................XXXXXXXXXXXXXXXX...................",
".....................XXXXXXXXXXXXXXXX...................",
"......................XXXXXXXXXXXXXXX...................",
"......................XXXXXXXXXXXXXX....................",
".......................XXXXXXXXXXXXX....................",
".......................X          XX....................",
".......................X          XX....................",
".......................X          XX....................",
"........................XXXXXXXXXX......................",
"..........................X    X........................",
".......................XXXXXXXXXXXXX....................",
".......................XXXXXXXXXXXXX....................",
".......................XXX       XXX....................",
".......................XXX       XXX....................",
".......................XXXXXXXXXXXXX....................",
"............................XXX.........................",
"............................XXX.........................",
"...........................XXXXX........................",
"..........................XXXXXXX.......................",
"..............XXXXXXXX..XXXX.XXXXX...XXXXXXX............",
"............XXXXXXXXXXXXXXXX...XXXXXXXXXXXXXXXX.........",
"............XXXXXXXXXXXXXXXX...XXXXXXXXXXXXXXXX.........",
"............XXXX.....XXXXX......XXXXXX.....XXXX.........",
"............X.................................X.........",
"........................................................",
"........................................................",
"........................................................",
"........................................................",
};
