/* XPM */
/* This file was automatically generated from the file ../SOLID50.V56
using the program ``zic2xpm''.

    NOTICE: The piece images distributed with ZIICS are
        copyrighted works of their original creators.  Images
        converted with zic2xpm may not be redistributed without
        the permission of the copyright holders.  Do not contact
        the authors of zic2xpm or of ZIICS itself to request
        permission. */
static char * image_name[] = {
"56 56 4 1",
"X	c white s light_piece",
" 	c black s dark_piece",
"*	c gray s light_square",
".	c green s dark_square",
"********************************************************",
"********************************************************",
"********************************************************",
"********************************************************",
"********************************************************",
"********************************************************",
"****************************X***************************",
"***************************XXXX*************************",
"****************************X***************************",
"****************************X***************************",
"**************************XXXXXX************************",
"**************************X    X************************",
"*********XXXXXXXXX********X X  X******XXXXXXXXXX********",
"*******XXXXXXXXXXXX*******X X  X****XXXXXXXXXXXXX*******",
"*******XXXXXXXXXXXX*******X X  X****XXXXXXXXXXXXX*******",
"*******XXXXX     XXXXX****X X  X**XXXXXXX     XXX*******",
"******XXXXX XXXXX XXXXX***X    X**XXXX   XXXXX XXXX*****",
"******XXX  XXXXXXX XXXXX**XXXXX**XXXX XXXXXXXXX XXX*****",
"******XX XXXXXXXXXX  XXX***XXXX*XXXX XXXXXXXXXX XXX*****",
"******XX XXXXXXXXXX  XXX***XXXX*XXXX XXXXXXXXXX XXX*****",
"****XXXX XXXXXXXXXXXX XXXXXXXXXXXXXX XXXXX  XXX XXXX****",
"****XXXX XXX  XXXXXXX XXXXXX XXXXX  XX XXX  XXX XXXX****",
"****XXXX XXX  XXX XXXX XXXX  XXXX XXXXX  X  XXX XXXX****",
"****XXXX XXXXX  X XXXX XXXXXXXXXX XXXXX   XXXXX XXXX****",
"****XXXX XXXXX  X XXXX XXXXXXXXXX XXXXX   XXXXX XXXX****",
"****XXXX XXXXX  X XXXXX XXXXXXXX XXXXXX     XXX XXXX****",
"******XX XXX      XXXXX XXXXXXXX XXXXXX   XXXXX XXX*****",
"******XX XXXXX    XXXXX XXX  XXX XXXXXX   XXXXX XXX*****",
"******XX XXXXXXXX XXXXXX  XX XXX XXXXX   XXXXX XXXX*****",
"******XX XXXXXXXX XXXXXX  XX XXX XXXXX   XXXXX XXXX*****",
"******XXX  XXXXXX XXXXXX  XXXXX XXXXXX XXXXXXX XXXX*****",
"*******XX  XXXXXXX XXXXX  XXXXX XXXXXX XXXXXXX XX*******",
"*******XXXX XXXXXX XXXXXXX XXXX XXXXX XXXXXXXX XX*******",
"*******XXXX XXXXXX XXXXXXX X XX XXXXX XXXXXX  XXX*******",
"*******XXXX XXXXXX XXXXXXX X XX XXXXX XXXXXX  XXX*******",
"********XXXX XXXXXX  XXXXX X XX XXXX XXXXXXX  XX********",
"*********XXX XXXXXX  XXXXX XXXX XXXXXXXXXXX XXX*********",
"*********XXXX XXXXXXXXXXXX XXXX XXXXXXXXXX XXXX*********",
"***********XXX             XXXX           XXXX**********",
"***********XXX             XXXX           XXXX**********",
"************XXXXXXXXXXXXXXXXXXXXXXXXXXXXXXXX************",
"*************XXXXXXXXXXXXXXXXXXXXXXXXXXXXXX*************",
"**************XXX                      XXX**************",
"**************XX XXXXXXXXXXXXXXXXXXXXXX  X**************",
"**************XX XXXXXXXXXXXXXXXXXXXXXX  X**************",
"**************XX XXXXXXXXX      XXXXXXX  X**************",
"**************XX XXXXXXXXXXXXXXXXXXXXXX  X**************",
"**************XX                         X**************",
"**************XXXXXXXXXXXXXXXXXXXXXXXXXXXX**************",
"**************XXXXXXXXXXXXXXXXXXXXXXXXXXXX**************",
"********************************************************",
"********************************************************",
"********************************************************",
"********************************************************",
"********************************************************",
"********************************************************",
};
