/* XPM */
/* This file was automatically generated from the file ../SOLID50.V56
using the program ``zic2xpm''.

    NOTICE: The piece images distributed with ZIICS are
        copyrighted works of their original creators.  Images
        converted with zic2xpm may not be redistributed without
        the permission of the copyright holders.  Do not contact
        the authors of zic2xpm or of ZIICS itself to request
        permission. */
static char * image_name[] = {
"56 56 4 1",
"X	c white s light_piece",
" 	c black s dark_piece",
"*	c gray s light_square",
".	c green s dark_square",
"........................................................",
"........................................................",
"........................................................",
"........................................................",
"........................................................",
"........................................................",
"........................................................",
".......................X................................",
".....................X.XXX..............................",
".....................X.XXX..............................",
".....................X.XXX..............................",
".....................XXXXXXX............................",
"......................XXXXXXXXX.........................",
".....................XXXXXXXXXXXX.......................",
".....................XXXXXXXXXXXX.......................",
"..................XXXXXXXXXX XXXXXXX....................",
"................XXXXX   XXXXX   XXXXXX..................",
"..............XXXXX   X   XXXXXX XXXXXX.................",
".............XXXXXXXXX XXXXXXXXXX   XXXXX...............",
".............XXXXXXXXX XXXXXXXXXX   XXXXX...............",
"............XXXXXXXXXXXXXXXXXXXXXXXX XXXXX..............",
"...........XXXXXXXXXXXXXXXXXXXXXXXXXX XXXX..............",
".........XXXXXXXXXXXXXXXXXXXXXXXXXXXXX XXXX.............",
"........XXXXXXXXXXXXXXXXXXXXXXXX XXXXXXXXXXX............",
"........XXXXXXXXXXXXXXXXXXXXXXXX XXXXXXXXXXX............",
"........XXXXXXXXXXXXXXXXXXXXXXXX XXXXXX  XXX............",
".......XXXXXXXXXXXXXXXXXXXXXX   XXXXXXXXX XXXX..........",
".......XXXXXXXXXXXXXXXXX....XXXXXX  XXXXX XXXX..........",
"......XXXXXXXXXXXX..........XXXXX XXXXXXXX XXX..........",
"......XXXXXXXXXXXX..........XXXXX XXXXXXXX XXX..........",
"......X XXXX..XXX..........XX   XXXXXXXXXX  XXX.........",
"......XXXXX..XXX...........XXXXXXX   XXXXXX XXX.........",
"......XXX...XX............XX      XXXXXXXXX XXX.........",
"...........XX...........XXXXXXXXXXXXXXXXXXX XXXX........",
"...........XX...........XXXXXXXXXXXXXXXXXXX XXXX........",
"........................XXXXXXXXXXXXXXXXXXX XXXX........",
".......................XXXXXXXXXXXXXXXXXXXX   XX........",
"......................XXXXXXXXXXXXXXXXXXXXX   XX........",
"......................XXXXXXXXXXXXXXXXXXXXX   XXX.......",
"......................XXXXXXXXXXXXXXXXXXXXX   XXX.......",
".....................XXXXXXXXXXXXXXXXXXXXXXX  XXX.......",
"...................XXXXXXXXXXXXXXXXXXXXXXXXX  XXX.......",
"..................XXXXXXXXXXXXXXXXXXXXXXXXXX  XXX.......",
"..................XXXXXXXXXXXXXXXXXXXXXXXXXX  XXX.......",
"..................XXXXXXXXXXXXXXXXXXXXXXXXXX  XXX.......",
"..................XXXXXXXXXXXXXXXXXXXXXXXXXX  XXX.......",
".................XXXXXXXXXXXXXXXXXXXXXXXXXXX  XXX.......",
"................XXXXXXXXXXXXXXXXXXXXXXXXXXXX  XXX.......",
"................XXXXXXXXXXXXXXXXXXXXXXXXXXXX  XXX.......",
"................XXXXXXXXXXXXXXXXXXXXXXXXXXXX  XXX.......",
"..............XXXXXXXXXXXXXXXXXXXXXXXXXXXXXX  XXX.......",
"..............XXXXXXXXXXXXXXXXXXXXXXXXXXXXXX  XXX.......",
"..............XXXXXXXXXXXXXXXXXXXXXXXXXXXXXXXXXXX.......",
"........................................................",
"........................................................",
"........................................................",
};
