/* XPM */
/* This file was automatically generated from the file ../SOLID50.V56
using the program ``zic2xpm''.

    NOTICE: The piece images distributed with ZIICS are
        copyrighted works of their original creators.  Images
        converted with zic2xpm may not be redistributed without
        the permission of the copyright holders.  Do not contact
        the authors of zic2xpm or of ZIICS itself to request
        permission. */
static char * image_name[] = {
"56 56 4 1",
"X	c white s light_piece",
" 	c black s dark_piece",
"*	c gray s light_square",
".	c green s dark_square",
"********************************************************",
"********************************************************",
"********************************************************",
"********************************************************",
"********************************************************",
"********************************************************",
"***************************XXXXX************************",
"**************************XXXXXXX***********************",
"**************************XXXXXXX***********************",
"**************************XXXXXXX***********************",
"**************************XXXXXXX***********************",
"**************************XXXXXXX***********************",
"**************************XXXXXXX***********************",
"***************************XXXXX************************",
"***************************XXXXX************************",
"************************XXXXXXXXXX**********************",
"**********************XXXXXXXXXXXXXXX*******************",
"************************XXXXXXXXXX**********************",
"**************************XXXXXXX***********************",
"**************************XXXXXXX***********************",
"**************************XXXXXXX***********************",
"************************XXXXXXXXXX**********************",
"************************XXXXXXXXXX**********************",
"************************XXXXXXXXXX**********************",
"************************XXXXXXXXXX**********************",
"***********************XXXXXXXXXXXXX********************",
"**********************XXXXXXXXXXXXXXX*******************",
"**********************XXXXXXXXXXXXXXX*******************",
"*********************XXXXXXXXXXXXXXXXX******************",
"*********************XXXXXXXXXXXXXXXXX******************",
"*********************XXXXXXXXXXXXXXXXX******************",
"*********************XXXXXXXXXXXXXXXXX******************",
"*********************XXXXXXXXXXXXXXXXX******************",
"*********************XXXXXXXXXXXXXXXXX******************",
"*********************XXXXXXXXXXXXXXXXX******************",
"*********************XXXXXXXXXXXXXXXXX******************",
"*********************XXXXXXXXXXXXXXXXX******************",
"**********************XXXXXXXXXXXXXXX*******************",
"**********************XXXXXXXXXXXXXXX*******************",
"**********************XXXXXXXXXXXXXXX*******************",
"**********************XXXXXXXXXXXXXXX*******************",
"***********************XXXXXXXXXXXXX********************",
"************************XXXXXXXXXX**********************",
"************************XXXXXXXXXX**********************",
"************************XXXXXXXXXX**********************",
"*********************XXXXXXXXXXXXXXXXX******************",
"*****************XXXXXXXXXXXXXXXXXXXXXXXXX**************",
"****************XXXXXXXXXXXXXXXXXXXXXXXXXXX*************",
"**************XXXXXXXXXXXXXXXXXXXXXXXXXXXXXX************",
"**************XXXXXXXXXXXXXXXXXXXXXXXXXXXXXX************",
"*************XXXXXXXXXXXXXXXXXXXXXXXXXXXXXXXXX**********",
"*************XXXXXXXXXXXXXXXXXXXXXXXXXXXXXXXXX**********",
"*************XXXXXXXXXXXXXXXXXXXXXXXXXXXXXXXXX**********",
"********************************************************",
"********************************************************",
"********************************************************",
};
