/* XPM */
/* This file was automatically generated from the file ../SOLID50.V56
using the program ``zic2xpm''.

    NOTICE: The piece images distributed with ZIICS are
        copyrighted works of their original creators.  Images
        converted with zic2xpm may not be redistributed without
        the permission of the copyright holders.  Do not contact
        the authors of zic2xpm or of ZIICS itself to request
        permission. */
static char * image_name[] = {
"56 56 4 1",
"X	c white s light_piece",
" 	c black s dark_piece",
"*	c gray s light_square",
".	c green s dark_square",
"********************************************************",
"********************************************************",
"********************************************************",
"********************************************************",
"********************************************************",
"********************************************************",
"********************************************************",
"***************************XX***************************",
"***************************XX***************************",
"***************************XX***************************",
"****************************X***************************",
"****************XX*********X**********XXX***************",
"****************XX*********XX*********XXX***************",
"*****************X*********XX*********X*****************",
"*****************X*********XX*********X*****************",
"*****************X*********XX*********X*****************",
"*****************X*********XX*********X*****************",
"*****************XX********XX********XX*****************",
"****XXX**********XX********XX********XX*****************",
"****XXX**********XX********XX********XX*****************",
"****XXX**********XX********XX********XX*********XXX*****",
"******X**********XXXX******XX*******XXX*********XXX*****",
"*******X*********XXXX*****XXXXX*****XXX*********X*******",
"*******X*********XXXX*****XXXXX*****XXX********X********",
"*******X*********XXXX*****XXXXX*****XXX********X********",
"*******XX********XXXX*****XXXXX*****XXX********X********",
"*******XXXX******XXXXX****XXXXX***XXXXX*******XX********",
"********XXX******XXXXX****XXXXX***XXXXX*****XXXX********",
"********XXXX*****XXXXX****XXXXX***XXXXX*****XXXX********",
"********XXXX*****XXXXX****XXXXX***XXXXX*****XXXX********",
"********XXXXX****XXXXXX***XXXXX**XXXXXX****XXXXX********",
"********XXXXX****XXXXXX***XXXXX**XXXXXX****XXXXX********",
"********XXXXXX***XXXXXX***XXXXX**XXXXXX***XXXXXX********",
"********XXXXXXXX*XXXXXXXXXXXXXXXXXXXXXX**XXXXXX*********",
"********XXXXXXXX*XXXXXXXXXXXXXXXXXXXXXX**XXXXXX*********",
"*********XXXXXXX*XXXXXXXXXXXXXXXXXXXXXX**XXXXXX*********",
"*********XXXXXXXXXXXXXXXXXXXXXXXXXXXXXXXXXXXXXX*********",
"*********XXXXXXXXXXXXXXXXXXXXXXXXXXXXXXXXXXXXXX*********",
"*********XXXXXXXXXXXXXXXXXXXXXXXXXXXXXXXXXXXXXX*********",
"*********XXXXXXXXXXXXXXXXXXXXXXXXXXXXXXXXXXXXXX*********",
"*********XXXXXXXXXXXXXXX        XXXXXXXXXXXXXXX*********",
"***********XXX          XXXXXXXX          XXXX**********",
"***********XX XXXXXXXXXXXX     XXXXXXXXXXX XXX**********",
"************X     XXXXXXXXX  XXXXXXXXX     X************",
"************X     XXXXXXXXX  XXXXXXXXX     X************",
"************XX   XXXXXXX        XXXXXXX   XX************",
"*************X          XXXXXXXX          X*************",
"*************XXXXXXXXXXXXXXXXXXXXXXXXXXXXXX*************",
"************XXXXXXXXXXXXXXXXXXXXXXXXXXXXXXXX************",
"************XXXXXXXXXXXXXXXXXXXXXXXXXXXXXXXX************",
"************XXXXXXXXXXXXXXXXXXXXXXXXXXXXXXXX************",
"********************************************************",
"********************************************************",
"********************************************************",
"********************************************************",
"********************************************************",
};
