/* XPM */
/* This file was automatically generated from the file ../BOOKUP.V50
using the program ``zic2xpm''.

    NOTICE: The piece images distributed with ZIICS are
        copyrighted works of their original creators.  Images
        converted with zic2xpm may not be redistributed without
        the permission of the copyright holders.  Do not contact
        the authors of zic2xpm or of ZIICS itself to request
        permission. */
static char * image_name[] = {
"50 50 4 1",
"X	c white s light_piece",
" 	c black s dark_piece",
"*	c gray s light_square",
".	c green s dark_square",
"..................................................",
"..................................................",
"..................................................",
"..................................................",
"..................................................",
"..................................................",
"..................................................",
".....................  ....   ....................",
"....................     .     ...................",
"....................     .     ...................",
"..................             ...................",
".................    XX    XXX  ..................",
"................    XXXXX   XXX  .................",
"................  XXXXXXXX  XXX  .................",
"................  XXXXXXXX  XXX  .................",
"...............  XXXXXXXXXX   XX   ...............",
".............    XXXXXXXXXX    XX   ..............",
"............    XXXXXXXXXXXX   XX    .............",
"............   XXXXXXXXXXXXX    XXX  .............",
"............   XXXXXXXXXXXXX    XXX  .............",
"...........  XXXXXXXXXXXXXXXXX   XXX  ............",
"...........  XXXXXXXXXXXXXXXXXX  XXX  ............",
"...........  XXXXXXXXXXXXXXXXXX    X  ............",
"...........  XXXXXXXXXXXXXXXXXX    X  ............",
"...........  XXXXXXXXXXXXXXXXXX    X  ............",
"...........  XXXXXXXXXXXXXXXXXXX   X  ............",
"...........  XXXXXXXXXXXXXXXXXXX   X  ............",
"...........  XXXXXXXXXXXXXXXXXXX   X  ............",
"...........    XXXXXXXXXXXXXXXX    X  ............",
"...........    XXXXXXXXXXXXXXXX    X  ............",
"............   XXXXXXXXXXXXXXXX  XX  .............",
"............   XXXXXXXXXXXXXXXX  XX  .............",
".............   XXXXXXXXXXXXXX      ..............",
".............    XXXXXXXXXXXXX      ..............",
".............    XXXXXXXXXXXXX      ..............",
"...............                    ...............",
"................                 .................",
"................  XXXXXXXXXXXXX  .................",
"................  XXXXX   XXXXX  .................",
"................  XXXXX   XXXXX  .................",
".......           XXXXXXXXXXXXX           ........",
"......                                     .......",
".....   XXXXXXXXXX             XXXXXXXXXX    .....",
".....  X             .......             X   .....",
".....  X             .......             X   .....",
".....               ..........               .....",
".....   .................................    .....",
"..................................................",
"..................................................",
"..................................................",
};
