/* XPM */
/* This file was automatically generated from the file ../BOOKUP.V56
using the program ``zic2xpm''.

    NOTICE: The piece images distributed with ZIICS are
        copyrighted works of their original creators.  Images
        converted with zic2xpm may not be redistributed without
        the permission of the copyright holders.  Do not contact
        the authors of zic2xpm or of ZIICS itself to request
        permission. */
static char * image_name[] = {
"56 56 4 1",
"X	c white s light_piece",
" 	c black s dark_piece",
"*	c gray s light_square",
".	c green s dark_square",
"********************************************************",
"********************************************************",
"********************************************************",
"********************************************************",
"********************************************************",
"********************************************************",
"********************************************************",
"********************************************************",
"*************************  ****   **********************",
"************************    **     *********************",
"***********************      *      ********************",
"**********************   X      X   ********************",
"*********************   XXX    XXX   *******************",
"********************   XXXXX   XXX   *******************",
"*******************   XXXXXXX    XXX  ******************",
"*******************  XXXXXXXXX   XXX  ******************",
"******************  XXXXXXXXXXX   XXX  *****************",
"*****************   XXXXXXXXXXX   XXX   ****************",
"****************   XXXXXXXXXXXXX   XXX  ****************",
"***************   XXXXXXXXXXXXXXX   XX   ***************",
"***************  XXXXXXXXXXXXXXXX   XXX   **************",
"**************   XXXXXXXXXXXXXXXXX   XXX   *************",
"**************  XXXXXXXXXXXXXXXXXXX   XXX  *************",
"*************   XXXXXXXXXXXXXXXXXXXX  XXX   ************",
"*************   XXXXXXXXXXXXXXXXXXXX   XXX  ************",
"*************  XXXXXXXXXXXXXXXXXXXXXX   XX  ************",
"*************  XXXXXXXXXXXXXXXXXXXXXXX  XX  ************",
"*************  XXXXXXXXXXXXXXXXXXXXXXX  XX  ************",
"*************  XXXXXXXXXXXXXXXXXXXXXXX  XX  ************",
"*************  XXXXXXXXXXXXXXXXXXXXXXX  XX  ************",
"*************  XXXXXXXXXXXXXXXXXXXXXXX  XX  ************",
"*************   XXXXXXXXXXXXXXXXXXXXX   XX  ************",
"**************  XXXXXXXXXXXXXXXXXXXXX  XX   ************",
"***************  XXXXXXXXXXXXXXXXXXX   XX  *************",
"***************  XXXXXXXXXXXXXXXXXXX  XX   *************",
"***************  XXXXXXXXXXXXXXXXXXX  XX  **************",
"****************  XXXXXXXXXXXXXXXXX  XX  ***************",
"****************   XXXXXXXXXXXXXXX   XX  ***************",
"****************    XXXXXXXXXXXXXX  XX   ***************",
"*****************                       ****************",
"*******************                   ******************",
"*******************                   ******************",
"*******************  XXXXXXXXXXXXXXX  ******************",
"*******************  XXXXXX  XXXXXXX  ******************",
"**********           XXXXXX  XXXXXXX           *********",
"*********            XXXXXXXXXXXXXXX            ********",
"********                                         *******",
"*******   XXXXXXXXXXXX              XXXXXXXXXXX   ******",
"******   XXXXXXXXXXXXX              XXXXXXXXXXXX   *****",
"******  XX              *********              XX  *****",
"******  X              ***********              X  *****",
"******    *************************************    *****",
"*******  ***************************************  ******",
"********************************************************",
"********************************************************",
"********************************************************",
};
