/* XPM */
/* This file was automatically generated from the file ../BOOKUP.V50
using the program ``zic2xpm''.

    NOTICE: The piece images distributed with ZIICS are
        copyrighted works of their original creators.  Images
        converted with zic2xpm may not be redistributed without
        the permission of the copyright holders.  Do not contact
        the authors of zic2xpm or of ZIICS itself to request
        permission. */
static char * image_name[] = {
"50 50 4 1",
"X	c white s light_piece",
" 	c black s dark_piece",
"*	c gray s light_square",
".	c green s dark_square",
"**************************************************",
"**************************************************",
"**************************************************",
"**************************************************",
"**************************************************",
"**************************************************",
"**************************************************",
"**************************************************",
"********************          ********************",
"********************          ********************",
"********************   XXX    ********************",
"********************   XXX    ********************",
"**********      **** XXXXXXX  ***       **********",
"*******              XXXXXXX              ********",
"*******              XXXXXXX              ********",
"******     XXXX        XXX         XXX     *******",
"******  XXXX XXXXX     XXX     XXXXX XXXX  *******",
"*****   XX       X             X        X    *****",
"*****  XXX       XXXX       XXXX        XX   *****",
"*****  XXX       XXXX       XXXX        XX   *****",
"***    X            X       XX           X    ****",
"***   XX            X       XX           XX   ****",
"***   X             XX     XXX            X   ****",
"***   X              X     X              X   ****",
"***   X              X     X              X   ****",
"***   XX             X     X             XX   ****",
"***    X             XX   XX             X    ****",
"*****  XXX            X   X             XX   *****",
"*****   XXXX          X   X          XXXX    *****",
"*****   XXXX          X   X          XXXX    *****",
"******     XX         X   X         XX     *******",
"*******     XXXX    XXXXXXXXXX   XXXX     ********",
"**********   XXXXXXXX       XXXXXXXX    **********",
"***********  XXX                 XXX  ************",
"***********  XXX                 XXX  ************",
"***********            XXX            ************",
"***********            XXX            ************",
"***********  XX                    X  ************",
"***********                           ************",
"***********                           ************",
"***********      XXXXXXXXXXXXXXX      ************",
"***********  XXXXX             XXXXX  ************",
"************                         *************",
"*************                       **************",
"*************                       **************",
"****************                 *****************",
"********************          ********************",
"**************************************************",
"**************************************************",
"**************************************************",
};
