/* XPM */
/* This file was automatically generated from the file ../BOOKUP.V32
using the program ``zic2xpm''.

    NOTICE: The piece images distributed with ZIICS are
        copyrighted works of their original creators.  Images
        converted with zic2xpm may not be redistributed without
        the permission of the copyright holders.  Do not contact
        the authors of zic2xpm or of ZIICS itself to request
        permission. */
static char * image_name[] = {
"32 32 4 1",
"X	c white s light_piece",
" 	c black s dark_piece",
"*	c gray s light_square",
".	c green s dark_square",
"................................",
"................................",
"................................",
"................................",
".............       ............",
"............. XX XX ............",
"............. XX XX ............",
".......     .       .     ......",
"......  XXX   XX XX   XXX  .....",
".....  XXXXX  XX XX  XXXXX  ....",
"....  XXXXXXX        XXXXXX  ...",
"...  XXXXXXXX  XXX  XXXXXXXX  ..",
"... XXXXXXXXXX XXX XXXXXXXXXX ..",
"... XXXXXXXXXX  X  XXXXXXXXXX ..",
"... XXXXXXXXXXX   XXXXXXXXXXX ..",
"... XXXXXXXXXXXX XXXXXXXXXXXX ..",
"...  XXXXXXXXXXX XXXXXXXXXXX  ..",
"....  XXXXXXXXXX XXXXXXXXXX  ...",
".....  XXXXXX       XXXXXX  ....",
"......   X             XX  .....",
"........   XXXXXXXXXXX   .......",
"........ XXXXXXX XXXXXXX .......",
"........ X XXXXX XXXXX X .......",
"........ X XXXXXXXXXXX X .......",
"........ XXX         XXX .......",
"........      XXXXX      .......",
".........   XXXXXXXXX   ........",
"..........    XXXXX    .........",
".............       ............",
"................................",
"................................",
"................................",
};
