/* XPM */
/* This file was automatically generated from the file ../BOOKUP.V40
using the program ``zic2xpm''.

    NOTICE: The piece images distributed with ZIICS are
        copyrighted works of their original creators.  Images
        converted with zic2xpm may not be redistributed without
        the permission of the copyright holders.  Do not contact
        the authors of zic2xpm or of ZIICS itself to request
        permission. */
static char * image_name[] = {
"40 40 4 1",
"X	c white s light_piece",
" 	c black s dark_piece",
"*	c gray s light_square",
".	c green s dark_square",
"........................................",
"........................................",
"........................................",
"........................................",
"........................................",
"........................................",
"................        ................",
"................        ................",
"................  X  X  ................",
"........     ...        ...     ........",
"......         .        .         ......",
".....    XXX      X  X      XXX    .....",
".....  XXXXXXX            XXXXXXX  .....",
"....   XXXXXXXX          XXXXXXXX   ....",
"....  XXXXXXXXXX   XX   XXXXXXXXXX  ....",
"...   XXXXXXXXXX   XX   XXXXXXXXXX   ...",
"...  XXXXXXXXXXXX  XX  XXXXXXXXXXXX  ...",
"...  XXXXXXXXXXXX      XXXXXXXXXXXX  ...",
"...  XXXXXXXXXXXX      XXXXXXXXXXXX  ...",
"...  XXXXXXXXXXXXX    XXXXXXXXXXXXX  ...",
"...   XXXXXXXXXXXX    XXXXXXXXXXXX   ...",
"....  XXXXXXXXXXXXX  XXXXXXXXXXXXX  ....",
"....   XXXXXXXXXXXX  XXXXXXXXXXXX   ....",
".....   XXXXXXXX        XXXXXXXX   .....",
"......    XX                XX    ......",
"........         XXXXXX         ........",
".........    XXXXXXXXXXXXXX    .........",
".........  XXXXXXXX  XXXXXXXX  .........",
".........  XXXXXXXX  XXXXXXXX  .........",
".........   XXXXXXXXXXXXXXXX   .........",
".........   XXXX        XXXX   .........",
".........  XX              XX  .........",
".........        XXXXXX        .........",
"..........    XXXXXXXXXXXX    ..........",
"...........      XXXXXX      ...........",
".............              .............",
"................        ................",
"........................................",
"........................................",
"........................................",
};
