/* XPM */
/* This file was automatically generated from the file ../BOOKUP.V48
using the program ``zic2xpm''.

    NOTICE: The piece images distributed with ZIICS are
        copyrighted works of their original creators.  Images
        converted with zic2xpm may not be redistributed without
        the permission of the copyright holders.  Do not contact
        the authors of zic2xpm or of ZIICS itself to request
        permission. */
static char * image_name[] = {
"48 48 4 1",
"X	c white s light_piece",
" 	c black s dark_piece",
"*	c gray s light_square",
".	c green s dark_square",
"************************************************",
"************************************************",
"************************************************",
"************************************************",
"************************************************",
"************************************************",
"************************************************",
"*******************         ********************",
"*******************         ********************",
"*******************  X   X  ********************",
"*********      ****         ****      **********",
"*********      ****         ****      **********",
"*******           *         **          ********",
"******    XXXX       X   X       XXXX     ******",
"******  XXXXXXXX               XXXXXXXX   ******",
"****    XXXXXXXXXX            XXXXXXXXX    *****",
"****   XXXXXXXXXXXX   XXX   XXXXXXXXXXXX   *****",
"****   XXXXXXXXXXXX   XXX   XXXXXXXXXXXX   *****",
"***    XXXXXXXXXXXX   XXX   XXXXXXXXXXXX    ****",
"***   XXXXXXXXXXXXXX  XXX  XXXXXXXXXXXXXXX  ****",
"***   XXXXXXXXXXXXXX       XXXXXXXXXXXXXXX  ****",
"***   XXXXXXXXXXXXXX       XXXXXXXXXXXXXXX  ****",
"***   XXXXXXXXXXXXXXX     XXXXXXXXXXXXXXXX  ****",
"***   XXXXXXXXXXXXXXX     XXXXXXXXXXXXXXXX  ****",
"***    XXXXXXXXXXXXXX     XXXXXXXXXXXXXX    ****",
"****   XXXXXXXXXXXXXXX   XXXXXXXXXXXXXXX   *****",
"****    XXXXXXXXXXXXXX   XXXXXXXXXXXXXX    *****",
"******   XXXXXXXXXX         XXXXXXXXXX    ******",
"*******     XX                   XXX    ********",
"*******     XX                   XXX    ********",
"*********           XXXXXXX           **********",
"**********     XXXXXXXXXXXXXXXXX     ***********",
"**********   XXXXXXXXX   XXXXXXXXX   ***********",
"**********   XXXXXXXXX   XXXXXXXXX   ***********",
"**********    XXXXXXXXXXXXXXXXXXX    ***********",
"**********    XXXXXXXXXXXXXXXXXXX    ***********",
"**********    XXXXX         XXXXX    ***********",
"**********   XX                 XX   ***********",
"**********          XXXXXXX          ***********",
"************    XXXXXXXXXXXXXXX     ************",
"*************       XXXXXXX       **************",
"*************       XXXXXXX       **************",
"***************                 ****************",
"*******************         ********************",
"************************************************",
"************************************************",
"************************************************",
"************************************************",
};
