/* XPM */
/* This file was automatically generated from the file ../BOOKUP.V48
using the program ``zic2xpm''.

    NOTICE: The piece images distributed with ZIICS are
        copyrighted works of their original creators.  Images
        converted with zic2xpm may not be redistributed without
        the permission of the copyright holders.  Do not contact
        the authors of zic2xpm or of ZIICS itself to request
        permission. */
static char * image_name[] = {
"48 48 4 1",
"X	c white s light_piece",
" 	c black s dark_piece",
"*	c gray s light_square",
".	c green s dark_square",
"................................................",
"................................................",
"................................................",
"................................................",
"................................................",
"................................................",
".............  .   .............................",
".............       ............................",
".............            .......................",
"..............              ....................",
"..............  XXXXXXXX       .................",
"..............  XXXXXXXX       .................",
".............   XXXXXXXXXXX     ................",
".............  XXXXXXXXXXXXXXX   ...............",
"............   XXXXXXXXXXXXXXXX   ..............",
"............  XX     XXXXXXXXXXX  ..............",
"..........   XXX   XXXXXXXXXXXXX    ............",
"..........   XXX   XXXXXXXXXXXXX    ............",
"..........   XXXXXXXXXXXXXXXXXXXX   ............",
".........   XXXXXXXXXXXXXXXXXXXXX    ...........",
".........   XXXXXXXXXXXXXXXXXXXXXX   ...........",
"........    XXXXXXXXXXXXXXXXXXXXXX   ...........",
"........  XXXXXXXXXXXXXXXXXXXXXXXX    ..........",
"........  XXXXXXXXXXXXXXXXXXXXXXXX    ..........",
".......  XXXXXXXXXXXXXXXXXXXXXXXXXXX  ..........",
".......  XXXXXXXXXX  XXXXXXXXXXXXXXX  ..........",
"......  XXXXXXX       XXXXXXXXXXXXXX  ..........",
"......   XXXX     ..    XXXXXXXXXXXX   .........",
".......   XX   ......   XXXXXXXXXXXXX  .........",
".......   XX   ......   XXXXXXXXXXXXX  .........",
"........      ......    XXXXXXXXXXXXX  .........",
"..........   .....    XXXXXXXXXXXXXXX  .........",
"................    XXXXXXXXXXXXXXXXX  .........",
"..............     XXXXXXXXXXXXXXXXXX   ........",
".............   XXXXXXXXXXXXXXXXXXXXXX  ........",
".............   XXXXXXXXXXXXXXXXXXXXXX  ........",
"............   XXXXXXXXXXXXXXXXXXXXXXX  ........",
"............  XXXXXXXXXXXXXXXXXXXXXXXX  ........",
"..........    XXXXXXXXXXXXXXXXXXXXXXXX  ........",
"..........   XXXXXXXXXXXXXXXXXXXXXXXXX  ........",
"..........   XXXXXXXXXXXXXXXXXXXXXXXXX  ........",
"..........   XXXXXXXXXXXXXXXXXXXXXXXXX  ........",
"..........                              ........",
"..........                              ........",
"................................................",
"................................................",
"................................................",
"................................................",
};
