/* XPM */
/* This file was automatically generated from the file ../BOOKUP.V48
using the program ``zic2xpm''.

    NOTICE: The piece images distributed with ZIICS are
        copyrighted works of their original creators.  Images
        converted with zic2xpm may not be redistributed without
        the permission of the copyright holders.  Do not contact
        the authors of zic2xpm or of ZIICS itself to request
        permission. */
static char * image_name[] = {
"48 48 4 1",
"X	c white s light_piece",
" 	c black s dark_piece",
"*	c gray s light_square",
".	c green s dark_square",
"................................................",
"................................................",
"................................................",
"................................................",
"................................................",
"................................................",
"...............    .........    ................",
"..............      .......      ...............",
"..............  XX  .......   X  ...............",
"..............      .......      ...............",
"..............  XX   .....    X  ...............",
"..............  XX   .....    X  ...............",
"..............  XXX  .....  XXX  ...............",
"......   .....  XXX  .....  XXX  .....    ......",
"....     .....  XXX  .....  XXX  .....     .....",
"....   X  ....  XXX   ...   XXX  ....  X   .....",
"....        ..  XXXX  ...  XXXX  ...       .....",
"....        ..  XXXX  ...  XXXX  ...       .....",
"......  X    .  XXXX  ...  XXXX  .    X   ......",
"......  XX      XXXX       XXXX      XX   ......",
"......   XXX    XXXXX     XXXXX     XX    ......",
".......  XXXX   XXXXXX   XXXXXX   XXXX  ........",
".......   XXXXXXXXXXXXXXXXXXXXXXXXXXX   ........",
".......   XXXXXXXXXXXXXXXXXXXXXXXXXXX   ........",
"........  XXXXXXXXXXXXXXXXXXXXXXXXXXX  .........",
"........  XXXXXXXXXXXXXXXXXXXXXXXXXXX  .........",
"........  XXXXXXXXXXXXXXXXXXXXXXXXXXX  .........",
"........    XXXXXXX         XXXXXXXX   .........",
".........   XX                  XXXX  ..........",
".........   XX                  XXXX  ..........",
".........           XXXXXXX           ..........",
".........      XXXXXXXXXXXXXXXXX      ..........",
"..........   XXXXXXXXX   XXXXXXXXX   ...........",
"..........   XXXXXXXXX   XXXXXXXXX   ...........",
"..........    XXXXXXXXXXXXXXXXXXX    ...........",
"..........    XXXXXXXXXXXXXXXXXXX    ...........",
"..........    XXXXX         XXXXX    ...........",
"..........   XX                 XX   ...........",
"..........          XXXXXXX          ...........",
"............    XXXXXXXXXXXXXXX     ............",
".............       XXXXXXX       ..............",
".............       XXXXXXX       ..............",
"...............                 ................",
"...................         ....................",
"................................................",
"................................................",
"................................................",
"................................................",
};
