/* XPM */
/* This file was automatically generated from the file ../BOOKUP.V50
using the program ``zic2xpm''.

    NOTICE: The piece images distributed with ZIICS are
        copyrighted works of their original creators.  Images
        converted with zic2xpm may not be redistributed without
        the permission of the copyright holders.  Do not contact
        the authors of zic2xpm or of ZIICS itself to request
        permission. */
static char * image_name[] = {
"50 50 4 1",
"X	c white s light_piece",
" 	c black s dark_piece",
"*	c gray s light_square",
".	c green s dark_square",
"**************************************************",
"**************************************************",
"**************************************************",
"**************************************************",
"**************************************************",
"**************************************************",
"****************    **********   *****************",
"***************      *******       ***************",
"***************  X   *******   X   ***************",
"***************  X   *******   X   ***************",
"***************      *******       ***************",
"***************  X    *****    X   ***************",
"***************  XXX  *****   XX   ***************",
"******    *****  XXX  *****   XX   *****   *******",
"******    *****  XXX  *****   XX   *****   *******",
"*****     *****  XXX  *****   XX   *****     *****",
"*****  X   ****  XXX   ***    XX   ***   X   *****",
"*****       ***  XXXX  ***  XXXX   **        *****",
"******  XX   **  XXXX  ***  XXXX   *    X  *******",
"******  XX   **  XXXX  ***  XXXX   *    X  *******",
"******  XXX      XXXX       XXXX      XXX  *******",
"******    XX     XXXXX     XXXXX     XXX   *******",
"*******   XXX    XXXXXX   XXXXXX    XXXX  ********",
"*******    XXXXXXXXXXXXXXXXXXXXXXXXXXX    ********",
"*******    XXXXXXXXXXXXXXXXXXXXXXXXXXX    ********",
"********   XXXXXXXXXXXXXXXXXXXXXXXXXXX   *********",
"********   XXXXXXXXXXXXXXXXXXXXXXXXXXX   *********",
"********   XXXXXXXXXXXXXXXXXXXXXXXXXXX   *********",
"********    XXXXXXXX          XXXXXXX    *********",
"********    XXXXXXXX          XXXXXXX    *********",
"**********  XXX                  XXXX   **********",
"**********           XXXXXXX            **********",
"**********      XXXXXXXXXXXXXXXXX       **********",
"***********  XXXXXXXXXX   XXXXXXXXXX  ************",
"***********  XXXXXXXXXX   XXXXXXXXXX  ************",
"***********  XXXXXXXXXX   XXXXXXXXXX  ************",
"***********    XXXXXXXXXXXXXXXXXXXX   ************",
"***********    XXXXX          XXXXX   ************",
"***********  XXX                 XXX  ************",
"***********  XXX                 XXX  ************",
"***********          XXXXXXX          ************",
"************     XXXXXXXXXXXXXXX     *************",
"*************        XXXXXXX        **************",
"****************                 *****************",
"****************                 *****************",
"********************          ********************",
"**************************************************",
"**************************************************",
"**************************************************",
"**************************************************",
};
