/* XPM */
/* This file was automatically generated from the file ../FRITZ3.V56
using the program ``zic2xpm''.

    NOTICE: The piece images distributed with ZIICS are
        copyrighted works of their original creators.  Images
        converted with zic2xpm may not be redistributed without
        the permission of the copyright holders.  Do not contact
        the authors of zic2xpm or of ZIICS itself to request
        permission. */
static char * image_name[] = {
"56 56 4 1",
"X	c white s light_piece",
" 	c black s dark_piece",
"*	c gray s light_square",
".	c green s dark_square",
"..**...**...**...**...**...**...**...**...**...**...**..",
".**...**...**...**...**...**...**...**...**...**...**...",
"**...**...**...**...**...**...**...**...**...**...**...*",
"*...**...**...**...**...**...**...**...**...**...**...**",
"...**...**...**...**...**...**...**...**...**...**...**.",
"..**...**...**...**...**...**...**...**...**...**...**..",
".**...**...**...**...**...**...**...**...**...**...**...",
"**...**...**...**...**...*    **...**...**...**...**...*",
"*...**...**...**...**...*      ...**...**...**...**...**",
"...**...**...**...**...**  XX  ..**...**...**...**...**.",
"..**...**...**...**...**.  XX  .**...**...**...**...**..",
".**...**...**...**...**..      **...**...**...**...**...",
"**...**...**...**...**...      *...**...**...**...**...*",
"*...**...**...**...**...**    *...**...**...**...**...**",
"...**...**...**...**...          **...**...**...**...**.",
"..**...**...**...**...    XXXX    ...**...**...**...**..",
".**...**...**...**...   XXXXXXXX   .**...**...**...**...",
"**...**...**...**...   XXXXXXXXXX   *...**...**...**...*",
"*...**...**...**...   XXXXXXXXXXXX   ..**...**...**...**",
"...**...**...**...*  XXXXXX  XXXXXX   **...**...**...**.",
"..**...**...**...*   XXXXXX  XXXXXX   *...**...**...**..",
".**...**...**...*   XXXXXXX  XXXXXXX   ..**...**...**...",
"**...**...**...**   XXXX        XXXX   .**...**...**...*",
"*...**...**...**   XXXXX        XXXXX   *...**...**...**",
"...**...**...**.   XXXXXXXX  XXXXXXXX   ...**...**...**.",
"..**...**...**..  XXXXXXXXX  XXXXXXXXX  ..**...**...**..",
".**...**...**...  XXXXXXXXX  XXXXXXXXX  .**...**...**...",
"**...**...**...*   XXXXXXXXXXXXXXXXXX   **...**...**...*",
"*...**...**...**.  XXXXXXXXXXXXXXXXXX  **...**...**...**",
"...**...**...**..   XXXXXXXXXXXXXXXX   *...**...**...**.",
"..**...**...**...   XXXXXXXXXXXXXXXX  *...**...**...**..",
".**...**...**...**                   *...**...**...**...",
"**...**...**...**..                  ...**...**...**...*",
"*...**...**...**...*                ...**...**...**...**",
"...**...**...**...**  XXXXXXXXXXXX  ..**...**...**...**.",
"..**...**...**...**.  XXXXXXXXXXXX  .**...**...**...**..",
".**...**...**...**.                  *...**...**...**...",
"**...**...**...**..                  ...**...**...**...*",
"*...**...**...**..                    .**...**...**...**",
"...**...**...**...    XXXXXXXXXXXX    **...**...**...**.",
"..**...**...**...                      ...**...**...**..",
".**...**...**...**..                **...**...**...**...",
"**...**...**...**...**            .**...**...**...**...*",
"*...**...**...**...**     X  X     *...**...**...**...**",
"...**...**...**...**.    XX  XX    ...**...**...**...**.",
"..**...*                XX    XX                *...**..",
".**...*               XXX      XXX               ..**...",
"**...**   XXXXXXXXXXXXXX        XXXXXXXXXXXXXX   .**...*",
"*...**.                                          **...**",
"...**...                   .*                   **...**.",
"..**...**               ...**...               **...**..",
".**...**...**...**...**...**...**...**...**...**...**...",
"**...**...**...**...**...**...**...**...**...**...**...*",
"*...**...**...**...**...**...**...**...**...**...**...**",
"...**...**...**...**...**...**...**...**...**...**...**.",
"..**...**...**...**...**...**...**...**...**...**...**..",
};
