/* XPM */
/* This file was automatically generated from the file ../FRITZ3.V56
using the program ``zic2xpm''.

    NOTICE: The piece images distributed with ZIICS are
        copyrighted works of their original creators.  Images
        converted with zic2xpm may not be redistributed without
        the permission of the copyright holders.  Do not contact
        the authors of zic2xpm or of ZIICS itself to request
        permission. */
static char * image_name[] = {
"56 56 4 1",
"X	c white s light_piece",
" 	c black s dark_piece",
"*	c gray s light_square",
".	c green s dark_square",
"...**...**...**...**...**...**...**...**...**...**...**.",
"..**...**...**...**...**...**...**...**...**...**...**..",
".**...**...**...**...**...**...**...**...**...**...**...",
"**...**...**...**...**...**...**...**...**...**...**...*",
"*...**...**...**...**...**...**...**...**...**...**...**",
"...**...**...**...**...**...**...**...**...**...**...**.",
"..**...**...**   **...**.  **...**...**...**...**...**..",
".**...**...**.    ...**.    ...**...**...**...**...**...",
"**...**...**...     **..     .**...**...**...**...**...*",
"*...**...**...*      ...     **...**...**...**...**...**",
"...**...**...**          XX  *...**...**...**...**...**.",
"..**...**...**.   *.     XXX        .**...**...**...**..",
".**...**...**..   ...    XXX          ...**...**...**...",
"**...**...**...   ..    XXXX  XXXX      **...**...**...*",
"*...**...**...        XXXXXX XXXXXXX     ...**...**...**",
"...**...**...*       XXXXXXXXXXXXXXXXX    .**...**...**.",
"..**...**...**   XXXXXXXXXXXXXXXXXXXXXX    *...**...**..",
".**...**...**   XXXXXXXXXXXXXXXXXXXXXXXX   ...**...**...",
"**...**...**.  XX    XXXXXXXXXXXXXXXXXXXX   .**...**...*",
"*...**...**..  X    XXXXXXXXXXXXXXXXXXXXX    *...**...**",
"...**...**..  X    XXXXXXXXXXXXXXXXXXXXXXX   ...**...**.",
"..**...**...  X   XXXXXXXXXXXXXXXXXXXXXXXX    .**...**..",
".**...**...   X  XXXXXXXXXXXXXXX  XXXXXXXXX   **...**...",
"**...**...*  XX XXXXXXXXXXXXXXX   XXXXXXXXX   *...**...*",
"*...**...*   XXXXXXXXXXXXXXXXX   XXXXXXXXXXX   ..**...**",
"...**...**  XXXXXXXXXXXXXXXXXX   XXXXXXXXXXX   .**...**.",
"..**...**.  XXXXXXXXXXXXXXXXX   XXXXXXXXXXXXX   *...**..",
".**...**.  XXXXXXXXXXXXXXXXXX   XXXXXXXXXXXXX   ...**...",
"**...**.   XXXXXXXXXXXXXXXXX    XXXXXXXXXXXXXX  ..**...*",
"*...**..  XXXXXXXXXXXXXXXX      XXXXXXXXXXXXXX   **...**",
"...**..  XXXXXXXXXXXXXXX        XXXXXXXXXXXXXX   *...**.",
"..**...  XXXXXXXXXXXXX      *   XXXXXXXXXXXXXXX   ..**..",
".**...  XX   XXXXXXX     .**   XXXXXXXXXXXXXXXX   .**...",
"**...*  XX   XXXXXX     .**.   XXXXXXXXXXXXXXXX   **...*",
"*...**  XX   XXXXX    ..**..  XXXXXXXXXXXXXXXXXX   ...**",
"...**.  XXXXXXXXX   ...**..   XXXXXXXXXXXXXXXXXX   ..**.",
"..**..   XXX XXX   ...**...   XXXXXXXXXXXXXXXXXX   .**..",
".**...*   X   X   ...**...*  XXXXXXXXXXXXXXXXXXX   **...",
"**...**.         ...**...*   XXXXXXXXXXXXXXXXXXXX   ...*",
"*...**...       ...**...*   XXXXXXXXXXXXXXXXXXXXX   ..**",
"...**...**..   ...**...*    XXXXXXXXXXXXXXXXXXXXX   .**.",
"..**...**...**...**...*    XXXXXXXXXXXXXXXXXXXXXX   **..",
".**...**...**...**...*   XXXXXXXXXXXXXXXXXXXXXXXX   *...",
"**...**...**...**...*   XXXXXXXXXXXXXXXXXXXXXXXXX   ...*",
"*...**...**...**...**  XXXXXXXXXXXXXXXXXXXXXXXXXX   ..**",
"...**...**...**...**   XXXXXXXXXXXXXXXXXXXXXXXXXX   .**.",
"..**...**...**...**.  XXXXXXXXXXXXXXXXXXXXXXXXXXX   **..",
".**...**...**...**..  XXXXXXXXXXXXXXXXXXXXXXXXXXX   *...",
"**...**...**...**..  XXXXXXXXXXXXXXXXXXXXXXXXXXXX   ...*",
"*...**...**...**...                                 ..**",
"...**...**...**...*                                 .**.",
"..**...**...**...**                                 **..",
".**...**...**...**...**...**...**...**...**...**...**...",
"**...**...**...**...**...**...**...**...**...**...**...*",
"*...**...**...**...**...**...**...**...**...**...**...**",
"...**...**...**...**...**...**...**...**...**...**...**.",
};
