/* XPM */
/* This file was automatically generated from the file ../FRITZ3.V40
using the program ``zic2xpm''.

    NOTICE: The piece images distributed with ZIICS are
        copyrighted works of their original creators.  Images
        converted with zic2xpm may not be redistributed without
        the permission of the copyright holders.  Do not contact
        the authors of zic2xpm or of ZIICS itself to request
        permission. */
static char * image_name[] = {
"40 40 4 1",
"X	c white s light_piece",
" 	c black s dark_piece",
"*	c gray s light_square",
".	c green s dark_square",
"****************************************",
"****************************************",
"****************************************",
"****************************************",
"**********  ****** *********************",
"**********   ****   ********************",
"***********    **    *******************",
"***********       X  *******************",
"***********  **   XX     ***************",
"***********  *   XXX       *************",
"**********     XXXXX  XXX    ***********",
"**********  X  XXXXXXXXXXXX   **********",
"*********  XXXXXXXXXXXXXXXXX   *********",
"*********  X   XXXXXXXXXXXXXX   ********",
"********  X   XXXXXXXXXXXXXXXX  ********",
"********  X  XXXXXXXXXXXXXXXXX   *******",
"********  X XXXXXXXXXX  XXXXXXX  *******",
"*******  XXXXXXXXXXXXX  XXXXXXX   ******",
"*******  XXXXXXXXXXXX  XXXXXXXXX  ******",
"******  XXXXXXXXXXXXX  XXXXXXXXX   *****",
"******  XXXXXXXXXXXX   XXXXXXXXXX  *****",
"*****  XXXXXXXXXXX     XXXXXXXXXX  *****",
"*****  XXXXXXXXX    *  XXXXXXXXXXX  ****",
"****  X  XXXXX    **  XXXXXXXXXXXX  ****",
"****  X  XXXX   ****  XXXXXXXXXXXX  ****",
"****  XXXXXX  *****   XXXXXXXXXXXX  ****",
"****   X  X  ******  XXXXXXXXXXXXX  ****",
"*****        *****   XXXXXXXXXXXXXX  ***",
"******      *****   XXXXXXXXXXXXXXX  ***",
"*********  *****   XXXXXXXXXXXXXXXX  ***",
"***************   XXXXXXXXXXXXXXXXX  ***",
"***************  XXXXXXXXXXXXXXXXXX  ***",
"**************  XXXXXXXXXXXXXXXXXXX  ***",
"**************  XXXXXXXXXXXXXXXXXXX  ***",
"*************  XXXXXXXXXXXXXXXXXXXX  ***",
"*************                        ***",
"*************                        ***",
"****************************************",
"****************************************",
"****************************************",
};
