/* XPM */
/* This file was automatically generated from the file ../CHASST.V40
using the program ``zic2xpm''.

    NOTICE: The piece images distributed with ZIICS are
        copyrighted works of their original creators.  Images
        converted with zic2xpm may not be redistributed without
        the permission of the copyright holders.  Do not contact
        the authors of zic2xpm or of ZIICS itself to request
        permission. */
static char * image_name[] = {
"40 40 4 1",
"X	c white s light_piece",
" 	c black s dark_piece",
"*	c gray s light_square",
".	c green s dark_square",
"****************************************",
"****************************************",
"****************************************",
"****************************************",
"********* ******* **********************",
"*********   ****   *********************",
"*********     ** X *********************",
"********** XX    X  ********************",
"********** X    XXX      ***************",
"**********  XXX  XX XXXXX  *************",
"********** XXXXX XX XXXXXXX ************",
"*********  XXXXXXXX XXXXXXXX ***********",
"********  XXXXXXXXXXXXXXXXXXX **********",
"******** XX  XXXXXXXXXXXXXXXXX *********",
"******* XX   XXXXXXXXXXXXXXXXXX ********",
"******* XX XXXXXXXXXX XXXXXXXXX ********",
"******* XXXXXXXXXXXXX XXXXXXXXXX *******",
"****** XXXXXXXXXXXXXX XXXXXXXXXX *******",
"***** XXXXXXXXXXXXXX XXXXXXXXXXX *******",
"***** XXXXXXXXXXXXX XXXXXXXXXXXXX ******",
"**** XXXXXXXXXXXXX  XXXXXXXXXXXXX ******",
"**** XXXXXXXXXXX  * XXXXXXXXXXXXX ******",
"**** XX XXXXXX  *** XXXXXXXXXXXXX ******",
"*** XX XXXXXX ***** XXXXXXXXXXXXXX *****",
"*** XX XXXXXX ***** XXXXXXXXXXXXXX *****",
"*** XXXXX XX ****** XXXXXXXXXXXXXX *****",
"**** XXX XXX ***** XXXXXXXXXXXXXXX *****",
"*****    XX ****** XXXXXXXXXXXXXXX *****",
"******** X ****** XXXXXXXXXXXXXXXX  ****",
"********* ****** XXXXXXXXXXXXXXXXXX ****",
"*************** XXXXXXXXXXXXXXXXXXX ****",
"************** XXXXXXXXXXXXXXXXXXXX ****",
"************* XXXXXXXXXXXXXXXXXXXXX ****",
"************* XXXXXXXXXXXXXXXXXXXXX ****",
"************ XXXXXXXXXXXXXXXXXXXXXX ****",
"************ XXXXXXXXXXXXXXXXXXXXXX ****",
"************                        ****",
"****************************************",
"****************************************",
"****************************************",
};
