/* XPM */
/* This file was automatically generated from the file ../CHASST.V40
using the program ``zic2xpm''.

    NOTICE: The piece images distributed with ZIICS are
        copyrighted works of their original creators.  Images
        converted with zic2xpm may not be redistributed without
        the permission of the copyright holders.  Do not contact
        the authors of zic2xpm or of ZIICS itself to request
        permission. */
static char * image_name[] = {
"40 40 4 1",
"X	c white s light_piece",
" 	c black s dark_piece",
"*	c gray s light_square",
".	c green s dark_square",
"****************************************",
"****************************************",
"****************************************",
"******************   *******************",
"*********   *****  X  *****   **********",
"********  X  **** XXX ****  X  *********",
"******** XXX ****  X  **** XXX *********",
"***   **  X  *****   *****  X  **   ****",
"**  X  **   ******* *******   **  X  ***",
"** XXX ***  ******   ******  *** XXX ***",
"**  X  ***   ***** X *****   ***  X  ***",
"***   **** X ***** X ***** X ****   ****",
"****   *** X ***** X ***** X ***   *****",
"**** X *** XX *** XXX *** XX *** X *****",
"**** XX ** XX *** XXX *** XX ** XX *****",
"**** XX ** XXX ** XXX ** XXX ** XX *****",
"**** XXX * XXX * XXXXX * XXX * XXX *****",
"***** XX * XXX * XXXXX * XXX * XX ******",
"***** XXX  XXXX XXXXXXX XXXX  XXX ******",
"***** XXXX XXXX XXXXXXX XXXX XXXX ******",
"***** XXXX XXXX XXXXXXX XXXX XXXX ******",
"****** XXX XX             XX XXX *******",
"****** XXX   XXXXXXXXXXXXX    XX *******",
"****** X  XXXXXXXXXXXXXXXXXXX  X *******",
"******  XXXXXXXXXXXXXXXXXXXXXXX  *******",
"****** XXXXXXXXXXX   XXXXXXXXXXX *******",
"****** XXXXXXX    XXX    XXXXXX  *******",
"*******       XXXXXXXXXXX       ********",
"******** XXXXXXXXXXXXXXXXXXXXX *********",
"********  XXXXXXXXXXXXXXXXXXX  *********",
"********* XXXXX         XXXXX **********",
"*********      XXXXXXXXX      **********",
"********* XXXXXXXXXXXXXXXXXXX **********",
"********* XXXXXXXXXXXXXXXXXXX **********",
"*********  XXXXXXXXXXXXXXXXX  **********",
"***********                 ************",
"****************************************",
"****************************************",
"****************************************",
"****************************************",
};
