/* XPM */
/* This file was automatically generated from the file ../BU_SL41.V56
using the program ``zic2xpm''.

    NOTICE: The piece images distributed with ZIICS are
        copyrighted works of their original creators.  Images
        converted with zic2xpm may not be redistributed without
        the permission of the copyright holders.  Do not contact
        the authors of zic2xpm or of ZIICS itself to request
        permission. */
static char * image_name[] = {
"56 56 4 1",
"X	c white s light_piece",
" 	c black s dark_piece",
"*	c gray s light_square",
".	c green s dark_square",
"...*....*....*....*....*....*....*....*....*....*....*..",
"..*....*....*....*....*....*....*....*....*....*....*...",
".*....*....*....*....*....*....*....*....*....*....*....",
"*....*....*....*....*....*....*....*....*....*....*....*",
"....*....*....*....*....*....*....*....*....*....*....*.",
"...*....*....*....*....*....*....*....*....*....*....*..",
"..*....*....*.... ... *....*....*....*....*....*....*...",
".*....*....*....   .   ...*....*....*....*....*....*....",
"*....*....*....*   .    .*....*....*....*....*....*....*",
"....*....*....*.          ...*....*....*....*....*....*.",
"...*....*....*..     XX       ...*....*....*....*....*..",
"..*....*....*.... XX XXX         ....*....*....*....*...",
".*....*....*....* XX XXXXXXXX       *....*....*....*....",
"*....*....*....*.  XXXXXXXXXXXX      ...*....*....*....*",
"....*....*....*..  XXXXXXXXXXXXXXX    .*....*....*....*.",
"...*....*....*...  XXXXXXXXXXXXXXXXX   ....*....*....*..",
"..*....*....*...   XXXXXXXXXXXXXXXXXX   ..*....*....*...",
".*....*....*...   XXXXXXXXXXXXXXXXXXX   .*....*....*....",
"*....*....*....  XXX      XXXXXXXXXXXX   ....*....*....*",
"....*....*....  XXXX   XXXXXXXXXXXXXXXX   ..*....*....*.",
"...*....*....   XXXX   XXXXXXXXXXXXXXXXX  .*....*....*..",
"..*....*....*   XXXXXXXXXXXXXXXXXXXXXXXX   ....*....*...",
".*....*....*.  XXXXXXXXXXXXXXXXXXXXXXXXXX  ...*....*....",
"*....*....*.   XXXXXXXXXXXXXXXXXXXXXXXXXX   .*....*....*",
"....*....*..   XXXXXXXXXXXXXXXXXXXXXXXXXX   *....*....*.",
"...*....*..    XXXXXXXXXXXXXXXXXXXXXXXXXXX  ....*....*..",
"..*....*..   XXXXXXXXXXXXXXXXXXXXXXXXXXXXX   ..*....*...",
".*....*...   XXXXXXXXXXXXXXXXXXXXXXXXXXXXX   .*....*....",
"*....*...   XXXXXXXXXXXXXXXXXXXXXXXXXXXXXXX  *....*....*",
"....*....   XXXXXXXXXXX  XXXXXXXXXXXXXXXXXX  ....*....*.",
"...*....  XXXXXXXXXX      XXXXXXXXXXXXXXXXX  ...*....*..",
"..*....*  XXXXXXXXX        XXXXXXXXXXXXXXXX  ..*....*...",
".*....*.    XXXX      ..    XXXXXXXXXXXXXXX   *....*....",
"*....*...    XX    .*....*   XXXXXXXXXXXXXXX  ....*....*",
"....*....*.  XX    *....*.   XXXXXXXXXXXXXXX  ...*....*.",
"...*....*...     .*....*    XXXXXXXXXXXXXXXX   .*....*..",
"..*....*....*   .*....     XXXXXXXXXXXXXXXXX   *....*...",
".*....*....*....*...    XXXXXXXXXXXXXXXXXXXXX  ....*....",
"*....*....*....*...    XXXXXXXXXXXXXXXXXXXXXX  ...*....*",
"....*....*....*..    XXXXXXXXXXXXXXXXXXXXXXXX   .*....*.",
"...*....*....*..    XXXXXXXXXXXXXXXXXXXXXXXXX   *....*..",
"..*....*....*...   XXXXXXXXXXXXXXXXXXXXXXXXXXX  ....*...",
".*....*....*...   XXXXXXXXXXXXXXXXXXXXXXXXXXXX  ...*....",
"*....*....*....  XXXXXXXXXXXXXXXXXXXXXXXXXXXXX  ..*....*",
"....*....*...    XXXXXXXXXXXXXXXXXXXXXXXXXXXXX  .*....*.",
"...*....*....   XXXXXXXXXXXXXXXXXXXXXXXXXXXXXX  *....*..",
"..*....*....*  XXXXXXXXXXXXXXXXXXXXXXXXXXXXXXX  ....*...",
".*....*....*.  XXXXXXXXXXXXXXXXXXXXXXXXXXXXXXX  ...*....",
"*....*....*..  XXXXXXXXXXXXXXXXXXXXXXXXXXXXXXX  ..*....*",
"....*....*...                                   .*....*.",
"...*....*....                                   *....*..",
"..*....*....*....*....*....*....*....*....*....*....*...",
".*....*....*....*....*....*....*....*....*....*....*....",
"*....*....*....*....*....*....*....*....*....*....*....*",
"....*....*....*....*....*....*....*....*....*....*....*.",
"...*....*....*....*....*....*....*....*....*....*....*..",
};
