/* XPM */
/* This file was automatically generated from the file ../FRITZ4.V56
using the program ``zic2xpm''.

    NOTICE: The piece images distributed with ZIICS are
        copyrighted works of their original creators.  Images
        converted with zic2xpm may not be redistributed without
        the permission of the copyright holders.  Do not contact
        the authors of zic2xpm or of ZIICS itself to request
        permission. */
static char * image_name[] = {
"56 56 4 1",
"X	c white s light_piece",
" 	c black s dark_piece",
"*	c gray s light_square",
".	c green s dark_square",
"...*....*....*....*....*....*....*....*....*....*....*..",
"..*....*....*....*....*....*....*....*....*....*....*...",
".*....*....*....*....*....*....*....*....*....*....*....",
"*....*....*....*....*....*....*....*....*....*....*....*",
"....*....*....*....*....*..  *....*....*....*....*....*.",
"...*....*....*....*....*...  ....*....*....*....*....*..",
"..*....*....*....*....*....  ...*....*....*....*....*...",
".*....*....*....*....*..        ....*....*....*....*....",
"*....*....*....*....*...        ...*....*....*....*....*",
"....*....*....*....*....*..  *....*....*....*....*....*.",
"...*....*....*....*....*...  ....*....*....*....*....*..",
"..*....*....*....*....*....  ...*....*....*....*....*...",
".*....*....*....*....*....*  ..*....*....*....*....*....",
"*....*....*....*....*....*.  .*....*....*....*....*....*",
"....*....*....*....*....*      ...*....*....*....*....*.",
"...*....*....*....*....*        .*....*....*....*....*..",
"..*....*....*....*....*.        *....*....*....*....*...",
".*....*....*....*....*.    XX     ..*....*....*....*....",
"*....*....*        .*.    XXXX    .*.       .*....*....*",
"....*....                XXXXXX               ...*....*.",
"...*....    XXXXXXX      XXXXXX      XXXXXXX    *....*..",
"..*....   XXXXXXXXXXX    XXXXXX    XXXXXXXXXXX  ....*...",
".*....*  XXXXXXXXXXXXX   XXXXXX   XXXXXXXXXXXXX  ..*....",
"*....*.  XXXXXXXXXXXXXX  XXXXXX  XXXXXXXXXXXXXX  .*....*",
"....*.   XXXXXXXXXXXXXX   XXXX   XXXXXXXXXXXXXX   ....*.",
"...*..  XXXXXXXXXXXXXXXX   XX   XXXXXXXXXXXXXXXX  ...*..",
"..*...  XXXXXXXXXXXXXXXX   XX   XXXXXXXXXXXXXXXX  ..*...",
".*....  XXXXXXXXXXXXXXXXX      XXXXXXXXXXXXXXXXX  .*....",
"*....*  XXXXXXXXXXXXXXXXX      XXXXXXXXXXXXXXXXX  *....*",
"....*.   XXXXXXXXXXXXXXXXXX  XXXXXXXXXXXXXXXXXX   ....*.",
"...*..   XXXXXXXXXXXXXXXXXX  XXXXXXXXXXXXXXXXXX   ...*..",
"..*....  XXXXXXXXXXXXXXXXXX  XXXXXXXXXXXXXXXXXX  ...*...",
".*....*   XXXXXXXXXXXXXXXXX  XXXXXXXXXXXXXXXXX   ..*....",
"*....*..   XXXXXXXXXXXXXXXX  XXXXXXXXXXXXXXXX   ..*....*",
"....*....   XXXXXXXXXXXXXXX  XXXXXXXXXXXXXXX   ..*....*.",
"...*....*.   XXXXXXXXXXXXXX  XXXXXXXXXXXXXX   ..*....*..",
"..*....*...   XXXX                    XXXX   ..*....*...",
".*....*....                                  .*....*....",
"*....*....*.        XXXXXXXXXXXXXXXX        .*....*....*",
"....*....*...    XXXXXXXXXXXXXXXXXXXXXX    .*....*....*.",
"...*....*....  XXXXXXXXXXXXXXXXXXXXXXXXXX  *....*....*..",
"..*....*....*.   X                    X   *....*....*...",
".*....*....*..      XXXXXXXXXXXXXXXX      ....*....*....",
"*....*....*...   XXX                XXX   ...*....*....*",
"....*....*....                            ..*....*....*.",
"...*....*....                              *....*....*..",
"..*....*....         XXXXXXXXXXXXXX         ...*....*...",
".*....*....*         XXXXXXXXXXXXXX         ..*....*....",
"*....*....*..        XXXXXXXXXXXXXX        ..*....*....*",
"....*....*....*                          ...*....*....*.",
"...*....*....*....*..              ...*....*....*....*..",
"..*....*....*....*....*....*....*....*....*....*....*...",
".*....*....*....*....*....*....*....*....*....*....*....",
"*....*....*....*....*....*....*....*....*....*....*....*",
"....*....*....*....*....*....*....*....*....*....*....*.",
"...*....*....*....*....*....*....*....*....*....*....*..",
};
