/* XPM */
/* This file was automatically generated from the file ../FRITZ1.V50
using the program ``zic2xpm''.

    NOTICE: The piece images distributed with ZIICS are
        copyrighted works of their original creators.  Images
        converted with zic2xpm may not be redistributed without
        the permission of the copyright holders.  Do not contact
        the authors of zic2xpm or of ZIICS itself to request
        permission. */
static char * image_name[] = {
"50 50 4 1",
"X	c white s light_piece",
" 	c black s dark_piece",
"*	c gray s light_square",
".	c green s dark_square",
" **** **** **** **** **** **** **** **** **** ****",
"**** **** **** **** **** **** **** **** **** **** ",
"*** **** **** **** **** **** **** **** **** **** *",
"** **** **** **** **** **** **** **** **** **** **",
"* **** **** **** **** **** **** **** **** **** ***",
" **** **** **  ******** ****** **** **** **** ****",
"**** **** ***   *****    **** **** **** **** **** ",
"*** **** *****     **     ** **** **** **** **** *",
"** **** **** *     **     * **** **** **** **** **",
"* **** **** **         X  ********** **** **** ***",
" **** **** ***  ***    XX      **** **** **** ****",
"**** **** ****  **   XXXX         ***** **** **** ",
"*** **** ****      XXXXXXX  XX      ** **** **** *",
"** **** *****  X   XXXXXXXXXXXXX    ****** **** **",
"* **** ******  XXXXXXXXXXXXXXXXXXX    *** **** ***",
" **** **** *  XXXXXXXXXXXXXXXXXXXXX    ****** ****",
"**** **** **  X    XXXXXXXXXXXXXXXXX    **** **** ",
"*** **** **  X    XXXXXXXXXXXXXXXXXXX   *** **** *",
"** **** ***  X   XXXXXXXXXXXXXXXXXXXXX  ** **** **",
"* **** ***  XX  XXXXXXXXXXXXXXXXXXXXXX   ***** ***",
" **** ****  XX XXXXXXXXXXXXXXXXXXXXXXXX  **** ****",
"**** ****  XXXXXXXXXXXXXXXXX  XXXXXXXXX    * **** ",
"*** *****  XXXXXXXXXXXXXXXX   XXXXXXXXXX   ***** *",
"** ******  XXXXXXXXXXXXXXX   XXXXXXXXXXX   **** **",
"* **** *  XXXXXXXXXXXXXXXX   XXXXXXXXXXX    ** ***",
" **** **  XXXXXXXXXXXXXXX    XXXXXXXXXXXX   * ****",
"**** **  XXXXXXXXXXXXXX      XXXXXXXXXXXX   ***** ",
"*** ***  XXXXXXXXXXXX    *  XXXXXXXXXXXXXX   *** *",
"** ***   XXXXXXXXXXX     *  XXXXXXXXXXXXXX   ** **",
"* ***   X  XXXXXXX     **   XXXXXXXXXXXXXX   * ***",
" ****   X  XXXXX    *****  XXXXXXXXXXXXXXXX  *****",
"*****   XXXXXXX   ******   XXXXXXXXXXXXXXXX  **** ",
"*** *    XXXXX  ********   XXXXXXXXXXXXXXXX  *** *",
"** **    XX  X  * *****   XXXXXXXXXXXXXXXXX  ** **",
"* ****          ******    XXXXXXXXXXXXXXXXXX  ****",
" *******       ******    XXXXXXXXXXXXXXXXXXX  ****",
"**** ******   ******    XXXXXXXXXXXXXXXXXXXX  *** ",
"*** **** **********    XXXXXXXXXXXXXXXXXXXXX  ** *",
"** **** **** *****    XXXXXXXXXXXXXXXXXXXXXX  * **",
"* **** **** ******   XXXXXXXXXXXXXXXXXXXXXXX  ****",
" **** **** **** *   XXXXXXXXXXXXXXXXXXXXXXXX  ****",
"**** **** **** **   XXXXXXXXXXXXXXXXXXXXXXXX  *** ",
"*** **** **** **   XXXXXXXXXXXXXXXXXXXXXXXXX  ** *",
"** **** **** ***   XXXXXXXXXXXXXXXXXXXXXXXXX  * **",
"* **** **** ****                              ****",
" **** **** *****                              ****",
"**** **** **** ********************************** ",
"*** **** **** **** **** **** **** **** **** **** *",
"** **** **** **** **** **** **** **** **** **** **",
"* **** **** **** **** **** **** **** **** **** ***",
};
