/* XPM */
static char *magick[] = {
/* columns rows colors chars-per-pixel */
"70 70 64 1",
"  c white",
". c #fffff7",
"X c red",
"o c background",
"O c #e7e784",
"+ c #e7c684",
"@ c #e7a5c6",
"# c #e7a584",
"$ c #e76342",
"% c #e72100",
"& c gray87",
"* c #cecece",
"= c #c6dec6",
"- c #c6c6c6",
"; c #c6c684",
": c #c6a5c6",
"> c #c6a584",
", c #c6a542",
"< c #c68442",
"1 c #c62100",
"2 c gray74",
"3 c gray68",
"4 c #a5c6c6",
"5 c #a5a5a5",
"6 c #a5a584",
"7 c #a58484",
"8 c #a58442",
"9 c #a56384",
"0 c #a56342",
"q c #a54242",
"w c #a52100",
"e c gray61",
"r c gray58",
"t c gray55",
"y c #84a584",
"u c #848484",
"i c #848442",
"p c #846384",
"a c #846342",
"s c #844242",
"d c #842142",
"f c gray45",
"g c gray42",
"h c #638484",
"j c #636384",
"k c #636342",
"l c #634242",
"z c #632142",
"x c #5a5a5a",
"c c gray32",
"v c gray26",
"b c #422142",
"n c #422100",
"m c #313131",
"M c gray13",
"N c #187331",
"B c #181818",
"V c gray3",
"C c black",
"Z c black",
"A c black",
"S c black",
"D c black",
"F c black",
/* pixels */
"oooooooooooooooooooooooooooooooooooooooooooooooooooooooooooooooooooooo",
"oooooooooooooooooooooooooooooooooooooooooooooooooooooooooooooooooooooo",
"oooooooooooooooooooooooooooooooooooooooooooooooooooooooooooooooooooooo",
"oooooooooooooooooooooooooooooooooooooooooooooooooooooooooooooooooooooo",
"oooooooooooooooooooooooooooooooooooooooooooooooooooooooooooooooooooooo",
"oooooooooooooooooooooooooooooooooooooooooooooooooooooooooooooooooooooo",
"oooooooooooooooooooooooooooooooooo  oooooooooooooooooooooooooooooooooo",
"oooooooooooooooooooooooooooooooooo%%oooooooooooooooooooooooooooooooooo",
"oooooooooooooooooooooooooooooooooo$%oooooooooooooooooooooooooooooooooo",
"ooooooooooooooooooooooooooooooo$@@$%%%$ooooooooooooooooooooooooooooooo",
"ooooooooooooooooooooooooooooooo dd11dd ooooooooooooooooooooooooooooooo",
"oooooooooooooooooooooooooooooooO++#$$$%ooooooooooooooooooooooooooooooo",
"oooooooooooooooooooooooooooooooooo#$oooooooooooooooooooooooooooooooooo",
"oooooooooooooooooooooooooooooooooo%%oooooooooooooooooooooooooooooooooo",
"oooooooooooooooooooooooooooo@$$$%%dd111111oooooooooooooooooooooooooooo",
"oooooooooooooooooooooooooooo1$$%11dddd111doooooooooooooooooooooooooooo",
"ooooooooooooooooooooooo111111$$%11dddd111dznnbnooooooooooooooooooooooo",
"ooooooooooooooooo bbw111111ddzzbzzznbbznnnzzznzznd11 ooooooooooooooooo",
"ooooooooooooooooo   w1%%%%%11111%%ddddzzzznnnnbbz1   ooooooooooooooooo",
"ooooooooooooooooooo w1%%%%%11111%%ddddzzzznnnnbbz1  oooooooooooooooooo",
"ooooooooooooooooooooo1%%$%%%%111111ddddzzzbzzznn1ooooooooooooooooooooo",
"oooooooooooooooooooood11%%%1%11%11dddddzzznzznbb1ooooooooooooooooooooo",
"ooooooooooooooooooooo 11$$$%%%%11111dddddzzbbn11 ooooooooooooooooooooo",
"ooooooooooooooooooooooo1$$$%%%%11111dddddzzbbn1ooooooooooooooooooooooo",
"oooooooooooooooooooooooo1$$$%%%%1111ddddddzzz1oooooooooooooooooooooooo",
"oooooooooooooooooooooooo1%%<$%%%%%11111ddddzz1oooooooooooooooooooooooo",
"oooooooooooooooooooooooo1%%<$%%%%%11111ddddzz1oooooooooooooooooooooooo",
"ooooooooooooooooooooooooo%%$$$$%1111111ddddddooooooooooooooooooooooooo",
"ooooooooooooooooooooooooo11$$%%%%%11%%111ddddooooooooooooooooooooooooo",
"ooooooooooooooooooooooooo11%#$$%%%%1111%%wdddooooooooooooooooooooooooo",
"ooooooooooooooooooooooooo11%#$$%%%%1111%%wdddooooooooooooooooooooooooo",
"oooooooooooooooooooooooo%##+@OO+##$%11%1111%%%oooooooooooooooooooooooo",
"oooooooooooooooooooooooo$++++OO###%%%%1%%11111oooooooooooooooooooooooo",
"ooooooooooooooooooooowqq$++++OO###%%%%1%%1111111%ooooooooooooooooooooo",
"ooooooooooooooooooooo    11%$%%111ddddznnnznn    ooooooooooooooooooooo",
"ooooooooooooooooooooooooo11%#$$%1111dddzznbddooooooooooooooooooooooooo",
"ooooooooooooooooooooooooo11$+<<%1111dddddznddooooooooooooooooooooooooo",
"ooooooooooooooooooooooooo11$+<<%1111dddddznddooooooooooooooooooooooooo",
"ooooooooooooooooooooooooo%%$=##%111111dddznddooooooooooooooooooooooooo",
"ooooooooooooooooooooooooo11#+@@%1111dd1dddbddooooooooooooooooooooooooo",
"ooooooooooooooooooooooooo11#+@@%1111dd1dddbddooooooooooooooooooooooooo",
"ooooooooooooooooooooooooo%%#+##%1111dd1dddzzzooooooooooooooooooooooooo",
"oooooooooooooooooooooooo%%%#+##%1111ddwdddnbb1oooooooooooooooooooooooo",
"oooooooooooooooooooooooo1%%#O##%111%dd1dddzzz1oooooooooooooooooooooooo",
"oooooooooooooooooooooooo1%%#O##%111%dd1dddzzz1oooooooooooooooooooooooo",
"oooooooooooooooooooooooo%$$++88X%%1111ddddznnzoooooooooooooooooooooooo",
"oooooooooooooooooooooooo1##+#<<%1111dd1ddddbbzoooooooooooooooooooooooo",
"ooooooooooooooooooooooo11##+#<<%1111dd1ddddbbzdooooooooooooooooooooooo",
"ooooooooooooooooooooooo1%##+#$$%%%1111dddddbbbwooooooooooooooooooooooo",
"oooooooooooooooooooo +++OOO++##<$$%%1111111111%%1ooooooooooooooooooooo",
"oooooooooooooooooooo+OOOO++++$$$%%111111111111dd1ooooooooooooooooooooo",
"oooooooooooooooooooo+OOOO++++$$$%%111111111111dd11oooooooooooooooooooo",
"ooooooooooooooooooo11%%%%11%111%111ddddddbbzzbzzzd11oooooooooooooooooo",
"ooooooooooooooooooo.O+#####$$%%1%%111111111ddddddd11oooooooooooooooooo",
"oooooooooooooooo%#..O+#####$$%%1%%111111111ddddddd1111oooooooooooooooo",
"ooooooooooooood1111111111%%%1111111111111dddddddddddd111oooooooooooooo",
"oooooooooooooondddddddddbnnnznnzzzzbzzzzzbzbbzbbzbbbzdd1oooooooooooooo",
"oooooooooooooo#OOOOO++###<<<$%%%11111111111111ddddzzzzzboooooooooooooo",
"ooooooooooooo<#OOOOO++###<<<$%%%11111111111111ddddzzzzzb1ooooooooooooo",
"ooooooooooooo1%%%1%%11111111%111%%111111111111ddddzzzbbzdooooooooooooo",
"ooooooooooooo1111111111111111111111111111ddddddddzzzbzzddooooooooooooo",
"ooooooooooooo1111111111111111111111111111ddddddddzzzbzzddooooooooooooo",
"oooooooooooooooooooooooooooooooooooooooooooooooooooooooooooooooooooooo",
"oooooooooooooooooooooooooooooooooooooooooooooooooooooooooooooooooooooo",
"oooooooooooooooooooooooooooooooooooooooooooooooooooooooooooooooooooooo",
"oooooooooooooooooooooooooooooooooooooooooooooooooooooooooooooooooooooo",
"oooooooooooooooooooooooooooooooooooooooooooooooooooooooooooooooooooooo",
"oooooooooooooooooooooooooooooooooooooooooooooooooooooooooooooooooooooo",
"oooooooooooooooooooooooooooooooooooooooooooooooooooooooooooooooooooooo",
"oooooooooooooooooooooooooooooooooooooooooooooooooooooooooooooooooooooo"
};
