/* XPM */
static char *magick[] = {
/* columns rows colors chars-per-pixel */
"70 70 64 1",
"  c white",
". c #fffff7",
"X c red",
"o c background",
"O c #e7e784",
"+ c #e7c684",
"@ c #e7a5c6",
"# c #e7a584",
"$ c #e76342",
"% c #e72100",
"& c gray87",
"* c #cecece",
"= c #c6dec6",
"- c #c6c6c6",
"; c #c6c684",
": c #c6a5c6",
"> c #c6a584",
", c #c6a542",
"< c #c68442",
"1 c #c62100",
"2 c gray74",
"3 c gray68",
"4 c #a5c6c6",
"5 c #a5a5a5",
"6 c #a5a584",
"7 c #a58484",
"8 c #a58442",
"9 c #a56384",
"0 c #a56342",
"q c #a54242",
"w c #a52100",
"e c gray61",
"r c gray58",
"t c gray55",
"y c #84a584",
"u c #848484",
"i c #848442",
"p c #846384",
"a c #846342",
"s c #844242",
"d c #842142",
"f c gray45",
"g c gray42",
"h c #638484",
"j c #636384",
"k c #636342",
"l c #634242",
"z c #632142",
"x c #5a5a5a",
"c c gray32",
"v c gray26",
"b c #422142",
"n c #422100",
"m c #313131",
"M c gray13",
"N c #187331",
"B c #181818",
"V c gray3",
"C c black",
"Z c black",
"A c black",
"S c black",
"D c black",
"F c black",
/* pixels */
"oooooooooooooooooooooooooooooooooooooooooooooooooooooooooooooooooooooo",
"oooooooooooooooooooooooooooooooooooooooooooooooooooooooooooooooooooooo",
"oooooooooooooooooooooooooooooooooooooooooooooooooooooooooooooooooooooo",
"oooooooooooooooooooooooooooooooooooooooooooooooooooooooooooooooooooooo",
"oooooooooooooooooooooooooooooooooooooooooooooooooooooooooooooooooooooo",
"oooooooooooooooooooooooooooooooooooooooooooooooooooooooooooooooooooooo",
"oooooooooooooooooooooooooooooooooooooooooooooooooooooooooooooooooooooo",
"oooooooooooooooooooooooooooooooooooooooooooooooooooooooooooooooooooooo",
"oooooooooooooooooooooooooooooooooo11ddoooooooooooooooooooooooooooooooo",
"oooooooooooooooooooooooooooooooooo11dd ooooooooooooooooooooooooooooooo",
"oooooooooooooooooooooooooooooooooo@#$$1ooooooooooooooooooooooooooooooo",
"oooooooooooooooooooooooooooooooooo$%111ooooooooooooooooooooooooooooooo",
"ooooooooooooooooooooooooooooooo   $%11oooooooooooooooooooooooooooooooo",
"ooooooooooooooooooooooooooooooo%$$ddnnoooooooooooooooooooooooooooooooo",
"oooooooooooooooooooooooooooo%$$#$$1nzzd11ooooooooooooooooooooooooooooo",
"ooooooooooooooooooooooooooo%#++<%%1bnnO%%1%ooooooooooooooooooooooooooo",
"ooooooooooooooooooooooooooo%#++<%%1bnnO%%1%ooooooooooooooooooooooooooo",
"ooooooooooooooooooooooooo11#O==%%%nnOO$111d%%ooooooooooooooooooooooooo",
"oooooooooooooooooooooooo1$$+O##%11n#%%%111ddd%oooooooooooooooooooooooo",
"oooooooooooooooooooooooo1$$+O##%11n#%%%111ddd%oooooooooooooooooooooooo",
"oooooooooooooooooooooooo1$$+#%%1nn#$%%1111ddd1oooooooooooooooooooooooo",
"oooooooooooooooooooooooo1%%$$%%1zz#%111%%wdzz1oooooooooooooooooooooooo",
"oooooooooooooooooooooooow%%$8%%%ll$%11111ddzz1oooooooooooooooooooooooo",
"oooooooooooooooooooooooow%%$8%%%ll$%11111ddzz1oooooooooooooooooooooooo",
"ooooooooooooooooooooooood%%1%%%1zz%111111ddbbdoooooooooooooooooooooooo",
"ooooooooooooooooooooooooo1111%%1ll%1111dddnddooooooooooooooooooooooooo",
"ooooooooooooooooooooooooo1111%%1ll%1111dddnddooooooooooooooooooooooooo",
"oooooooooooooooooooooooooww11%%1%%1111dddnz11ooooooooooooooooooooooooo",
"ooooooooooooooooooooooooooo11111111111dbbzdooooooooooooooooooooooooooo",
"ooooooooooooooooooooooooooood111wwddzzzdddoooooooooooooooooooooooooooo",
"ooooooooooooooooooooooooooood111wwddzzzdddoooooooooooooooooooooooooooo",
"oooooooooooooooooooooooo%##+OOOO##$$%%1%%11%%%oooooooooooooooooooooooo",
"ooooooooooooooooooooooos<##OO@@#<<%%11%%%%1111%ooooooooooooooooooooooo",
"ooooooooooooooooooooooos<##OO@@#<<%%11%%%%1111%ooooooooooooooooooooooo",
"ooooooooooooooooooooooooooo11<<$%%11dddbbnzooooooooooooooooooooooooooo",
"ooooooooooooooooooooooooooo1%##$XX1111dnnzzooooooooooooooooooooooooooo",
"ooooooooooooooooooooooooooo1$##<%%1111dzzzdooooooooooooooooooooooooooo",
"ooooooooooooooooooooooooooo1$##<%%1111dzzzdooooooooooooooooooooooooooo",
"ooooooooooooooooooooooooooo%$++#%%1111dzzndooooooooooooooooooooooooooo",
"ooooooooooooooooooooooooooo1<==#%%%111dddbdooooooooooooooooooooooooooo",
"ooooooooooooooooooooooooooo1<==#%%%111dddbdooooooooooooooooooooooooooo",
"ooooooooooooooooooooooooo11%#++#%%1111dddzb11ooooooooooooooooooooooooo",
"ooooooooooooooooooooooooo%%%#++#%%1111dddzn11ooooooooooooooooooooooooo",
"ooooooooooooooooooooooooo%%%#OO#%%11%%dddzz11ooooooooooooooooooooooooo",
"ooooooooooooooooooooooooo%%%#OO#%%11%%dddzz11ooooooooooooooooooooooooo",
"oooooooooooooooooooooooo%11$#++<XX1111dddzbnn1oooooooooooooooooooooooo",
"oooooooooooooooooooooooo1%%#+##$%%%111ddddbbbdoooooooooooooooooooooooo",
"oooooooooooooooooooooooo1%%#+##$%%%111ddddbbbdoooooooooooooooooooooooo",
"ooooooooooooooooooooo$+++OO++##$$$%%11111%1111111ooooooooooooooooooooo",
"ooooooooooooooooooooo%++OOOO+##8$$%%1111111111111ooooooooooooooooooooo",
"ooooooooooooooooooooo+OOO==+#$$$%%111111111111111ooooooooooooooooooooo",
"oooooooooooooooooooo<+OOO==+#$$$%%1111111111111111oooooooooooooooooooo",
"ooooooooooooooooooo111%%%%%%%11%111ddddddbnzzbzzdd11oooooooooooooooooo",
"oooooooooooooooo%#..O=+++++$$%%%11%1111111dddddddd1111oooooooooooooooo",
"oooooooooooooooo%#..O=+++++$$%%%11%1111111dddddddd1111oooooooooooooooo",
"ooooooooooooood11111111111111111111111111dddddddddddd111oooooooooooooo",
"oooooooooooooondddddddddzzznznnzzzbzzzzbbzbbbzbbzbzzzdd1oooooooooooooo",
"oooooooooooooo#OOOOOO+#####<$%%%1111111111111dddddzzbzzboooooooooooooo",
"ooooooooooooo<#OOOOOO+#####<$%%%1111111111111dddddzzbzzb1ooooooooooooo",
"ooooooooooooo1%%%1%%11111111%111%%11111111111dddddzzbzzzdooooooooooooo",
"ooooooooooooo1111111111111111111111111111ddddddddbzzzbbddooooooooooooo",
"ooooooooooooo1111111111111111111111111111ddddddddbzzzbbddooooooooooooo",
"oooooooooooooooooooooooooooooooooooooooooooooooooooooooooooooooooooooo",
"oooooooooooooooooooooooooooooooooooooooooooooooooooooooooooooooooooooo",
"oooooooooooooooooooooooooooooooooooooooooooooooooooooooooooooooooooooo",
"oooooooooooooooooooooooooooooooooooooooooooooooooooooooooooooooooooooo",
"oooooooooooooooooooooooooooooooooooooooooooooooooooooooooooooooooooooo",
"oooooooooooooooooooooooooooooooooooooooooooooooooooooooooooooooooooooo",
"oooooooooooooooooooooooooooooooooooooooooooooooooooooooooooooooooooooo",
"oooooooooooooooooooooooooooooooooooooooooooooooooooooooooooooooooooooo"
};
