/* XPM */
static char *magick[] = {
/* columns rows colors chars-per-pixel */
"70 70 64 1",
"  c white",
". c #fffff7",
"X c red",
"o c background",
"O c #e7e784",
"+ c #e7c684",
"@ c #e7a5c6",
"# c #e7a584",
"$ c #e76342",
"% c #e72100",
"& c gray87",
"* c #cecece",
"= c #c6dec6",
"- c #c6c6c6",
"; c #c6c684",
": c #c6a5c6",
"> c #c6a584",
", c #c6a542",
"< c #c68442",
"1 c #c62100",
"2 c gray74",
"3 c gray68",
"4 c #a5c6c6",
"5 c #a5a5a5",
"6 c #a5a584",
"7 c #a58484",
"8 c #a58442",
"9 c #a56384",
"0 c #a56342",
"q c #a54242",
"w c #a52100",
"e c gray61",
"r c gray58",
"t c gray55",
"y c #84a584",
"u c #848484",
"i c #848442",
"p c #846384",
"a c #846342",
"s c #844242",
"d c #842142",
"f c gray45",
"g c gray42",
"h c #638484",
"j c #636384",
"k c #636342",
"l c #634242",
"z c #632142",
"x c #5a5a5a",
"c c gray32",
"v c gray26",
"b c #422142",
"n c #422100",
"m c #313131",
"M c gray13",
"N c #187331",
"B c #181818",
"V c gray3",
"C c black",
"Z c black",
"A c black",
"S c black",
"D c black",
"F c black",
/* pixels */
"oooooooooooooooooooooooooooooooooooooooooooooooooooooooooooooooooooooo",
"oooooooooooooooooooooooooooooooooooooooooooooooooooooooooooooooooooooo",
"oooooooooooooooooooooooooooooooooooooooooooooooooooooooooooooooooooooo",
"oooooooooooooooooooooooooooooooooooooooooooooooooooooooooooooooooooooo",
"oooooooooooooooooooooooooooooooooooooooooooooooooooooooooooooooooooooo",
"oooooooooooooooooooooooooooooooooooooooooooooooooooooooooooooooooooooo",
"oooooooooooooooooooooooooooooooooooooooooooooooooooooooooooooooooooooo",
"oooooooooooooooooooooooooooooooo  1d  oooooooooooooooooooooooooooooooo",
"ooooooooooooooooooooooooooooooo%$$%%%%%ooooooooooooooooooooooooooooooo",
"ooooooooooooooooooooooooooooooo%$$%%%%%ooooooooooooooooooooooooooooooo",
"oooooooooooooooooooooooooooooooo111zddoooooooooooooooooooooooooooooooo",
"ooooooooooooooooooooooooooo       %z       ooooooooooooooooooooooooooo",
"ooooooooooooooooooooooooooo       %z       ooooooooooooooooooooooooooo",
"ooooooooooooooooooooooo           %d           ooooooooooooooooooooooo",
"ooooooooooooooooo           #OO+++<$%%%$$%           ooooooooooooooooo",
"ooooooooooooooooo     $$#OOO@++###%1%%%111%%%111     ooooooooooooooooo",
"ooooooooooooooooo     $$#OOO@++###%1%%%111%%%111     ooooooooooooooooo",
"ooooooooooooooooooo#.+++###<<$$%%%%11111111dddddddddoooooooooooooooooo",
"oooooooooooooooooooow111dddddzzzddzzzzbbbzbnnznnndoooooooooooooooooooo",
"oooooooooooooooooooow111dddddzzzddzzzzbbbzbnnznnndoooooooooooooooooooo",
"ooooooooooooooooooooo1%%1%%1111111dddddzznnzzbbbbooooooooooooooooooooo",
"ooooooooooooooooooooow%%%%%%%11111dddddzzzbzzznn1ooooooooooooooooooooo",
"ooooooooooooooooooooo CC$$$%%%%1%%1ddddddzzbbn11 ooooooooooooooooooooo",
"oooooooooooooooooooooooC$$$%%%%1%%1ddddddzzbbn1ooooooooooooooooooooooo",
"oooooooooooooooooooooooo1$$$%%%%1111ddddddzzz1oooooooooooooooooooooooo",
"oooooooooooooooooooooooo1%%<$%%%1111111ddddzz1oooooooooooooooooooooooo",
"oooooooooooooooooooooooo1%%<$%%%1111111ddddzz1oooooooooooooooooooooooo",
"ooooooooooooooooooooooooo11$$$$%1111111ddddddooooooooooooooooooooooooo",
"ooooooooooooooooooooooooo11$$%%%%%11111%%ddddooooooooooooooooooooooooo",
"ooooooooooooooooooooooooo11%#$$%%%%111111ddddooooooooooooooooooooooooo",
"ooooooooooooooooooooooooo11%#$$%%%%111111ddddooooooooooooooooooooooooo",
"oooooooooooooooooooooooo%##+OOOO##$$%%1%%11%%%oooooooooooooooooooooooo",
"ooooooooooooooooooooo1%%8##OO++#<<%%%%%%%%%11111%ooooooooooooooooooooo",
"ooooooooooooooooooooo1%%8##OO++#<<%%%%%%%%%11111%ooooooooooooooooooooo",
"ooooooooooooooooooooooooo++O+OO+##%%%%1%%1111ooooooooooooooooooooooooo",
"ooooooooooooooooooooooooo11%$%%%11ddddznnznzzooooooooooooooooooooooooo",
"ooooooooooooooooooooooooo11%#$$%1111dddzznzzzooooooooooooooooooooooooo",
"ooooooooooooooooooooooooo11%#$$%1111dddzznzzzooooooooooooooooooooooooo",
"ooooooooooooooooooooooooo11$+<<%111111dddznddooooooooooooooooooooooooo",
"ooooooooooooooooooooooooo11$O##%1111dddddznddooooooooooooooooooooooooo",
"ooooooooooooooooooooooooo11$O##%1111dddddznddooooooooooooooooooooooooo",
"oooooooooooooooooooooooo %%<=##%111111ddddbdd oooooooooooooooooooooooo",
"oooooooooooooooooooooooo%11#+##%1111ddddddznn1oooooooooooooooooooooooo",
"oooooooooooooooooooooooo1%%#O##%1111111dddznn1oooooooooooooooooooooooo",
"oooooooooooooooooooooooo1%%#O##%1111111dddznn1oooooooooooooooooooooooo",
"ooooooooooooooooooooooo %%%#@##$1111ddddddzzz1 ooooooooooooooooooooooo",
"ooooooooooooooooooooooo11$$#+##%1111dd1dddbbbz1ooooooooooooooooooooooo",
"ooooooooooooooooooooooo11$$#+##%1111dd1dddbbbz1ooooooooooooooooooooooo",
"ooooooooooooooooooooooo1%##+#$$%%%1111dddddbbzdooooooooooooooooooooooo",
"ooooooooooooooooooooo+OOOOO++##<%%%1111111111111%ooooooooooooooooooooo",
"ooooooooooooooooooooo+OO+++++$$$%%1%1111111111dd1ooooooooooooooooooooo",
"oooooooooooooooooooo++OO+++++$$$%%1%1111111111dd11oooooooooooooooooooo",
"ooooooooooooooooooo11%%%%%%%%111111ddddddbbzzbzzzd11oooooooooooooooooo",
"ooooooooooooooooooo=O+#####<$%%%%%111111111ddddddd11oooooooooooooooooo",
"oooooooooooooooo%#==O+#####<$%%%%%111111111ddddddd1111oooooooooooooooo",
"ooooooooooooood11111111111111%%1111111111dddddddddddd111oooooooooooooo",
"oooooooooooooondddddddddzzzbbbbnbbzbzzzbbzbbbzbbzbbbzdd1oooooooooooooo",
"oooooooooooooo#OOOOO+####$$$%%%1%%111111111111ddddzzzzzboooooooooooooo",
"ooooooooooooo<#OOOOO+####$$$%%%1%%111111111111ddddzzzzzb1ooooooooooooo",
"ooooooooooooo1%111%%1%111111%11%%%111111111111ddddzzzbbzdooooooooooooo",
"ooooooooooooo1111111111111111111111111111ddddddddzzzbzzddooooooooooooo",
"ooooooooooooo1111111111111111111111111111ddddddddzzzbzzddooooooooooooo",
"oooooooooooooooooooooooooooooooooooooooooooooooooooooooooooooooooooooo",
"oooooooooooooooooooooooooooooooooooooooooooooooooooooooooooooooooooooo",
"oooooooooooooooooooooooooooooooooooooooooooooooooooooooooooooooooooooo",
"oooooooooooooooooooooooooooooooooooooooooooooooooooooooooooooooooooooo",
"oooooooooooooooooooooooooooooooooooooooooooooooooooooooooooooooooooooo",
"oooooooooooooooooooooooooooooooooooooooooooooooooooooooooooooooooooooo",
"oooooooooooooooooooooooooooooooooooooooooooooooooooooooooooooooooooooo",
"oooooooooooooooooooooooooooooooooooooooooooooooooooooooooooooooooooooo"
};
