/* XPM */
static char *magick[] = {
/* columns rows colors chars-per-pixel */
"70 70 64 1",
"  c white",
". c #fffff7",
"X c red",
"o c background",
"O c #e7e784",
"+ c #e7c684",
"@ c #e7a5c6",
"# c #e7a584",
"$ c #e76342",
"% c #e72100",
"& c gray87",
"* c #cecece",
"= c #c6dec6",
"- c #c6c6c6",
"; c #c6c684",
": c #c6a5c6",
"> c #c6a584",
", c #c6a542",
"< c #c68442",
"1 c #c62100",
"2 c gray74",
"3 c gray68",
"4 c #a5c6c6",
"5 c #a5a5a5",
"6 c #a5a584",
"7 c #a58484",
"8 c #a58442",
"9 c #a56384",
"0 c #a56342",
"q c #a54242",
"w c #a52100",
"e c gray61",
"r c gray58",
"t c gray55",
"y c #84a584",
"u c #848484",
"i c #848442",
"p c #846384",
"a c #846342",
"s c #844242",
"d c #842142",
"f c gray45",
"g c gray42",
"h c #638484",
"j c #636384",
"k c #636342",
"l c #634242",
"z c #632142",
"x c #5a5a5a",
"c c gray32",
"v c gray26",
"b c #422142",
"n c #422100",
"m c #313131",
"M c gray13",
"N c #187331",
"B c #181818",
"V c gray3",
"C c black",
"Z c black",
"A c black",
"S c black",
"D c black",
"F c black",
/* pixels */
"oooooooooooooooooooooooooooooooooooooooooooooooooooooooooooooooooooooo",
"oooooooooooooooooooooooooooooooooooooooooooooooooooooooooooooooooooooo",
"oooooooooooooooooooooooooooooooooooooooooooooooooooooooooooooooooooooo",
"oooooooooooooooooooooooooooooooooooooooooooooooooooooooooooooooooooooo",
"oooooooooooooooooooooooooooooooooooooooooooooooooooooooooooooooooooooo",
"oooooooooooooooooooooooooooooooooooooooooooooooooooooooooooooooooooooo",
"oooooooooooooooooooooooooooooooooooooooooooooooooooooooooooooooooooooo",
"oooooooooooooooooooooooooooooooooooooooooooooooooooooooooooooooooooooo",
"oooooooooooooooooooooooooooooooooooooooooooooooooooooooooooooooooooooo",
"oooooooooooooooooooooooooooooooooooooooooooooooooooooooooooooooooooooo",
"ooooooooooooooooooooooooo<<+#<<%$$##++oooooooooooooooooooooooooooooooo",
"ooooooooooooooooooooooo<$%%%1111%%1$###++#<44ooooooooooooooooooooooooo",
"ooooooooooooooooooooooo<$%%%1111%%1$###++#<44ooooooooooooooooooooooooo",
"oooooooooooooooooooo%1111dddzdd1ddzdnnzzzd1%%%oooooooooooooooooooooooo",
"ooooooooooooooooooo#1%111dd1%<<#####$$%dd1n11%4ooooooooooooooooooooooo",
"ooooooooooooooooooo%11ddd88O###<$$%1111dd11nn$@ooooooooooooooooooooooo",
"ooooooooooooooooo$%%11ddd88O###<$$%1111dd11nn$@@#1oooooooooooooooooooo",
"ooooooooooooooooo%11ddww$==$1111111dddz$$$###+##%1zzoooooooooooooooooo",
"oooooooooooooooo+%dddd$$+%%%1zz%##n111%11dz++$%%1bddoooooooooooooooooo",
"oooooooooooooooo+%dddd$$+%%%1zz%##n111%11dz++$%%1bddoooooooooooooooooo",
"oooooooooooooooo=$%%1$++%11z1+++11$@$$%%%11dddzzbz11oooooooooooooooooo",
"oooooooooooooooo<$11z+<<%dd%+$$%zz+#$$%%%1#$$%11z1%%dooooooooooooooooo",
"oooooooooooooooo%1zz$#%%d11=<%%d++#$$$%%%11##@$$1znnzooooooooooooooooo",
"oooooooooooooooo%1zz$#%%d11=<%%d++#$$$%%%11##@$$1znnzooooooooooooooooo",
"oooooooooooooo<%%wbb$+11z++#%%%b++#<$$$%%1b%%ndd%dzzoooooooooooooooooo",
"oooooooooooooo#%%dzz#+%%bOO8%11z@@#$$$$%%1dbbznnd1bboooooooooooooooooo",
"oooooooooooooo#%%dzz#+%%bOO8%11z@@#$$$$%%1dbbznnd1bboooooooooooooooooo",
"oooooooooooooooo%znn+#11zOO$111z%%##$$%%%11ddndd1%zzoooooooooooooooooo",
"oooooooooooooooo8dnnO#11b++#%11z11<#$$%%%11ddbdd1%zzoooooooooooooooooo",
"oooooooooooooooo$dzzO#11z##+%11z11b1%%1%%1111ddd%$ddoooooooooooooooooo",
"oooooooooooooooo$dzzO#11z##+%11z11b1%%1%%1111ddd%$dddooooooooooooooooo",
"oooooooooooooooo%1bb+$11b11##11d11bzddo<<%111dzz1%11booooooooooooooooo",
"oooooooooooooooo11dd@$11ndd$+$$1nndbzzoooo111z%%$$%%dooooooooooooooooo",
"oooooooooooooooo11dd@$11ndd$+$$1nndbzzoooo111z%%$$%%dooooooooooooooooo",
"ooooooooooooooooo%dd#%11zdd1$++%111dzzdooo111d%%zn$$1ooooooooooooooooo",
"ooooooooooooooooo$dd#$11n11#%OO$%%b1ddbddoo111dd%z111ooooooooooooooooo",
"ooooooooooooooooo$ww#$%%ndd<%++$11z1ddnddoo11111%b%%1ooooooooooooooooo",
"ooooooooooooooooo$ww#$%%ndd<%++$11z1ddnddoo11111%b%%1ooooooooooooooooo",
"ooooooooooooooooo911<%%%zzzO111+%%dz11dbbdooowbb11%%oooooooooooooooooo",
"ooooooooooooooooo   C$11b++$111%##11zz1dddooo       oooooooooooooooooo",
"ooooooooooooooooooooC$11b++$111%##11zz1ddddddooooooooooooooooooooooooo",
"ooooooooooooooooooo1d%nn+$$%111111%%11dzzddddzdooooooooooooooooooooooo",
"ooooooooooooooooo%1111++$##%%%%%11d%11111zdzzddddooooooooooooooooooooo",
"ooooooooooooooooo1<<%#$$111##%%$%%%d11ddddlzzddddooooooooooooooooooooo",
"ooooooooooooooooo1<<%#$$111##%%$%%%d11ddddlzzddddooooooooooooooooooooo",
"ooooooooooooooooo1111#%%ddd1+++#%%%%%%11111111ddddoooooooooooooooooooo",
"ooooooooooooooooo 11####$11dd11#OO$$%%%1111111ddd1oooooooooooooooooooo",
"ooooooooooooooooooo1####$11dd11#OO$$%%%1111111ddd1oooooooooooooooooooo",
"oooooooooooooooooooo#++++$$%1ddd%%+#<<%111111111ddoooooooooooooooooooo",
"oooooooooooooooooooo#=++O+++#$$###%1111111111111ddddoooooooooooooooooo",
"oooooooooooooooooooodzbbnbbzzbbzbbbznnbbbzbbbzbbnzbboooooooooooooooooo",
"ooooooooooooooooooo1dzbbnbbzzbbzbbbznnbbbzbbbzbbnzbbbooooooooooooooooo",
"ooooooooooooooooooo111%%%%%%%111111ddddddbzbbzddd1111ooooooooooooooooo",
"ooooooooooooooooooo=O=+++##$$%%%11%1111111dddddddd111ooooooooooooooooo",
"oooooooooooooooo$#==O=+++##$$%%%11%1111111dddddddd111%oooooooooooooooo",
"ooooooooooooood111111%%%%%%1%%%1%%1111111111111111111%%%oooooooooooooo",
"oooooooooooooonddddddddddzznnnnzbbbzzzzbbbbbbnzznbzzzdd1oooooooooooooo",
"oooooooooooooo#OOOOOO+#####<$%%%1111111111111dddddzzbzzboooooooooooooo",
"ooooooooooooo<#OOOOOO+#####<$%%%1111111111111dddddzzbzzb1ooooooooooooo",
"ooooooooooooo1%111%%1%111111%11%%%11111111111dddddzzbzzzdooooooooooooo",
"ooooooooooooo1111111111111111111111111111ddddddddbzzzbbddooooooooooooo",
"ooooooooooooo1111111111111111111111111111ddddddddbzzzbbddooooooooooooo",
"oooooooooooooooooooooooooooooooooooooooooooooooooooooooooooooooooooooo",
"oooooooooooooooooooooooooooooooooooooooooooooooooooooooooooooooooooooo",
"oooooooooooooooooooooooooooooooooooooooooooooooooooooooooooooooooooooo",
"oooooooooooooooooooooooooooooooooooooooooooooooooooooooooooooooooooooo",
"oooooooooooooooooooooooooooooooooooooooooooooooooooooooooooooooooooooo",
"oooooooooooooooooooooooooooooooooooooooooooooooooooooooooooooooooooooo",
"oooooooooooooooooooooooooooooooooooooooooooooooooooooooooooooooooooooo",
"oooooooooooooooooooooooooooooooooooooooooooooooooooooooooooooooooooooo"
};
