/* XPM */
static char *magick[] = {
/* columns rows colors chars-per-pixel */
"70 70 64 1",
"  c white",
". c #fffff7",
"X c red",
"o c background",
"O c #e7e784",
"+ c #e7c684",
"@ c #e7a5c6",
"# c #e7a584",
"$ c #e76342",
"% c #e72100",
"& c gray87",
"* c #cecece",
"= c #c6dec6",
"- c #c6c6c6",
"; c #c6c684",
": c #c6a5c6",
"> c #c6a584",
", c #c6a542",
"< c #c68442",
"1 c #c62100",
"2 c gray74",
"3 c gray68",
"4 c #a5c6c6",
"5 c #a5a5a5",
"6 c #a5a584",
"7 c #a58484",
"8 c #a58442",
"9 c #a56384",
"0 c #a56342",
"q c #a54242",
"w c #a52100",
"e c gray61",
"r c gray58",
"t c gray55",
"y c #84a584",
"u c #848484",
"i c #848442",
"p c #846384",
"a c #846342",
"s c #844242",
"d c #842142",
"f c gray45",
"g c gray42",
"h c #638484",
"j c #636384",
"k c #636342",
"l c #634242",
"z c #632142",
"x c #5a5a5a",
"c c gray32",
"v c gray26",
"b c #422142",
"n c #422100",
"m c #313131",
"M c gray13",
"N c #187331",
"B c #181818",
"V c gray3",
"C c black",
"Z c black",
"A c black",
"S c black",
"D c black",
"F c black",
/* pixels */
"oooooooooooooooooooooooooooooooooooooooooooooooooooooooooooooooooooooo",
"oooooooooooooooooooooooooooooooooooooooooooooooooooooooooooooooooooooo",
"oooooooooooooooooooooooooooooooooooooooooooooooooooooooooooooooooooooo",
"oooooooooooooooooooooooooooooooooooooooooooooooooooooooooooooooooooooo",
"oooooooooooooooooooooooooooooooooooooooooooooooooooooooooooooooooooooo",
"oooooooooooooooooooooooooooooooooooooooooooooooooooooooooooooooooooooo",
"oooooooooooooooooooooooooooooooooooooooooooooooooooooooooooooooooooooo",
"oooooooooooooooooooooooooooooooooooooooooooooooooooooooooooooooooooooo",
"oooooooooooooooooooooooooooooooooooooooooooooooooooooooooooooooooooooo",
"oooooooooooooooooooooooooooooooooooooooooooooooooooooooooooooooooooooo",
"oooooooooooooooooooooooooooooooooooooooooooooooooooooooooooooooooooooo",
"oooooooooooooooooooooooooooooo%%%%%%11111ooooooooooooooooooooooooooooo",
"ooooooooooooooooooooooooooo  %%%%%%%11111  ooooooooooooooooooooooooooo",
"ooooooooooooooooooooooooooo0%%%$%%%%%%%ddz1ooooooooooooooooooooooooooo",
"ooooooooooooooooooooooooo%%$$##+###$XX%dddz11ooooooooooooooooooooooooo",
"ooooooooooooooooooooooooo11<+OOO++#<%%%11dzddooooooooooooooooooooooooo",
"ooooooooooooooooooooooooo11<+OOO++#<%%%11dzddooooooooooooooooooooooooo",
"oooooooooooooooooooooooo1%%$+++OOO#<$$%11dz11doooooooooooooooooooooooo",
"oooooooooooooooooooooooo1%%#OOOOOO+#$$%%%wdzz1oooooooooooooooooooooooo",
"oooooooooooooooooooooooo1%%#OOOOOO+#$$%%%wdzz1oooooooooooooooooooooooo",
"oooooooooooooooooooooooo1%%$OOOO@@##%%111ddnn1oooooooooooooooooooooooo",
"oooooooooooooooooooooooo111$###+++#$%%%11ddbb1oooooooooooooooooooooooo",
"oooooooooooooooooooooooo1111$$$<$$$%111dddzdd1oooooooooooooooooooooooo",
"oooooooooooooooooooooooo1111$$$<$$$%111dddzdd1oooooooooooooooooooooooo",
"ooooooooooooooooooooooooo111%11%%%1111wddzz11ooooooooooooooooooooooooo",
"ooooooooooooooooooooooooooo11111111dddbzzz1ooooooooooooooooooooooooooo",
"oooooooooooooooooooooooooooo1111111dddbzzzoooooooooooooooooooooooooooo",
"oooooooooooooooooooooooooooo%11wdddzzzzdddoooooooooooooooooooooooooooo",
"ooooooooooooooooooooooo%$###OOOO++#$$$%%%%%11%%ooooooooooooooooooooooo",
"ooooooooooooooooooooooo0%###OOO+++#$%%%%%%111%1ooooooooooooooooooooooo",
"ooooooooooooooooooooooo0%###OOO+++#$%%%%%%111%1ooooooooooooooooooooooo",
"ooooooooooooooooooooooo89##=OOO+##<$%%1%%1%1111ooooooooooooooooooooooo",
"ooooooooooooooooooooooooooo1%%%%%%11ddzzzznooooooooooooooooooooooooooo",
"ooooooooooooooooooooooooooo1%%%%%%11ddzzzznooooooooooooooooooooooooooo",
"ooooooooooooooooooooooooooo1%###%%11dddnnndooooooooooooooooooooooooooo",
"ooooooooooooooooooooooooooo1$##<%%11dddzzndooooooooooooooooooooooooooo",
"ooooooooooooooooooooooooooo1$@@#%%1111dddbdooooooooooooooooooooooooooo",
"ooooooooooooooooooooooooooo1$@@#%%1111dddbdooooooooooooooooooooooooooo",
"ooooooooooooooooooooooooooo1<OO#%%11dddddndooooooooooooooooooooooooooo",
"ooooooooooooooooooooooooo%%1#++#%%11dddddzz11ooooooooooooooooooooooooo",
"ooooooooooooooooooooooooo%%1#++#%%11dddddzz11ooooooooooooooooooooooooo",
"ooooooooooooooooooooooooo%%1#++#%%1111dddbn11ooooooooooooooooooooooooo",
"ooooooooooooooooooooooooo%%%#++#%%11dddddnb11ooooooooooooooooooooooooo",
"ooooooooooooooooooooooooo%%%#OO#%%1111dddzzwwooooooooooooooooooooooooo",
"ooooooooooooooooooooooooo%%%#OO#%%1111dddzzwwooooooooooooooooooooooooo",
"ooooooooooooooooooooooo1%11$+++#%%11dddddzbbb11ooooooooooooooooooooooo",
"ooooooooooooooooooooooo11%%#+++<%%1111dddzzbb1dooooooooooooooooooooooo",
"oooooooooooooooooooo  111%%#+++<%%1111dddzzbb1dd  oooooooooooooooooooo",
"oooooooooooooooooooo<+OOO+++#$$$%%1%11%11111111111oooooooooooooooooooo",
"ooooooooooooooooooo111%%%%%%%1111111dddzzzzbbzbbzd11oooooooooooooooooo",
"oooooooooooooooo1#..OO+++##$$%%%11%1111111dddddddddd11oooooooooooooooo",
"oooooooooooooooo1#..OO+++##$$%%%11%1111111dddddddddd11oooooooooooooooo",
"oooooooooooooow111111111111111111111111111dddddddddd1111oooooooooooooo",
"oooooooooooooonddddddddddzzbznnzbbbzbbzbbznzzbzznbzzbdd1oooooooooooooo",
"oooooooooooooonddddddddddzzbznnzbbbzbbzbbznzzbzznbzzbdd1oooooooooooooo",
"oooooooooooooonddddddddddbbnzbbbzzzzbbzbbbbbbzbbbnbbndd1oooooooooooooo",
"ooooooooooooo<#OO=OOO+######<%%%%%111111111111111dddzbbz1ooooooooooooo",
"ooooooooooooo1%%%111111111111%%11111111111111ddddddddzzbdooooooooooooo",
"ooooooooooooo1%%%111111111111%%11111111111111ddddddddzzbdooooooooooooo",
"ooooooooooooo1111111111111111111111111111dddddddddzzbzzzdooooooooooooo",
"oooooooooooooooooooooooooooooooooooooooooooooooooooooooooooooooooooooo",
"oooooooooooooooooooooooooooooooooooooooooooooooooooooooooooooooooooooo",
"oooooooooooooooooooooooooooooooooooooooooooooooooooooooooooooooooooooo",
"oooooooooooooooooooooooooooooooooooooooooooooooooooooooooooooooooooooo",
"oooooooooooooooooooooooooooooooooooooooooooooooooooooooooooooooooooooo",
"oooooooooooooooooooooooooooooooooooooooooooooooooooooooooooooooooooooo",
"oooooooooooooooooooooooooooooooooooooooooooooooooooooooooooooooooooooo",
"oooooooooooooooooooooooooooooooooooooooooooooooooooooooooooooooooooooo",
"oooooooooooooooooooooooooooooooooooooooooooooooooooooooooooooooooooooo",
"oooooooooooooooooooooooooooooooooooooooooooooooooooooooooooooooooooooo"
};
