/* XPM */
static char *magick[] = {
/* columns rows colors chars-per-pixel */
"70 70 64 1",
"  c white",
". c #fffff7",
"X c red",
"o c background",
"O c #e7e784",
"+ c #e7c684",
"@ c #e7a5c6",
"# c #e7a584",
"$ c #e76342",
"% c #e72100",
"& c gray87",
"* c #cecece",
"= c #c6dec6",
"- c #c6c6c6",
"; c #c6c684",
": c #c6a5c6",
"> c #c6a584",
", c #c6a542",
"< c #c68442",
"1 c #c62100",
"2 c gray74",
"3 c gray68",
"4 c #a5c6c6",
"5 c #a5a5a5",
"6 c #a5a584",
"7 c #a58484",
"8 c #a58442",
"9 c #a56384",
"0 c #a56342",
"q c #a54242",
"w c #a52100",
"e c gray61",
"r c gray58",
"t c gray55",
"y c #84a584",
"u c #848484",
"i c #848442",
"p c #846384",
"a c #846342",
"s c #844242",
"d c #842142",
"f c gray45",
"g c gray42",
"h c #638484",
"j c #636384",
"k c #636342",
"l c #634242",
"z c #632142",
"x c #5a5a5a",
"c c gray32",
"v c gray26",
"b c #422142",
"n c #422100",
"m c #313131",
"M c gray13",
"N c #187331",
"B c #181818",
"V c gray3",
"C c black",
"Z c black",
"A c black",
"S c black",
"D c black",
"F c black",
/* pixels */
"oooooooooooooooooooooooooooooooooooooooooooooooooooooooooooooooooooooo",
"oooooooooooooooooooooooooooooooooooooooooooooooooooooooooooooooooooooo",
"oooooooooooooooooooooooooooooooooooooooooooooooooooooooooooooooooooooo",
"oooooooooooooooooooooooooooooooooooooooooooooooooooooooooooooooooooooo",
"oooooooooooooooooooooooooooooooooooooooooooooooooooooooooooooooooooooo",
"oooooooooooooooooooooooooooooooooooooooooooooooooooooooooooooooooooooo",
"oooooooooooooooooooooooooooooooooooooooooooooooooooooooooooooooooooooo",
"oooooooooooooooooooooooooooooooooooooooooooooooooooooooooooooooooooooo",
"oooooooooooooooooooooooooooooooooooooooooooooooooooooooooooooooooooooo",
"oooooooooooooooooooooooooooooooooooooooooooooooooooooooooooooooooooooo",
"oooooooooooooooooooooooooooooooooooooooooooooooooooooooooooooooooooooo",
"oooooooooooooooooooo1%$$%zzbooo%111%ddbooo@%%ddd11oooooooooooooooooooo",
"oooooooooooooooooooo1%$$%zzbooo%111%ddbooo@%%ddd11oooooooooooooooooooo",
"oooooooooooooooooooo1%$$%bbzooo1%%1111zooo#11dddw1oooooooooooooooooooo",
"oooooooooooooooooooo1%$$%nnzzzz%1111ddzbbz<%%zddd1oooooooooooooooooooo",
"oooooooooooooooooooo1%$$$###$%%1%%1111111%%11zzzd1oooooooooooooooooooo",
"oooooooooooooooooooo1%$$$###$%%1%%1111111%%11zzzd1oooooooooooooooooooo",
"oooooooooooooooooooo11$$#OO#$%%%1111dddddddzznddd1oooooooooooooooooooo",
"oooooooooooooooooooo1%%%#OO#%%%%111%ww1ddddzznddd1oooooooooooooooooooo",
"oooooooooooooooooooo1%%%#OO#%%%%111%ww1ddddzznddd1oooooooooooooooooooo",
"oooooooooooooooooooo11%%#OO+$%%1%%11dddddddnnzzzd1oooooooooooooooooooo",
"oooooooooooooooooooow1%%#++#%%%%1111dd1dddzzznzzddoooooooooooooooooooo",
"oooooooooooooooooooow1%%#==#%%%%111111ddddznnbddd1oooooooooooooooooooo",
"oooooooooooooooooooow1%%#==#%%%%111111ddddznnbddd1oooooooooooooooooooo",
"oooooooooooooooooooood11$++<$%%%1111ddddddzzzbdd1ooooooooooooooooooooo",
"oooooooooooooooooooooooooCCddddzzznnnnnbbnnzzooooooooooooooooooooooooo",
"oooooooooooooooooooooooooCCddddzzznnnnnbbnnzzooooooooooooooooooooooooo",
"ooooooooooooooooooooooo0#OOO++++$$%%11%11%%1111ooooooooooooooooooooooo",
"oooooooooooooooooooooooow11%%%%111zzzznnnnnzzboooooooooooooooooooooooo",
"ooooooooooooooooooooooooo11%#$$%%%11dddzznznnooooooooooooooooooooooooo",
"ooooooooooooooooooooooooo11%#$$%%%11dddzznznnooooooooooooooooooooooooo",
"ooooooooooooooooooooooooo111<$$X1111dddzznnnnooooooooooooooooooooooooo",
"ooooooooooooooooooooooooo11%#<<%1111dddzznzzzooooooooooooooooooooooooo",
"ooooooooooooooooooooooooo11%#<<%1111dddzznzzzooooooooooooooooooooooooo",
"ooooooooooooooooooooooooo11%+<<X1111dddzznnddooooooooooooooooooooooooo",
"ooooooooooooooooooooooooo11%#<<%111%wwdddzzddooooooooooooooooooooooooo",
"ooooooooooooooooooooooooo11$@##%1111dddddzbddooooooooooooooooooooooooo",
"ooooooooooooooooooooooooo11$@##%1111dddddzbddooooooooooooooooooooooooo",
"ooooooooooooooooooooooooo11#+##%1111dd1dddzddooooooooooooooooooooooooo",
"oooooooooooooooooooooooo1%%#+##%111111ddddznn1oooooooooooooooooooooooo",
"oooooooooooooooooooooooo1%%#+##%111111ddddznn1oooooooooooooooooooooooo",
"oooooooooooooooooooooooo%%%#O##%1111dd1dddnnn1oooooooooooooooooooooooo",
"oooooooooooooooooooooooo1%%#+##%1111dd1dddzzz1oooooooooooooooooooooooo",
"oooooooooooooooooooooooo%%%#+##%111111ddddzzzwoooooooooooooooooooooooo",
"oooooooooooooooooooooooo%%%#+##%111111ddddzzzwoooooooooooooooooooooooo",
"ooooooooooooooooooooooo1%$$#+##%1111dd1dddbnnb1ooooooooooooooooooooooo",
"ooooooooooooooooooooooo1%##+#$$%111111dddddnnz1ooooooooooooooooooooooo",
"ooooooooooooooooooooooo1%##+#$$%111111dddddnnz1ooooooooooooooooooooooo",
"ooooooooooooooooooooo%++OOO@+##$$$%%1111111111111ooooooooooooooooooooo",
"oooooooooooooooooooo<+OOOOO+#<<$%%%%11111111111111oooooooooooooooooooo",
"oooooooooooooooooooo11%%%%%%%%%1%%1ddddddbbzzbzzddoooooooooooooooooooo",
"ooooooooooooooooooo111%%%%%%%%%1%%1ddddddbbzzbzzdd11oooooooooooooooooo",
"oooooooooooooooo$#OOOO+++##<%%%%%%11111111dddddddd111%oooooooooooooooo",
"oooooooooooooooo11111111111111111111111111ddddddddddd1oooooooooooooooo",
"oooooooooooooo1111111111111111111111111111ddddddddddd111oooooooooooooo",
"oooooooooooooobdddddddddznnznzzbnnzzzzzbbzbzzzbbzbzzbdd1oooooooooooooo",
"oooooooooooooondddddddddzzznznnzzzbzzzbzzbzbbzbbzbzzzdd1oooooooooooooo",
"oooooooooooooo#OOOOOO+#####<$%%%1111111111111dddddzzbzzboooooooooooooo",
"ooooooooooooo<#OOOOOO+#####<$%%%1111111111111dddddzzbzzb1ooooooooooooo",
"ooooooooooooo1%%%1%%11111111%111%%11111111111dddddzzbzzzdooooooooooooo",
"ooooooooooooo1111111111111111111111111111ddddddddbzzzbbddooooooooooooo",
"ooooooooooooo1111111111111111111111111111ddddddddbzzzbbddooooooooooooo",
"oooooooooooooooooooooooooooooooooooooooooooooooooooooooooooooooooooooo",
"oooooooooooooooooooooooooooooooooooooooooooooooooooooooooooooooooooooo",
"oooooooooooooooooooooooooooooooooooooooooooooooooooooooooooooooooooooo",
"oooooooooooooooooooooooooooooooooooooooooooooooooooooooooooooooooooooo",
"oooooooooooooooooooooooooooooooooooooooooooooooooooooooooooooooooooooo",
"oooooooooooooooooooooooooooooooooooooooooooooooooooooooooooooooooooooo",
"oooooooooooooooooooooooooooooooooooooooooooooooooooooooooooooooooooooo",
"oooooooooooooooooooooooooooooooooooooooooooooooooooooooooooooooooooooo"
};
