/* XPM */
static char *magick[] = {
/* columns rows colors chars-per-pixel */
"70 70 64 1",
"  c white",
". c #fffff7",
"X c red",
"o c background",
"O c #e7e784",
"+ c #e7c684",
"@ c #e7a5c6",
"# c #e7a584",
"$ c #e76342",
"% c #e72100",
"& c gray87",
"* c #cecece",
"= c #c6dec6",
"- c #c6c6c6",
"; c #c6c684",
": c #c6a5c6",
"> c #c6a584",
", c #c6a542",
"< c #c68442",
"1 c #c62100",
"2 c gray74",
"3 c gray68",
"4 c #a5c6c6",
"5 c #a5a5a5",
"6 c #a5a584",
"7 c #a58484",
"8 c #a58442",
"9 c #a56384",
"0 c #a56342",
"q c #a54242",
"w c #a52100",
"e c gray61",
"r c gray58",
"t c gray55",
"y c #84a584",
"u c #848484",
"i c #848442",
"p c #846384",
"a c #846342",
"s c #844242",
"d c #842142",
"f c gray45",
"g c gray42",
"h c #638484",
"j c #636384",
"k c #636342",
"l c #634242",
"z c #632142",
"x c #5a5a5a",
"c c gray32",
"v c gray26",
"b c #422142",
"n c #422100",
"m c #313131",
"M c gray13",
"N c #187331",
"B c #181818",
"V c gray3",
"C c black",
"Z c black",
"A c black",
"S c black",
"D c black",
"F c black",
/* pixels */
"oooooooooooooooooooooooooooooooooooooooooooooooooooooooooooooooooooooo",
"oooooooooooooooooooooooooooooooooooooooooooooooooooooooooooooooooooooo",
"oooooooooooooooooooooooooooooooooooooooooooooooooooooooooooooooooooooo",
"oooooooooooooooooooooooooooooooooooooooooooooooooooooooooooooooooooooo",
"oooooooooooooooooooooooooooooooooooooooooooooooooooooooooooooooooooooo",
"oooooooooooooooooooooooooooooooooooooooooooooooooooooooooooooooooooooo",
"oooooooooooooooooooooooooooooooooooooooooooooooooooooooooooooooooooooo",
"oooooooooooooooooooooooooooooooooooooooooooooooooooooooooooooooooooooo",
"oooooooooooooooooooooooooooooooooooooooooooooooooooooooooooooooooooooo",
"oooooooooooooooooooooooooooooooooooooooooooooooooooooooooooooooooooooo",
"oooooooooooooooooooooooooooooooooooooooooooooooooooooooooooooooooooooo",
"oooooooooooooooooooo-;OO;aaaooo;>>>688aooo=;;8886>oooooooooooooooooooo",
"oooooooooooooooooooo-;OO;aaaooo;>>>688aooo=;;8886>oooooooooooooooooooo",
"oooooooooooooooooooo4;OO-aaaooo;>>>688aoooO>>a888:oooooooooooooooooooo",
"oooooooooooooooooooo-;OO;aaaaaa;>>>>88aaaaO>>a888>oooooooooooooooooooo",
"oooooooooooooooooooo-;OOO..O=;;;;;5688>;;-;>>paa8:oooooooooooooooooooo",
"oooooooooooooooooooo-;OOO..O=;;;;;5688>;;-;>>paa8:oooooooooooooooooooo",
"oooooooooooooooooooo5;++O..O+;;;>>>68888888aaaaa8>oooooooooooooooooooo",
"oooooooooooooooooooo5;++O..++--;>>>>8888888kkaaa8:oooooooooooooooooooo",
"oooooooooooooooooooo5;++O..++--;>>>>8888888kkaaa8:oooooooooooooooooooo",
"oooooooooooooooooooo5;;;O...+;;;>>>68888888kkaaa8,oooooooooooooooooooo",
"oooooooooooooooooooo4>;;O..=+;;;>>>6885888aaaa88h8oooooooooooooooooooo",
"ooooooooooooooooooooy>;;O..O+--;>>>688888ikaaaaa85oooooooooooooooooooo",
"ooooooooooooooooooooy>;;O..O+--;>>>688888ikaaaaa85oooooooooooooooooooo",
"oooooooooooooooooooooy--O..O+;;;;;>68888888kka886ooooooooooooooooooooo",
"oooooooooooooooooooooooooaa88888jjkaaakaaakaaooooooooooooooooooooooooo",
"oooooooooooooooooooooooooaa88888jjkaaakaaakaaooooooooooooooooooooooooo",
"ooooooooooooooooooooooo=.==..==+OO;;;;;;;-;>>--ooooooooooooooooooooooo",
"oooooooooooooooooooooooo5;;;;;;>88aakkakkaaaakoooooooooooooooooooooooo",
"ooooooooooooooooooooooooo55;OOO;>>>6888aaaaaaooooooooooooooooooooooooo",
"ooooooooooooooooooooooooo55;OOO;>>>6888aaaaaaooooooooooooooooooooooooo",
"ooooooooooooooooooooooooo55;OOO;>>>6888kkaaaaooooooooooooooooooooooooo",
"ooooooooooooooooooooooooo55;OOO;>>>6888ppaajjooooooooooooooooooooooooo",
"ooooooooooooooooooooooooo55;OOO;>>>6888ppaajjooooooooooooooooooooooooo",
"ooooooooooooooooooooooooo55;=++;>>>>888aaaa88ooooooooooooooooooooooooo",
"ooooooooooooooooooooooooo--+ OO;-->688888aa88ooooooooooooooooooooooooo",
"ooooooooooooooooooooooooo--O.++;>>>688888aa88ooooooooooooooooooooooooo",
"ooooooooooooooooooooooooo--O.++;>>>688888aa88ooooooooooooooooooooooooo",
"ooooooooooooooooooooooooo--O.==->>-6888uu8a88ooooooooooooooooooooooooo",
"oooooooooooooooooooooooo;;;O===;>>>6888888aaa:oooooooooooooooooooooooo",
"oooooooooooooooooooooooo;;;O===;>>>6888888aaa:oooooooooooooooooooooooo",
"oooooooooooooooooooooooo-;;=.==;>>>666888uaaa:oooooooooooooooooooooooo",
"oooooooooooooooooooooooo-;;O.OO;>>>6888888aaa8oooooooooooooooooooooooo",
"oooooooooooooooooooooooo;;;+.OO;>>>6888888paa8oooooooooooooooooooooooo",
"oooooooooooooooooooooooo;;;+.OO;>>>6888888paa8oooooooooooooooooooooooo",
"ooooooooooooooooooooooo-;OO=.++;>>;6888888kaaa:ooooooooooooooooooooooo",
"ooooooooooooooooooooooo:;OO..OO;>>>68888888aaa8ooooooooooooooooooooooo",
"ooooooooooooooooooooooo:;OO..OO;>>>68888888aaa8ooooooooooooooooooooooo",
"ooooooooooooooooooooo+.....=.OO=OO;;>>;>>66666;;>ooooooooooooooooooooo",
"ooooooooooooooooooooO.......OOOO--;;>>->>>655866:>oooooooooooooooooooo",
"oooooooooooooooooooo>>;;;;;-;>>>;;88888aaaaaaapp88oooooooooooooooooooo",
"ooooooooooooooooooo>>>;;;;;-;>>>;;88888aaaaaaapp88::oooooooooooooooooo",
"oooooooooooooooo+O.......OO=+;;;;;-;>>;>>58888888866:;oooooooooooooooo",
"oooooooooooooooo5>-->>;;>>>>>>>>>>>>>>>668888888888886oooooooooooooooo",
"oooooooooooooo855>-->>;;>>>>>>>>>>>>>>>6688888888888866>oooooooooooooo",
"ooooooooooooooaaa8888888aaaaaaaaaaaaaaaaaaaaaaaaaakka885oooooooooooooo",
"ooooooooooooooaaa8888888aaaaaaaaaaaaaaaaaaakkakkaaaaa886oooooooooooooo",
"oooooooooooooo=.......==OOOOO;;;;;>>>>>>>>666888i8iiappaoooooooooooooo",
"oooooooooooooO=.......==OOOOO;;;;;>>>>>>>>666888i8iiappa>ooooooooooooo",
"ooooooooooooo>;;;;;;;;;;;;;;;;;;;;,->>>>>668888888aaaaaa8ooooooooooooo",
"ooooooooooooo;>;;>;;>;>>;>>;>;;>;;>;6658887888888aaakaa88ooooooooooooo",
"ooooooooooooo;>;;>;;>;>>;>>;>;;>;;>;6658887888888aaakaa88ooooooooooooo",
"oooooooooooooooooooooooooooooooooooooooooooooooooooooooooooooooooooooo",
"oooooooooooooooooooooooooooooooooooooooooooooooooooooooooooooooooooooo",
"oooooooooooooooooooooooooooooooooooooooooooooooooooooooooooooooooooooo",
"oooooooooooooooooooooooooooooooooooooooooooooooooooooooooooooooooooooo",
"oooooooooooooooooooooooooooooooooooooooooooooooooooooooooooooooooooooo",
"oooooooooooooooooooooooooooooooooooooooooooooooooooooooooooooooooooooo",
"oooooooooooooooooooooooooooooooooooooooooooooooooooooooooooooooooooooo",
"oooooooooooooooooooooooooooooooooooooooooooooooooooooooooooooooooooooo"
};
