/* XPM */
static char *magick[] = {
/* columns rows colors chars-per-pixel */
"70 70 64 1",
"  c white",
". c #fffff7",
"X c red",
"o c background",
"O c #e7e784",
"+ c #e7c684",
"@ c #e7a5c6",
"# c #e7a584",
"$ c #e76342",
"% c #e72100",
"& c gray87",
"* c #cecece",
"= c #c6dec6",
"- c #c6c6c6",
"; c #c6c684",
": c #c6a5c6",
"> c #c6a584",
", c #c6a542",
"< c #c68442",
"1 c #c62100",
"2 c gray74",
"3 c gray68",
"4 c #a5c6c6",
"5 c #a5a5a5",
"6 c #a5a584",
"7 c #a58484",
"8 c #a58442",
"9 c #a56384",
"0 c #a56342",
"q c #a54242",
"w c #a52100",
"e c gray61",
"r c gray58",
"t c gray55",
"y c #84a584",
"u c #848484",
"i c #848442",
"p c #846384",
"a c #846342",
"s c #844242",
"d c #842142",
"f c gray45",
"g c gray42",
"h c #638484",
"j c #636384",
"k c #636342",
"l c #634242",
"z c #632142",
"x c #5a5a5a",
"c c gray32",
"v c gray26",
"b c #422142",
"n c #422100",
"m c #313131",
"M c gray13",
"N c #187331",
"B c #181818",
"V c gray3",
"C c black",
"Z c black",
"A c black",
"S c black",
"D c black",
"F c black",
/* pixels */
"oooooooooooooooooooooooooooooooooooooooooooooooooooooooooooooooooooooo",
"oooooooooooooooooooooooooooooooooooooooooooooooooooooooooooooooooooooo",
"oooooooooooooooooooooooooooooooooooooooooooooooooooooooooooooooooooooo",
"oooooooooooooooooooooooooooooooooooooooooooooooooooooooooooooooooooooo",
"oooooooooooooooooooooooooooooooooooooooooooooooooooooooooooooooooooooo",
"oooooooooooooooooooooooooooooooooooooooooooooooooooooooooooooooooooooo",
"oooooooooooooooooooooooooooooooooooooooooooooooooooooooooooooooooooooo",
"oooooooooooooooooooooooooooooooooooooooooooooooooooooooooooooooooooooo",
"oooooooooooooooooooooooooooooooooooooooooooooooooooooooooooooooooooooo",
"oooooooooooooooooooooooooooooooooooooooooooooooooooooooooooooooooooooo",
"oooooooooooooooooooooooooooooooooooooooooooooooooooooooooooooooooooooo",
"oooooooooooooooooooooooooooooo;;;;;>>>6  ooooooooooooooooooooooooooooo",
"ooooooooooooooooooooooooooo +;;;;;;>>>6    ooooooooooooooooooooooooooo",
"ooooooooooooooooooooooooooo;O==+;;;;>>8aa> ooooooooooooooooooooooooooo",
"oooooooooooooooooooooooooOOO.==.OO+;;;688j>  ooooooooooooooooooooooooo",
"ooooooooooooooooooooooooo++.....==O+;;>88a8  ooooooooooooooooooooooooo",
"ooooooooooooooooooooooooo++.....==O+;;>88a8  ooooooooooooooooooooooooo",
"oooooooooooooooooooooooo;OO.....===+;;-88a8>> oooooooooooooooooooooooo",
"oooooooooooooooooooooooo#OO.......+O;;>888a>> oooooooooooooooooooooooo",
"oooooooooooooooooooooooo#OO.......+O;;>888a>> oooooooooooooooooooooooo",
"oooooooooooooooooooooooo;OO.......OO;;>888a55 oooooooooooooooooooooooo",
"oooooooooooooooooooooooo;OOO...=OOO;;;>888a>> oooooooooooooooooooooooo",
"oooooooooooooooooooooooo>;;+OOOOOO;->>888a8:: oooooooooooooooooooooooo",
"oooooooooooooooooooooooo>;;+OOOOOO;->>888a8:: oooooooooooooooooooooooo",
"ooooooooooooooooooooooooo>>;;;;;;;>>888ppa>  ooooooooooooooooooooooooo",
"ooooooooooooooooooooooooooo>>-->6688aaaaa> ooooooooooooooooooooooooooo",
"oooooooooooooooooooooooooooo>-->6688aaaaa>oooooooooooooooooooooooooooo",
"oooooooooooooooooooooooooooo688888uaaa888 oooooooooooooooooooooooooooo",
"ooooooooooooooooooooooo++OO.....OOO+;;;;;;>;;; ooooooooooooooooooooooo",
"oooooooooooooooooooooooOOOO.....++O+;;;;;->;;- ooooooooooooooooooooooo",
"oooooooooooooooooooooooOOOO.....++O+;;;;;->;;- ooooooooooooooooooooooo",
"ooooooooooooooooooooooo.O  ....=OO+;--;;;--::> ooooooooooooooooooooooo",
"ooooooooooooooooooooooooooo;;;;>>>88kkaaaa ooooooooooooooooooooooooooo",
"ooooooooooooooooooooooooooo;;;;>>>88kkaaaa ooooooooooooooooooooooooooo",
"ooooooooooooooooooooooooooo;OOO;>>>8aaaaaa ooooooooooooooooooooooooooo",
"oooooooooooooooooooooooooooO=++;>>;888aaa8 ooooooooooooooooooooooooooo",
"oooooooooooooooooooooooooooO.OO;55>888paa8 ooooooooooooooooooooooooooo",
"oooooooooooooooooooooooooooO.OO;55>888paa8 ooooooooooooooooooooooooooo",
"oooooooooooooooooooooooooooO.==;>>>8888aa8 ooooooooooooooooooooooooooo",
"ooooooooooooooooooooooooo  O.==;;;>8888aap   ooooooooooooooooooooooooo",
"ooooooooooooooooooooooooo  O.==;;;>8888aap   ooooooooooooooooooooooooo",
"ooooooooooooooooooooooooo  O.==;>>>888aaaa   ooooooooooooooooooooooooo",
"ooooooooooooooooooooooooo  +.==;>>>888akka   ooooooooooooooooooooooooo",
"ooooooooooooooooooooooooo;;=.OO-;;>8888aaa8  ooooooooooooooooooooooooo",
"ooooooooooooooooooooooooo;;=.OO-;;>8888aaa8  ooooooooooooooooooooooooo",
"ooooooooooooooooooooooo  OO..++;>>>8888jjaa    ooooooooooooooooooooooo",
"ooooooooooooooooooooooo->OO..OO;>>;888888ka888 ooooooooooooooooooooooo",
"oooooooooooooooooooo  -->OO..OO;>>;888888ka888    oooooooooooooooooooo",
"oooooooooooooooooooo.......OOOO;;;;;;;>>>>6666::: oooooooooooooooooooo",
"ooooooooooooooooooo>;;;;;;;;>>>-668888aaaak88aaa8:  oooooooooooooooooo",
"ooooooooooooooooO.......O==+;;;;--;>--:6688uu88888--> oooooooooooooooo",
"ooooooooooooooooO.......O==+;;;;--;>--:6688uu88888--> oooooooooooooooo",
"oooooooooooooo5>>->>>>>>>>>>>>>>>>>>>>6888888i8888886:: oooooooooooooo",
"ooooooooooooooa8888888iiaaaaaaaakkaaaaaaaaaaakaaaaaap66 oooooooooooooo",
"ooooooooooooooa8888888iiaaaaaaaakkaaaaaaaaaaakaaaaaap66 oooooooooooooo",
"ooooooooooooooa888888888aaaaaaaaaaaaaaaaakaaaaaakaaaa66 oooooooooooooo",
"ooooooooooooo=.......===OOOO+;;;;;>>;;>6666666888iaakaa5 ooooooooooooo",
"ooooooooooooo;;;;;;;;;;;;;;;;;;>;;,>>>>66688888888iiakk8 ooooooooooooo",
"ooooooooooooo;;;;;;;;;;;;;;;;;;>;;,>>>>66688888888iiakk8 ooooooooooooo",
"ooooooooooooo>;>>;>>;>;;>;;>;>>;>>;>5588878888888aaaa888 ooooooooooooo",
"oooooooooooooooooooooooooooooooooooooooooooooooooooooooooooooooooooooo",
"oooooooooooooooooooooooooooooooooooooooooooooooooooooooooooooooooooooo",
"oooooooooooooooooooooooooooooooooooooooooooooooooooooooooooooooooooooo",
"oooooooooooooooooooooooooooooooooooooooooooooooooooooooooooooooooooooo",
"oooooooooooooooooooooooooooooooooooooooooooooooooooooooooooooooooooooo",
"oooooooooooooooooooooooooooooooooooooooooooooooooooooooooooooooooooooo",
"oooooooooooooooooooooooooooooooooooooooooooooooooooooooooooooooooooooo",
"oooooooooooooooooooooooooooooooooooooooooooooooooooooooooooooooooooooo",
"oooooooooooooooooooooooooooooooooooooooooooooooooooooooooooooooooooooo",
"oooooooooooooooooooooooooooooooooooooooooooooooooooooooooooooooooooooo"
};
