/* XPM */
static char *magick[] = {
/* columns rows colors chars-per-pixel */
"70 70 64 1",
"  c white",
". c #fffff7",
"X c red",
"o c background",
"O c #e7e784",
"+ c #e7c684",
"@ c #e7a5c6",
"# c #e7a584",
"$ c #e76342",
"% c #e72100",
"& c gray87",
"* c #cecece",
"= c #c6dec6",
"- c #c6c6c6",
"; c #c6c684",
": c #c6a5c6",
"> c #c6a584",
", c #c6a542",
"< c #c68442",
"1 c #c62100",
"2 c gray74",
"3 c gray68",
"4 c #a5c6c6",
"5 c #a5a5a5",
"6 c #a5a584",
"7 c #a58484",
"8 c #a58442",
"9 c #a56384",
"0 c #a56342",
"q c #a54242",
"w c #a52100",
"e c gray61",
"r c gray58",
"t c gray55",
"y c #84a584",
"u c #848484",
"i c #848442",
"p c #846384",
"a c #846342",
"s c #844242",
"d c #842142",
"f c gray45",
"g c gray42",
"h c #638484",
"j c #636384",
"k c #636342",
"l c #634242",
"z c #632142",
"x c #5a5a5a",
"c c gray32",
"v c gray26",
"b c #422142",
"n c #422100",
"m c #313131",
"M c gray13",
"N c #187331",
"B c #181818",
"V c gray3",
"C c black",
"Z c black",
"A c black",
"S c black",
"D c black",
"F c black",
/* pixels */
"oooooooooooooooooooooooooooooooooooooooooooooooooooooooooooooooooooooo",
"oooooooooooooooooooooooooooooooooooooooooooooooooooooooooooooooooooooo",
"oooooooooooooooooooooooooooooooooooooooooooooooooooooooooooooooooooooo",
"oooooooooooooooooooooooooooooooooooooooooooooooooooooooooooooooooooooo",
"oooooooooooooooooooooooooooooooooooooooooooooooooooooooooooooooooooooo",
"oooooooooooooooooooooooooooooooooooooooooooooooooooooooooooooooooooooo",
"oooooooooooooooooooooooooooooooooooooooooooooooooooooooooooooooooooooo",
"oooooooooooooooooooooooooooooooo;;;+  oooooooooooooooooooooooooooooooo",
"ooooooooooooooooooooooooooooooo.OO-;OO ooooooooooooooooooooooooooooooo",
"ooooooooooooooooooooooooooooooo.OO-;OO ooooooooooooooooooooooooooooooo",
"oooooooooooooooooooooooooooooooo>>88  oooooooooooooooooooooooooooooooo",
"ooooooooooooooooooooooooooo.....OOO+;;;;;> ooooooooooooooooooooooooooo",
"ooooooooooooooooooooooooooo.....OOO+;;;;;> ooooooooooooooooooooooooooo",
"oooooooooooooooooooooooO.....==O==;;;;>--;-;;- ooooooooooooooooooooooo",
"ooooooooooooooooo;OOO+::666.OOO;888->>:>>6kaa6>>8k>> ooooooooooooooooo",
"ooooooooooooooooo588O;666666+;;;88a8>>688aaaaa--a>>> ooooooooooooooooo",
"ooooooooooooooooo588O;666666+;;;88a8>>688aaaaa--a>>> ooooooooooooooooo",
"ooooooooooooooooooo86>666888aaaaaaakaaaaaaaaaaaa85  oooooooooooooooooo",
"oooooooooooooooooooo;-;;;;;>>>>>8888aaaaaakaaaaa4 oooooooooooooooooooo",
"oooooooooooooooooooo;-;;;;;>>>>>8888aaaaaakaaaaa4 oooooooooooooooooooo",
"ooooooooooooooooooooo;++;;;;>-->888888paaaaaaa>> ooooooooooooooooooooo",
"ooooooooooooooooooooo;++;--;>>>>888888aaaaaaak>> ooooooooooooooooooooo",
"ooooooooooooooooooooo4++O;;;;>>>668888iuuaaaa>   ooooooooooooooooooooo",
"ooooooooooooooooooooooo+O;;;;>>>668888iuuaaaa> ooooooooooooooooooooooo",
"ooooooooooooooooooooooooOOO+;;;>>>>888888aa>> oooooooooooooooooooooooo",
"oooooooooooooooooooooooo+OOO;;;;>>>6888888a:: oooooooooooooooooooooooo",
"oooooooooooooooooooooooo+OOO;;;;>>>6888888a:: oooooooooooooooooooooooo",
"oooooooooooooooooooooooooOOO+;;;;;5>>>888u8  ooooooooooooooooooooooooo",
"ooooooooooooooooooooooooo++=+;;;>>>>>>68888  ooooooooooooooooooooooooo",
"ooooooooooooooooooooooooo++OO;;;>>>;>>68888  ooooooooooooooooooooooooo",
"ooooooooooooooooooooooooo++OO;;;>>>;>>68888  ooooooooooooooooooooooooo",
"ooooooooooooooooooooooooO......=OO+;;;;>>>;;; oooooooooooooooooooooooo",
"ooooooooooooooooooooo-===....==O;;;;---;;;:::;-- ooooooooooooooooooooo",
"ooooooooooooooooooooo-===....==O;;;;---;;;:::;-- ooooooooooooooooooooo",
"ooooooooooooooooooooooooo;;+;>>>8888aaaaaaa  ooooooooooooooooooooooooo",
"ooooooooooooooooooooooooo;;O+;;>>>6888ajjaa  ooooooooooooooooooooooooo",
"oooooooooooooooooooooooooOO.=-->;;68888aaa8  ooooooooooooooooooooooooo",
"oooooooooooooooooooooooooOO.=-->;;68888aaa8  ooooooooooooooooooooooooo",
"oooooooooooooooooooooooooOO.O;;>5568888ppk8  ooooooooooooooooooooooooo",
"oooooooooooooooooooooooooOO.=;;>>>6888888a8  ooooooooooooooooooooooooo",
"oooooooooooooooooooooooooOO.=;;>>>6888888a8  ooooooooooooooooooooooooo",
"oooooooooooooooooooooooo;OO==;;>>>:888888ka>> oooooooooooooooooooooooo",
"oooooooooooooooooooooooo;OO..-->>>6888888aa:: oooooooooooooooooooooooo",
"oooooooooooooooooooooooo;OO.O;;>>>6888888ka88 oooooooooooooooooooooooo",
"oooooooooooooooooooooooo;OO.O;;>>>6888888ka88 oooooooooooooooooooooooo",
"ooooooooooooooooooooooo;O==.O>>>;;6888888aaaa: ooooooooooooooooooooooo",
"ooooooooooooooooooooooo;O..=O;;>>>66888888kaa8 ooooooooooooooooooooooo",
"ooooooooooooooooooooooo;O..=O;;>>>66888888kaa8 ooooooooooooooooooooooo",
"ooooooooooooooooooooooo;O==.O;;;>>68888888aaa8 ooooooooooooooooooooooo",
"ooooooooooooooooooooo.......OOOO;;->>>>6666666:: ooooooooooooooooooooo",
"ooooooooooooooooooooo.==...OOOO-;;;>::>>>6666855>ooooooooooooooooooooo",
"oooooooooooooooooooo..==...OOOO-;;;>::>>>6666855> oooooooooooooooooooo",
"ooooooooooooooooooo;-;;;;;;;;>>;8888888aaaakkaaa8:  oooooooooooooooooo",
"ooooooooooooooooooo..=OO=OOO;;;;>>;>>>>55888888886::oooooooooooooooooo",
"ooooooooooooooooO....=OO=OOO;;;;>>;>>>>55888888886::; oooooooooooooooo",
"oooooooooooooo6>>>;;>>>>>>>>>>>>>>>>>>688888888888885>> oooooooooooooo",
"ooooooooooooooa888888aaaaaaaaaaaaaaaaaaaaaaaaajjaaaa866 oooooooooooooo",
"oooooooooooooo......=OOOOOOO;;;;>>>>>>>>>66668888iaapaa>oooooooooooooo",
"ooooooooooooo=......=OOOOOOO;;;;>>>>>>>>>66668888iaapaa> ooooooooooooo",
"ooooooooooooo;;;;;;;;;;;;;;;;;;;,,->>>>666>888888aaaaaa8 ooooooooooooo",
"ooooooooooooo>;>>;>>;>;;>;;>;>>;>>;6558887888888aaaaa888 ooooooooooooo",
"ooooooooooooo>;>>;>>;>;;>;;>;>>;>>;6558887888888aaaaa888 ooooooooooooo",
"oooooooooooooooooooooooooooooooooooooooooooooooooooooooooooooooooooooo",
"oooooooooooooooooooooooooooooooooooooooooooooooooooooooooooooooooooooo",
"oooooooooooooooooooooooooooooooooooooooooooooooooooooooooooooooooooooo",
"oooooooooooooooooooooooooooooooooooooooooooooooooooooooooooooooooooooo",
"oooooooooooooooooooooooooooooooooooooooooooooooooooooooooooooooooooooo",
"oooooooooooooooooooooooooooooooooooooooooooooooooooooooooooooooooooooo",
"oooooooooooooooooooooooooooooooooooooooooooooooooooooooooooooooooooooo",
"oooooooooooooooooooooooooooooooooooooooooooooooooooooooooooooooooooooo"
};
