/* XPM */
static char *magick[] = {
/* columns rows colors chars-per-pixel */
"70 70 64 1",
"  c white",
". c #fffff7",
"X c red",
"o c background",
"O c #e7e784",
"+ c #e7c684",
"@ c #e7a5c6",
"# c #e7a584",
"$ c #e76342",
"% c #e72100",
"& c gray87",
"* c #cecece",
"= c #c6dec6",
"- c #c6c6c6",
"; c #c6c684",
": c #c6a5c6",
"> c #c6a584",
", c #c6a542",
"< c #c68442",
"1 c #c62100",
"2 c gray74",
"3 c gray68",
"4 c #a5c6c6",
"5 c #a5a5a5",
"6 c #a5a584",
"7 c #a58484",
"8 c #a58442",
"9 c #a56384",
"0 c #a56342",
"q c #a54242",
"w c #a52100",
"e c gray61",
"r c gray58",
"t c gray55",
"y c #84a584",
"u c #848484",
"i c #848442",
"p c #846384",
"a c #846342",
"s c #844242",
"d c #842142",
"f c gray45",
"g c gray42",
"h c #638484",
"j c #636384",
"k c #636342",
"l c #634242",
"z c #632142",
"x c #5a5a5a",
"c c gray32",
"v c gray26",
"b c #422142",
"n c #422100",
"m c #313131",
"M c gray13",
"N c #187331",
"B c #181818",
"V c gray3",
"C c black",
"Z c black",
"A c black",
"S c black",
"D c black",
"F c black",
/* pixels */
"oooooooooooooooooooooooooooooooooooooooooooooooooooooooooooooooooooooo",
"oooooooooooooooooooooooooooooooooooooooooooooooooooooooooooooooooooooo",
"oooooooooooooooooooooooooooooooooooooooooooooooooooooooooooooooooooooo",
"oooooooooooooooooooooooooooooooooooooooooooooooooooooooooooooooooooooo",
"oooooooooooooooooooooooooooooooooooooooooooooooooooooooooooooooooooooo",
"oooooooooooooooooooooooooooooooooooooooooooooooooooooooooooooooooooooo",
"oooooooooooooooooooooooooooooooooooooooooooooooooooooooooooooooooooooo",
"oooooooooooooooooooooooooooooooooooooooooooooooooooooooooooooooooooooo",
"oooooooooooooooooooooooooooooooooo-;88oooooooooooooooooooooooooooooooo",
"oooooooooooooooooooooooooooooooooo-;88 ooooooooooooooooooooooooooooooo",
"oooooooooooooooooooooooooooooooooo.=OO;ooooooooooooooooooooooooooooooo",
"oooooooooooooooooooooooooooooooooo+;;;>ooooooooooooooooooooooooooooooo",
"ooooooooooooooooooooooooooooooo   +;;;oooooooooooooooooooooooooooooooo",
"ooooooooooooooooooooooooooooooo;OO88jjoooooooooooooooooooooooooooooooo",
"oooooooooooooooooooooooooooo-OOO==8aaa8>>ooooooooooooooooooooooooooooo",
"ooooooooooooooooooooooooooo;O..=;;>kaa.;;>-ooooooooooooooooooooooooooo",
"ooooooooooooooooooooooooooo;O..=;;>kaa.;;>-ooooooooooooooooooooooooooo",
"ooooooooooooooooooooooooo--O...;;;ka..+>>>8;;ooooooooooooooooooooooooo",
"oooooooooooooooooooooooo-OO..OO;>>aO==;>>6888;oooooooooooooooooooooooo",
"oooooooooooooooooooooooo-OO..OO;>>aO==;>>6888;oooooooooooooooooooooooo",
"oooooooooooooooooooooooo4OO=O;;>aaO+;;>>>6888:oooooooooooooooooooooooo",
"oooooooooooooooooooooooo5;;OO;;>aaO;>>>>>88aa6oooooooooooooooooooooooo",
"oooooooooooooooooooooooo5;;OO;;>aaO;>>>>>6uaa5oooooooooooooooooooooooo",
"oooooooooooooooooooooooo5;;OO;;>aaO;>>>>>6uaa5oooooooooooooooooooooooo",
"ooooooooooooooooooooooooy;;;;;;>aa-;>>>6688aa8oooooooooooooooooooooooo",
"ooooooooooooooooooooooooo55;;;;688;>>>6668a88ooooooooooooooooooooooooo",
"ooooooooooooooooooooooooo55;;;;688;>>>6668a88ooooooooooooooooooooooooo",
"ooooooooooooooooooooooooo55>>;;;;;>>66888ka55ooooooooooooooooooooooooo",
"ooooooooooooooooooooooooooo5>>>>::>6888aaa6ooooooooooooooooooooooooooo",
"oooooooooooooooooooooooooooo8666888uaaaaa8oooooooooooooooooooooooooooo",
"oooooooooooooooooooooooooooo8666888uaaaaa8oooooooooooooooooooooooooooo",
"oooooooooooooooooooooooo=OO....===O+;;;;;>>;;;oooooooooooooooooooooooo",
"ooooooooooooooooooooooo====....=OO;;--;--;:>>:;ooooooooooooooooooooooo",
"ooooooooooooooooooooooo====....=OO;;--;--;:>>:;ooooooooooooooooooooooo",
"ooooooooooooooooooooooooooo5;OO+;;>688akkajooooooooooooooooooooooooooo",
"ooooooooooooooooooooooooooo;+OO+;;>>66kaaaaooooooooooooooooooooooooooo",
"ooooooooooooooooooooooooooo4O..O-->;668aaa8ooooooooooooooooooooooooooo",
"ooooooooooooooooooooooooooo4O..O-->;668aaa8ooooooooooooooooooooooooooo",
"ooooooooooooooooooooooooooo;O..O;;>>668jja8ooooooooooooooooooooooooooo",
"ooooooooooooooooooooooooooo;O..O;;>>66688a8ooooooooooooooooooooooooooo",
"ooooooooooooooooooooooooooo;O..O;;>>66688a8ooooooooooooooooooooooooooo",
"ooooooooooooooooooooooooo--;O===;;>;66888ja>>ooooooooooooooooooooooooo",
"ooooooooooooooooooooooooo--;O...;;>>66888aa::ooooooooooooooooooooooooo",
"ooooooooooooooooooooooooo--;O..=;;>>66888aa88ooooooooooooooooooooooooo",
"ooooooooooooooooooooooooo--;O..=;;>>66888aa88ooooooooooooooooooooooooo",
"oooooooooooooooooooooooo;;;O=..O;;>;66888paaa:oooooooooooooooooooooooo",
"oooooooooooooooooooooooo>;;O...+;;>>668888aaa8oooooooooooooooooooooooo",
"oooooooooooooooooooooooo>;;O...+;;>>668888aaa8oooooooooooooooooooooooo",
"ooooooooooooooooooooo+==.....OOOOO;;;;>>>66666::;ooooooooooooooooooooo",
"oooooooooooooooooooooO==...=.==OOO;;>>>>>66666>>>ooooooooooooooooooooo",
"ooooooooooooooooooooo.......OOOO--;;>>->>:666866:ooooooooooooooooooooo",
"ooooooooooooooooooooO.......OOOO--;;>>->>:666866:>oooooooooooooooooooo",
"ooooooooooooooooooo>;>;;;--;;>>>;;88888aapajjauui8::oooooooooooooooooo",
"oooooooooooooooo-O.......OOO+;;;;;;>;;>>>68888ii8855,;oooooooooooooooo",
"oooooooooooooooo-O.......OOO+;;;;;;>;;>>>68888ii8855,;oooooooooooooooo",
"oooooooooooooo866>;;>>>>>>>>>>>>>>>>>>>6688888888888855>oooooooooooooo",
"ooooooooooooooaaa8888888aaaaaaaaaaaaaaaaaaaaaaaakaaaa886oooooooooooooo",
"oooooooooooooo=.......==OOOOO;;;;;>>>>;>>>666888i8iiappaoooooooooooooo",
"oooooooooooooO=.......==OOOOO;;;;;>>>>;>>>666888i8iiappa>ooooooooooooo",
"ooooooooooooo>;;;;;;;;;;;;;;;;;;;;,->>>>>668888888aaaaaa8ooooooooooooo",
"ooooooooooooo;>;;>;;>;>>;>>;>;;>;;>;6658888888888aaaaaa88ooooooooooooo",
"ooooooooooooo;>;;>;;>;>>;>>;>;;>;;>;6658888888888aaaaaa88ooooooooooooo",
"oooooooooooooooooooooooooooooooooooooooooooooooooooooooooooooooooooooo",
"oooooooooooooooooooooooooooooooooooooooooooooooooooooooooooooooooooooo",
"oooooooooooooooooooooooooooooooooooooooooooooooooooooooooooooooooooooo",
"oooooooooooooooooooooooooooooooooooooooooooooooooooooooooooooooooooooo",
"oooooooooooooooooooooooooooooooooooooooooooooooooooooooooooooooooooooo",
"oooooooooooooooooooooooooooooooooooooooooooooooooooooooooooooooooooooo",
"oooooooooooooooooooooooooooooooooooooooooooooooooooooooooooooooooooooo",
"oooooooooooooooooooooooooooooooooooooooooooooooooooooooooooooooooooooo"
};
