/* XPM */
static char *magick[] = {
/* columns rows colors chars-per-pixel */
"70 70 64 1",
"  c white",
". c #fffff7",
"X c red",
"o c background",
"O c #e7e784",
"+ c #e7c684",
"@ c #e7a5c6",
"# c #e7a584",
"$ c #e76342",
"% c #e72100",
"& c gray87",
"* c #cecece",
"= c #c6dec6",
"- c #c6c6c6",
"; c #c6c684",
": c #c6a5c6",
"> c #c6a584",
", c #c6a542",
"< c #c68442",
"1 c #c62100",
"2 c gray74",
"3 c gray68",
"4 c #a5c6c6",
"5 c #a5a5a5",
"6 c #a5a584",
"7 c #a58484",
"8 c #a58442",
"9 c #a56384",
"0 c #a56342",
"q c #a54242",
"w c #a52100",
"e c gray61",
"r c gray58",
"t c gray55",
"y c #84a584",
"u c #848484",
"i c #848442",
"p c #846384",
"a c #846342",
"s c #844242",
"d c #842142",
"f c gray45",
"g c gray42",
"h c #638484",
"j c #636384",
"k c #636342",
"l c #634242",
"z c #632142",
"x c #5a5a5a",
"c c gray32",
"v c gray26",
"b c #422142",
"n c #422100",
"m c #313131",
"M c gray13",
"N c #187331",
"B c #181818",
"V c gray3",
"C c black",
"Z c black",
"A c black",
"S c black",
"D c black",
"F c black",
/* pixels */
"oooooooooooooooooooooooooooooooooooooooooooooooooooooooooooooooooooooo",
"oooooooooooooooooooooooooooooooooooooooooooooooooooooooooooooooooooooo",
"oooooooooooooooooooooooooooooooooooooooooooooooooooooooooooooooooooooo",
"oooooooooooooooooooooooooooooooooooooooooooooooooooooooooooooooooooooo",
"oooooooooooooooooooooooooooooooooooooooooooooooooooooooooooooooooooooo",
"oooooooooooooooooooooooooooooooooooooooooooooooooooooooooooooooooooooo",
"oooooooooooooooooooooooooooooooooooooooooooooooooooooooooooooooooooooo",
"oooooooooooooooooooooooooooooooooooooooooooooooooooooooooooooooooooooo",
"oooooooooooooooooooooooooooooooooooooooooooooooooooooooooooooooooooooo",
"oooooooooooooooooooooooooooooooooooooooooooooooooooooooooooooooooooooo",
"oooooooooooooooooooooooooOO=OOO+OOOO  oooooooooooooooooooooooooooooooo",
"oooooooooooooooooooooooO+;;;;>>>;;;OOOO==OO  ooooooooooooooooooooooooo",
"oooooooooooooooooooooooO+;;;;>>>;;;OOOO==OO  ooooooooooooooooooooooooo",
"oooooooooooooooooooo+;>>6888jaa888a8aaaaa8:-- oooooooooooooooooooooooo",
"oooooooooooooooooooO;;>>688>OOOO==OOOO;888a66- ooooooooooooooooooooooo",
"ooooooooooooooooooo->6888OO.OOOO==;;-->88-6aaO.ooooooooooooooooooooooo",
"oooooooooooooooooO-->6888OO.OOOO==;;-->88-6aaO..O-oooooooooooooooooooo",
"ooooooooooooooooo->>7u88O..O;>>;668888a++OOOO.OO;6aaoooooooooooooooooo",
"oooooooooooooooo.;8888OO=++-6aa+OOk8>>;>>8k==O--6a88oooooooooooooooooo",
"oooooooooooooooo.;8888OO=++-6aa+OOk8>>;>>8k==O--6a88oooooooooooooooooo",
"oooooooooooooooo=O--6O==+>>a6..O;;O=OO;;;-;888aaaa>>oooooooooooooooooo",
"ooooooooooooooooO+>>a=OO-aa;.OO-aa.O++;;;8OOO+;;a6;;8ooooooooooooooooo",
"oooooooooooooooo;>aa==++8>>.+;;8..OOOOO;;>>..OOO>kaaaooooooooooooooooo",
"oooooooooooooooo;>aa==++8>>.+;;8..OOOOO;;>>..OOO>kaaaooooooooooooooooo",
"oooooooooooooo=;;8aaO.;;a..O;>>a..OOOO+;;>a;;a88;7kkoooooooooooooooooo",
"oooooooooooooo=;;8aaO.;;a..O->>a..==OO+;;>8aaakk8>aaoooooooooooooooooo",
"oooooooooooooo=;;8aaO.;;a..O->>a..==OO+;;>8aaakk8>aaoooooooooooooooooo",
"oooooooooooooooo>aaa.=>>a..O;66a;;OOOO+;;>>88a88>-aaoooooooooooooooooo",
"oooooooooooooooo=8aa.O;;a..O;>>a>>OO==;;;>-88k88>;aaoooooooooooooooooo",
"oooooooooooooooo=8aa.O>>aOO.+>>a>>a>;;-;;>>66888-+88oooooooooooooooooo",
"oooooooooooooooo=8aa.O>>aOO.+>>a>>a>;;-;;>>66888-+888ooooooooooooooooo",
"oooooooooooooooo->aa.=;;a;;O.>>8;;ka88oOO->668aa6->>aooooooooooooooooo",
"oooooooooooooooo->88.O>>a66==OO8aa8aaaoooo>66a;;+O--8ooooooooooooooooo",
"oooooooooooooooo->88.O>>a66==OO8aa8aaaoooo>66a;;+O--8ooooooooooooooooo",
"ooooooooooooooooo-88=+>>a88>O..-88:8aa8ooo;>>8--aa++6ooooooooooooooooo",
"ooooooooooooooooo=<<=+>>a88O>..O;;k688p88oo--677;a;;>ooooooooooooooooo",
"ooooooooooooooooo=88O+;;a88O>==+;;a688a88oo--688-a;;5ooooooooooooooooo",
"ooooooooooooooooo=88O+;;a88O>==+;;a688a88oo--688-a;;5ooooooooooooooooo",
"ooooooooooooooooo=>>O;;;aaa.>>>=++8k668aa8ooo8pp8:--oooooooooooooooooo",
"ooooooooooooooooo   kO>>a..=>-->OO;6aa6888ooo       oooooooooooooooooo",
"ooooooooooooooooooookO>>a..=>-->OO;6aa68888iiooooooooooooooooooooooooo",
"ooooooooooooooooooo>8-aa.OO;>>>>66;;>>8aa8888a8ooooooooooooooooooooooo",
"ooooooooooooooooo-666;..OOO;;;;;>>8;;;>--a8aa8888ooooooooooooooooooooo",
"ooooooooooooooooo>OO;=OO>;;OO+++;;-8888888app8888ooooooooooooooooooooo",
"ooooooooooooooooo>OO;=OO>;;OO+++;;-8888888app8888ooooooooooooooooooooo",
"ooooooooooooooooo5>>;=;;888>=..O++;;;;>>>>66668885oooooooooooooooooooo",
"ooooooooooooooooo 55O===O5588;;O..OO;;->>>>6668878oooooooooooooooooooo",
"ooooooooooooooooooo5O===O5588;;O..OO;;->>>>6668878oooooooooooooooooooo",
"ooooooooooooooooooooO....==;>888++=OOO;;;;>;;66688oooooooooooooooooooo",
"ooooooooooooooooooooO.......O==OOO->>>;>>>>::>558888oooooooooooooooooo",
"oooooooooooooooooooo8aaaaaaaaaaaaaaakkaaaaaaaaaaaaaaoooooooooooooooooo",
"ooooooooooooooooooo>8aaaaaaaaaaaaaaakkaaaaaaaaaaaaaaaooooooooooooooooo",
"ooooooooooooooooooo:;>;;;;;;;>>>>>88888aaaaaap8886;;6ooooooooooooooooo",
"ooooooooooooooooooo......OOO+;;;;;;>>>>;;58888888866>ooooooooooooooooo",
"oooooooooooooooo+O.......OOO+;;;;;;>>>>;;58888888866>;oooooooooooooooo",
"oooooooooooooo766>>>>-;;;;;;;;;;;;;;>>>>>>>>>:>>>:>>-;;;oooooooooooooo",
"ooooooooooooooaaa8888788aaaaaaaaaaaaaaaaaaakkakkaaaaa886oooooooooooooo",
"oooooooooooooo=.......==OOOOO;;;;;>>>>>>>>666888iuaakaa8oooooooooooooo",
"oooooooooooooO=.......==OOOOO;;;;;>>>>>>>>666888iuaakaa8:ooooooooooooo",
"ooooooooooooo>;;;;;;;;;;;;;;;;;;;;;5##>>>66<<88888aaaaaa8ooooooooooooo",
"ooooooooooooo;>;;>;;>;>>;>>;>;;>;;>;77>8878888888aaakaa88ooooooooooooo",
"ooooooooooooo;>;;>;;>;>>;>>;>;;>;;>;77>8878888888aaakaa88ooooooooooooo",
"oooooooooooooooooooooooooooooooooooooooooooooooooooooooooooooooooooooo",
"oooooooooooooooooooooooooooooooooooooooooooooooooooooooooooooooooooooo",
"oooooooooooooooooooooooooooooooooooooooooooooooooooooooooooooooooooooo",
"oooooooooooooooooooooooooooooooooooooooooooooooooooooooooooooooooooooo",
"oooooooooooooooooooooooooooooooooooooooooooooooooooooooooooooooooooooo",
"oooooooooooooooooooooooooooooooooooooooooooooooooooooooooooooooooooooo",
"oooooooooooooooooooooooooooooooooooooooooooooooooooooooooooooooooooooo",
"oooooooooooooooooooooooooooooooooooooooooooooooooooooooooooooooooooooo"
};
