/* XPM */
static char *magick[] = {
/* columns rows colors chars-per-pixel */
"70 70 64 1",
"  c white",
". c #fffff7",
"X c red",
"o c background",
"O c #e7e784",
"+ c #e7c684",
"@ c #e7a5c6",
"# c #e7a584",
"$ c #e76342",
"% c #e72100",
"& c gray87",
"* c #cecece",
"= c #c6dec6",
"- c #c6c6c6",
"; c #c6c684",
": c #c6a5c6",
"> c #c6a584",
", c #c6a542",
"< c #c68442",
"1 c #c62100",
"2 c gray74",
"3 c gray68",
"4 c #a5c6c6",
"5 c #a5a5a5",
"6 c #a5a584",
"7 c #a58484",
"8 c #a58442",
"9 c #a56384",
"0 c #a56342",
"q c #a54242",
"w c #a52100",
"e c gray61",
"r c gray58",
"t c gray55",
"y c #84a584",
"u c #848484",
"i c #848442",
"p c #846384",
"a c #846342",
"s c #844242",
"d c #842142",
"f c gray45",
"g c gray42",
"h c #638484",
"j c #636384",
"k c #636342",
"l c #634242",
"z c #632142",
"x c #5a5a5a",
"c c gray32",
"v c gray26",
"b c #422142",
"n c #422100",
"m c #313131",
"M c gray13",
"N c #187331",
"B c #181818",
"V c gray3",
"C c black",
"Z c black",
"A c black",
"S c black",
"D c black",
"F c black",
/* pixels */
"oooooooooooooooooooooooooooooooooooooooooooooooooooooooooooooooooooooo",
"oooooooooooooooooooooooooooooooooooooooooooooooooooooooooooooooooooooo",
"oooooooooooooooooooooooooooooooooooooooooooooooooooooooooooooooooooooo",
"oooooooooooooooooooooooooooooooooooooooooooooooooooooooooooooooooooooo",
"oooooooooooooooooooooooooooooooooooooooooooooooooooooooooooooooooooooo",
"oooooooooooooooooooooooooooooooooooooooooooooooooooooooooooooooooooooo",
"oooooooooooooooooooooooooooooooooo>aoooooooooooooooooooooooooooooooooo",
"oooooooooooooooooooooooooooooooooo>aoooooooooooooooooooooooooooooooooo",
"oooooooooooooooooooooooooooooooooo;;oooooooooooooooooooooooooooooooooo",
"oooooooooooooooooooooooooooooooO++;;;;;ooooooooooooooooooooooooooooooo",
"ooooooooooooooooooooooooooooooo--->paaaooooooooooooooooooooooooooooooo",
"ooooooooooooooooooooooooooooooo   >a   ooooooooooooooooooooooooooooooo",
"oooooooooooooooooooooooooooooooooo>aoooooooooooooooooooooooooooooooooo",
"oooooooooooooooooooooooooooooooooo>aoooooooooooooooooooooooooooooooooo",
"ooooooooooooooooooooooooooooO.....O+;;;;;+oooooooooooooooooooooooooooo",
"oooooooooooooooooooooooooooo...=OO+;--;>>>oooooooooooooooooooooooooooo",
"oooooooooooooooooooooooOO......=OO+;--;>>>;;;;-ooooooooooooooooooooooo",
"ooooooooooooooooo4OO....=OOOOOO-;;;>::>>>:58888888885ooooooooooooooooo",
"ooooooooooooooooo yy86888888i88aaaaaaaakkaaaaaaak8:: ooooooooooooooooo",
"oooooooooooooooooooy86888888i88aaaaaaaakkaaaaaaak8::oooooooooooooooooo",
"ooooooooooooooooooooo-;;;;;;>>>>6668iiaaaaakkaaaaooooooooooooooooooooo",
"oooooooooooooooooooooy;;+;;;-;;>>>8888iaaaaaaaaa:ooooooooooooooooooooo",
"ooooooooooooooooooooo 44OOO;;;;>>>>8888iiuaaaa>> ooooooooooooooooooooo",
"ooooooooooooooooooooooo4OOO;;;;>>>>8888iiuaaaa>ooooooooooooooooooooooo",
"oooooooooooooooooooooooo;OOO+;;;55>6888888aaa-oooooooooooooooooooooooo",
"oooooooooooooooooooooooo4++OO;;;>>>-666888888>oooooooooooooooooooooooo",
"oooooooooooooooooooooooo4++OO;;;>>>-666888888>oooooooooooooooooooooooo",
"ooooooooooooooooooooooooo;;=O++;;;>>>>68888uuooooooooooooooooooooooooo",
"ooooooooooooooooooooooooo;;+O++;;;>>-->8888iiooooooooooooooooooooooooo",
"ooooooooooooooooooooooooo;;+OOO;;;>>>>>668688ooooooooooooooooooooooooo",
"ooooooooooooooooooooooooo;;+OOO;;;>>>>>668688ooooooooooooooooooooooooo",
"oooooooooooooooooooooooo+OO.....==O+;;;;;>>;;;oooooooooooooooooooooooo",
"ooooooooooooooooooooooooO....===OO;;;;;;;;>;;>oooooooooooooooooooooooo",
"ooooooooooooooooooooo4++O....===OO;;;;;;;;>;;>;;;ooooooooooooooooooooo",
"ooooooooooooooooooooo4--===....=OO;;--;;;;:>>>---ooooooooooooooooooooo",
"ooooooooooooooooooooooooo55;+;;>556888paaaakkooooooooooooooooooooooooo",
"ooooooooooooooooooooooooo55;O==;>>>6888kkakaaooooooooooooooooooooooooo",
"ooooooooooooooooooooooooo55;O==;>>>6888kkakaaooooooooooooooooooooooooo",
"ooooooooooooooooooooooooo;;O.++;>>>666888aa88ooooooooooooooooooooooooo",
"ooooooooooooooooooooooooo--O.OO;>>>688888pk88ooooooooooooooooooooooooo",
"ooooooooooooooooooooooooo--O.OO;>>>688888pk88ooooooooooooooooooooooooo",
"ooooooooooooooooooooooooo--O.==->>;6888888a88ooooooooooooooooooooooooo",
"oooooooooooooooooooooooo-;;O.==;>>>6888888kaa>oooooooooooooooooooooooo",
"oooooooooooooooooooooooo;;;O.==;>>>6886888aaa:oooooooooooooooooooooooo",
"oooooooooooooooooooooooo;;;O.==;>>>6886888aaa:oooooooooooooooooooooooo",
"oooooooooooooooooooooooo;--O.OO;>>>6888888aaa8oooooooooooooooooooooooo",
"oooooooooooooooooooooooo;OO=.OO->>>688888iakkaoooooooooooooooooooooooo",
"ooooooooooooooooooooooo;;OO=.OO->>>688888iakka:ooooooooooooooooooooooo",
"ooooooooooooooooooooooo>;OO.=++;;;>68886688aaa8ooooooooooooooooooooooo",
"oooooooooooooooooooo+=.......OOO++-;-->>>6666666:ooooooooooooooooooooo",
"oooooooooooooooooooo....=...OOOO;;;;>>->>:6666886ooooooooooooooooooooo",
"oooooooooooooooooooo....=...OOOO;;;;>>->>:6666886:oooooooooooooooooooo",
"ooooooooooooooooooo;>-;;;;;-;;;>>>88888aaaaaajaa88::oooooooooooooooooo",
"ooooooooooooooooooo.....OOOOO;;;;;>;>>>>>5888888u866oooooooooooooooooo",
"oooooooooooooooo-O......OOOOO;;;;;>;>>>>>5888888u866:;oooooooooooooooo",
"oooooooooooooo866>>>;>>>>>>>>>>>;;>>>>>6688888888888u::>oooooooooooooo",
"ooooooooooooooaaa8888888aaaaaaaaaaaaaaaaaaaaaaaakaaaa886oooooooooooooo",
"oooooooooooooo=......=OOOOOO+;;;;;>>>>>;;>6666888888appaoooooooooooooo",
"oooooooooooooO=......=OOOOOO+;;;;;>>>>>;;>6666888888appa>ooooooooooooo",
"ooooooooooooo>;;;;;;;;;;;;;;;;;;;;,->>>>>666688888aaaaaa8ooooooooooooo",
"ooooooooooooo;>;;>;;>;>>;>>;>;;>;;>;6658887888888aaaaaa88ooooooooooooo",
"ooooooooooooo;>;;>;;>;>>;>>;>;;>;;>;6658887888888aaaaaa88ooooooooooooo",
"oooooooooooooooooooooooooooooooooooooooooooooooooooooooooooooooooooooo",
"oooooooooooooooooooooooooooooooooooooooooooooooooooooooooooooooooooooo",
"oooooooooooooooooooooooooooooooooooooooooooooooooooooooooooooooooooooo",
"oooooooooooooooooooooooooooooooooooooooooooooooooooooooooooooooooooooo",
"oooooooooooooooooooooooooooooooooooooooooooooooooooooooooooooooooooooo",
"oooooooooooooooooooooooooooooooooooooooooooooooooooooooooooooooooooooo",
"oooooooooooooooooooooooooooooooooooooooooooooooooooooooooooooooooooooo",
"oooooooooooooooooooooooooooooooooooooooooooooooooooooooooooooooooooooo"
};
