/* XPM */
/* This file was automatically generated from the file ../MB.V48
using the program ``zic2xpm''.

    NOTICE: The piece images distributed with ZIICS are
        copyrighted works of their original creators.  Images
        converted with zic2xpm may not be redistributed without
        the permission of the copyright holders.  Do not contact
        the authors of zic2xpm or of ZIICS itself to request
        permission. */
static char * image_name[] = {
"48 48 4 1",
"X	c white s light_piece",
" 	c black s dark_piece",
"*	c gray s light_square",
".	c green s dark_square",
"************************************************",
"**********************XXXXX*********************",
"**********************XXXXX*********************",
"*********************X     X********************",
"*******************XX       XX******************",
"*******************XX       XX******************",
"******************X           X*****************",
"****************XX          XXXXX***************",
"****************XX          XXXXX***************",
"***************X           XXX   X**************",
"*************XX          XXX      XX************",
"*************XX          XXX      XX************",
"************X           XXX         X***********",
"************X         XXX           X***********",
"************X         XXX           X***********",
"**********XX         XXX            X***********",
"**********XX       XXX              X***********",
"**********XX       XXX              X***********",
"**********XX                        X***********",
"**********XX                        X***********",
"**********XX                        X***********",
"************X                     XX************",
"*************XX                  X**************",
"*************XX                  X**************",
"***************X               XX***************",
"****************XXX         XXX*****************",
"****************XXX         XXX*****************",
"*******************XX      X********************",
"*************XXXXXXXX      XXXXXXX**************",
"*************XXXXXXXX      XXXXXXX**************",
"************X                     XX************",
"************X                     XX************",
"************X                     XX************",
"************XXXXXXXXX      XXXXXXXXX************",
"*******************XX      X********************",
"*******************XX      X********************",
"*******************XX      X********************",
"*******************XX      X********************",
"*******************XX      X********************",
"*******************XX      X********************",
"**********XXXXXXXXXXX      XXXXXXXXXX***********",
"**********XXXXXXXXXXX      XXXXXXXXXX***********",
"*********X                           XX*********",
"*********X                           XX*********",
"*********X                           XX*********",
"*********XXXXXXXXXXXXXXXXXXXXXXXXXXXXXX*********",
"************************************************",
"************************************************",
};
