/* XPM */
/* This file was automatically generated from the file ../MB.V50
using the program ``zic2xpm''.

    NOTICE: The piece images distributed with ZIICS are
        copyrighted works of their original creators.  Images
        converted with zic2xpm may not be redistributed without
        the permission of the copyright holders.  Do not contact
        the authors of zic2xpm or of ZIICS itself to request
        permission. */
static char * image_name[] = {
"50 50 4 1",
"X	c white s light_piece",
" 	c black s dark_piece",
"*	c gray s light_square",
".	c green s dark_square",
"**************************************************",
"***********************XXXXX**********************",
"***********************XXXXX**********************",
"*********************XX     X*********************",
"********************X        XX*******************",
"********************X        XX*******************",
"******************XX           X******************",
"*****************X           XXXXX****************",
"*****************X           XXXXX****************",
"***************XX           XXX   X***************",
"***************XX           XXX   X***************",
"**************X           XXX      XX*************",
"************XX           XXX         XX***********",
"************XX           XXX         XX***********",
"************XX         XXX           XX***********",
"**********XX         XXXX            XX***********",
"**********XX         XXXX            XX***********",
"**********XX        XXX              XX***********",
"**********XX                         XX***********",
"**********XX                         XX***********",
"**********XX                         XX***********",
"**********XX                         XX***********",
"************XX                     XX*************",
"**************X                   X***************",
"**************X                   X***************",
"***************XX               XX****************",
"*****************XXX         XXX******************",
"*****************XXX         XXX******************",
"********************X       X*********************",
"**************XXXXXXX       XXXXXXX***************",
"**************XXXXXXX       XXXXXXX***************",
"************XX                     XX*************",
"************XX                     XX*************",
"************XX                     XX*************",
"************XXXXXXXXX       XXXXXXXXX*************",
"************XXXXXXXXX       XXXXXXXXX*************",
"********************X       X*********************",
"********************X       X*********************",
"********************X       X*********************",
"********************X       X*********************",
"********************X       X*********************",
"********************X       X*********************",
"**********XXXXXXXXXXX       XXXXXXXXXXX***********",
"*********X                             X**********",
"*********X                             X**********",
"*********X                             X**********",
"*********X                             X**********",
"*********XXXXXXXXXXXXXXXXXXXXXXXXXXXXXXX**********",
"**************************************************",
"**************************************************",
};
