/* XPM */
/* This file was automatically generated from the file ../MB.V56
using the program ``zic2xpm''.

    NOTICE: The piece images distributed with ZIICS are
        copyrighted works of their original creators.  Images
        converted with zic2xpm may not be redistributed without
        the permission of the copyright holders.  Do not contact
        the authors of zic2xpm or of ZIICS itself to request
        permission. */
static char * image_name[] = {
"56 56 4 1",
"X	c white s light_piece",
" 	c black s dark_piece",
"*	c gray s light_square",
".	c green s dark_square",
"........................................................",
"..........................     .........................",
"..........................     .........................",
"........................  XXXXX  .......................",
"........................  XXXXX  .......................",
"......................  XXXXXXXXX  .....................",
"......................  XXXXXXXXX  .....................",
"..................... XXXXXXXXXXXXX ....................",
"...................  XXXXXXXXXXXX     ..................",
"...................  XXXXXXXXXXXX     ..................",
".................  XXXXXXXXXXXX    XXX  ................",
".................  XXXXXXXXXXXX    XXX  ................",
"...............  XXXXXXXXXXXX    XXXXXXX  ..............",
"...............  XXXXXXXXXXXX    XXXXXXX  ..............",
".............. XXXXXXXXXXXXX   XXXXXXXXXXX .............",
".............. XXXXXXXXXXX   XXXXXXXXXXXXX .............",
".............. XXXXXXXXXXX   XXXXXXXXXXXXX .............",
"............  XXXXXXXXXX    XXXXXXXXXXXXXX .............",
"............  XXXXXXXXXX    XXXXXXXXXXXXXX .............",
"............  XXXXXXXX    XXXXXXXXXXXXXXXX .............",
"............  XXXXXXXX    XXXXXXXXXXXXXXXX .............",
"............  XXXXXXXXXXXXXXXXXXXXXXXXXXXX .............",
"............  XXXXXXXXXXXXXXXXXXXXXXXXXXXX .............",
"............  XXXXXXXXXXXXXXXXXXXXXXXXXXXX .............",
".............. XXXXXXXXXXXXXXXXXXXXXXXXX  ..............",
".............. XXXXXXXXXXXXXXXXXXXXXXXXX  ..............",
"...............  XXXXXXXXXXXXXXXXXXXXX  ................",
"...............  XXXXXXXXXXXXXXXXXXXXX  ................",
".................  XXXXXXXXXXXXXXXXX  ..................",
"...................   XXXXXXXXXXX   ....................",
"...................   XXXXXXXXXXX   ....................",
"......................  XXXXXXX  .......................",
"......................  XXXXXXX  .......................",
"...............         XXXXXXX         ................",
"...............         XXXXXXX         ................",
".............. XXXXXXXXXXXXXXXXXXXXXXXXX  ..............",
".............. XXXXXXXXXXXXXXXXXXXXXXXXX  ..............",
".............. XXXXXXXXXXXXXXXXXXXXXXXXX  ..............",
"..............          XXXXXXX           ..............",
"..............          XXXXXXX           ..............",
"......................  XXXXXXX  .......................",
"......................  XXXXXXX  .......................",
"......................  XXXXXXX  .......................",
"......................  XXXXXXX  .......................",
"......................  XXXXXXX  .......................",
"......................  XXXXXXX  .......................",
"......................  XXXXXXX  .......................",
"............            XXXXXXX            .............",
"............            XXXXXXX            .............",
"..........  XXXXXXXXXXXXXXXXXXXXXXXXXXXXXXX  ...........",
"..........  XXXXXXXXXXXXXXXXXXXXXXXXXXXXXXX  ...........",
"..........  XXXXXXXXXXXXXXXXXXXXXXXXXXXXXXX  ...........",
"..........                                   ...........",
"..........                                   ...........",
"........................................................",
"........................................................",
};
