/* XPM */
/* This file was automatically generated from the file ../MB.V32
using the program ``zic2xpm''.

    NOTICE: The piece images distributed with ZIICS are
        copyrighted works of their original creators.  Images
        converted with zic2xpm may not be redistributed without
        the permission of the copyright holders.  Do not contact
        the authors of zic2xpm or of ZIICS itself to request
        permission. */
static char * image_name[] = {
"32 32 4 1",
"X	c white s light_piece",
" 	c black s dark_piece",
"*	c gray s light_square",
".	c green s dark_square",
"................................",
"...............XX...............",
"..............X  X..............",
"..............X  X..............",
"..............X  X..............",
"..........XXXX    XXXX..........",
".........X            X.........",
".........X            X.........",
"..........XXXXX  XXXXX..........",
"..............X  X..............",
"........XXX...X  X...XXX........",
"......XX   XXX    XXX   XX......",
".....X                    X.....",
"....X       X      X       X....",
"...X         XX  XX         X...",
"...X           XX           X...",
"...X          X  X          X...",
"...X         X    X         X...",
"...X        X      X        X...",
"...X        X      X        X...",
"....X                      X....",
"....X                      X....",
".....X                    X.....",
"......X                  X......",
".......X                X.......",
".......X                X.......",
"........X  XXXXXXXXXX  X........",
"......XXX              XXX......",
".....X                    X.....",
".....X                    X.....",
".....XXXXXXXXXXXXXXXXXXXXXX.....",
"................................",
};
