/* XPM */
/* This file was automatically generated from the file ../MB.V56
using the program ``zic2xpm''.

    NOTICE: The piece images distributed with ZIICS are
        copyrighted works of their original creators.  Images
        converted with zic2xpm may not be redistributed without
        the permission of the copyright holders.  Do not contact
        the authors of zic2xpm or of ZIICS itself to request
        permission. */
static char * image_name[] = {
"56 56 4 1",
"X	c white s light_piece",
" 	c black s dark_piece",
"*	c gray s light_square",
".	c green s dark_square",
"........................................................",
"..........................XXX...........................",
"..........................XXX...........................",
"........................XX   XX.........................",
"........................XX   XX.........................",
"........................XX   XX.........................",
"........................XX   XX.........................",
"........................XX   XX.........................",
".................XXXXXXX       XXXXXXX..................",
".................XXXXXXX       XXXXXXX..................",
"...............XX                     XX................",
"...............XX                     XX................",
"...............XX                     XX................",
"...............XX                     XX................",
".................XXXXXXXXX   XXXXXXXXX..................",
"........................XX   XX.........................",
"........................XX   XX.........................",
"..............XXXXX.....XX   XX.....XXXXXX..............",
"..............XXXXX.....XX   XX.....XXXXXX..............",
"..........XXXX     XXXXX       XXXXX      XXX...........",
"..........XXXX     XXXXX       XXXXX      XXX...........",
"........XX                                   XX.........",
".......X             X           XX            XX.......",
".......X             X           XX            XX.......",
".....XX               XXXX   XXXX                X......",
".....XX               XXXX   XXXX                X......",
".....XX                   XXX                    X......",
".....XX                   XXX                    X......",
".....XX                 XX   XX                  X......",
".....XX               XX       XX                X......",
".....XX               XX       XX                X......",
".....XX              X           XX              X......",
".....XX              X           XX              X......",
".....XX              X           XX              X......",
".....XX              X           XX              X......",
".......X                                       XX.......",
".......X                                       XX.......",
".......X                                       XX.......",
"........XX                                   XX.........",
"........XX                                   XX.........",
"..........XX                               XX...........",
"..........XX                               XX...........",
"............XX                            X.............",
"............XX                            X.............",
"............XX                            X.............",
"..............X    XXXXXXXXXXXXXXXXX    XX..............",
"..............X    XXXXXXXXXXXXXXXXX    XX..............",
"..........XXXXX                         XXXXX...........",
"..........XXXXX                         XXXXX...........",
"........XX                                   XX.........",
"........XX                                   XX.........",
"........XX                                   XX.........",
"........XXXXXXXXXXXXXXXXXXXXXXXXXXXXXXXXXXXXXXX.........",
"........XXXXXXXXXXXXXXXXXXXXXXXXXXXXXXXXXXXXXXX.........",
"........................................................",
"........................................................",
};
