/* XPM */
/* This file was automatically generated from the file ../MB.V48
using the program ``zic2xpm''.

    NOTICE: The piece images distributed with ZIICS are
        copyrighted works of their original creators.  Images
        converted with zic2xpm may not be redistributed without
        the permission of the copyright holders.  Do not contact
        the authors of zic2xpm or of ZIICS itself to request
        permission. */
static char * image_name[] = {
"48 48 4 1",
"X	c white s light_piece",
" 	c black s dark_piece",
"*	c gray s light_square",
".	c green s dark_square",
"************************************************",
"**********************   ***********************",
"**********************   ***********************",
"********************* XXX  *********************",
"********************* XXX  *********************",
"********************* XXX  *********************",
"********************* XXX  *********************",
"***************      XXXXXX      ***************",
"***************      XXXXXX      ***************",
"*************  XXXXXXXXXXXXXXXXXX **************",
"*************  XXXXXXXXXXXXXXXXXX **************",
"*************  XXXXXXXXXXXXXXXXXX **************",
"***************       XXX        ***************",
"********************* XXX  *********************",
"********************* XXX  *********************",
"************    ***** XXX  ****     ************",
"*********   XXXX     XXXXXX    XXXXX   *********",
"*********   XXXX     XXXXXX    XXXXX   *********",
"*******  XXXXXXXXXXXXXXXXXXXXXXXXXXXXXX ********",
"****** XXXXXXXXXXX XXXXXXXXX  XXXXXXXXXX  ******",
"****** XXXXXXXXXXX XXXXXXXXX  XXXXXXXXXX  ******",
"****  XXXXXXXXXXXXX   XXX   XXXXXXXXXXXXXX *****",
"****  XXXXXXXXXXXXXXXX   XXXXXXXXXXXXXXXXX *****",
"****  XXXXXXXXXXXXXXXX   XXXXXXXXXXXXXXXXX *****",
"****  XXXXXXXXXXXXXXX XXX  XXXXXXXXXXXXXXX *****",
"****  XXXXXXXXXXXXX  XXXXXX XXXXXXXXXXXXXX *****",
"****  XXXXXXXXXXXXX  XXXXXX XXXXXXXXXXXXXX *****",
"****  XXXXXXXXXXXX XXXXXXXXX  XXXXXXXXXXXX *****",
"****  XXXXXXXXXXXX XXXXXXXXX  XXXXXXXXXXXX *****",
"****  XXXXXXXXXXXX XXXXXXXXX  XXXXXXXXXXXX *****",
"****** XXXXXXXXXXXXXXXXXXXXXXXXXXXXXXXXX  ******",
"****** XXXXXXXXXXXXXXXXXXXXXXXXXXXXXXXXX  ******",
"****** XXXXXXXXXXXXXXXXXXXXXXXXXXXXXXXXX  ******",
"*******  XXXXXXXXXXXXXXXXXXXXXXXXXXXXXX ********",
"********* XXXXXXXXXXXXXXXXXXXXXXXXXXX  *********",
"********* XXXXXXXXXXXXXXXXXXXXXXXXXXX  *********",
"**********  XXXXXXXXXXXXXXXXXXXXXXXX ***********",
"**********  XXXXXXXXXXXXXXXXXXXXXXXX ***********",
"**********  XXXXXXXXXXXXXXXXXXXXXXXX ***********",
"************ XXX               XXX  ************",
"*********    XXXXXXXXXXXXXXXXXXXXX     *********",
"*********    XXXXXXXXXXXXXXXXXXXXX     *********",
"*******  XXXXXXXXXXXXXXXXXXXXXXXXXXXXXX ********",
"*******  XXXXXXXXXXXXXXXXXXXXXXXXXXXXXX ********",
"*******  XXXXXXXXXXXXXXXXXXXXXXXXXXXXXX ********",
"*******                                 ********",
"************************************************",
"************************************************",
};
