/* XPM */
/* This file was automatically generated from the file ../MB.V50
using the program ``zic2xpm''.

    NOTICE: The piece images distributed with ZIICS are
        copyrighted works of their original creators.  Images
        converted with zic2xpm may not be redistributed without
        the permission of the copyright holders.  Do not contact
        the authors of zic2xpm or of ZIICS itself to request
        permission. */
static char * image_name[] = {
"50 50 4 1",
"X	c white s light_piece",
" 	c black s dark_piece",
"*	c gray s light_square",
".	c green s dark_square",
"**************************************************",
"***********************   ************************",
"***********************   ************************",
"*********************  XXX  **********************",
"*********************  XXX  **********************",
"*********************  XXX  **********************",
"*********************  XXX  **********************",
"***************      XXXXXXX      ****************",
"***************      XXXXXXX      ****************",
"************** XXXXXXXXXXXXXXXXXXX ***************",
"************** XXXXXXXXXXXXXXXXXXX ***************",
"************** XXXXXXXXXXXXXXXXXXX ***************",
"***************        XXX        ****************",
"***************        XXX        ****************",
"*********************  XXX  **********************",
"************     ****  XXX  ****     *************",
"************     ****  XXX  ****     *************",
"*********   XXXXX    XXXXXXX    XXXXX   **********",
"*******  XXXXXXXXXXXXXXXXXXXXXXXXXXXXXXX  ********",
"*******  XXXXXXXXXXXXXXXXXXXXXXXXXXXXXXX  ********",
"****** XXXXXXXXXXX  XXXXXXXXX  XXXXXXXXXXX *******",
"****** XXXXXXXXXXX  XXXXXXXXX  XXXXXXXXXXX *******",
"****  XXXXXXXXXXXXXX   XXX   XXXXXXXXXXXXXX  *****",
"****  XXXXXXXXXXXXXXXXX   XXXXXXXXXXXXXXXXX  *****",
"****  XXXXXXXXXXXXXXXXX   XXXXXXXXXXXXXXXXX  *****",
"****  XXXXXXXXXXXXXXX  XXX  XXXXXXXXXXXXXXX  *****",
"****  XXXXXXXXXXXXXX XXXXXXX XXXXXXXXXXXXXX  *****",
"****  XXXXXXXXXXXXXX XXXXXXX XXXXXXXXXXXXXX  *****",
"****  XXXXXXXXXXXX  XXXXXXXXX  XXXXXXXXXXXX  *****",
"****  XXXXXXXXXXXX  XXXXXXXXX  XXXXXXXXXXXX  *****",
"****  XXXXXXXXXXXX  XXXXXXXXX  XXXXXXXXXXXX  *****",
"****** XXXXXXXXXXXXXXXXXXXXXXXXXXXXXXXXXXX *******",
"****** XXXXXXXXXXXXXXXXXXXXXXXXXXXXXXXXXXX *******",
"****** XXXXXXXXXXXXXXXXXXXXXXXXXXXXXXXXXXX *******",
"*******  XXXXXXXXXXXXXXXXXXXXXXXXXXXXXXX  ********",
"*******  XXXXXXXXXXXXXXXXXXXXXXXXXXXXXXX  ********",
"********* XXXXXXXXXXXXXXXXXXXXXXXXXXXXX **********",
"**********  XXXXXXXXXXXXXXXXXXXXXXXXX  ***********",
"**********  XXXXXXXXXXXXXXXXXXXXXXXXX  ***********",
"**********  XXXXXXXXXXXXXXXXXXXXXXXXX  ***********",
"************  XXX               XXX  *************",
"************  XXX               XXX  *************",
"*********     XXXXXXXXXXXXXXXXXXXXX     **********",
"*******  XXXXXXXXXXXXXXXXXXXXXXXXXXXXXXX  ********",
"*******  XXXXXXXXXXXXXXXXXXXXXXXXXXXXXXX  ********",
"*******  XXXXXXXXXXXXXXXXXXXXXXXXXXXXXXX  ********",
"*******  XXXXXXXXXXXXXXXXXXXXXXXXXXXXXXX  ********",
"*******                                   ********",
"**************************************************",
"**************************************************",
};
