/* XPM */
/* This file was automatically generated from the file ../MB.V48
using the program ``zic2xpm''.

    NOTICE: The piece images distributed with ZIICS are
        copyrighted works of their original creators.  Images
        converted with zic2xpm may not be redistributed without
        the permission of the copyright holders.  Do not contact
        the authors of zic2xpm or of ZIICS itself to request
        permission. */
static char * image_name[] = {
"48 48 4 1",
"X	c white s light_piece",
" 	c black s dark_piece",
"*	c gray s light_square",
".	c green s dark_square",
"................................................",
"........................XXXXXXXXXX..............",
"........................XXXXXXXXXX..............",
".....................XXX         X..............",
".........XXXXXXXXXXXXX            XX............",
".........XXXXXXXXXXXXX            XX............",
".......XX                         XX............",
"......XXX XXX            XXXXX    XX............",
"......XXX XXX            XXXXX    XX............",
"......X   XX            XXXX        X...........",
"......X                             X...........",
"......X                             X...........",
".......XX                           X...........",
".......XX                           X...........",
".......XX                           X...........",
".........X     XXXXXXX              X...........",
"..........XXXXX...X               XX............",
"..........XXXXX...X               XX............",
"................XX          XX    XX............",
"...............X           X      XX............",
"...............X           X      XX............",
".............XX          XX      X..............",
"............X            XX      X..............",
"............X            XX      X..............",
"............X      XX    XX      X..............",
"..........XX      X      XX    XX...............",
"..........XX      X      XX    XX...............",
"..........XX      X     X      XX...............",
"..........XX      X     X     X.................",
"..........XX      X     X     X.................",
".........X      XX      X     X.................",
".........X                    X.................",
".........X                    X.................",
".........X                    X.................",
".........X                    X.................",
".........X                    X.................",
"..........XX                   XX...............",
"..........XX                   XX...............",
"..........XX                   XX...............",
"............X                    X..............",
".........XXXX   XXXXXXXXXXXXXX   XXXXXX.........",
".........XXXX   XXXXXXXXXXXXXX   XXXXXX.........",
".......XX                              X........",
".......XX                              X........",
".......XX                              X........",
".......XXXXXXXXXXXXXXXXXXXXXXXXXXXXXXXXX........",
"................................................",
"................................................",
};
