/* XPM */
/* This file was automatically generated from the file ../MB.V32
using the program ``zic2xpm''.

    NOTICE: The piece images distributed with ZIICS are
        copyrighted works of their original creators.  Images
        converted with zic2xpm may not be redistributed without
        the permission of the copyright holders.  Do not contact
        the authors of zic2xpm or of ZIICS itself to request
        permission. */
static char * image_name[] = {
"32 32 4 1",
"X	c white s light_piece",
" 	c black s dark_piece",
"*	c gray s light_square",
".	c green s dark_square",
"................................",
"................       .........",
"..............  XXXXXX .........",
"......         XXXXXXXX ........",
"..... XXXXXXXXXXXXXXXXX ........",
"....  X  XXXXXXXX   XXX ........",
".... XX XXXXXXXX   XXXXX .......",
".... XXXXXXXXXXXXXXXXXXX .......",
"..... XXXXXXXXXXXXXXXXXX .......",
"..... XXXXXXXXXXXXXXXXXX .......",
"...... XXX     XXXXXXXXX .......",
".......   .. XXXXXXXXXX ........",
"........... XXXXXXX XXX ........",
".......... XXXXXXX XXXX ........",
"......... XXXXXXX XXXX .........",
"........ XXXXXXXX XXXX .........",
"........ XXXX XXX XXXX .........",
"....... XXXX XXXX XXX ..........",
"....... XXXX XXX XXXX ..........",
"....... XXXX XXX XXX ...........",
"...... XXXX XXXX XXX ...........",
"...... XXXXXXXXXXXXX ...........",
"...... XXXXXXXXXXXXX ...........",
"...... XXXXXXXXXXXXX ...........",
"....... XXXXXXXXXXXXX ..........",
"....... XXXXXXXXXXXXX ..........",
"........ XXXXXXXXXXXXX .........",
"......   XX         XX    ......",
"..... XXXXXXXXXXXXXXXXXXXX .....",
"..... XXXXXXXXXXXXXXXXXXXX .....",
".....                      .....",
"................................",
};
