/* XPM */
/* This file was automatically generated from the file ../MB.V40
using the program ``zic2xpm''.

    NOTICE: The piece images distributed with ZIICS are
        copyrighted works of their original creators.  Images
        converted with zic2xpm may not be redistributed without
        the permission of the copyright holders.  Do not contact
        the authors of zic2xpm or of ZIICS itself to request
        permission. */
static char * image_name[] = {
"40 40 4 1",
"X	c white s light_piece",
" 	c black s dark_piece",
"*	c gray s light_square",
".	c green s dark_square",
"........................................",
"....................        ............",
".................   XXXXXXX ............",
".......           XXXXXXXXXX  ..........",
".......           XXXXXXXXXX  ..........",
"...... XXXXXXXXXXXXXXXXXXXXX  ..........",
".....  X   XXXXXXXXXX    XXX  ..........",
"..... XX  XXXXXXXXXX   XXXXXXX .........",
"..... XXXXXXXXXXXXXXXXXXXXXXXX .........",
"..... XXXXXXXXXXXXXXXXXXXXXXXX .........",
"...... XXXXXXXXXXXXXXXXXXXXXXX .........",
"...... XXXXXXXXXXXXXXXXXXXXXXX .........",
"....... XXXX      XXXXXXXXXXXX .........",
"........    ... XXXXXXXXXXXX  ..........",
"........    ... XXXXXXXXXXXX  ..........",
".............  XXXXXXXX  XXX  ..........",
"............ XXXXXXXXX XXXXX  ..........",
"........... XXXXXXXXX XXXXX ............",
".......... XXXXXXXXXX XXXXX ............",
".......... XXXXXXXXXX XXXXX ............",
".......... XXXXX XXXX XXXXX ............",
"........  XXXXX XXXXX XXXX .............",
"........  XXXXX XXXX XXXXX .............",
"........  XXXXX XXXX XXXX ..............",
"........  XXXXX XXXX XXXX ..............",
"....... XXXXX  XXXXX XXXX ..............",
"....... XXXXXXXXXXXXXXXXX ..............",
"....... XXXXXXXXXXXXXXXXX ..............",
"....... XXXXXXXXXXXXXXXXX ..............",
"....... XXXXXXXXXXXXXXXXX ..............",
"........  XXXXXXXXXXXXXXXX .............",
"........  XXXXXXXXXXXXXXXX .............",
".......... XXXXXXXXXXXXXXXX ............",
".......    XX            XX     ........",
".......    XX            XX     ........",
"...... XXXXXXXXXXXXXXXXXXXXXXXXX .......",
"...... XXXXXXXXXXXXXXXXXXXXXXXXX .......",
"......                           .......",
"........................................",
"........................................",
};
