/* XPM */
/* This file was automatically generated from the file ../MB.V56
using the program ``zic2xpm''.

    NOTICE: The piece images distributed with ZIICS are
        copyrighted works of their original creators.  Images
        converted with zic2xpm may not be redistributed without
        the permission of the copyright holders.  Do not contact
        the authors of zic2xpm or of ZIICS itself to request
        permission. */
static char * image_name[] = {
"56 56 4 1",
"X	c white s light_piece",
" 	c black s dark_piece",
"*	c gray s light_square",
".	c green s dark_square",
"........................................................",
"............................            ................",
"............................            ................",
"........................    XXXXXXXXXX  ................",
"........................    XXXXXXXXXX  ................",
"..........                XXXXXXXXXXXXXX  ..............",
"..........                XXXXXXXXXXXXXX  ..............",
"........  XXXXXXXXXXXXXXXXXXXXXXXXXXXXXX  ..............",
".......   XX   XXXXXXXXXXXXXX      XXXXX  ..............",
".......   XX   XXXXXXXXXXXXXX      XXXXX  ..............",
"....... XXXX  XXXXXXXXXXXXXX     XXXXXXXXX .............",
"....... XXXX  XXXXXXXXXXXXXX     XXXXXXXXX .............",
"....... XXXXXXXXXXXXXXXXXXXXXXXXXXXXXXXXXX .............",
"....... XXXXXXXXXXXXXXXXXXXXXXXXXXXXXXXXXX .............",
"........  XXXXXXXXXXXXXXXXXXXXXXXXXXXXXXXX .............",
"........  XXXXXXXXXXXXXXXXXXXXXXXXXXXXXXXX .............",
"........  XXXXXXXXXXXXXXXXXXXXXXXXXXXXXXXX .............",
"..........  XXXXX         XXXXXXXXXXXXXXXX .............",
"..........  XXXXX         XXXXXXXXXXXXXXXX .............",
"............     .... XXXXXXXXXXXXXXXXXX  ..............",
"............     .... XXXXXXXXXXXXXXXXXX  ..............",
"...................  XXXXXXXXXXXX  XXXXX  ..............",
".................  XXXXXXXXXXXX  XXXXXXX  ..............",
".................  XXXXXXXXXXXX  XXXXXXX  ..............",
"...............  XXXXXXXXXXXX  XXXXXXX  ................",
"...............  XXXXXXXXXXXX  XXXXXXX  ................",
".............. XXXXXXXXXXXXXX  XXXXXXX  ................",
".............. XXXXXXXXXXXXXX  XXXXXXX  ................",
".............. XXXXXXX  XXXXX  XXXXXXX  ................",
"............  XXXXXXX XXXXXXX  XXXXX  ..................",
"............  XXXXXXX XXXXXXX  XXXXX  ..................",
"............  XXXXXXX XXXXXX XXXXXXX  ..................",
"............  XXXXXXX XXXXXX XXXXXXX  ..................",
"............  XXXXXXX XXXXXX XXXXXX ....................",
"............  XXXXXXX XXXXXX XXXXXX ....................",
"..........  XXXXXXX  XXXXXXX XXXXXX ....................",
"..........  XXXXXXXXXXXXXXXXXXXXXXX ....................",
"..........  XXXXXXXXXXXXXXXXXXXXXXX ....................",
"..........  XXXXXXXXXXXXXXXXXXXXXXX ....................",
"..........  XXXXXXXXXXXXXXXXXXXXXXX ....................",
"..........  XXXXXXXXXXXXXXXXXXXXXXX ....................",
"..........  XXXXXXXXXXXXXXXXXXXXXXX ....................",
"............  XXXXXXXXXXXXXXXXXXXXXX  ..................",
"............  XXXXXXXXXXXXXXXXXXXXXX  ..................",
"............  XXXXXXXXXXXXXXXXXXXXXX  ..................",
".............. XXXXXXXXXXXXXXXXXXXXXXX  ................",
".............. XXXXXXXXXXXXXXXXXXXXXXX  ................",
"..........     XXXX                XXX       ...........",
"..........     XXXX                XXX       ...........",
"........  XXXXXXXXXXXXXXXXXXXXXXXXXXXXXXXXXXX  .........",
"........  XXXXXXXXXXXXXXXXXXXXXXXXXXXXXXXXXXX  .........",
"........  XXXXXXXXXXXXXXXXXXXXXXXXXXXXXXXXXXX  .........",
"........                                       .........",
"........                                       .........",
"........................................................",
"........................................................",
};
