/* XPM */
/* This file was automatically generated from the file ../MB.V56
using the program ``zic2xpm''.

    NOTICE: The piece images distributed with ZIICS are
        copyrighted works of their original creators.  Images
        converted with zic2xpm may not be redistributed without
        the permission of the copyright holders.  Do not contact
        the authors of zic2xpm or of ZIICS itself to request
        permission. */
static char * image_name[] = {
"56 56 4 1",
"X	c white s light_piece",
" 	c black s dark_piece",
"*	c gray s light_square",
".	c green s dark_square",
"........................................................",
"........................................................",
"........................................................",
"........................................................",
"........................................................",
"........................................................",
"........................................................",
"........................................................",
"........................................................",
"........................................................",
"........................................................",
"........................................................",
"........................................................",
"........................................................",
"........................................................",
"........................................................",
"........................................................",
"........................XXXXXXX.........................",
"........................XXXXXXX.........................",
"......................XX       XX.......................",
"......................XX       XX.......................",
".....................X      X    XX.....................",
"...................XX       XXX    X....................",
"...................XX       XXX    X....................",
"...................XX              X....................",
"...................XX              X....................",
"...................XX              X....................",
"...................XX              X....................",
".....................X           XX.....................",
".....................XXX       XXXX.....................",
".....................XXX       XXXX.....................",
"......................XX       XX.......................",
"......................XX       XX.......................",
"......................XX       XX.......................",
"......................XX       XX.......................",
".....................X           XX.....................",
".....................X           XX.....................",
".....................X           XX.....................",
".....................X           XX.....................",
".....................X           XX.....................",
"...................XX              X....................",
"...................XX              X....................",
"...................XX              X....................",
"...............XXXX                 XXXX................",
"...............XXXX                 XXXX................",
"..............X       XXXXXXXXXXX       XX..............",
"..............X       XXXXXXXXXXX       XX..............",
"............XX                            X.............",
"............XX                            X.............",
"............XX                            X.............",
"............XXXXXXXXXXXXXXXXXXXXXXXXXXXXXXX.............",
"............XXXXXXXXXXXXXXXXXXXXXXXXXXXXXXX.............",
"........................................................",
"........................................................",
"........................................................",
"........................................................",
};
