/* XPM */
/* This file was automatically generated from the file ../MB.V48
using the program ``zic2xpm''.

    NOTICE: The piece images distributed with ZIICS are
        copyrighted works of their original creators.  Images
        converted with zic2xpm may not be redistributed without
        the permission of the copyright holders.  Do not contact
        the authors of zic2xpm or of ZIICS itself to request
        permission. */
static char * image_name[] = {
"48 48 4 1",
"X	c white s light_piece",
" 	c black s dark_piece",
"*	c gray s light_square",
".	c green s dark_square",
"************************************************",
"************************************************",
"************************************************",
"************************************************",
"************************************************",
"************************************************",
"************************************************",
"************************************************",
"************************************************",
"************************************************",
"************************************************",
"************************************************",
"************************************************",
"************************************************",
"************************************************",
"*********************XXXXXX*********************",
"*******************XX      X********************",
"*******************XX      X********************",
"******************X     X   XX******************",
"****************XX      XXX   X*****************",
"****************XX      XXX   X*****************",
"****************XX            X*****************",
"****************XX            X*****************",
"****************XX            X*****************",
"******************X         XX******************",
"******************XXX      XXX******************",
"******************XXX      XXX******************",
"*******************XX      X********************",
"*******************XX      X********************",
"*******************XX      X********************",
"******************X         XX******************",
"******************X         XX******************",
"******************X         XX******************",
"******************X         XX******************",
"****************XX            X*****************",
"****************XX            X*****************",
"****************XX            X*****************",
"*************XXX               XXX**************",
"*************XXX               XXX**************",
"************X      XXXXXXXXX      XX************",
"**********XX                        X***********",
"**********XX                        X***********",
"**********XX                        X***********",
"**********XXXXXXXXXXXXXXXXXXXXXXXXXXX***********",
"**********XXXXXXXXXXXXXXXXXXXXXXXXXXX***********",
"************************************************",
"************************************************",
"************************************************",
};
