/* XPM */
/* This file was automatically generated from the file ../MB.V56
using the program ``zic2xpm''.

    NOTICE: The piece images distributed with ZIICS are
        copyrighted works of their original creators.  Images
        converted with zic2xpm may not be redistributed without
        the permission of the copyright holders.  Do not contact
        the authors of zic2xpm or of ZIICS itself to request
        permission. */
static char * image_name[] = {
"56 56 4 1",
"X	c white s light_piece",
" 	c black s dark_piece",
"*	c gray s light_square",
".	c green s dark_square",
"........................................................",
"............  ....... ...... ...... .......  ...........",
"............  ....... ...... ...... .......  ...........",
"............   ....  X  ..  X  ..  X  ....   ...........",
"............   ....  X  ..  X  ..  X  ....   ...........",
"............  X  ..  X  ..  X  ..  X  ..  X  ...........",
"............  X  ..  X  ..  X  ..  X  ..  X  ...........",
"..........  XXX  ..  X  ..  X  ..  X  ..  XXX  .........",
"..........  XXX  ..  X  ..  X  ..  X  ..  XXX  .........",
"..........  XXX  ..  X  ..  X  ..  X  ..  XXX  .........",
"..........  XXX  ..  X  ..  X  ..  X  ..  XXX  .........",
"..........  XXX  ..  X  ..  X  ..  X  ..  XXX  .........",
"..........  XXXXX  XXX  ..  X  ..  XXX  XXXXX  .........",
"..........  XXXXX  XXX  ..  X  ..  XXX  XXXXX  .........",
"..........  XXXXX  XXXXX  XXXXX  XXXXX  XXXXX  .........",
"..........  XXXXXXXXXXXX  XXXXX  XXXXXXXXXXXX  .........",
"..........  XXXXXXXXXXXX  XXXXX  XXXXXXXXXXXX  .........",
"..........  XXXXXXXXXXXX  XXXXX  XXXXXXXXXXXX  .........",
"..........  XXXXXXXXXXXX  XXXXX  XXXXXXXXXXXX  .........",
"..........  XXXXXXXXXXXXXXXXXXXXXXXXXXXXXXXXX  .........",
"..........  XXXXXXXXXXXXXXXXXXXXXXXXXXXXXXXXX  .........",
"..........  XXXXXXXXXXXXXXXXXXXXXXXXXXXXXXXXX  .........",
"..........  XXXXXXXXXXXXXXXXXXXXXXXXXXXXXXXXX  .........",
"..........  XXXXXXXXXXXXXXXXXXXXXXXXXXXXXXXXX  .........",
"............  XXXXXXXXXXXXXXXXXXXXXXXXXXXXX  ...........",
"............  XXXXXXXXXXXXXXXXXXXXXXXXXXXXX  ...........",
"............  XXXXXXXXXXXXXXXXXXXXXXXXXXXXX  ...........",
"............  XXXXXXXXXXXXXXXXXXXXXXXXXXXXX  ...........",
"............  XXXXXXXXXXXXXXXXXXXXXXXXXXXXX  ...........",
".............. XXXXXXXXXXXXXXXXXXXXXXXXXXX .............",
".............. XXXXXXXXXXXXXXXXXXXXXXXXXXX .............",
".............. XXXXXXXXXXXXXXXXXXXXXXXXXXX .............",
".............. XXXXXXXXXXXXXXXXXXXXXXXXXXX .............",
"...............  XXXXXXXXXXXXXXXXXXXXXXX  ..............",
"...............  XXXXXXXXXXXXXXXXXXXXXXX  ..............",
".................  XXXXXXXXXXXXXXXXXXX  ................",
"...................  XXXXXXXXXXXXXXX  ..................",
"...................  XXXXXXXXXXXXXXX  ..................",
"..................... XXXXXXXXXXXXX ....................",
"..................... XXXXXXXXXXXXX ....................",
"..................... XXXXXXXXXXXXX ....................",
"..................... XXXXXXXXXXXXX ....................",
"..................... XXXXXXXXXXXXX ....................",
"..................... XXXXXXXXXXXXX ....................",
"..................... XXXXXXXXXXXXX ....................",
"..................... XXXXXXXXXXXXX ....................",
"..................... XXXXXXXXXXXXX ....................",
"............          XXXXXXXXXXXXX          ...........",
"............          XXXXXXXXXXXXX          ...........",
"..........  XXXXXXXXXXXXXXXXXXXXXXXXXXXXXXXXX  .........",
"..........  XXXXXXXXXXXXXXXXXXXXXXXXXXXXXXXXX  .........",
"..........  XXXXXXXXXXXXXXXXXXXXXXXXXXXXXXXXX  .........",
"..........                                     .........",
"..........                                     .........",
"........................................................",
"........................................................",
};
