/* XPM */
/* This file was automatically generated from the file ../MB.V32
using the program ``zic2xpm''.

    NOTICE: The piece images distributed with ZIICS are
        copyrighted works of their original creators.  Images
        converted with zic2xpm may not be redistributed without
        the permission of the copyright holders.  Do not contact
        the authors of zic2xpm or of ZIICS itself to request
        permission. */
static char * image_name[] = {
"32 32 4 1",
"X	c white s light_piece",
" 	c black s dark_piece",
"*	c gray s light_square",
".	c green s dark_square",
"********************************",
"******* **** *** *** **** ******",
"*******  ** X * X * X **  ******",
"******* X * X * X * X * X ******",
"****** XX * X * X * X * XX *****",
"****** XX * X * X * X * XX *****",
"****** XX * X * X * X * XX *****",
"****** XXX XX * X * XX XXX *****",
"****** XXX XXX XXX XXX XXX *****",
"****** XXXXXXX XXX XXXXXXX *****",
"****** XXXXXXX XXX XXXXXXX *****",
"****** XXXXXXXXXXXXXXXXXXX *****",
"****** XXXXXXXXXXXXXXXXXXX *****",
"****** XXXXXXXXXXXXXXXXXXX *****",
"******* XXXXXXXXXXXXXXXXX ******",
"******* XXXXXXXXXXXXXXXXX ******",
"******* XXXXXXXXXXXXXXXXX ******",
"******** XXXXXXXXXXXXXXX *******",
"******** XXXXXXXXXXXXXXX *******",
"********* XXXXXXXXXXXXX ********",
"********** XXXXXXXXXXX *********",
"*********** XXXXXXXXX **********",
"************ XXXXXXX ***********",
"************ XXXXXXX ***********",
"************ XXXXXXX ***********",
"************ XXXXXXX ***********",
"************ XXXXXXX ***********",
"*******      XXXXXXX      ******",
"****** XXXXXXXXXXXXXXXXXXX *****",
"****** XXXXXXXXXXXXXXXXXXX *****",
"******                     *****",
"********************************",
};
