/* XPM */
/* This file was automatically generated from the file ../ULYSSES.V40
using the program ``zic2xpm''.

    NOTICE: The piece images distributed with ZIICS are
        copyrighted works of their original creators.  Images
        converted with zic2xpm may not be redistributed without
        the permission of the copyright holders.  Do not contact
        the authors of zic2xpm or of ZIICS itself to request
        permission. */
static char * image_name[] = {
"40 40 4 1",
"X	c white s light_piece",
" 	c black s dark_piece",
"*	c gray s light_square",
".	c green s dark_square",
"****************************************",
"****************************************",
"****************************************",
"******************** *******************",
"******************** *******************",
"**********     ***     ***     *********",
"********  XXXXX  *** ***  XXXXX  *******",
"******  XXXXXXXXX ** ** XXXXXXXXX  *****",
"***** XXXXXXXXXXXX * * XXXXXXXXXXXX ****",
"**** XXXXXXXXXXXXXX   XXXXXXXXXXXXXX ***",
"**** XXXXXXXXXXXXXXX XXXXXXXXXXXXXXX ***",
"**** XXXXXXXXXXXXXXX XXXXXXXXXXXXXXX ***",
"*** XXXXXXXXXXXXXXXX XXXXXXXXXXXXXXXX **",
"*** XXXXXXXXXXXXXXXX XXXXXXXXXXXXXXXX **",
"*** XXXXXXXXXXXXXXXX XXXXXXXXXXXXXXXX **",
"*** XXXXXXXXXXXXXXXX XXXXXXXXXXXXXXXX **",
"*** XXXXXXXXXXXXXXXX XXXXXXXXXXXXXXXX **",
"*** XXXXXXXXXXXXXXXX XXXXXXXXXXXXXXXX **",
"*** XXXXXXXXXXXXXXXX XXXXXXXXXXXXXXXX **",
"*** XXXXXXXXXXXXXXXX XXXXXXXXXXXXXXXX **",
"**** XXXXXXXXXXXXXXX XXXXXXXXXXXXXXX ***",
"***** XXXXXXXXXXXXXX XXXXXXXXXXXXXX ****",
"***** XXXXXXXXXXXXXX XXXXXXXXXXXXXX ****",
"****** XXXXXXXXXXXXX XXXXXXXXXXXXX *****",
"******* XXXXXXXXXXXX XXXXXXXXXXXX ******",
"********  XXXXXXXXXX XXXXXXXXXX  *******",
"**********                     *********",
"********** XXXXXXXXXXXXXXXXXXX *********",
"********* XXXXXXXXXXXXXXXXXXXXX ********",
"********* XXXXXXXXXXXXXXXXXXXXX ********",
"********* X  XXXXX     XXXXX  X ********",
"*********  XXXXXXXXXXXXXXXXXXX  ********",
"********* XXXXXXXXXXXXXXXXXXXXX ********",
"********* XXXXXXXXXXXXXXXXXXXXX ********",
"********* X                   X ********",
"*********  XXXXXXXXXXXXXXXXXXX  ********",
"********** XXXXXXXXXXXXXXXXXXX *********",
"***********                   **********",
"****************************************",
"****************************************",
};
