/* XPM */
/* This file was automatically generated from the file ../ULYSSES.V48
using the program ``zic2xpm''.

    NOTICE: The piece images distributed with ZIICS are
        copyrighted works of their original creators.  Images
        converted with zic2xpm may not be redistributed without
        the permission of the copyright holders.  Do not contact
        the authors of zic2xpm or of ZIICS itself to request
        permission. */
static char * image_name[] = {
"48 48 4 1",
"X	c white s light_piece",
" 	c black s dark_piece",
"*	c gray s light_square",
".	c green s dark_square",
"................................................",
"................................................",
"................................................",
"........................  ......................",
"........................ X  ....................",
"........................ XXX  ..................",
"........................ XXXXX .................",
"........................ XXXXXX ................",
"....................... XXXXXXXX  ..............",
"...................... XXXXXXXXXXX  ............",
"..................... XXXXXXXXXXXXXX ...........",
".................... XXXXXXXXXXXXXXX ...........",
"................... XXXXXXXXXXXXXXXXX ..........",
".................. XXXXXXXXXXXXXXXXXXX .........",
"................. XXXXXXXXXXXXXXXXXXXXX ........",
"................ XXX  XXXXXXXXXXXXXXXXXX .......",
"..............  XXXXXXXXXXXXXXXXXXXXXXXX .......",
"............. XXXXXXXXXXXXXXXXXXXXXXXXXXX ......",
"............ XXXXXXXXXXXXXXXXXXXXXXXXXXXX ......",
"........... XXXXXXXXXXXXXXXXXXXXXXXXXXXXX ......",
".......... XXXXXXXXXXXXXXXXXXXXXXXXXXXXXXX .....",
"......... XXXXXXXXXXXXXXXXXXXXXXXXXXXXXXXX .....",
"........ XXXXXXXXXXXXXXXXXXXXXXXXXXX XXXXX .....",
"....... XXXXXXXXXXXXXXXXXXXXXXXXXX  XXXXXX .....",
"...... XXXXXXXXXXXXXXXXXXXXXXX    XXXXXXXX .....",
"..... XXXXXXXXXXXXXXXXX       .  XXXXXXXXXX ....",
"...... XXXXXXXXXX      ......  XXXXXXXXXXXX ....",
"....... XXXXX    ..........  XXXXXXXXXXXXXX ....",
"........ XXX ............  XXXXXXXXXXXXXXXX ....",
".........   ...........  XXXXXXXXXXXXXXXXXX ....",
"...................... XXXXXXXXXXXXXXXXXXXX ....",
"....................  XXXXXXXXXXXXXXXXXXXXX ....",
"..................  XXXXXXXXXXXXXXXXXXXXXXX ....",
"................  XXXXXXXXXXXXXXXXXXXXXXXXXX ...",
"..............  XXXXXXXXXXXXXXXXXXXXXXXXXXXX ...",
"............  XXXXXXXXXXXXXXXXXXXXXXXXXXXXXX ...",
"..........  XXXXXXXXXXXXXXXXXXXXXXXXXXXXXXXX ...",
"......... XXXXXXXXXXXXXXXXXXXXXXXXXXXXXXXXXX ...",
"........ XXXXXXXXXXXXXXXXXXXXXXXXXXXXXXXXXXX ...",
"....... XXXXXXXXXXXXXXXXXXXXXXXXXXXXXXXXXXXX ...",
"...... XXXXXXXXXXXXXXXXXXXXXXXXXXXXXXXXXXXXX ...",
"...... XXXXXXXXXXXXXXXXXXXXXXXXXXXXXXXXXXXXXX ..",
"..... XXXXXXXXXXXXXXXXXXXXXXXXXXXXXXXXXXXXXXX ..",
"..... XXXXXXXXXXXXXXXXXXXXXXXXXXXXXXXXXXXXXXX ..",
"..... XXXXXXXXXXXXXXXXXXXXXXXXXXXXXXXXXXXXXXX ..",
".....                                         ..",
"................................................",
"................................................",
};
