/* XPM */
/* This file was automatically generated from the file ../ULYSSES.V48
using the program ``zic2xpm''.

    NOTICE: The piece images distributed with ZIICS are
        copyrighted works of their original creators.  Images
        converted with zic2xpm may not be redistributed without
        the permission of the copyright holders.  Do not contact
        the authors of zic2xpm or of ZIICS itself to request
        permission. */
static char * image_name[] = {
"48 48 4 1",
"X	c white s light_piece",
" 	c black s dark_piece",
"*	c gray s light_square",
".	c green s dark_square",
"************************************************",
"************************************************",
"************************************************",
"**************** ***************** *************",
"**************** ***************** *************",
"****************  ***************  *************",
"****************  ***************  *************",
"**************** X ************* X *************",
"**************** X ************* X *************",
"**************** XX *********** XX *************",
"**************** XX *********** XX *************",
"**************** XXX ********* XXX *************",
"**************** XXX ********* XXX *************",
"*** *********** XXXXX ******* XXXXX *********** ",
"**** ********** XXXXX ******* XXXXX ********** *",
"****   ******** XXXXX ******* XXXXX ********   *",
"***** X ******* XXXXXX ***** XXXXXX ******* X **",
"***** XX ****** XXXXXX ***** XXXXXX ****** XX **",
"****** XX  **** XXXXXXX *** XXXXXXX ****  XX ***",
"******* XXX *** XXXXXXX *** XXXXXXX *** XXX ****",
"******* XXXX ** XXXXXXXX * XXXXXXXX ** XXXX ****",
"******** XXXX   XXXXXXXX * XXXXXXXX   XXXX *****",
"******** XXXXXX XXXXXXXXX XXXXXXXXX XXXXXX *****",
"********* XXXXXXXXXXXXXXX XXXXXXXXXXXXXXX ******",
"********* XXXXXXXXXXXXXXXXXXXXXXXXXXXXXXX ******",
"********** XXXXXXXXXXXXXXXXXXXXXXXXXXXXX *******",
"*********** XXXXXXXXXXXXXXXXXXXXXXXXXXX ********",
"*********** XXXXXXXXXXXXXXXXXXXXXXXXXXX ********",
"************ XXXXXXXXXXXXXXXXXXXXXXXXX *********",
"************ XXXXXXXXXXXXXXXXXXXXXXXXX *********",
"************* XXXXXXXXXXXXXXXXXXXXXXX **********",
"*************                         **********",
"************ XXXXXXXXXXXXXXXXXXXXXXXXX *********",
"*********** XXXXXXXXXXXXXXXXXXXXXXXXXXX ********",
"*********** XXXXXXXXXXXXXXXXXXXXXXXXXXX ********",
"*********** XXXXXXXXXXXXXXXXXXXXXXXXXXX ********",
"*********** X   XXXXXX       XXXXXX   X ********",
"***********  XXXXXXXXXXXXXXXXXXXXXXXXX  ********",
"*********** XXXXXXXXXXXXXXXXXXXXXXXXXXX ********",
"*********** XXXXXXXXXXXXXXXXXXXXXXXXXXX ********",
"*********** XXXXXXXXXXXXXXXXXXXXXXXXXXX ********",
"*********** XX                       XX ********",
"***********   XXXXXXXXXXXXXXXXXXXXXXX   ********",
"************ XXXXXXXXXXXXXXXXXXXXXXXXX *********",
"************* XXXXXXXXXXXXXXXXXXXXXXX **********",
"**************                       ***********",
"************************************************",
"************************************************",
};
