/* XPM */
static char *magick[] = {
/* columns rows colors chars-per-pixel */
"40 40 2 1",
"  c black",
". c background",
/* pixels */
"........................................",
"........................................",
"...................  ...................",
"...................  ...................",
".................... ...................",
"..........  ....... ........  ..........",
"..........  .......  .......  ..........",
"........... .......  ....... ...........",
"........... .......  ....... ...........",
"........... .......  ....... ...........",
"...........  ......  ......  ...........",
".  ........  ......  ......  ...........",
".  ........  ......  ......  .......  ..",
".. ........   .....  .....   .......  ..",
"... .......   ....    ....   ....... ...",
"... .......   ....    ....   ...... ....",
"...  ......   ....    ....   ...... ....",
"...   .....    ...    ...    .....  ....",
"....  .....    ...    ...    ....   ....",
"....   ....    ...    ...    ....   ....",
"....    ...     ..    ..     ...    ....",
"....    ...     ..    ..     ...    ....",
"....     ..     ..    ..     ..     ....",
"....      .                  .     .....",
".....     .                  .     .....",
".....                              .....",
".....                              .....",
".....                              .....",
".....            ......            .....",
"......   ........      ........   ......",
"......  .         ....         .  ......",
"....... ....       ..       .... .......",
".......  ..      ......      ..  .......",
"........ ........      ........ ........",
"........                        ........",
".......                          .......",
".......                          .......",
"........................................",
"........................................",
"........................................"
};
