/* XPM */
/* This file was automatically generated from the file ../HASTINGS.V48
using the program ``zic2xpm''.

    NOTICE: The piece images distributed with ZIICS are
        copyrighted works of their original creators.  Images
        converted with zic2xpm may not be redistributed without
        the permission of the copyright holders.  Do not contact
        the authors of zic2xpm or of ZIICS itself to request
        permission. */
static char * image_name[] = {
"48 48 4 1",
"X	c white s light_piece",
" 	c black s dark_piece",
"*	c gray s light_square",
".	c green s dark_square",
"................................................",
"................................................",
"................................................",
"................................................",
".................. .. ..........................",
"................. X  X .........................",
"................. XX XX ........................",
"................. XX XXX .......................",
"................. XXXXXXX    ...................",
"................. XXXXXXXXXXX  .................",
"................. XXXXXXXXXXXXX  ...............",
"................. XXXXXXXXXXXXXXX ..............",
"................ XXXXXXXXXXXXXXXXX .............",
"................ XXXXXXXXXXXX XXXXX ............",
"............... XXXXXXXXXXXXX X XXXX ...........",
".............. XXXX   XXXXXXX X XXXXX ..........",
".............. XXX   XXXXXXXX X X XXXX .........",
"............. XXXXXXXXXXXXXXX X X XXXXX ........",
"............. X XXXXXXXXXXXXX X X XXXXX ........",
"............ XX XXXXXXXXXXXXX X X XXXXXX .......",
"........... XX XXXXXXXXXXXXX XX X XXXXXX .......",
"........... X XXXXXXXXXXXXXX X XX XXXXXXX ......",
".......... XX XXXXXXXXXXXXX XX X XXXXXXXX ......",
".......... X XXXXXXXXXXXXX XX XX XXXXXXXX ......",
"......... XX XXXXXXXXXXX  XX XX XXXXXXXXXX .....",
"........ XX XXXXXX XXX .. XXXX XXXXXXXXXXX .....",
"........ XXXXXXXXXX   ... XXXXXXXXXXXXXXXX .....",
"........ XXXXXXXX  ...... XXXXXXXXXXXXXXXX .....",
"........ XXXX XX ........ XXXXXXXXXXXXXXXXX ....",
"......... XX XX ........ XXXXXXXXXXXXXXXXXX ....",
"..........   X ......... XXXXXXXXXXXXXXXXXX ....",
"............. ......... XXXXXXXXXXXXXXXXXXX ....",
"...................... XXXXXXXXXXXXXXXXXXXX ....",
"..................... XXXXXXXXXXXXXXXXXXXXX ....",
".................... XXXXXXXXXXXXXXXXXXXXXXX ...",
"................... XXXXXXXXXXXXXXXXXXXXXXXX ...",
".................. XXXXXXXXXXXXXXXXXXXXXXXXX ...",
"................. XXXXXXXXXXXXXXXXXXXXXXXXXX ...",
"................ XXXXXXXXXXXXXXXXXXXXXXXXXXX ...",
"................ XXXXXXXXXXXXXXXXXXXXXXXXXXX ...",
"............... XXXXXXXXXXXXXXXXXXXXXXXXXXXX ...",
"............... XXXXXXXXXXXXXXXXXXXXXXXXXXXX ...",
"............... XXXXXXXXXXXXXXXXXXXXXXXXXXXX ...",
"...............                              ...",
"................................................",
"................................................",
"................................................",
"................................................",
};
