/* XPM */
/* This file was automatically generated from the file ../HASTINGS.V48
using the program ``zic2xpm''.

    NOTICE: The piece images distributed with ZIICS are
        copyrighted works of their original creators.  Images
        converted with zic2xpm may not be redistributed without
        the permission of the copyright holders.  Do not contact
        the authors of zic2xpm or of ZIICS itself to request
        permission. */
static char * image_name[] = {
"48 48 4 1",
"X	c white s light_piece",
" 	c black s dark_piece",
"*	c gray s light_square",
".	c green s dark_square",
"................................................",
"................................................",
"................................................",
"................................................",
"................................................",
"...........       ...         ...       ........",
"........... XXXXX ... XXXXXXX ... XXXXX ........",
"........... XXXXX ... XXXXXXX ... XXXXX ........",
"........... XXXXX     XXXXXXX     XXXXX ........",
"........... XXXXXXXXXXXXXXXXXXXXXXXXXXX ........",
"...........  XXXXXXXXXXXXXXXXXXXXXXXXX  ........",
"............  XXXXXXXXXXXXXXXXXXXXXXX  .........",
".............                         ..........",
"............... XXXXXXXXXXXXXXXXXXX ............",
"............... XXXXXXXXXXXXXXXXXXX ............",
"............... XXXXX XXXXXXXX XXXX ............",
"............... XXXXX XXXXXXXX XXXX ............",
"............... XXXXX XXXXXXXX XXXX ............",
"............... X                 X ............",
"............... XXXXXXXXXXXXXXXXXXX ............",
"............... XXXXXXXXX XXXXXXXXX ............",
"............... XXXXXXXXX XXXXXXXXX ............",
"............... XXXXXXXXX XXXXXXXXX ............",
"............... X                 X ............",
"............... XXXXXXXXXXXXXXXXXXX ............",
"............... XXXXX XXXXXXXX XXXX ............",
"............... XXXXX XXXXXXXX XXXX ............",
"............... XXXXX XXXXXXXX XXXX ............",
"............... X                 X ............",
"............... XXXXXXXXXXXXXXXXXXX ............",
"............... XXXXXXXXX XXXXXXXXX ............",
"............... XXXXXXXXX XXXXXXXXX ............",
"............... XXXXXXXXX XXXXXXXXX ............",
".............                         ..........",
"............  XXXXXXXXXXXXXXXXXXXXXXX  .........",
"............ XXXXXXXXXXXXXXXXXXXXXXXXX .........",
"............ XXXXXXXXXXXXXXXXXXXXXXXXX .........",
"...........                             ........",
"..........  XXXXXXXXXXXXXXXXXXXXXXXXXXX  .......",
".......... XXXXXXXXXXXXXXXXXXXXXXXXXXXXX .......",
".......... XXXXXXXXXXXXXXXXXXXXXXXXXXXXX .......",
".......... XXXXXXXXXXXXXXXXXXXXXXXXXXXXX .......",
"..........                               .......",
"................................................",
"................................................",
"................................................",
"................................................",
"................................................",
};
