/* XPM */
/* This file was automatically generated from the file ../ACZ1.V32
using the program ``zic2xpm''.

    NOTICE: The piece images distributed with ZIICS are
        copyrighted works of their original creators.  Images
        converted with zic2xpm may not be redistributed without
        the permission of the copyright holders.  Do not contact
        the authors of zic2xpm or of ZIICS itself to request
        permission. */
static char * image_name[] = {
"32 32 4 1",
"X	c white s light_piece",
" 	c black s dark_piece",
"*	c gray s light_square",
".	c green s dark_square",
"********************************",
"********************************",
"********************************",
"***************  *  ************",
"************** XX XX ***********",
"************* XXXX  X **********",
"************ XXXXXX X **********",
"*********** XXXXXXX XX *********",
"********** XXXX XXXX X *********",
"********** XXXX XXXX XX ********",
"********* XXXXX XXXXX XX *******",
"********* XXX     XXX XX *******",
"******** XXXX     XXXX XX ******",
"******** XXXXXX XXXXXXXXX ******",
"******** XXXXXX XXXXXXXXX ******",
"******** XXXXXX XXXXXXXXX ******",
"******** XXXXXXXXXXXXXXXX ******",
"********* XXXXXXXXXXXXXX *******",
"********* XXXXXXXXXXXXXX *******",
"********* XXXXXXXXXXXXX ********",
"********** XXXXXXXXXXXX ********",
"*********** XX      XX *********",
"************ XXXXXXXX **********",
"************* X    X ***********",
"***********  XXXXXXXX  *********",
"*********** XX      XX *********",
"***********  XXXXXXXX  *********",
"***************   **************",
"******     XX*XXXXX*XX     *****",
"***** XXXXX *X X*X X* XXXXX ****",
"*****       *********       ****",
"********************************",
};
