/* XPM */
/* This file was automatically generated from the file ../ACZ1.V32
using the program ``zic2xpm''.

    NOTICE: The piece images distributed with ZIICS are
        copyrighted works of their original creators.  Images
        converted with zic2xpm may not be redistributed without
        the permission of the copyright holders.  Do not contact
        the authors of zic2xpm or of ZIICS itself to request
        permission. */
static char * image_name[] = {
"32 32 4 1",
"X	c white s light_piece",
" 	c black s dark_piece",
"*	c gray s light_square",
".	c green s dark_square",
"********************************",
"********************************",
"********************************",
"**************X**X**************",
"***************XX***************",
"***************XX***************",
"**************X**X**************",
"*******     ***XX***     *******",
"*****  XXXXX **XX** XXXXX  *****",
"**** XXXXXXXX      XXXXXXXX ****",
"*** XXXXXXXXXXXXXXXXXXXXXXXX ***",
"*** XXX      XXXXXX      XXX ***",
"**  XX XXXXXX XXXX XXXXXX XX ***",
"** XXXXX XXXXXXXXXXXXXX XXXXX **",
"** XXXXXXXX XX XX XX XXXXXXXX **",
"** XX X X XX XXXXXX XX X X XX **",
"** XXXXX XX XXXXXXXX XX XXXXX **",
"** XXXX X XXXXXXXXXXXX X XXXX **",
"** XX XXXX XXXXXXXXXX XXXX XX **",
"** XXXXX XX XX XX XX XX XXXXX **",
"*** XXXX  XXXXXXXXXXXX  XXXX ***",
"*** XX XXXXXX XXXX XXXXXX XX ***",
"**** XX      XXXXXX      XX ****",
"***** XXXXXXXXXXXXXXXXXXXX *****",
"******  XXXXXXXXXXXXXXXX  ******",
"******** XX          XX ********",
"******* XXXXXXXXXXXXXXXX *******",
"******* X              X *******",
"******* XXXXXXXXXXXXXXXX *******",
"********                ********",
"********************************",
"********************************",
};
