/* XPM */
/* This file was automatically generated from the file ../ACZ1.V32
using the program ``zic2xpm''.

    NOTICE: The piece images distributed with ZIICS are
        copyrighted works of their original creators.  Images
        converted with zic2xpm may not be redistributed without
        the permission of the copyright holders.  Do not contact
        the authors of zic2xpm or of ZIICS itself to request
        permission. */
static char * image_name[] = {
"32 32 4 1",
"X	c white s light_piece",
" 	c black s dark_piece",
"*	c gray s light_square",
".	c green s dark_square",
"********************************",
"************** *** *************",
"************* X * X ************",
"************  XX XX   **********",
"*********** XXXXXXXXXX *********",
"********** XXXXXXXXXXXX  *******",
"********* XXXXXXXXXXXXXXX ******",
"******** XXX  XXXXXXXXXXX ******",
"******* XXX  XXXXX   XXXXX *****",
"****** XXX  * XXX XXX XXXX *****",
"***** XXXXXX XXXXXXXX XXXXX ****",
"**** XXXXXXXXXXXXXXXXXXXXXXX ***",
"*** XXXXXXXXXXXXXXXXXXXXXXXX ***",
"*** XXXXXXXXXXXXXXXXXXXX XXX ***",
"** XXXXXXXXXXXXXXXXXXXXXX XX ***",
"** XXXXXXXXXXXXXXXXXXXXXX XXX **",
"** XXXXXXXXX XXXXXXXXXXXX XXX **",
"*** XX**XXX *XXXXXXXXXXXX XXX **",
"****  *XXX ** XXXXXXXXXXX XXX **",
"*******   ***XXXXXXXXXXXX XXX **",
"***********  XXXXXXXXXXXX XXX **",
"********** XXXXXXXXXXXXX XXXX **",
"********* XXXXXXXXXXXXXXXXXX ***",
"******* XXXXXXXXXXXXXXXXXXXXX **",
"****** XXXXXXXXXXXXXXXXXXXXXX **",
"***** XXX******************XXX *",
"***** XXXXXXXXXXXXXXXXXXXXXXXX *",
"***** XX********************XX *",
"***** XXXXXXXXXXXXXXXXXXXXXXXX *",
"***** XXXXXXXXXXXXXXXXXXXXXXXX *",
"******                        **",
"********************************",
};
