/* XPM */
/* This file was automatically generated from the file ../BUGZ.V48
using the program ``zic2xpm''.

    NOTICE: The piece images distributed with ZIICS are
        copyrighted works of their original creators.  Images
        converted with zic2xpm may not be redistributed without
        the permission of the copyright holders.  Do not contact
        the authors of zic2xpm or of ZIICS itself to request
        permission. */
static char * image_name[] = {
"48 48 4 1",
"X	c white s light_piece",
" 	c black s dark_piece",
"*	c gray s light_square",
".	c green s dark_square",
"************************************************",
"************************XX**XXX*****************",
"************************XX**XXX*****************",
"*************************X**XXX*****************",
"**********************XXXX*X**X*****************",
"**********************XXXX*X**X*****************",
"*********************XXXXXXX**XX****************",
"*********************XXXXXXX***X****************",
"********************XXXXXXXXXX**X***************",
"********************XXXX**XXXX**X***************",
"*******************XXXXX**XXXXX*X***************",
"*******************XXXXX**XXXXX*X***************",
"******************XXX*******XXX**X**************",
"******************XXX*******XXXX*X**************",
"******************XXXXXX**XXXXXX*X**************",
"******************XXXXXX**XXXXXX*X**************",
"****************XXXXXXXX**XXXXXXX***************",
"****************XXXXXXXX**XXXXXXX***************",
"****************XXXXXXXXXXXXXXXXX***************",
"****************XXXXXXXXXXXXXXXXX***************",
"****************XXXXXXXXXXXXXXXXX***************",
"****************XXXXXXXXXXXXXXXX****************",
"****************XXXXXXXXXXXXXXXX****************",
"****************XXXXXXXXXXXXXXXX****************",
"******************XXXXXXXXXXXXXX****************",
"******************XXXXXXXXXXXXX*****************",
"*******************XXXXXXXXXXXX*****************",
"*******************X**********X*****************",
"*******************X**********X*****************",
"*******************X**********X*****************",
"********************XXXXXXXXXX******************",
"*********************X****X*********************",
"*******************XXXXXXXXXXXX*****************",
"*******************XX*******XXX*****************",
"*******************XX*******XXX*****************",
"*******************XX*******XXX*****************",
"*******************XXXXXXXXXXXX*****************",
"************************XX**********************",
"**********************XXXXX*********************",
"**********************XXXXX*********************",
"**********XXXXXXXX**XXXX*XXXXX**XXXXXXX*********",
"**********XXXXXXXX**XXXX*XXXXX**XXXXXXX*********",
"********XXXXXXXXXXXXXXXX**XXXXXXXXXXXXXXXX******",
"********XXXX****XXXXX******XXXXXX*****XXXX******",
"********X*******************************XX******",
"************************************************",
"************************************************",
"************************************************",
};
