/* XPM */
/* This file was automatically generated from the file ../BUGZ.V56
using the program ``zic2xpm''.

    NOTICE: The piece images distributed with ZIICS are
        copyrighted works of their original creators.  Images
        converted with zic2xpm may not be redistributed without
        the permission of the copyright holders.  Do not contact
        the authors of zic2xpm or of ZIICS itself to request
        permission. */
static char * image_name[] = {
"56 56 4 1",
"X	c white s light_piece",
" 	c black s dark_piece",
"*	c gray s light_square",
".	c green s dark_square",
"........................................................",
"........................................................",
"..........................XXX...........................",
"..........................XXX...........................",
"..........................XXX...........................",
"....................XXXXXXX.XXXXXXX.....................",
"....................XXXXX.....XXXXX.....................",
"....................XXXXXXX.XXXXXXX.....................",
".......XXXXXXXXX..........X.X..........XXXXXXXXXXX......",
"....XXXXXXXXXXXXXX........X.X.......XXXXXXXXXXXXXXX.....",
"....XXXXXXXXXXXXXX........XXX.......XXXXXXXXXXXXXXX.....",
"....XXXXX......XXXXXX.....XXX......XXXXXXX.....XXXX.....",
"..XXXXXX.XXXXXX.XXXXXX....XXX......XXXX...XXXXX..XXXX...",
"..XXXXXX.XXXXXX.XXXXXX...XXXXX.....XXXX...XXXXX..XXXX...",
"..XXXXX.XXXXXXXX..XXXXXXXXXXXXXXXXXXX..XXXXXXXXXX.XXX...",
"..XXX..XXXXXXXXXXX.XXXXXXXXXXXXXXXXX.XXXXXXXXXXXX.XXX...",
".XXXX..XXXXXXXXXXXX..XXXXXXXXXXXXXXX.XXXXXX...XXX.XXXX..",
".XXXX..XXXXXXXXXXXX..XXXXXX.XXXXXXXX.XXXXXX...XXX.XXXX..",
".XXXX..XX...XXXXXXX..XXXXXX..XXXXXX.XXX.XXX...XXX.XXXX..",
".XXXX..XX...XXX.XXXXX.XXXX...XXXX..XXXXX..X...XXX.XXXX..",
".XXXX..XX...XXX.XXXXX.XXXX...XXXX..XXXXX..X...XXX.XXXX..",
".XXXX..XXXXX..X.XXXXX.XXXXXXXXXXX..XXXXX...XXXXXX.XXXX..",
".XXXX..XXXXX..X.XXXXXX.XXXXXXXXX.XXXXXXX......XXX.XXXX..",
"..XXX..XX.......XXXXXX.XXXXXXXXX.XXXXXXX...XXXXXX.XXX...",
"..XXX..XX.......XXXXXX.XXXXXXXXX.XXXXXXX...XXXXXX.XXX...",
"..XXX..XXXXX....XXXXXX.XXX...XXX.XXXXXXX...XXXXXX.XXX...",
"..XXX..XXXXXXXX.XXXXXXX..XXX.XXX.XXXXXX...XXXXX..XXXX...",
"..XXX..XXXXXXXX.XXXXXXX..XXX.XXX.XXXXXX...XXXXX..XXXX...",
"..XXXXX.XXXXXXX.XXXXXXX..XXXXX..XXXXXXX.XXXXXXX..XXXX...",
"....XXX.XXXXXXXX..XXXXX..XXXXX..XXXXXXX.XXXXXXX..XX.....",
"....XXXX.XXXXXXX..XXXXXXX.XXXX..XXXXX..XXXXXXXX..XX.....",
"....XXXX.XXXXXXX..XXXXXXX.XXXX..XXXXX..XXXXXXXX..XX.....",
"....XXXX.XXXXXXX..XXXXXXX.XX.X..XXXXX..XXXXXXX.XXXX.....",
".....XXXX..XXXXXXX.XXXXXX.XX.X..XXXX.XXXXXXXXX.XXX......",
".....XXXX..XXXXXXX.XXXXXX.XX.X..XXXX.XXXXXXXXX.XXX......",
".......XX..XXXXXXX.XXXXXX.XXXX..XXXXXXXXXXXX..XXX.......",
".......XXXX.XXXXXXXXXXXXX.XXXX..XXXXXXXXXXX.XXXXX.......",
"........XXXX..............XXXX.............XXXX.........",
"........XXXX..............XXXX.............XXXX.........",
".........XXXXXXXXXXXXXXXXXXXXXXXXXXXXXXXXXXXXX..........",
"...........XXXXXXXXXXXXXXXXXXXXXXXXXXXXXXXXX............",
"...........XXXXXXXXXXXXXXXXXXXXXXXXXXXXXXXXX............",
"............XXX.........................XXX.............",
"............XX.XXXXXXXXXXXXXXXXXXXXXXXXX..X.............",
"............XX.XXXXXXXXXX.......XXXXXXXX..X.............",
"............XX.XXXXXXXXXX.......XXXXXXXX..X.............",
"............XX.XXXXXXXXXXXXXXXXXXXXXXXXX..X.............",
"............XX............................X.............",
"............XX............................X.............",
"............XXXXXXXXXXXXXXXXXXXXXXXXXXXXXXX.............",
"........................................................",
"........................................................",
"........................................................",
"........................................................",
"........................................................",
"........................................................",
};
