/* XPM */
/* This file was automatically generated from the file ../BUGZ.V48
using the program ``zic2xpm''.

    NOTICE: The piece images distributed with ZIICS are
        copyrighted works of their original creators.  Images
        converted with zic2xpm may not be redistributed without
        the permission of the copyright holders.  Do not contact
        the authors of zic2xpm or of ZIICS itself to request
        permission. */
static char * image_name[] = {
"48 48 4 1",
"X	c white s light_piece",
" 	c black s dark_piece",
"*	c gray s light_square",
".	c green s dark_square",
"************************************************",
"************************************************",
"**********************XXX***********************",
"**********************XXX***********************",
"*****************XXXXXX*XXXXXX******************",
"*****************XXXX*****XXXX******************",
"*****************XXXXXX*XXXXXX******************",
"******XXXXXXXX********X*X********XXXXXXXXXX*****",
"***XXXXXXXXXXXX*******X*X******XXXXXXXXXXXXX****",
"***XXXXX*****XX*******XXX******XXXXX****XXXX****",
"**XXXXX*XXXXX*XXXXX***XXX*****XXX***XXXX**XXX***",
"**XXXXX*XXXXX*XXXXX**XXXXX****XXX***XXXX**XXX***",
"**XXXX*XXXXXXX*XXXXXXXXXXXXXXXXX*XXXXXXXXX*XX***",
"**XX**XXXXXXXXX*XXXXXXXXXXXXXXX*XXXXXXXXXX*XX***",
"*XXX**XXXXXXXXXX**XXXXXXXXXXXXX*XXXXX**XXX*XXX**",
"*XXX**XX**XXXXXX**XXXXX**XXXXX**X*XXX**XXX*XXX**",
"*XXX**XX**XXX*XXXX*XXX***XXX**XXXX**X**XXX*XXX**",
"*XXX**XX**XXX*XXXX*XXX***XXX**XXXX**X**XXX*XXX**",
"*XXX**XXXX**X*XXXX*XXXXXXXXX**XXXX***XXXXX*XXX**",
"*XXX**XXXX**X*XXXXX*XXXXXXX*XXXXXX*****XXX*XXX**",
"**XX**XX******XXXXX*XXXXXXX*XXXXXX***XXXXX*XX***",
"**XX**XX******XXXXX*XX***XX*XXXXXX***XXXXX*XX***",
"**XX**XXXXXXX*XXXXXX*XXX*XX*XXXXX***XXXX**XXX***",
"**XX**XXXXXXX*XXXXXX*XXX*XX*XXXXX***XXXX**XXX***",
"**XXXX*XXXXXX*XXXXXX*XXXXX*XXXXXX*XXXXXX**XXX***",
"***XXX*XXXXXXX*XXXXX*XXXXX*XXXXXX*XXXXXX**XX****",
"***XXXX*XXXXXX*XXXXXX*XXXX*XXXXX*XXXXXXX**XX****",
"***XXXX*XXXXXX*XXXXXX*XX*X*XXXXX*XXXXXX***XX****",
"****XXXX*XXXXXX*XXXXX*XX*X*XXXX*XXXXXXX*XXX*****",
"****XXXX*XXXXXX*XXXXX*XX*X*XXXX*XXXXXXX*XXX*****",
"******XX*XXXXXX*XXXXX*XXXX*XXXXXXXXXXX*XXX******",
"******XXX*XXXXXXXXXXX*XXXX*XXXXXXXXXX*XXXX******",
"*******XXX************XXXX***********XXX********",
"********XX************XXXX***********XX*********",
"*********XXXXXXXXXXXXXXXXXXXXXXXXXXXXX**********",
"*********XXXXXXXXXXXXXXXXXXXXXXXXXXXXX**********",
"**********XXX*********************XXX***********",
"**********XX*XXXXXXXXXXXXXXXXXXXXX**X***********",
"**********XX*XXXXXXXX******XXXXXXX**X***********",
"**********XX*XXXXXXXX******XXXXXXX**X***********",
"**********XX************************X***********",
"**********XX************************X***********",
"**********XXXXXXXXXXXXXXXXXXXXXXXXXXX***********",
"************************************************",
"************************************************",
"************************************************",
"************************************************",
"************************************************",
};
