/* XPM */
/* This file was automatically generated from the file ../BUGZ.V48
using the program ``zic2xpm''.

    NOTICE: The piece images distributed with ZIICS are
        copyrighted works of their original creators.  Images
        converted with zic2xpm may not be redistributed without
        the permission of the copyright holders.  Do not contact
        the authors of zic2xpm or of ZIICS itself to request
        permission. */
static char * image_name[] = {
"48 48 4 1",
"X	c white s light_piece",
" 	c black s dark_piece",
"*	c gray s light_square",
".	c green s dark_square",
"................................................",
"................................................",
"...................X............................",
"...................X............................",
"................XX.XX...........................",
"................XX.XX...........................",
"................XXXXXXXX........................",
"..................XXXXXXXX......................",
"................XXXXXXXXXXXX....................",
"................XXXXXXXX.XXX....................",
"............XXXX....XXXXX..XXXXXX...............",
"............XXXX....XXXXX..XXXXXX...............",
"..........XXXXX...X..XXXXXX.XXXXXX..............",
".........XXXXXXXXX.XXXXXXXXX...XXXXX............",
"........XXXXXXXXXXXXXXXXXXXXXXX.XXXXX...........",
"........XXXXXXXXXXXXXXXXXXXXXXX..XXXX...........",
"......XXXXXXXXXXXXXXXXXXXXXXXXXXX.XXXX..........",
"......XXXXXXXXXXXXXXXXXXXXXXXXXXX.XXXX..........",
"....XXXXXXXXXXXXXXXXXXXXXXX.XXXXXXXXXXX.........",
"....XXXXXXXXXXXXXXXXXXXXXXX.XXXXXX..XXX.........",
"...XXXXXXXXXXXXXXXXXXXXXX..XXXXXXXXX.XXX........",
"...XXXXXXXXXXXXXXXXX....X..XXX.XXXXX.XXX........",
"..XXXXXXXXXXXX..........XXXX..XXXXXXX.XX........",
"..XXXXXXXXXXXX..........XXXX..XXXXXXX.XX........",
"..X.XXXX..XXX.........XXX..XXXXXXXXXX..XXX......",
"..XXXXX..XXX..........XXXXXXXX..XXXXXX.XXX......",
"..XXXX..XX...........XXX......XXXXXXXX.XXX......",
"........X............XXX......XXXXXXXX.XXX......",
"....................XXXXXXXXXXXXXXXXXX.XXXX.....",
"....................XXXXXXXXXXXXXXXXXX.XXXX.....",
"...................XXXXXXXXXXXXXXXXXXX..XXX.....",
"..................XXXXXXXXXXXXXXXXXXXX..XXX.....",
"..................XXXXXXXXXXXXXXXXXXXX..XXXX....",
"..................XXXXXXXXXXXXXXXXXXXX..XXXX....",
"...............XXXXXXXXXXXXXXXXXXXXXXXX.XXXX....",
"...............XXXXXXXXXXXXXXXXXXXXXXXX.XXXX....",
"..............XXXXXXXXXXXXXXXXXXXXXXXXX.XXXX....",
"..............XXXXXXXXXXXXXXXXXXXXXXXXX.XXXX....",
"..............XXXXXXXXXXXXXXXXXXXXXXXXX.XXXX....",
"..............XXXXXXXXXXXXXXXXXXXXXXXXX.XXXX....",
"............XXXXXXXXXXXXXXXXXXXXXXXXXXX.XXXX....",
"............XXXXXXXXXXXXXXXXXXXXXXXXXXX.XXXX....",
"............XXXXXXXXXXXXXXXXXXXXXXXXXXX.XXXX....",
"..........XXXXXXXXXXXXXXXXXXXXXXXXXXXXX.XXXX....",
"..........XXXXXXXXXXXXXXXXXXXXXXXXXXXXX.XXXX....",
"..........XXXXXXXXXXXXXXXXXXXXXXXXXXXXX.XXXX....",
"................................................",
"................................................",
};
