/* XPM */
/* This file was automatically generated from the file ../BUGZ.V56
using the program ``zic2xpm''.

    NOTICE: The piece images distributed with ZIICS are
        copyrighted works of their original creators.  Images
        converted with zic2xpm may not be redistributed without
        the permission of the copyright holders.  Do not contact
        the authors of zic2xpm or of ZIICS itself to request
        permission. */
static char * image_name[] = {
"56 56 4 1",
"X	c white s light_piece",
" 	c black s dark_piece",
"*	c gray s light_square",
".	c green s dark_square",
"........................................................",
"........................................................",
"..........................XXX...........................",
"..........................XXX...........................",
"..........................XXX...........................",
"............................X...........................",
"............................X...........................",
"..............XX..........XX...........XXX..............",
"..............XX..........XXX..........XXX..............",
"...............X..........XXX..........X................",
"...............X..........XXX..........X................",
"...............X..........XXX..........X................",
"...............X..........XXX..........X................",
"...............X..........XXX..........X................",
"...............XXX........XXX........XXX................",
".XXX...........XXX........XXX........XXX................",
".XXX...........XXX........XXX........XXX..........XXX...",
".XXX...........XXX........XXX........XXX..........XXX...",
"..XX...........XXXX.......XXX.......XXXX..........XXX...",
"....X..........XXXX......XXXXX......XXXX..........X.....",
"....X..........XXXX......XXXXX......XXXX..........X.....",
"....X..........XXXX......XXXXX......XXXX.........X......",
"....XXX........XXXX......XXXXX......XXXX.........X......",
"....XXXX.......XXXXXX....XXXXX.....XXXXX.......XXX......",
"....XXXX.......XXXXXX....XXXXX.....XXXXX.......XXX......",
".....XXX.......XXXXXX....XXXXX.....XXXXX......XXXX......",
".....XXXX......XXXXXX....XXXXX.....XXXXX......XXXX......",
".....XXXX......XXXXXX....XXXXX.....XXXXX......XXXX......",
".....XXXXXX....XXXXXXX...XXXXX...XXXXXXX....XXXXXX......",
".....XXXXXX....XXXXXXX...XXXXX...XXXXXXX....XXXXXX......",
".....XXXXXXX...XXXXXXX...XXXXX...XXXXXXX...XXXXXXX......",
".....XXXXXXX...XXXXXXX...XXXXX...XXXXXXX...XXXXXXX......",
".....XXXXXXXXX.XXXXXXXXXXXXXXXXXXXXXXXXX..XXXXXXX.......",
".......XXXXXXX.XXXXXXXXXXXXXXXXXXXXXXXXX..XXXXXXX.......",
".......XXXXXXX.XXXXXXXXXXXXXXXXXXXXXXXXX..XXXXXXX.......",
".......XXXXXXXXXXXXXXXXXXXXXXXXXXXXXXXXXXXXXXXXXX.......",
".......XXXXXXXXXXXXXXXXXXXXXXXXXXXXXXXXXXXXXXXXXX.......",
".......XXXXXXXXXXXXXXXXXXXXXXXXXXXXXXXXXXXXXXXXXX.......",
".......XXXXXXXXXXXXXXXXXXXXXXXXXXXXXXXXXXXXXXXXXX.......",
".......XXXXXXXXXXXXXXXX.........XXXXXXXXXXXXXXXXX.......",
"........XXXX...........XXXXXXXXX...........XXXX.........",
"........XXXX...........XXXXXXXXX...........XXXX.........",
"........XXX.XXXXXXXXXXXXX.....XXXXXXXXXXXXX.XXX.........",
".........XX.....XXXXXXXXXX...XXXXXXXXXX.....XX..........",
".........XXX...XXXXXXXX.........XXXXXXXX...XXX..........",
".........XXX...XXXXXXXX.........XXXXXXXX...XXX..........",
"...........X...........XXXXXXXXX...........X............",
"...........XXXXXXXXXXXXXXXXXXXXXXXXXXXXXXXXX............",
"...........XXXXXXXXXXXXXXXXXXXXXXXXXXXXXXXXX............",
".........XXXXXXXXXXXXXXXXXXXXXXXXXXXXXXXXXXXXX..........",
".........XXXXXXXXXXXXXXXXXXXXXXXXXXXXXXXXXXXXX..........",
"........................................................",
"........................................................",
"........................................................",
"........................................................",
"........................................................",
};
