/* XPM */
/* This file was automatically generated from the file ../BUGZ.V56
using the program ``zic2xpm''.

    NOTICE: The piece images distributed with ZIICS are
        copyrighted works of their original creators.  Images
        converted with zic2xpm may not be redistributed without
        the permission of the copyright holders.  Do not contact
        the authors of zic2xpm or of ZIICS itself to request
        permission. */
static char * image_name[] = {
"56 56 4 1",
"X	c white s light_piece",
" 	c black s dark_piece",
"*	c gray s light_square",
".	c green s dark_square",
"........................................................",
".........................XXXXXXXX.......................",
".........XXXXXXX.........XXXXXXXX.......XXXXXXX.........",
".........XXXXXXX.........XXXXXXXX.......XXXXXXX.........",
".........XXXXXXX.........XXXXXXXX.......XXXXXXX.........",
".........XXXXXXX.........XXXXXXXX.......XXXXXXX.........",
".........XXXXXXX.........XXXXXXXX.......XXXXXXX.........",
".........XXXXXXXXXXXXXXXXXXXXXXXXXXXXXXXXXXXXXX.........",
".........XX...................................X.........",
".........XXXXXXXXXXXXX.XXXXXXXXXX..XXXXXXXXXXXX.........",
".........XXXXXXXXXXXXX.XXXXXXXXXX..XXXXXXXXXXXX.........",
"...............XXXXXXX.XXXXXXXXXX..XXXXXXXX.............",
"...............XXXXXXX.XXXXXXXXXX..XXXXXXXX.............",
"...............XXXXXXX.XXXXXXXXXX..XXXXXXXX.............",
"...............XXXXXXX.XXXXXXXXXX..XXXXXXXX.............",
"...............XXXXXXX.XXXXXXXXXX..XXXXXXXX.............",
"...............XXXXXXX.XXXXXXXXXX..XXXXXXXX.............",
"...............XXXXXXX.XXXXXXXXXX..XXXXXXXX.............",
"...............X..........................X.............",
"...............XXXXXXXXXXXXX.XXXXXXXXXXXXXX.............",
"...............XXXXXXXXXXXXX.XXXXXXXXXXXXXX.............",
"...............XXXXXXXXXXXXX.XXXXXXXXXXXXXX.............",
"...............XXXXXXXXXXXXX.XXXXXXXXXXXXXX.............",
"...............XXXXXXXXXXXXX.XXXXXXXXXXXXXX.............",
"...............XXXXXXXXXXXXX.XXXXXXXXXXXXXX.............",
"...............XXXXXXXXXXXXX.XXXXXXXXXXXXXX.............",
"...............X..........................X.............",
"...............X..........................X.............",
"...............XXXXXXX.XXXXXXXXXX..XXXXXXXX.............",
"...............XXXXXXX.XXXXXXXXXX..XXXXXXXX.............",
"...............XXXXXXX.XXXXXXXXXX..XXXXXXXX.............",
"...............XXXXXXX.XXXXXXXXXX..XXXXXXXX.............",
"...............XXXXXXX.XXXXXXXXXX..XXXXXXXX.............",
"...............XXXXXXX.XXXXXXXXXX..XXXXXXXX.............",
"...............XXXXXXX.XXXXXXXXXX..XXXXXXXX.............",
"...............X..........................X.............",
"...............XXXXXXXXXXXXX.XXXXXXXXXXXXXX.............",
"...............XXXXXXXXXXXXX.XXXXXXXXXXXXXX.............",
"...............XXXXXXXXXXXXX.XXXXXXXXXXXXXX.............",
"...............XXXXXXXXXXXXX.XXXXXXXXXXXXXX.............",
"...............XXXXXXXXXXXXX.XXXXXXXXXXXXXX.............",
"...............XXXXXXXXXXXXX.XXXXXXXXXXXXXX.............",
"...............XXXXXXXXXXXXX.XXXXXXXXXXXXXX.............",
"...............XXXXXXXXXXXXX.XXXXXXXXXXXXXX.............",
"...............X..........................X.............",
"...............X..........................X.............",
"............XXX............................XXX..........",
"............XX..............................XX..........",
"............XX..............................XX..........",
"...........XXXXXXXXXXXXXXXXXXXXXXXXXXXXXXXXXXXX.........",
".........XX....................................XX.......",
".........XX....................................XX.......",
".........XX....................................XX.......",
".........XXXXXXXXXXXXXXXXXXXXXXXXXXXXXXXXXXXXXXXX.......",
"........................................................",
"........................................................",
};
