/* XPM */
/* This file was automatically generated from the file ../BUGZ.V48
using the program ``zic2xpm''.

    NOTICE: The piece images distributed with ZIICS are
        copyrighted works of their original creators.  Images
        converted with zic2xpm may not be redistributed without
        the permission of the copyright holders.  Do not contact
        the authors of zic2xpm or of ZIICS itself to request
        permission. */
static char * image_name[] = {
"48 48 4 1",
"X	c white s light_piece",
" 	c black s dark_piece",
"*	c gray s light_square",
".	c green s dark_square",
"*********************XXXXXXX********************",
"********XXXXXX*******XXXXXXX******XXXXXX********",
"********XXXXXX*******XXXXXXX******XXXXXX********",
"********XXXXXX*******XXXXXXX******XXXXXX********",
"********XXXXXX*******XXXXXXX******XXXXXX********",
"********XXXXXXXXXXXXXXXXXXXXXXXXXXXXXXXX********",
"********X******************************X********",
"********XXXXXXXXXXX*XXXXXXXX**XXXXXXXXXX********",
"********XXXXXXXXXXX*XXXXXXXX**XXXXXXXXXX********",
"*************XXXXXX*XXXXXXXX**XXXXXXX***********",
"*************XXXXXX*XXXXXXXX**XXXXXXX***********",
"*************XXXXXX*XXXXXXXX**XXXXXXX***********",
"*************XXXXXX*XXXXXXXX**XXXXXXX***********",
"*************XXXXXX*XXXXXXXX**XXXXXXX***********",
"*************XXXXXX*XXXXXXXX**XXXXXXX***********",
"*************X**********************X***********",
"*************XXXXXXXXXXX*XXXXXXXXXXXX***********",
"*************XXXXXXXXXXX*XXXXXXXXXXXX***********",
"*************XXXXXXXXXXX*XXXXXXXXXXXX***********",
"*************XXXXXXXXXXX*XXXXXXXXXXXX***********",
"*************XXXXXXXXXXX*XXXXXXXXXXXX***********",
"*************X**********************X***********",
"*************X**********************X***********",
"*************XXXXXX*XXXXXXXX**XXXXXXX***********",
"*************XXXXXX*XXXXXXXX**XXXXXXX***********",
"*************XXXXXX*XXXXXXXX**XXXXXXX***********",
"*************XXXXXX*XXXXXXXX**XXXXXXX***********",
"*************XXXXXX*XXXXXXXX**XXXXXXX***********",
"*************XXXXXX*XXXXXXXX**XXXXXXX***********",
"*************X**********************X***********",
"*************XXXXXXXXXXX*XXXXXXXXXXXX***********",
"*************XXXXXXXXXXX*XXXXXXXXXXXX***********",
"*************XXXXXXXXXXX*XXXXXXXXXXXX***********",
"*************XXXXXXXXXXX*XXXXXXXXXXXX***********",
"*************XXXXXXXXXXX*XXXXXXXXXXXX***********",
"*************XXXXXXXXXXX*XXXXXXXXXXXX***********",
"*************XXXXXXXXXXX*XXXXXXXXXXXX***********",
"*************X**********************X***********",
"**********XXXX**********************XXX*********",
"**********XX**************************X*********",
"**********XX**************************X*********",
"*********XXXXXXXXXXXXXXXXXXXXXXXXXXXXXXX********",
"********X*******************************XX******",
"********X*******************************XX******",
"********XXXXXXXXXXXXXXXXXXXXXXXXXXXXXXXXXX******",
"************************************************",
"************************************************",
"************************************************",
};
