/* XPM */
/* This file was automatically generated from the file ../DDG_SL.V56
using the program ``zic2xpm''.

    NOTICE: The piece images distributed with ZIICS are
        copyrighted works of their original creators.  Images
        converted with zic2xpm may not be redistributed without
        the permission of the copyright holders.  Do not contact
        the authors of zic2xpm or of ZIICS itself to request
        permission. */
static char * image_name[] = {
"56 56 4 1",
"X	c white s light_piece",
" 	c black s dark_piece",
"*	c gray s light_square",
".	c green s dark_square",
"********************************************************",
"******************************XX**XX********************",
"******************************XX**XX********************",
"*****************************XXX**XX********************",
"*****************************XXX*XXX********************",
"*****************************XXX*XXX********************",
"****************************XXXXXX**********************",
"****************************XXXXXX**X*******************",
"***************************XXXXXXX**X*******************",
"**************************XXXXXXXX**X*******************",
"*************************XXXXXXXXX**XX******************",
"************************XXXXXXXXXXX**X******************",
"***********************XXXXXX***XXX**XX*****************",
"***********************XXXXXX***XXXX**X*****************",
"*********************XXXXXXXX***XXXX**X*****************",
"********************XXXXXX********XXX**X****************",
"********************XXXXXX********XXX**X****************",
"*******************XXXXXXXXXX***XXXXXX*X****************",
"*******************XXXXXXXXXX***XXXXXXXX****************",
"*******************XXXXXXXXXX***XXXXXXXX****************",
"*******************XXXXXXXXXX***XXXXXXX*****************",
"*******************XXXXXXXXXX***XXXXXXX*****************",
"*******************XXXXXXXXXXXXXXXXXXXX*****************",
"*******************XXXXXXXXXXXXXXXXXXXX*****************",
"*******************XXXXXXXXXXXXXXXXXXXX*****************",
"*******************XXXXXXXXXXXXXXXXXXX******************",
"*******************XXXXXXXXXXXXXXXXXX*******************",
"*******************XXXXXXXXXXXXXXXXXX*******************",
"********************XXXXXXXXXXXXXXXXX*******************",
"********************XXXXXXXXXXXXXXXX********************",
"*********************XXXXXXXXXXXXXXX********************",
"*********************XXXXXXXXXXXXXXX********************",
"***********************XXXXXXXXXXXXX********************",
"***********************XX*******************************",
"***********************XXXXXXXXXXXXX********************",
"***********************XXXXXXXXXXXXX********************",
"**************************XX****************************",
"**************************XX****************************",
"**************************XX****************************",
"***********************XXXXXXXXXXXXX********************",
"***********************XX*******************************",
"***********************XXXXXXXXXXXXX********************",
"***********************XXXXXXXXXXXXX********************",
"***************************XXXXXX***********************",
"**************************XXXXXXXX**********************",
"**************************XXXXXXXX**********************",
"*************************XXXXXXXXXX*********************",
"*************************XXXXXXXXXX*********************",
"************************XXXXXXXXXXXX********************",
"***********************XXXXXXXXXXXXXX*******************",
"******************XXXXXXXXXXXXXXXXXXXXXXX***************",
"****************XXXXXXXXXXXXXXXXXXXXXXXXXXX*************",
"**************XXXXXXX*****************XXXXXXXX**********",
"**************XXXXXXX*****************XXXXXXXX**********",
"**************XXXXXXXXXXXXXXXXXXXXXXXXXXXXXXXX**********",
"**************XXXXXXXXXXXXXXXXXXXXXXXXXXXXXXXX**********",
};
