/* XPM */
/* This file was automatically generated from the file ../DDG_SL.V56
using the program ``zic2xpm''.

    NOTICE: The piece images distributed with ZIICS are
        copyrighted works of their original creators.  Images
        converted with zic2xpm may not be redistributed without
        the permission of the copyright holders.  Do not contact
        the authors of zic2xpm or of ZIICS itself to request
        permission. */
static char * image_name[] = {
"56 56 4 1",
"X	c white s light_piece",
" 	c black s dark_piece",
"*	c gray s light_square",
".	c green s dark_square",
"********************************************************",
"***************************X****************************",
"***************************X****************************",
"*************************XXXXX**************************",
"***************************X****************************",
"***************************X****************************",
"************************XXXXXXX*************************",
"************************XX***XX*************************",
"*****XXXXXXXXX**********XX*X*XX*******XXXXXXXXXXXX******",
"*****XXXXXXXXXX*********XX*X*XX*******XXXXXXXXXXXX******",
"**XXXXXXXXXXXXXX********XX*X*XX*****XXXXXXXXXXXXXXXX****",
"**XXXXXX*****XXXXXX*****XX*X*XX****XXXXXX*******XXXX****",
"**XXXXXX*****XXXXXX*****XX*X*XX***XXXXXXX*******XXXX****",
"*XXXXX**XXXXX**XXXXX****XX***XX***XXXX***XXXXXXX*XXXX***",
"*XXXX*XXXXXXXXX*XXXXXXX*XXXXXX***XXXX*XXXXXXXXXXX*XXX***",
"*XXX*XXXXXXXXXXX**XXXXX**XXXX***XXX**XXXXXXXXXXXX*XXX***",
"*XXX*XXXXXXXXXXX**XXXXX**XXXX**XXXX**XXXXXXXXXXXX*XXX***",
"*XXX*XXXXXXXXXXXXX*XXXXXXXXXXXXXXXX**XXXXX***XXXX*XXXX**",
"*XXX*XXX***XXXXXXX*XXXXXXXX*XXXXXX*XXX**XX***XXXX*XXXX**",
"*XXX*XXX***XXXXXXX*XXXXXXXX*XXXXXX*XXX**XX***XXXX**XXX**",
"*XXX*XXX***XX**XXXX*XXXXXX**XXXXX*XXXXXX*X***XXXXX*XXX**",
"*XXX*XXXXXX*X**XXXX*XXXXXXXXXXXXX*XXXXXX**XXXXXXXX*XXX**",
"*XXX*XXXXXX*X**XXXX*XXXXXXXXXXXXX*XXXXXX**XXXXXXXX*XXX**",
"*XXX*XXXXXX*X**XXXXX***XXXXXXXX**XXXXXXX*****XXXXX*XXX**",
"*XXX*XXXXXX*X**XXXXX***XXXXXXXX**XXXXXXX*****XXXXX*XXX**",
"*XXX*XXX*******XXXXX***XXXXXXXX**XXXXXXX**XXXXXXX*XXXX**",
"*XXX*XXXXXX****XXXXX***XXX**XXX**XXXXXXX**XXXXXXX*XXXX**",
"*XXX*XXXXXX****XXXXX***XXX**XXX**XXXXXXX**XXXXXXX*XXX***",
"*XXX*XXXXXXXX**XXXXXXXX*XXX*XXX**XXXXX***XXXXXXX*XXXX***",
"*XXXX*XXXXXXX**XXXXXXXX*XXXXXX*XXXXXXX**XXXXXXXX*XXXX***",
"**XXX*XXXXXXXXX*XXXXXXX*XXXXXX*XXXXXXX**XXXXXXXX*XXX****",
"**XXX*XXXXXXXXX*XXXXXXX*XXXXXX*XXXXXXX**XXXXXXXX*XXX****",
"**XXXX**XXXXXXX*XXXXXXXX**XXXX*XXXXXX*XXXXXXXXXX*XXX****",
"**XXXX**XXXXXXX*XXXXXXXX**X*XX*XXXXXX*XXXXXXX***XXXX****",
"**XXXX**XXXXXXX*XXXXXXXX**X*XX*XXXXXX*XXXXXXX***XXXX****",
"****XXXX*XXXXXXX**XXXXXX**X*XX*XXXX**XXXXXXXX***XX******",
"*****XXX*XXXXXXX**XXXXXX**XXXX*XXXXXXXXXXXXX*XXXX*******",
"*****XXXX**XXXXXXXXXXXXX**XXXX*XXXXXXXXXXX**XXXXX*******",
"*****XXXX**XXXXXXXXXXXXX**XXXX*XXXXXXXXXXX**XXXXX*******",
"******XXXXX***************XXXX************XXXXXX********",
"********XXXXXXXXXXXXXXXXXXXXXXXXXXXXXXXXXXXXX***********",
"********XXXXXXXXXXXXXXXXXXXXXXXXXXXXXXXXXXXXX***********",
"*********XXXXXXXXXXXXXXXXXXXXXXXXXXXXXXXXXXX************",
"***********XX***************************XX**************",
"***********XX***************************XX**************",
"***********X*XXXXXXXXXXXXXXXXXXXXXXXXXXX*X**************",
"***********X*XXXXXXXXXXXXXXXXXXXXXXXXXXX*X**************",
"***********X*XXXXXXXXXXX*******XXXXXXXXX*X**************",
"***********X*XXXXXXXXXXXXXXXXXXXXXXXXXXX*X**************",
"***********X*XXXXXXXXXXXXXXXXXXXXXXXXXXX*X**************",
"***********X*****************************X**************",
"***********XXXXXXXXXXXXXXXXXXXXXXXXXXXXXXX**************",
"********************************************************",
"********************************************************",
"********************************************************",
"********************************************************",
};
