/* XPM */
/* This file was automatically generated from the file ../DDG_SL.V40
using the program ``zic2xpm''.

    NOTICE: The piece images distributed with ZIICS are
        copyrighted works of their original creators.  Images
        converted with zic2xpm may not be redistributed without
        the permission of the copyright holders.  Do not contact
        the authors of zic2xpm or of ZIICS itself to request
        permission. */
static char * image_name[] = {
"40 40 4 1",
"X	c white s light_piece",
" 	c black s dark_piece",
"*	c gray s light_square",
".	c green s dark_square",
"*....*....*....*....*....*....*....*....",
"....*....*....*....*....*....*....*....*",
"...*....*....*....*....*....*....*....*.",
"..*....*....*....*XXXX*....*....*....*..",
".*....*....*....*.XXXX....*....*....*...",
"*....*....XXX..*....X....*..XXX....*....",
"....*....*XXX.*....XX...*...XXX...*....*",
"...*....*.XXX*....*XX..*....XXX..*....*.",
"..*....*....X....*.XX.*....*X...*....*..",
".*....*....*X...*..XX*....*.X..*....*...",
"*....*....*.X..*...XXX...*.XX.*....*....",
".XX.*....*..XX*....XXX..*..XX*....*....*",
".XX*....*...XX....*XXX.*...XXX...*....*.",
".XX....*....XXX..*.XXX*...XXXX..*...XX..",
".*.X..*....*XXX.*.XXXXX...XXXX.*....XX..",
"*..XX*....*.XXX*..XXXXX..*XXXX*....*XX..",
"...XX....*..XXX...XXXXX.*.XXXX....*X...*",
"...XX...*...XXX...XXXXX*..XXXX...*.X..*.",
"..*.XX.*....XXX..*XXXXX..XXXXX..*.XX.*..",
".*..XX*....*XXX.*.XXXXX..XXXXX.*.XXX*...",
"*...XXXX..*.XXXX..XXXXX..XXXXX*..XXX....",
"....XXXX.*..XXXX..XXXXX.*XXXXX..XXXX...*",
"...*XXXX*...XXXX..XXXXX*.XXXXX..XXXX..*.",
"..*.XXXXXX..XXXX.*XXXXX..XXXXX.XXXXX.*..",
".*..XXXXXXX*XXXXXXXXXXXXXXXXXX.XXXXX*...",
"*....XXXXXX.XXXXXXXXXXXXXXXXXX*XXXX*....",
"....*XXXXXXXXXXXXXXXXXXXXXXXXXXXXXX....*",
"...*.XXXXXXXXXXXXXX...XXXXXXXXXXXXX...*.",
"..*..XXXXXXXXX...*....*...XXXXXXXXX..*..",
".*....XXXX.*....*XXXXXX...*....XXXX.*...",
"*....*..X.*.XXXXXXX.*XXXXXXXX.*.X..*....",
"....*...X*..XXXXXX.*..XXXXXXX*..X.*....*",
"...*....X..XXXXXXX*...XXXXXXXX..X*....*.",
"..*....*XX..*XX..*XXXX*...XX...X*....*..",
".*....*.XX.*....*XXXXXX...*....X....*...",
"*....*..XXXXX..XXXXXXXXXXX..XXXXX..*....",
"....*...XXXXXXXXXXXXXXXXXXXXXXXXX.*....*",
"...*....XXXXXXXXXXXXXXXXXXXXXXXXX*....*.",
"..*....*....*....*....*....*....*....*..",
".*....*....*....*....*....*....*....*...",
};
