/* XPM */
/* This file was automatically generated from the file ../DDG_SL.V56
using the program ``zic2xpm''.

    NOTICE: The piece images distributed with ZIICS are
        copyrighted works of their original creators.  Images
        converted with zic2xpm may not be redistributed without
        the permission of the copyright holders.  Do not contact
        the authors of zic2xpm or of ZIICS itself to request
        permission. */
static char * image_name[] = {
"56 56 4 1",
"X	c white s light_piece",
" 	c black s dark_piece",
"*	c gray s light_square",
".	c green s dark_square",
"********************************************************",
"********************************************************",
"********************************************************",
"*************************XXXXX**************************",
"*************************XXXXX**************************",
"*************************XXXXX**************************",
"**************************X*****************************",
"*************XXXXX*********XX**********XXXX*************",
"*************XXXXX********XXX**********XXXX*************",
"*************XXXXX********XXX**********XXXX*************",
"****************X*********XXX***********X***************",
"****************XX********XXX**********XX***************",
"****************XX********XXX**********XX***************",
"****************XX********XXX********XXXX***************",
"****************XX********XXXX*******XXXX***************",
"*XXX************XXX*******XXXX*******XXXX***************",
"*XXX************XXX*******XXXX*******XXXX***************",
"*XXX************XXXX******XXXX******XXXXX*********XXX***",
"**XX************XXXX******XXXX******XXXXX*********XXX***",
"***XX***********XXXX*****XXXXXX*****XXXXX*********XXX***",
"****X***********XXXX*****XXXXXX*****XXXXX*********XXX***",
"****XX**********XXXXX****XXXXXX*****XXXXX*******XXX*****",
"****XX**********XXXXX****XXXXXX*****XXXXX*******XXX*****",
"****XX**********XXXXX****XXXXXX*****XXXXX*******XX******",
"****XXX*********XXXXX****XXXXXX****XXXXXX******XXX******",
"*****XXX********XXXXX****XXXXXX****XXXXXX******XXX******",
"*****XXX********XXXXX****XXXXXX****XXXXXX*****XXXX******",
"*****XXXX*******XXXXXX***XXXXXX****XXXXXX*****XXXX******",
"*****XXXXX******XXXXXX***XXXXXX***XXXXXXX****XXXXX******",
"*****XXXXXX*****XXXXXX***XXXXXX***XXXXXXX***XXXXXX******",
"*****XXXXXX*****XXXXXX***XXXXXX***XXXXXXX***XXXXXX******",
"*****XXXXXXX****XXXXXX***XXXXXX***XXXXXXX***XXXXXX******",
"*****XXXXXXXX***XXXXXX***XXXXXX***XXXXXXX**XXXXXXX******",
"*****XXXXXXXXXX*XXXXXXXXXXXXXXXXXXXXXXXXX**XXXXXXX******",
"******XXXXXXXXX*XXXXXXXXXXXXXXXXXXXXXXXXX**XXXXXXX******",
"******XXXXXXXXX*XXXXXXXXXXXXXXXXXXXXXXXXX**XXXXXX*******",
"******XXXXXXXXXXXXXXXXXXXXXXXXXXXXXXXXXXXXXXXXXXX*******",
"******XXXXXXXXXXXXXXXXXXXX****XXXXXXXXXXXXXXXXXXX*******",
"******XXXXXXXXXXXXXXXXX*********XXXXXXXXXXXXXXXXX*******",
"*******XXXXXXXXXXXX*****************XXXXXXXXXXXXX*******",
"********XXXXX**********XXXXXXXXX***********XXXXX********",
"********XXXXX********XXXXXXXXXXXXX*********XXXX*********",
"**********XX****XXXXXXXXXX***XXXXXXXXXXX****XX**********",
"**********XX****XXXXXXXXX*****XXXXXXXXXX****XX**********",
"**********XX***XXXXXXXXXX*****XXXXXXXXXXX***XX**********",
"**********XXX**XXXXXXXX*********XXXXXXXXX**XXX**********",
"**********XXX*****XX*****XXXXX******XX*****X************",
"***********XX**********XXXXXXXXX***********X************",
"***********XXXXXX*****XXXXXXXXXXXX******XXXX************",
"**********XXXXXXXX**XXXXXXXXXXXXXXXX***XXXXXXX**********",
"**********XXXXXXXXXXXXXXXXXXXXXXXXXXXXXXXXXXXX**********",
"**********XXXXXXXXXXXXXXXXXXXXXXXXXXXXXXXXXXXX**********",
"********************************************************",
"********************************************************",
"********************************************************",
"********************************************************",
};
