/* XPM */
/* This file was automatically generated from the file ../SOLID.V40
using the program ``zic2xpm''.

    NOTICE: The piece images distributed with ZIICS are
        copyrighted works of their original creators.  Images
        converted with zic2xpm may not be redistributed without
        the permission of the copyright holders.  Do not contact
        the authors of zic2xpm or of ZIICS itself to request
        permission. */
static char * image_name[] = {
"40 40 4 1",
"X	c white s light_piece",
" 	c black s dark_piece",
"*	c gray s light_square",
".	c green s dark_square",
"........................................",
"....................XX..XX..............",
"....................XX..XX..............",
".....................X.XXX..............",
"...................XXX.X X..............",
"..................XXXXXX XX.............",
"..................XXXXXX  X.............",
".................XXXXXXXX  X............",
"................XXXX  XXX  X............",
"................XXXX  XXXX X............",
"...............XXX      XX  X...........",
"...............XXX      XXX X...........",
"...............XXXXX  XXXXX X...........",
"..............XXXXXX  XXXXXXX...........",
"..............XXXXXX  XXXXXX............",
"..............XXXXXXXXXXXXXX............",
"..............XXXXXXXXXXXXXX............",
"..............XXXXXXXXXXXXXX............",
"..............XXXXXXXXXXXXX.............",
"..............XXXXXXXXXXXXX.............",
"...............XXXXXXXXXXXX.............",
"...............XXXXXXXXXXX..............",
"................XXXXXXXXXX..............",
"................X        X..............",
"................X        X..............",
".................XXXXXXXX...............",
"..................X   X.................",
"................XXXXXXXXXX..............",
"................XX      XX..............",
"................XX      XX..............",
"................XXXXXXXXXX..............",
"....................XX..................",
"...................XXXX.................",
"..................XXXXXX................",
".........XXXXXX..XXX.XXXX..XXXXXX.......",
".......XXXXXXXXXXXXX..XXXXXXXXXXXXX.....",
".......XXX....XXXX.....XXXXX....XXX.....",
".......X..........................X.....",
"........................................",
"........................................",
};
