/* XPM */
/* This file was automatically generated from the file ../SOLID.V32
using the program ``zic2xpm''.

    NOTICE: The piece images distributed with ZIICS are
        copyrighted works of their original creators.  Images
        converted with zic2xpm may not be redistributed without
        the permission of the copyright holders.  Do not contact
        the authors of zic2xpm or of ZIICS itself to request
        permission. */
static char * image_name[] = {
"32 32 4 1",
"X	c white s light_piece",
" 	c black s dark_piece",
"*	c gray s light_square",
".	c green s dark_square",
"................X...............",
"...............XX...............",
"................X...............",
"..............XXXX..............",
"....XXXXX.....X.XX....XXXXXXX...",
"..XXXXXXXX....X.XX...XXXXXXXX...",
"..XXX....XXX..X.XX..XXXX...XX...",
".XXXXXXXXXXXX.X..X..XX..XXX.XX..",
".XX.XXXXXX.XX..XX.XXXXXXXXXX.X..",
".XX.XXXXXXX.XXXXXXXXXXXXX.XX.XX.",
".XX.X..XXXX.XXXX.XXX.X.XX.XX.XX.",
".XX.X..XXXXX.XX..XX.XXX.X.XX.XX.",
".XX.XXX.XXXXXXXXXX.XXXX...XX.XX.",
".XX.X....XXXXXXXXX.XXXX..XXX.X..",
".XX.XXX..XXXXXX..X.XXXX..XXX.X..",
".XX.XXXXXXXXX.XX.X.XXX..XXX.XX..",
"..XX.XXXX.XXX.XXX.XXXX.XXXX.X...",
"..XXXXXXX.XXXX.XX.XXX.XXXXX.X...",
"..XXXXXXX.XXXX.X..XXX.XXXX.XX...",
"...XX.XXXX.XXX.X..XXXXXXXX.XX...",
"....XX.XXXXXXX.XX.XXXXXXXXXX....",
".....XX........XX........XX.....",
".....XXXXXXXXXXXXXXXXXXXXX......",
"......XXXXXXXXXXXXXXXXXXX.......",
".......X.XXXXXXXXXXXXXX.X.......",
".......X.XXXXX....XXXXX.X.......",
".......X.XXXXXXXXXXXXXX.X.......",
".......X................X.......",
"................................",
"................................",
"................................",
"................................",
};
