/* XPM */
/* This file was automatically generated from the file ../SOLID.V50
using the program ``zic2xpm''.

    NOTICE: The piece images distributed with ZIICS are
        copyrighted works of their original creators.  Images
        converted with zic2xpm may not be redistributed without
        the permission of the copyright holders.  Do not contact
        the authors of zic2xpm or of ZIICS itself to request
        permission. */
static char * image_name[] = {
"50 50 4 1",
"X	c white s light_piece",
" 	c black s dark_piece",
"*	c gray s light_square",
".	c green s dark_square",
"**************************************************",
"***************************X**********************",
"*************************XXXX*********************",
"*************************XXXX*********************",
"***************************X**********************",
"************************XXXXXXX*******************",
"************************X    XX*******************",
"************************X    XX*******************",
"*******XXXXXXXXX********X  X XX******XXXXXXXXXXX**",
"****XXXXXXXXXXXXX*******X  X XX****XXXXXXXXXXXXXX*",
"****XXXXX      XXXXX****X  X XX**XXXXXXX     XXXX*",
"****XXXXX      XXXXX****X  X XX**XXXXXXX     XXXX*",
"***XXXXX XXXXXX XXXXX***X    XX**XXXX   XXXXX  XXX",
"***XXXX XXXXXXXX XXXXXX*XXXXX***XXXX XXXXXXXXXX XX",
"***XX  XXXXXXXXXX  XXXX**XXXX**XXXX XXXXXXXXXXX XX",
"***XX  XXXXXXXXXX  XXXX**XXXX**XXXX XXXXXXXXXXX XX",
"*XXXX  XXXXXXXXXXXX XXXXXXXXXXXXXXX XXXXX   XXX XX",
"*XXXX  XX   XXXXXXX XXXXXXX XXXXX  XX  XX   XXX XX",
"*XXXX  XX   XXX XXXX XXXX   XXXX XXXXXX X   XXX XX",
"*XXXX  XX   XXX XXXX XXXX   XXXX XXXXXX X   XXX XX",
"*XXXX  XXXXX XX XXXX XXXXXXXXXXX XXXXXX  XXXXXX XX",
"*XXXX  XXXXX XX XXXXX  XXXXXXXX XXXXXXX     XXX XX",
"***XX  XX       XXXXX  XXXXXXXX XXXXXXX  XXXXXX XX",
"***XX  XX       XXXXX  XXXXXXXX XXXXXXX  XXXXXX XX",
"***XX  XXXXX    XXXXX  XX   XXX XXXXXXX  XXXXXX XX",
"***XX  XXXXXXXX XXXXXXX XXX XXX XXXXX   XXXXX  XXX",
"***XXXX XXXXXXX XXXXXXX XXXXX  XXXXXX  XXXXXX  XXX",
"***XXXX XXXXXXX XXXXXXX XXXXX  XXXXXX  XXXXXX  XXX",
"****XXX XXXXXXXX XXXXXX XXXXX  XXXXXX  XXXXXX  XX*",
"****XXXX XXXXXXX XXXXXXX XXXX  XXXXX XXXXXXXX  XX*",
"****XXXX XXXXXXX XXXXXXX XX X  XXXXX XXXXXXX XXXX*",
"****XXXX XXXXXXX XXXXXXX XX X  XXXXX XXXXXXX XXXX*",
"*****XXXX  XXXXXX  XXXXX XX X  XXXX XXXXXXXX XXX**",
"*******XX  XXXXXX  XXXXX XXXX  XXXXXXXXXXXX XXX***",
"*******XXXX XXXXXXXXXXXX XXXX  XXXXXXXXXX  XXXX***",
"*******XXXX XXXXXXXXXXXX XXXX  XXXXXXXXXX  XXXX***",
"********XXXX             XXXX            XXXX*****",
"*********XXXXXXXXXXXXXXXXXXXXXXXXXXXXXXXXXXX******",
"***********XXXXXXXXXXXXXXXXXXXXXXXXXXXXXXXX*******",
"***********XXXXXXXXXXXXXXXXXXXXXXXXXXXXXXXX*******",
"************XXX                        XX*********",
"************X  XXXXXXXXXXXXXXXXXXXXXXXX X*********",
"************X  XXXXXXXXX       XXXXXXXX X*********",
"************X  XXXXXXXXX       XXXXXXXX X*********",
"************X  XXXXXXXXXXXXXXXXXXXXXXXX X*********",
"************X                           X*********",
"************XXXXXXXXXXXXXXXXXXXXXXXXXXXXX*********",
"************XXXXXXXXXXXXXXXXXXXXXXXXXXXXX*********",
"**************************************************",
"**************************************************",
};
