/* XPM */
/* This file was automatically generated from the file ../SOLID.V56
using the program ``zic2xpm''.

    NOTICE: The piece images distributed with ZIICS are
        copyrighted works of their original creators.  Images
        converted with zic2xpm may not be redistributed without
        the permission of the copyright holders.  Do not contact
        the authors of zic2xpm or of ZIICS itself to request
        permission. */
static char * image_name[] = {
"56 56 4 1",
"X	c white s light_piece",
" 	c black s dark_piece",
"*	c gray s light_square",
".	c green s dark_square",
"********************************************************",
"********************************************************",
"********************** *********************************",
"********************** *********************************",
"*******************  *   *******************************",
"*******************  *   *******************************",
"*******************  *   *******************************",
"*******************         ****************************",
"*********************         **************************",
"*******************              ***********************",
"*******************              ***********************",
"****************            X       ********************",
"**************     XXXX      XXX       *****************",
"**************     XXXX      XXX       *****************",
"************      XXX XXX       X       ****************",
"***********          X           XXX      **************",
"*********                           X      *************",
"*********                           X      *************",
"********                             XX    *************",
"*******                                X    ************",
"*******                                X    ************",
"*****                           X             **********",
"*****                           X       XX    **********",
"****                         XXX          X    *********",
"****                         XXX          X    *********",
"****                   *****       X      X    *********",
"**              ************     XX        X   *********",
"**              ************     XX        X   *********",
"**  X    ***   ***********   XXX           XXX   *******",
"**      ***   ************         XX       XX   *******",
"**     **   *************   XXXXXXX         XX   *******",
"**     **   *************   XXXXXXX         XX   *******",
"********   ************                     XX    ******",
"***********************                     XX    ******",
"***********************                     XX    ******",
"**********************                      XXX   ******",
"*********************                       XXX   ******",
"*********************                       XXX    *****",
"*********************                       XXX    *****",
"*******************                           X    *****",
"******************                            X    *****",
"******************                            X    *****",
"****************                              X    *****",
"****************                              X    *****",
"****************                              X    *****",
"****************                              X    *****",
"***************                               X    *****",
"**************                                X    *****",
"**************                                X    *****",
"**************                                X    *****",
"************                                  X    *****",
"************                                  X    *****",
"************                                  X    *****",
"************                                       *****",
"********************************************************",
"********************************************************",
};
