/* XPM */
/* This file was automatically generated from the file ../SOLID.V48
using the program ``zic2xpm''.

    NOTICE: The piece images distributed with ZIICS are
        copyrighted works of their original creators.  Images
        converted with zic2xpm may not be redistributed without
        the permission of the copyright holders.  Do not contact
        the authors of zic2xpm or of ZIICS itself to request
        permission. */
static char * image_name[] = {
"48 48 4 1",
"X	c white s light_piece",
" 	c black s dark_piece",
"*	c gray s light_square",
".	c green s dark_square",
"................................................",
"................................................",
"...................X............................",
".................X.XX...........................",
".................X.XX...........................",
".................X.XX...........................",
".................XXXXXXX........................",
"..................XXXXXXXX......................",
".................XXXXXXXXXXXX...................",
"..............XXXXXXXXXX XXXXXX.................",
"............XXXXX   XXXXX  XXXXXX...............",
"............XXXXX   XXXXX  XXXXXX...............",
"...........XXXX   X  XXXXXX  XXXXXX.............",
".........XXXXXXXXX XXXXXXXXXX  XXXXX............",
"........XXXXXXXXXXXXXXXXXXXXXXX XXXXX...........",
".......XXXXXXXXXXXXXXXXXXXXXXXXX XXXX...........",
"......XXXXXXXXXXXXXXXXXXXXXXXXXXX  XXX..........",
"......XXXXXXXXXXXXXXXXXXXXXXXXXXX  XXX..........",
".....XXXXXXXXXXXXXXXXXXXXXX  XXXXXXXXXX.........",
".....XXXXXXXXXXXXXXXXXXXXXX  XXXXXX XXX.........",
"...XXXXXXXXXXXXXXXXXXXXXX  XXXXXXXXX XXXX.......",
"...XXXXXXXXXXXXXXXXX....XXXXXX XXXXX XXXX.......",
"..XXXXXXXXXXXX..........XXXXX XXXXXXX XXX.......",
"..XXXXXXXXXXXX..........XXXXX XXXXXXX XXX.......",
"..X  XXX...XX..........XX  XXXXXXXXXX  XXX......",
"..XXXXX..XXX...........XXXXXXX  XXXXXX XXX......",
"..XXXX..XXX..........XXX      XXXXXXXX XXX......",
".......XX...........XXXXXXXXXXXXXXXXXX XXXX.....",
"....................XXXXXXXXXXXXXXXXXX XXXX.....",
"....................XXXXXXXXXXXXXXXXXX XXXX.....",
"...................XXXXXXXXXXXXXXXXXXX   XX.....",
"..................XXXXXXXXXXXXXXXXXXXX   XX.....",
"..................XXXXXXXXXXXXXXXXXXXX   XXX....",
".................XXXXXXXXXXXXXXXXXXXXXX  XXX....",
"...............XXXXXXXXXXXXXXXXXXXXXXXX  XXX....",
"...............XXXXXXXXXXXXXXXXXXXXXXXX  XXX....",
"..............XXXXXXXXXXXXXXXXXXXXXXXXX  XXX....",
"..............XXXXXXXXXXXXXXXXXXXXXXXXX  XXX....",
"..............XXXXXXXXXXXXXXXXXXXXXXXXX  XXX....",
".............XXXXXXXXXXXXXXXXXXXXXXXXXX  XXX....",
"............XXXXXXXXXXXXXXXXXXXXXXXXXXX  XXX....",
"............XXXXXXXXXXXXXXXXXXXXXXXXXXX  XXX....",
"............XXXXXXXXXXXXXXXXXXXXXXXXXXX  XXX....",
"...........XXXXXXXXXXXXXXXXXXXXXXXXXXXX  XXX....",
"...........XXXXXXXXXXXXXXXXXXXXXXXXXXXX  XXX....",
"...........XXXXXXXXXXXXXXXXXXXXXXXXXXXXXXXXX....",
"................................................",
"................................................",
};
