/* XPM */
/* This file was automatically generated from the file ../SOLID.V32
using the program ``zic2xpm''.

    NOTICE: The piece images distributed with ZIICS are
        copyrighted works of their original creators.  Images
        converted with zic2xpm may not be redistributed without
        the permission of the copyright holders.  Do not contact
        the authors of zic2xpm or of ZIICS itself to request
        permission. */
static char * image_name[] = {
"32 32 4 1",
"X	c white s light_piece",
" 	c black s dark_piece",
"*	c gray s light_square",
".	c green s dark_square",
"********************************",
"********************************",
"***********X*X******************",
"***********X*X******************",
"************XXXXX***************",
"***********XXXXXXXX*************",
"*********XXXXXXX*XXXX***********",
"********XXX**XXXX*XXXX**********",
"******XXXXXX*XXXXXX**XXX********",
"*****XXXXXXXXXXXXXXXXXXXX*******",
"*****XXXXXXXXXXXXXXXX*XXX*******",
"****XXXXXXXXXXXXXXXXXX*XX*******",
"***XXXXXXXXXXXXXXX*XXXX*XX******",
"**XXXXXXXXXXXXXXX*XXXXXX*XX*****",
"**XXXXXXXXXXX***XXXX*XXX*XX*****",
"*XXXXXXXX*******XXX*XXXXXXX*****",
"*XXXX*XX*******XXXXX*XXXX*XX****",
"*XXX*XX*******XX****XXXXX*XX****",
"*****X*******XXXXXXXXXXXX*XXX***",
"*************XXXXXXXXXXXX*XXX***",
"************XXXXXXXXXXXXX**XX***",
"************XXXXXXXXXXXXX**XX***",
"***********XXXXXXXXXXXXXXX*XX***",
"**********XXXXXXXXXXXXXXXX*XX***",
"*********XXXXXXXXXXXXXXXXX*XX***",
"*********XXXXXXXXXXXXXXXXX*XX***",
"*********XXXXXXXXXXXXXXXXX*XX***",
"********XXXXXXXXXXXXXXXXXX*XX***",
"*******XXXXXXXXXXXXXXXXXXX*XX***",
"*******XXXXXXXXXXXXXXXXXXX*XX***",
"*******XXXXXXXXXXXXXXXXXXX*XX***",
"********************************",
};
