/* XPM */
/* This file was automatically generated from the file ../SOLID.V40
using the program ``zic2xpm''.

    NOTICE: The piece images distributed with ZIICS are
        copyrighted works of their original creators.  Images
        converted with zic2xpm may not be redistributed without
        the permission of the copyright holders.  Do not contact
        the authors of zic2xpm or of ZIICS itself to request
        permission. */
static char * image_name[] = {
"40 40 4 1",
"X	c white s light_piece",
" 	c black s dark_piece",
"*	c gray s light_square",
".	c green s dark_square",
"****************************************",
"****************************************",
"****************X***********************",
"**************X*XX**********************",
"**************X*XX**********************",
"**************XXXXXX********************",
"***************XXXXXXX******************",
"**************XXXXXXXXXX****************",
"************XXXXXXXX XXXXX**************",
"**********XXXX   XXXX  XXXXX************",
"*********XXXX  X  XXXXX XXXXX***********",
"********XXXXXXX XXXXXXXX  XXXX**********",
"*******XXXXXXXXXXXXXXXXXXX XXXX*********",
"******XXXXXXXXXXXXXXXXXXXXX XXX*********",
"*****XXXXXXXXXXXXXXXXXXXXXXX XXX********",
"****XXXXXXXXXXXXXXXXXXX XXXXXXXXX*******",
"****XXXXXXXXXXXXXXXXXXX XXXXX XXX*******",
"***XXXXXXXXXXXXXXXXXX  XXXXXXX XXX******",
"***XXXXXXXXXXXXXX***XXXXX XXXX XXX******",
"**XXXXXXXXXX********XXXX XXXXXX XX******",
"**X XXX**XX********XX  XXXXXXXX  XX*****",
"**XXXX**XX*********XXXXXX  XXXXX XX*****",
"**XXX**XX*********XX     XXXXXXX XX*****",
"******XX*********XXXXXXXXXXXXXXX XXX****",
"*****************XXXXXXXXXXXXXXX XXX****",
"****************XXXXXXXXXXXXXXXX  XX****",
"***************XXXXXXXXXXXXXXXXX  XX****",
"***************XXXXXXXXXXXXXXXXX  XXX***",
"**************XXXXXXXXXXXXXXXXXXX XXX***",
"*************XXXXXXXXXXXXXXXXXXXX XXX***",
"************XXXXXXXXXXXXXXXXXXXXX XXX***",
"************XXXXXXXXXXXXXXXXXXXXX XXX***",
"************XXXXXXXXXXXXXXXXXXXXX XXX***",
"***********XXXXXXXXXXXXXXXXXXXXXX XXX***",
"**********XXXXXXXXXXXXXXXXXXXXXXX XXX***",
"**********XXXXXXXXXXXXXXXXXXXXXXX XXX***",
"*********XXXXXXXXXXXXXXXXXXXXXXXX XXX***",
"*********XXXXXXXXXXXXXXXXXXXXXXXX XXX***",
"*********XXXXXXXXXXXXXXXXXXXXXXXXXXXX***",
"****************************************",
};
