/* XPM */
/* This file was automatically generated from the file ../SOLID.V48
using the program ``zic2xpm''.

    NOTICE: The piece images distributed with ZIICS are
        copyrighted works of their original creators.  Images
        converted with zic2xpm may not be redistributed without
        the permission of the copyright holders.  Do not contact
        the authors of zic2xpm or of ZIICS itself to request
        permission. */
static char * image_name[] = {
"48 48 4 1",
"X	c white s light_piece",
" 	c black s dark_piece",
"*	c gray s light_square",
".	c green s dark_square",
"................................................",
".....................XXXXXXXX...................",
"........XXXXXX.......XXXXXXXX......XXXXXX.......",
"........XXXXXX.......XXXXXXXX......XXXXXX.......",
"........XXXXXX.......XXXXXXXX......XXXXXX.......",
"........XXXXXX.......XXXXXXXX......XXXXXX.......",
"........XXXXXXXXXXXXXXXXXXXXXXXXXXXXXXXXX.......",
"........X                              XX.......",
"........XXXXXXXXXXX XXXXXXXXX XXXXXXXXXXX.......",
".............XXXXXX XXXXXXXXX XXXXXXX...........",
".............XXXXXX XXXXXXXXX XXXXXXX...........",
".............XXXXXX XXXXXXXXX XXXXXXX...........",
".............XXXXXX XXXXXXXXX XXXXXXX...........",
".............XXXXXX XXXXXXXXX XXXXXXX...........",
".............XXXXXX XXXXXXXXX XXXXXXX...........",
".............X                      X...........",
".............XXXXXXXXXXX XXXXXXXXXXXX...........",
".............XXXXXXXXXXX XXXXXXXXXXXX...........",
".............XXXXXXXXXXX XXXXXXXXXXXX...........",
".............XXXXXXXXXXX XXXXXXXXXXXX...........",
".............XXXXXXXXXXX XXXXXXXXXXXX...........",
".............XXXXXXXXXXX XXXXXXXXXXXX...........",
".............X                      X...........",
".............X                      X...........",
".............XXXXXX XXXXXXXXX XXXXXXX...........",
".............XXXXXX XXXXXXXXX XXXXXXX...........",
".............XXXXXX XXXXXXXXX XXXXXXX...........",
".............XXXXXX XXXXXXXXX XXXXXXX...........",
".............XXXXXX XXXXXXXXX XXXXXXX...........",
".............XXXXXX XXXXXXXXX XXXXXXX...........",
".............X                      X...........",
".............XXXXXXXXXXX XXXXXXXXXXXX...........",
".............XXXXXXXXXXX XXXXXXXXXXXX...........",
".............XXXXXXXXXXX XXXXXXXXXXXX...........",
".............XXXXXXXXXXX XXXXXXXXXXXX...........",
".............XXXXXXXXXXX XXXXXXXXXXXX...........",
".............XXXXXXXXXXX XXXXXXXXXXXX...........",
".............XXXXXXXXXXX XXXXXXXXXXXX...........",
".............X                      X...........",
"...........XXXXXXXXXXXXXXXXXXXXXXXXXXXX.........",
"...........XXXXXXXXXXXXXXXXXXXXXXXXXXXX.........",
"...........XXXXXXXXXXXXXXXXXXXXXXXXXXXX.........",
".........XXXXXXXXXXXXXXXXXXXXXXXXXXXXXXXX.......",
"........X                                X......",
"........X                                X......",
"........XXXXXXXXXXXXXXXXXXXXXXXXXXXXXXXXXX......",
"................................................",
"................................................",
};
