/* XPM */
/* This file was automatically generated from the file ../BOX.V56
using the program ``zic2xpm''.

    NOTICE: The piece images distributed with ZIICS are
        copyrighted works of their original creators.  Images
        converted with zic2xpm may not be redistributed without
        the permission of the copyright holders.  Do not contact
        the authors of zic2xpm or of ZIICS itself to request
        permission. */
static char * image_name[] = {
"56 56 4 1",
"X	c white s light_piece",
" 	c black s dark_piece",
"*	c gray s light_square",
".	c green s dark_square",
" .......................................................",
" ...........................XX...XXX....................",
" ...........................XX...XXX....................",
" ...........................XX...XXX....................",
" ............................X..XXXX....................",
" .........................XXXX..X  X....................",
" .........................XXXX..X  X....................",
" ........................XXXXXXXX  XX...................",
" ........................XXXXXXXX   X...................",
" ......................XXXXXXXXXXXX  XX.................",
" ......................XXXXXXXXXXXX  XX.................",
" .....................XXXXXX  XXXXX  XX.................",
" .....................XXXXXX  XXXXXX XX.................",
" .....................XXXXXX  XXXXXX XX.................",
" ....................XXXX        XXX   X................",
" ....................XXXX        XXXX  X................",
" ....................XXXXXXX  XXXXXXX  X................",
" ....................XXXXXXX  XXXXXXX  X................",
" ..................XXXXXXXXX  XXXXXXXXXX................",
" ..................XXXXXXXXX  XXXXXXXXX.................",
" ..................XXXXXXXXX  XXXXXXXXX.................",
" ..................XXXXXXXXXXXXXXXXXXXX.................",
" ..................XXXXXXXXXXXXXXXXXXXX.................",
" ..................XXXXXXXXXXXXXXXXXXXX.................",
" ..................XXXXXXXXXXXXXXXXXXXX.................",
" ..................XXXXXXXXXXXXXXXXXX...................",
" ..................XXXXXXXXXXXXXXXXXX...................",
" ..................XXXXXXXXXXXXXXXXXX...................",
" ....................XXXXXXXXXXXXXXXX...................",
" ....................XXXXXXXXXXXXXXX....................",
" .....................XXXXXXXXXXXXXX....................",
" .....................XXXXXXXXXXXXXX....................",
" .....................X            X....................",
" .....................X            X....................",
" .....................X            X....................",
" ......................XXXXXXXXXXXX.....................",
" ........................X    XX........................",
" .....................XXXXXXXXXXXXXX....................",
" .....................XXXXXXXXXXXXXX....................",
" .....................XXX        XXX....................",
" .....................XXX        XXX....................",
" .....................XXX        XXX....................",
" .....................XXXXXXXXXXXXXX....................",
" ...........................XX..........................",
" .........................XXXXXX........................",
" .........................XXXXXX........................",
" ........................XXXXXXXX.......................",
" ...........XXXXXXXXX..XXXXX.XXXXXX..XXXXXXXXX..........",
" ...........XXXXXXXXX..XXXXX.XXXXXX..XXXXXXXXX..........",
" ........XXXXXXXXXXXXXXXXXXX..XXXXXXXXXXXXXXXXXXX.......",
" ........XXXXX.....XXXXXX.......XXXXXXX.....XXXXX.......",
" ........XX....................................XX.......",
" ........XX....................................XX.......",
" .......................................................",
" .......................................................",
"                                                        ",
};
