/* XPM */
/* This file was automatically generated from the file ../BOX.V56
using the program ``zic2xpm''.

    NOTICE: The piece images distributed with ZIICS are
        copyrighted works of their original creators.  Images
        converted with zic2xpm may not be redistributed without
        the permission of the copyright holders.  Do not contact
        the authors of zic2xpm or of ZIICS itself to request
        permission. */
static char * image_name[] = {
"56 56 4 1",
"X	c white s light_piece",
" 	c black s dark_piece",
"*	c gray s light_square",
".	c green s dark_square",
" .......................................................",
" ........................... ...........................",
" .........................    ..........................",
" .........................    ..........................",
" ........................... ...........................",
" ........................       ........................",
" ........................       ........................",
" ........................ XXXX  ........................",
" ......         ......... XX X  .......           ......",
" ...              ....... XX X  ....               .....",
" ...              ....... XX X  ....               .....",
" ...     XXXXXX      .... XX X  ...       XXXXX    .....",
" .      X      X      ... XXXX  ...    XXX     XX    ...",
" .      X      X      ... XXXX  ...    XXX     XX    ...",
" .     X        XX     ..     ...    XX          X   ...",
" .   XX           X    ...    ..    X            X   ...",
"     XX            XX               X      XXX   X    ..",
"     XX            XX               X      XXX   X    ..",
"     XX  XXX       XX       X      X   X   XXX   X    ..",
"     XX  XXX   X     X    XXX    XX     XX XXX   X    ..",
"     XX  XXX   X     X    XXX    XX     XX XXX   X    ..",
"     XX     XX X     X           XX     XXX      X    ..",
"     XX     XX X      X         X       XXXXXX   X    ..",
" .   XX  XXXXXXX      X         X       XXX      X   ...",
" .   XX  XXXXXXX      X         X       XXX      X   ...",
" .   XX     XXXX      X   XXX   X       XXX      X   ...",
" .   XX        X       XX   X   X      XXX     XX    ...",
" .   XX        X       XX   X   X      XXX     XX    ...",
" .     X       X       XX     XX       X       XX    ...",
" ...   X        XX     XX     XX       X       XX  .....",
" ...    X       XX       X    XX     XX        XX  .....",
" ...    X       XX       X    XX     XX        XX  .....",
" ...    X       XX       X  X XX     XX       X    .....",
" ....    XX       X      X  X XX    X         X   ......",
" ....    XX       X      X  X XX    X         X   ......",
" ......  XX       X      X    XX            XX   .......",
" ......    X             X    XX           X     .......",
" .......    XXXXXXXXXXXXXX    XXXXXXXXXXXXX    .........",
" .......    XXXXXXXXXXXXXX    XXXXXXXXXXXXX    .........",
" ........                                     ..........",
" ..........                                 ............",
" ..........                                 ............",
" ...........   XXXXXXXXXXXXXXXXXXXXXXXXX   .............",
" ...........  X                         XX .............",
" ...........  X          XXXXXXX        XX .............",
" ...........  X          XXXXXXX        XX .............",
" ...........  X                         XX .............",
" ...........  XXXXXXXXXXXXXXXXXXXXXXXXXXXX .............",
" ...........  XXXXXXXXXXXXXXXXXXXXXXXXXXXX .............",
" ...........                               .............",
" .......................................................",
" .......................................................",
" .......................................................",
" .......................................................",
" .......................................................",
"                                                        ",
};
