/* XPM */
/* This file was automatically generated from the file ../BOX.V50
using the program ``zic2xpm''.

    NOTICE: The piece images distributed with ZIICS are
        copyrighted works of their original creators.  Images
        converted with zic2xpm may not be redistributed without
        the permission of the copyright holders.  Do not contact
        the authors of zic2xpm or of ZIICS itself to request
        permission. */
static char * image_name[] = {
"50 50 4 1",
"X	c white s light_piece",
" 	c black s dark_piece",
"*	c gray s light_square",
".	c green s dark_square",
" *************************************************",
" *************************************************",
" ********************XX***************************",
" ********************XX***************************",
" ******************X*XXX**************************",
" ******************X*XXX**************************",
" ******************XXXXXXXX***********************",
" ******************XXXXXXXX***********************",
" *******************XXXXXXXXX*********************",
" ******************XXXXXXXXXXXXX******************",
" ***************XXXXXXXXXXX XXXXXXX***************",
" ***************XXXXXXXXXXX XXXXXXX***************",
" ************XXXXXX    XXXXX   XXXXXX*************",
" ***********XXXXX   X   XXXXXXX XXXXXXX***********",
" **********XXXXXXXXX XXXXXXXXXXX   XXXXX**********",
" **********XXXXXXXXX XXXXXXXXXXX   XXXXX**********",
" ********XXXXXXXXXXXXXXXXXXXXXXXXXX XXXXX*********",
" *******XXXXXXXXXXXXXXXXXXXXXXXXXXXX XXXX*********",
" ******XXXXXXXXXXXXXXXXXXXXXXXXXXXXXX  XXXX*******",
" ******XXXXXXXXXXXXXXXXXXXXXXXXXXXXXX  XXXX*******",
" ****XXXXXXXXXXXXXXXXXXXXXXXXXX XXXXXXXXXXXX******",
" ****XXXXXXXXXXXXXXXXXXXXXXXXXX XXXXXXX XXXX******",
" ***XXXXXXXXXXXXXXXXXXXXXXXX   XXXXXXXXX XXXX*****",
" ***XXXXXXXXXXXXXXXXXXXXXXXX   XXXXXXXXX XXXX*****",
" ***XXXXXXXXXXXXXXXXXXX****XXXXXX  XXXXX XXXX*****",
" **XXXXXXXXXXXXX***********XXXXX XXXXXXXX  XX*****",
" **X XXXX***XXX**********XXX   XXXXXXXXXX   XXX***",
" **X XXXX***XXX**********XXX   XXXXXXXXXX   XXX***",
" **XXXXX***XX************XXXXXXXX   XXXXXXX XXX***",
" **XXXX**XXX************XXX      XXXXXXXXXX XXX***",
" *******XXX************XXXXXXXXXXXXXXXXXXXX XXXX**",
" *******XXX************XXXXXXXXXXXXXXXXXXXX XXXX**",
" **********************XXXXXXXXXXXXXXXXXXXX XXXX**",
" ********************XXXXXXXXXXXXXXXXXXXXXX  XXX**",
" *******************XXXXXXXXXXXXXXXXXXXXXXX  XXX**",
" *******************XXXXXXXXXXXXXXXXXXXXXXX  XXX**",
" *******************XXXXXXXXXXXXXXXXXXXXXXX  XXXX*",
" ******************XXXXXXXXXXXXXXXXXXXXXXXXX XXXX*",
" ****************XXXXXXXXXXXXXXXXXXXXXXXXXXX XXXX*",
" ****************XXXXXXXXXXXXXXXXXXXXXXXXXXX XXXX*",
" ***************XXXXXXXXXXXXXXXXXXXXXXXXXXXX XXXX*",
" ***************XXXXXXXXXXXXXXXXXXXXXXXXXXXX XXXX*",
" ***************XXXXXXXXXXXXXXXXXXXXXXXXXXXX XXXX*",
" ***************XXXXXXXXXXXXXXXXXXXXXXXXXXXX XXXX*",
" **************XXXXXXXXXXXXXXXXXXXXXXXXXXXXX XXXX*",
" ************XXXXXXXXXXXXXXXXXXXXXXXXXXXXXXX XXXX*",
" ************XXXXXXXXXXXXXXXXXXXXXXXXXXXXXXX XXXX*",
" ************XXXXXXXXXXXXXXXXXXXXXXXXXXXXXXX XXXX*",
" ***********XXXXXXXXXXXXXXXXXXXXXXXXXXXXXXXX XXXX*",
"                                                  ",
};
