/* XPM */
/* This file was automatically generated from the file ../BOX.V50
using the program ``zic2xpm''.

    NOTICE: The piece images distributed with ZIICS are
        copyrighted works of their original creators.  Images
        converted with zic2xpm may not be redistributed without
        the permission of the copyright holders.  Do not contact
        the authors of zic2xpm or of ZIICS itself to request
        permission. */
static char * image_name[] = {
"50 50 4 1",
"X	c white s light_piece",
" 	c black s dark_piece",
"*	c gray s light_square",
".	c green s dark_square",
" .................................................",
" .................................................",
" ........................XXX......................",
" ........................XXX......................",
" ........................XXX......................",
" ..........................X......................",
" ............XXX.........XX..........XXX..........",
" ............XXX.........XX..........XXX..........",
" ............XXX.........XXX.........XXX..........",
" ..............X.........XXX.........XX...........",
" ..............X.........XXX.........XX...........",
" ..............X.........XXX.........XX...........",
" ..............X.........XXX.........XX...........",
" ..............XX........XXX........XXX...........",
" XXX...........XX........XXX........XXX...........",
" XXX...........XX........XXX........XXX...........",
" XXX...........XX........XXX........XXX.........XX",
" ..X...........XXXX......XXX.......XXXX.........XX",
" ...X..........XXXX.....XXXXX......XXXX.........X.",
" ...X..........XXXX.....XXXXX......XXXX.........X.",
" ...X..........XXXX.....XXXXX......XXXX........X..",
" ...XXX........XXXX.....XXXXX......XXXX........X..",
" ...XXXX.......XXXXX....XXXXX....XXXXXX......XXX..",
" ...XXXX.......XXXXX....XXXXX....XXXXXX......XXX..",
" ....XXX.......XXXXX....XXXXX....XXXXXX.....XXXX..",
" ....XXXX......XXXXX....XXXXX....XXXXXX.....XXXX..",
" ....XXXXXX....XXXXXX...XXXXX...XXXXXXX....XXXXX..",
" ....XXXXXX....XXXXXX...XXXXX...XXXXXXX....XXXXX..",
" ....XXXXXX....XXXXXX...XXXXX...XXXXXXX....XXXXX..",
" ....XXXXXXX...XXXXXX...XXXXX...XXXXXXX..XXXXXXX..",
" ....XXXXXXXX..XXXXXXXXXXXXXXXXXXXXXXXX.XXXXXXX...",
" ....XXXXXXXX..XXXXXXXXXXXXXXXXXXXXXXXX.XXXXXXX...",
" ......XXXXXX..XXXXXXXXXXXXXXXXXXXXXXXX.XXXXXXX...",
" ......XXXXXXXXXXXXXXXXXXXXXXXXXXXXXXXXXXXXXXXX...",
" ......XXXXXXXXXXXXXXXXXXXXXXXXXXXXXXXXXXXXXXXX...",
" ......XXXXXXXXXXXXXXXXXXXXXXXXXXXXXXXXXXXXXXXX...",
" ......XXXXXXXXXXXXXXXXXXXXXXXXXXXXXXXXXXXXXXXX...",
" ......XXXXXXXXXXXXXXXX        XXXXXXXXXXXXXXXX...",
" .......XXXX           XXXXXXXX          XXXX.....",
" .......XXXX           XXXXXXXX          XXXX.....",
" .......XXX XXXXXXXXXXXX     XXXXXXXXXXXX  XX.....",
" ........XX     XXXXXXXXX   XXXXXXXXX      X......",
" ........XXX   XXXXXXXX        XXXXXXXX  XXX......",
" ........XXX   XXXXXXXX        XXXXXXXX  XXX......",
" ..........X           XXXXXXXX          XX.......",
" ..........XXXXXXXXXXXXXXXXXXXXXXXXXXXXXXXX.......",
" ........XXXXXXXXXXXXXXXXXXXXXXXXXXXXXXXXXXX......",
" ........XXXXXXXXXXXXXXXXXXXXXXXXXXXXXXXXXXX......",
" ........XXXXXXXXXXXXXXXXXXXXXXXXXXXXXXXXXXX......",
"                                                  ",
};
