/* XPM */
/* This file was automatically generated from the file ../TRUMPET.V48
using the program ``zic2xpm''.

    NOTICE: The piece images distributed with ZIICS are
        copyrighted works of their original creators.  Images
        converted with zic2xpm may not be redistributed without
        the permission of the copyright holders.  Do not contact
        the authors of zic2xpm or of ZIICS itself to request
        permission. */
static char * image_name[] = {
"48 48 4 1",
"X	c white s light_piece",
" 	c black s dark_piece",
"*	c gray s light_square",
".	c green s dark_square",
"................................................",
"................................................",
"................................................",
"...................XX......XX...................",
"..................XXXX....XXXX..................",
"..................XXXX....XXXX..................",
"...................XX......XX...................",
"................................................",
"...................XX......XX...................",
"..................XXXX....XXXX..................",
"..................XXXX....XXXX..................",
".................XXXXXX..XXXXXX.................",
".................XXXXXX..XXXXXX.................",
"................XXXXXXXX..XXXXXX................",
"...............XXXXXXXXX..XXXXXXX...............",
"..............XXXXXXXXXXX..XXXXXXX..............",
"..............XXXXXXXXXXXX..XXXXXX..............",
".............XXXXXXXXXXXXXX..XXXXXX.............",
".............XXXXXXXXXXXXXXX..XXXXX.............",
".............XXXXXXXXXXXXXXXX..XXXX.............",
".............XXXXXXXXXXXXXXXXX..XXX.............",
"............XXXXXXXXXXXXXXXXXXX..XXX............",
"............XXXXXXXXXXXXXXXXXXXX.XXX............",
"............XXXXXXXXXXXXXXXXXXXX..XX............",
"............XXXXXXXXXXXXXXXXXXXXX..X............",
"............XXXXXXXXXX....XXXXXXXX.X............",
"............XXXXXXXXXX.XX.XXXXXXXX..............",
"............XXXXXXXX...XX...XXXXXXX.............",
".............XXXXXXX.XXXXXX.XXXXXXX.............",
".............XXXXXXX.XXXXXX.XXXXXXX.............",
".............XXXXXXX...XX...XXXXXXX.............",
".............XXXXXXXXX.XX.XXXXXXXXX.............",
"..............XXXXXXXX.XX.XXXXXXXX..............",
"..............XXXXXXXX.XX.XXXXXXXX..............",
"..............XXXXXXXX....XXXXXXXX..............",
"...............XXXXXXXXXXXXXXXXXX...............",
"................XXXXXXXXXXXXXXXX................",
"................................................",
".................XXXXXXXXXXXXXX.................",
".................X..XXX..XXX..X.................",
".................X..XXX..XXX..X.................",
"..........XXXX..XXXXXXXXXXXXXXXX..XXXX..........",
"........XXXXXXXXXXXXXXXXXXXXXXXXXXXXXXXX........",
".......XXXXXXXXXXX..XXXXXXXX..XXXXXXXXXXX.......",
"......XXX...XXXXX....XXXXXX....XXXXX...XXX......",
".....XXX................................XXX.....",
"................................................",
"................................................",
};
