/* XPM */
/* This file was automatically generated from the file ../TRUMPET.V40
using the program ``zic2xpm''.

    NOTICE: The piece images distributed with ZIICS are
        copyrighted works of their original creators.  Images
        converted with zic2xpm may not be redistributed without
        the permission of the copyright holders.  Do not contact
        the authors of zic2xpm or of ZIICS itself to request
        permission. */
static char * image_name[] = {
"40 40 4 1",
"X	c white s light_piece",
" 	c black s dark_piece",
"*	c gray s light_square",
".	c green s dark_square",
"........................................",
"................X......X................",
"...............XXX....XXX...............",
"...............XXX....XXX...............",
"................X......X................",
"........................................",
"...............XXX....XXX...............",
"...............XXX....XXX...............",
"..............XXXXX..XXXXX..............",
"..............XXXXX..XXXXX..............",
".............XXXXXXX..XXXXX.............",
"............XXXXXXXX..XXXXXX............",
"............XXXXXXXXX..XXXXX............",
"...........XXXXXXXXXXX..XXXXX...........",
"...........XXXXXXXXXXXX..XXXX...........",
"...........XXXXXXXXXXXXX..XXX...........",
"..........XXXXXXXXXXXXXXX..XXX..........",
"..........XXXXXXXXXXXXXXX..XXX..........",
"..........XXXXXXXXXXXXXXXX..XX..........",
"..........XXXXXXXX....XXXXX..X..........",
"..........XXXXXXXX.XX.XXXXX..X..........",
"..........XXXXXX...XX...XXXX............",
"...........XXXXX.XXXXXX.XXXXX...........",
"...........XXXXX.XXXXXX.XXXXX...........",
"...........XXXXX...XX...XXXXX...........",
"...........XXXXXXX.XX.XXXXXXX...........",
"............XXXXXX.XX.XXXXXX............",
"............XXXXXX.XX.XXXXXX............",
"............XXXXXX....XXXXX.............",
".............XXXXXXXXXXXXXX.............",
"..............XXXXXXXXXXXX..............",
"........................................",
"..............XXXXXXXXXXXX..............",
"..............X..XX..XX..X..............",
"........XXX..XX..XX..XX..XX..XXX........",
"......XXXXXXXXXXXXXXXXXXXXXXXXXXXX......",
".....XXXXXXXXXX..XXXXXX..XXXXXXXXXX.....",
"....XXX...XXXX....XXXX....XXXX...XXX....",
"...XXX............................XXX...",
"........................................",
};
