/* XPM */
/* This file was automatically generated from the file ../TRUMPET.V40
using the program ``zic2xpm''.

    NOTICE: The piece images distributed with ZIICS are
        copyrighted works of their original creators.  Images
        converted with zic2xpm may not be redistributed without
        the permission of the copyright holders.  Do not contact
        the authors of zic2xpm or of ZIICS itself to request
        permission. */
static char * image_name[] = {
"40 40 4 1",
"X	c white s light_piece",
" 	c black s dark_piece",
"*	c gray s light_square",
".	c green s dark_square",
"........................................",
"........................................",
"........................................",
"........................................",
"........................................",
"........................................",
"...................XX...................",
"...................XX...................",
".................XXXXXX.................",
".................XXXXXX.................",
"...................XX...................",
"......XXXXXX.......XX.......XXXXXX......",
"....XXX....XXXX....XX....XXXX....XXX....",
"...XX..XXXX...XX..XXXX..XX...XXXX..XX...",
"...X.XXXXXXXXX.XXXX..XXXX.XXXXXXXXX.X...",
"..XX.XXXXXXXXXX.XX.XX.XX.XXXXXXXXXX.XX..",
"..X.XXXXXXXXXXXX.X.XX.X.XXXXXXXXXXXX.X..",
"..X.XXXXXXXXXXXX.XX..XX.XXXXXXXXXXXX.X..",
".XX.XXXX..XXXXXX.XXXXXX.XXXXXXXXX.XX.XX.",
".X.XXXXX..XXXXXX.XXXXXX.XXXXXXX...XXX.X.",
".X.XXXXXXXX.XXXX.XX.XXX.XXXXXX....XXX.X.",
".X.XXXXXX...XXXX.XX..XX.XXXXX..X.XXXX.X.",
".X.XXXX....XXXXX.XXXXXX.XXXXX....XXXX.X.",
".XX.XXXXXX.XXXXX.XX..XX.XXXX....XXXX.XX.",
"..X.XXXXXX.XXXXX.XXX.XX.XXX....XXXXX.X..",
"..X.XXXXXXX.XXXX.XXXXXX.XXX.X..XXXXX.X..",
"..XX.XXXXXX.XXXX.XX..XX.XX....XXXXX.XX..",
"...X.XXXXXXX.XXX.XX.XXX.XX...XXXXXX.X...",
"...XX.XXXXXXXXXX.XXXXXX.XX.XXXXXXX.XX...",
"....X.XXXXXXXXXX.XXX.XX.XXXXXXXXXX.X....",
"....XX.XXXXXXXXX.XX..XX.XXXXXXXXX.XX....",
".....XX.XXXXXXXX.XXXXXX.XXXXXXXX.XX.....",
"......XX.........XXXXXX.........XX......",
".......XXXXXXXXXXXXXXXXXXXXXXXXXX.......",
".........XX..................XX.........",
"........X...X..XX..XX..XX..X...X........",
"........X.X..................X.X........",
"........X...XXXXXXXXXXXXXXXX...X........",
"........XXXXXXXXXXXXXXXXXXXXXXXX........",
"........................................",
};
