/* XPM */
/* This file was automatically generated from the file ../TRUMPET.V48
using the program ``zic2xpm''.

    NOTICE: The piece images distributed with ZIICS are
        copyrighted works of their original creators.  Images
        converted with zic2xpm may not be redistributed without
        the permission of the copyright holders.  Do not contact
        the authors of zic2xpm or of ZIICS itself to request
        permission. */
static char * image_name[] = {
"48 48 4 1",
"X	c white s light_piece",
" 	c black s dark_piece",
"*	c gray s light_square",
".	c green s dark_square",
"************************************************",
"************************************************",
"************************************************",
"************************************************",
"************************************************",
"************************************************",
"************************************************",
"************************************************",
"***********************XX***********************",
"***********************XX***********************",
"*********************XXXXXX*********************",
"*********************XXXXXX*********************",
"***********************XX***********************",
"********XXXXX**********XX**********XXXXX********",
"******XXXXXXXXXX*******XX*******XXXXXXXXXX******",
"*****XXXX****XXXXX*****XX*****XXXXX****XXXX*****",
"****XXX**XXXX***XXX**XXXXXX**XXX***XXXX**XXX****",
"****XX*XXXXXXXXX*XXX*XX**XX*XXX*XXXXXXXXX*XX****",
"***XX*XXXXXXXXXXX*XX*X*XX*X*XX*XXXXXXXXXXX*XX***",
"***XX*XXXXXXXXXXXX*XXX*XX*XXX*XXXXXXXXXXXX*XX***",
"***XX*XXXXXXXXXXXXX*XXX**XXX*XXXXXXXXXXXXX*XX***",
"**XX*XXXXXXXXXXXXXXX*XXXXXX*XXXXXXXXXXX*XXX*XX**",
"**XX*XXXXXXXXXXXXXXX*XXXXXX*XXXXXXXXX***XXX*XX**",
"**XX*XXXXXX**XXXXXXX*XXXXXX*XXXXXXXX****XXX*XX**",
"**XX*XXXXXX**XXXXXXX*XX*XXX*XXXXXXX**X*XXXX*XX**",
"**XX*XXXXXXXXX*XXXXX*XX**XX*XXXXXX**X**XXXX*XX**",
"**XX*XXXXXXX***XXXXX*XXXXXX*XXXXX*****XXXXX*XX**",
"***XX*XXXX****XXXXXX*XXXXXX*XXXXX*****XXXX*XX***",
"***XX*XXXXXXX*XXXXXX*XX**XX*XXXX*****XXXXX*XX***",
"***XX*XXXXXXX*XXXXXX*XXX*XX*XXXX****XXXXXX*XX***",
"***XX*XXXXXXXX*XXXXX*XXXXXX*XXX**X*XXXXXXX*XX***",
"****XX*XXXXXXX*XXXXX*XXXXXX*XXX*X**XXXXXX*XX****",
"****XX*XXXXXXXX*XXXX*XX**XX*XX****XXXXXXX*XX****",
"****XX*XXXXXXXXXXXXX*XX*XXX*XX***XXXXXXXX*XX****",
"*****XX*XXXXXXXXXXXX*XXXXXX*XX*XXXXXXXXX*XX*****",
"*****XXX*XXXXXXXXXXX*XXXXXX*XXXXXXXXXXX*XXX*****",
"******XX*XXXXXXXXXXX*XXX*XX*XXXXXXXXXXX*XX******",
"******XXX*XXXXXXXXXX*XX**XX*XXXXXXXXXX*XXX******",
"*******XXX*XXXXXXXXX*XXXXXX*XXXXXXXXX*XXX*******",
"********XXX**********XXXXXX**********XXX********",
"*********XXXXXXXXXXXXXXXXXXXXXXXXXXXXXX*********",
"***********XXX********************XXX***********",
"**********X****XX**XX**XX**XX**XX****X**********",
"**********XXX**********************XXX**********",
"**********X***XXXXXXXXXXXXXXXXXXXX***X**********",
"**********XXXXXXXXXXXXXXXXXXXXXXXXXXXX**********",
"************************************************",
"************************************************",
};
