/* XPM */
/* This file was automatically generated from the file ../TRUMPET.V40
using the program ``zic2xpm''.

    NOTICE: The piece images distributed with ZIICS are
        copyrighted works of their original creators.  Images
        converted with zic2xpm may not be redistributed without
        the permission of the copyright holders.  Do not contact
        the authors of zic2xpm or of ZIICS itself to request
        permission. */
static char * image_name[] = {
"40 40 4 1",
"X	c white s light_piece",
" 	c black s dark_piece",
"*	c gray s light_square",
".	c green s dark_square",
"****************************************",
"****************************************",
"****************************************",
"****************************************",
"*****************XXXXXXXX***************",
"***************XXXXXXXXX****************",
"**************XXXXXXXXXXXXX*************",
"*************XXXXXXXXXXXXXXXX***********",
"************XXXXXXXXXXXXXXXXXX**********",
"***********XXXXXXXXXXXXXXXX*************",
"**********XXX***XXXXXXXXXXXXX***********",
"*********XXXXX**XXXXXXXXXXXXXX**********",
"********XXXX*X*XXXXXXXXXXXXXXXX*********",
"*******XXXXXXXXXXXXXXXXXXXXX************",
"******XXXXXXXXXXXXXXXXXXXXXXXX**********",
"*****XX*XXXXXXXXXXXXXXXXXXXXXXX*********",
"****XXXXXXXXXXXXXXXXXXXXXXXXX***********",
"****XXXXXXXXXXX***XXXXXXXXXXXXX*********",
"****XXXXX*XXX*****XXXXXXXXXXXXXX********",
"*****XXX*X*******XXXXXXXXXXXXX**********",
"*****XX*********XXXXXXXXXXXXXXX*********",
"***************XXXXXXXXXXXXXXXX*********",
"**************XXXXXXXXXXXXXXXXXX********",
"**************XXXXXXXXXXXXXXXXXX********",
"*************XXXXXX*XXXXXXXXX**X********",
"************XXXXX***XXXXXXXXXX**********",
"***********XXXXX***XXXXXXXXXXXX*********",
"**********XXXXX****XXXXXXXXXXXX*********",
"*********XXXXXX***XXXXXXXXXXXXXX********",
"*********XXXXX***XXXXXXXXXXXXXXX********",
"********XXXXXX*XXXXXXXXXXXXXXX*X********",
"********XXXXXXXXXXXXXXXXXXXXXX**********",
"********XXXXXXXXXXXXXXXXXXXXXXX*********",
"********XXXXXXXXXXXXXXXXXXXXXXXX********",
"****************************************",
"*******XXXXXXXXXXXXXXXXXXXXXXXXXX*******",
"*******XX**XXXXXXXX**XXXXXXXX**XX*******",
"******XXX**XXXXXXXX**XXXXXXXX**XXX******",
"******XXXXXXXXXXXXXXXXXXXXXXXXXXXX******",
"****************************************",
};
