/* XPM */
/* This file was automatically generated from the file ../TRUMPET.V48
using the program ``zic2xpm''.

    NOTICE: The piece images distributed with ZIICS are
        copyrighted works of their original creators.  Images
        converted with zic2xpm may not be redistributed without
        the permission of the copyright holders.  Do not contact
        the authors of zic2xpm or of ZIICS itself to request
        permission. */
static char * image_name[] = {
"48 48 4 1",
"X	c white s light_piece",
" 	c black s dark_piece",
"*	c gray s light_square",
".	c green s dark_square",
"************************************************",
"************************************************",
"***********************XXXXXXX******************",
"********************XXXXXXXXXX******************",
"******************XXXXXXXXXXX*******************",
"*****************XXXXXXXXXXXXXXXX***************",
"****************XXXXXXXXXXXXXXXXXXX*************",
"***************XXXXXXXXXXXXXXXXXXXX*************",
"**************XXXXXXXXXXXXXXXXXXXXXX************",
"*************XXXXXXXXXXXXXXXXXXXX***************",
"************XXXX***XXXXXXXXXXXXXXXX*************",
"***********XXXXXX**XXXXXXXXXXXXXXXXX************",
"**********XXXXX*X*XXXXXXXXXXXXXXXXXXX***********",
"*********XXXXXXXXXXXXXXXXXXXXXXXXX**************",
"********XXXXXXXXXXXXXXXXXXXXXXXXXXXXX***********",
"*******XXXXXXXXXXXXXXXXXXXXXXXXXXXXXXX**********",
"******XXX*XXXXXXXXXXXXXXXXXXXXXXXXX*************",
"*****XXXXXXXXXXXXXXXXXXXXXXXXXXXXXXXX***********",
"*****XXXXXXXXXXXXX***XXXXXXXXXXXXXXXXX**********",
"*****XXXXXXXXXXX*****XXXXXXXXXXXXXXXXX**********",
"******XXXXX*XX*******XXXXXXXXXXXXXXX*XX*********",
"******XXXX*X********XXXXXXXXXXXXXXXX**X*********",
"******XX***********XXXXXXXXXXXXXXXXXX***********",
"******************XXXXXXXXXXXXXXXXXXX***********",
"*****************XXXXXXXXXXXXXXXXXXXXX**********",
"*****************XXXXXXXXXXXXXXXXXXXXX**********",
"****************XXXXXXX*XXXXXXXXXXXXXX**********",
"***************XXXXXX***XXXXXXXXXXX**XX*********",
"**************XXXXXX****XXXXXXXXXXXX**X*********",
"*************XXXXXX****XXXXXXXXXXXXXX***********",
"************XXXXXX*****XXXXXXXXXXXXXXX**********",
"***********XXXXXXX****XXXXXXXXXXXXXXXX**********",
"***********XXXXXX****XXXXXXXXXXXXXXXXX**********",
"***********XXXXXX***XXXXXXXXXXXXXXXXXXX*********",
"**********XXXXXXX*XXXXXXXXXXXXXXXXXX*XX*********",
"**********XXXXXXXXXXXXXXXXXXXXXXXXXX*XX*********",
"**********XXXXXXXXXXXXXXXXXXXXXXXXXXX*X*********",
"**********XXXXXXXXXXXXXXXXXXXXXXXXXXX***********",
"**********XXXXXXXXXXXXXXXXXXXXXXXXXXXX**********",
"************************************************",
"*********XXXXXXXXXXXXXXXXXXXXXXXXXXXXXX*********",
"********XXXXXXXXXXXXXXXXXXXXXXXXXXXXXXXX********",
"********XXX**XXXXXXXXXX**XXXXXXXXXX**XXX********",
"*******XXXX**XXXXXXXXXX**XXXXXXXXXX**XXXX*******",
"*******XXXXXXXXXXXXXXXXXXXXXXXXXXXXXXXXXX*******",
"*******XXXXXXXXXXXXXXXXXXXXXXXXXXXXXXXXXX*******",
"************************************************",
"************************************************",
};
