/* XPM */
/* This file was automatically generated from the file ../TRUMPET.V48
using the program ``zic2xpm''.

    NOTICE: The piece images distributed with ZIICS are
        copyrighted works of their original creators.  Images
        converted with zic2xpm may not be redistributed without
        the permission of the copyright holders.  Do not contact
        the authors of zic2xpm or of ZIICS itself to request
        permission. */
static char * image_name[] = {
"48 48 4 1",
"X	c white s light_piece",
" 	c black s dark_piece",
"*	c gray s light_square",
".	c green s dark_square",
"................................................",
"................................................",
".......................XX.......................",
"......................XXXX......................",
"......................XXXX......................",
".......................XX.......................",
"................................................",
".......................XX.......................",
".......................XX.......................",
".......................XX.......................",
"......................XXXX......................",
"......................XXXX......................",
"..........XX..........XXXX..........XX..........",
".........XXXX.........XXXX.........XXXX.........",
".........XXXX.........XXXX.........XXXX.........",
"..........XXXX........XXXX........XXXX..........",
"...........XXXX.......XXXX.......XXXX...........",
"...........XXXXX......XXXX......XXXXX...........",
"...........XXXXXX.....XXXX.....XXXXXX...........",
"...........XXXXXXX...XXXXXX...XXXXXXX...........",
"............XXXXXXX..XXXXXX..XXXXXXX............",
"............XXXXXXXX.XXXXXX.XXXXXXXX............",
"............XXXXXXXXXXXXXXXXXXXXXXXX............",
"............XXXXXXXXXXXXXXXXXXXXXXXX............",
"............XXXXXXXXXXXXXXXXXXXXXXXX............",
"............XXXXXXXXXXXXXXXXXXXXXXXX............",
"............XXXXXXXXXXX..XXXXXXXXXXX............",
"...XX.......XXXXXXXXXX.XX.XXXXXXXXXX.......XX...",
"..XXXXX......XXXXXXXX......XXXXXXXX......XXXXX..",
"..XXXXXXXX...XXXXXXX.X.XX.X.XXXXXXX...XXXXXXXX..",
"...XXXXXXXXX.XXXXXXX.X.XX.X.XXXXXXX.XXXXXXXXX...",
".....XXXXXXXXXXXXXX.X......X.XXXXXXXXXXXXXX.....",
".....XXXXXXXXXXX...XXX.XX.XXX...XXXXXXXXXXX.....",
"......XXXXXXXX..XXXXXXX..XXXXXXX..XXXXXXXX......",
".......XXXXXX.XXXXXXXXXXXXXXXXXXXX.XXXXXX.......",
".......XXXXXXXXXXXXXXXXXXXXXXXXXXXXXXXXXX.......",
"........XXXXXXXXXXXXXXXXXXXXXXXXXXXXXXXX........",
"........XXXXXXXXXXXXXXXXXXXXXXXXXXXXXXXX........",
".........XXXXXXXXXXXXXXXXXXXXXXXXXXXXXX.........",
"..........XXXXXXXXXXXXXXXXXXXXXXXXXXXX..........",
"..........XXXXXXX..............XXXXXXX..........",
"...........XXX.....XX..XX..XX.....XXX...........",
"..........X....XX..............XX....X..........",
"..........XXX.....XXXXXXXXXXXX.....XXX..........",
"..........X...XXXXXXXXXXXXXXXXXXXX...X..........",
"..........XXXXXXXXXXXXXXXXXXXXXXXXXXXX..........",
"................................................",
"................................................",
};
