/* XPM */
/* This file was automatically generated from the file ../TRUMPET.V40
using the program ``zic2xpm''.

    NOTICE: The piece images distributed with ZIICS are
        copyrighted works of their original creators.  Images
        converted with zic2xpm may not be redistributed without
        the permission of the copyright holders.  Do not contact
        the authors of zic2xpm or of ZIICS itself to request
        permission. */
static char * image_name[] = {
"40 40 4 1",
"X	c white s light_piece",
" 	c black s dark_piece",
"*	c gray s light_square",
".	c green s dark_square",
"****************************************",
"*******************XX*******************",
"******************XXXX******************",
"******************XXXX******************",
"*******************XX*******************",
"****************************************",
"*******************XX*******************",
"*******************XX*******************",
"*******************XX*******************",
"********XX********XXXX********XX********",
"*******XXXX*******XXXX*******XXXX*******",
"*******XXXX*******XXXX*******XXXX*******",
"********XXXX******XXXX******XXXX********",
"*********XXX******XXXX*****XXXX*********",
"*********XXXX****XXXXXX****XXXX*********",
"*********XXXXX***XXXXXX***XXXXX*********",
"*********XXXXXX**XXXXXX**XXXXXX*********",
"**********XXXXXX*XXXXXX*XXXXXX**********",
"**********XXXXXXXXXXXXXXXXXXXX**********",
"**********XXXXXXXXXXXXXXXXXXXX**********",
"**********XXXXXXXXXXXXXXXXXXXX**********",
"**********XXXXXXXXXXXXXXXXXXXX**********",
"**XX******XXXXXXXXX**XXXXXXXXX******XX**",
"*XXXXX*****XXXXXXX*XX*XXXXXXX*****XXXXX*",
"*XXXXXXX***XXXXXX******XXXXXX***XXXXXXX*",
"**XXXXXXXX*XXXXX*X*XX*X*XXXXX*XXXXXXXX**",
"****XXXXXXXXXXXX*X*XX*X*XXXXXXXXXXXX****",
"*****XXXXXXXXX**X******X**XXXXXXXXX*****",
"******XXXXXX**XXXX*XX*XXXX**XXXXXX******",
"******XXXXX*XXXXXXX**XXXXXXX*XXXXX******",
"*******XXXXXXXXXXXXXXXXXXXXXXXXXX*******",
"*******XXXXXXXXXXXXXXXXXXXXXXXXXX*******",
"********XXXXXXXXXXXXXXXXXXXXXXXX********",
"********XXXXXX************XXXXXX********",
"*********XX****XX**XX**XX****XX*********",
"********X***XX************XX***X********",
"********X*X****XXXXXXXXXX****X*X********",
"********X***XXXXXXXXXXXXXXXX***X********",
"********XXXXXXXXXXXXXXXXXXXXXXXX********",
"****************************************",
};
